<svg width="84" height="84" viewBox="0 0 84 84" fill="none" xmlns="http://www.w3.org/2000/svg">
<circle cx="42" cy="42" r="42" fill="#DD1B16"/>
<path d="M41.911 12.4814L14.1343 22.2568L18.5232 58.6491L41.9405 71.5196L65.4783 58.4752L69.8658 22.0838L41.911 12.4814Z" fill="#B3B3B3"/>
<path d="M67.0949 24.1866L41.8462 15.5762V68.4441L63.006 56.7334L67.0949 24.1866Z" fill="#A6120D"/>
<path d="M17.2505 24.3418L21.0127 56.8889L41.8458 68.4441V15.5752L17.2505 24.3418Z" fill="#DD1B16"/>
<path d="M48.7966 43.7198L41.8464 46.9701H34.5208L31.0769 55.5829L24.6724 55.702L41.8464 17.4951L48.7966 43.7198ZM48.1244 42.0834L41.8924 29.7454L36.7802 41.8711H41.846L48.1244 42.0834Z" fill="#F2F2F2"/>
<path d="M41.8457 17.4951L41.8916 29.7454L47.6924 41.8804H41.8584L41.8457 46.9621L49.9124 46.9701L53.6821 55.7029L59.8105 55.8164L41.8457 17.4951Z" fill="#B3B3B3"/>
</svg>
