<svg width="84" height="84" viewBox="0 0 84 84" fill="none" xmlns="http://www.w3.org/2000/svg">
<circle cx="42" cy="42" r="42" fill="#0033AD"/>
<path d="M41.3376 17.1477C42.5145 16.5339 43.9512 17.9577 43.3258 19.1335C42.9627 20.092 41.5857 20.3469 40.8823 19.6163C40.1371 18.9151 40.3801 17.5292 41.3376 17.1477ZM28.6786 18.5122C29.3935 18.2179 30.2986 18.873 30.2257 19.6522C30.3015 20.4981 29.2672 21.1207 28.5384 20.7187C27.5729 20.3447 27.6833 18.7774 28.6786 18.5122ZM54.6057 20.7424C53.4884 20.6074 53.3116 18.8508 54.3872 18.4971C55.2215 18.0902 55.987 18.8532 56.109 19.6441C55.9341 20.3194 55.3687 20.9377 54.6057 20.7424ZM31.5589 23.9001C32.7542 23.1441 34.4598 24.27 34.276 25.6583C34.2139 27.0602 32.3519 27.8724 31.3014 26.9247C30.2856 26.1803 30.4395 24.4725 31.5589 23.9001ZM49.8059 24.7023C50.3391 23.328 52.4999 23.2864 53.1069 24.6242C53.7068 25.6654 52.9689 26.9546 51.9 27.3086C50.4841 27.5729 49.1392 26.0423 49.8059 24.7023ZM39.8131 27.2306C39.8015 26.0493 40.8775 25.1691 42.0001 25.0886C42.7448 25.238 43.5564 25.5552 43.8758 26.3066C44.4712 27.3432 43.9425 28.7704 42.8668 29.2461C42.3749 29.5218 41.7933 29.4184 41.2576 29.3863C40.4387 28.9842 39.7491 28.1958 39.8131 27.2306ZM20.9873 28.9518C22.0792 28.2806 23.5523 29.5056 23.139 30.6917C22.9113 31.7177 21.5322 32.1351 20.7438 31.4801C19.9022 30.8664 20.0356 29.3908 20.9873 28.9518ZM61.4132 28.9497C62.3396 28.2304 63.8683 29.0555 63.7579 30.2251C63.82 31.2916 62.4983 32.096 61.5787 31.5468C60.5659 31.0916 60.4625 29.5334 61.4132 28.9497ZM45.1073 31.0732C46.6361 30.524 48.4518 31.1812 49.3231 32.5442C50.4725 34.2104 49.8609 36.7478 48.0773 37.7039C46.2292 38.8347 43.5305 37.8762 42.8479 35.8123C42.073 33.9647 43.2019 31.6524 45.1073 31.0732ZM36.1379 31.2549C37.8321 30.4552 40.1123 31.1261 40.9307 32.8593C41.8938 34.5462 41.1491 36.8952 39.4273 37.7663C37.7033 38.7453 35.2712 38.0031 34.4369 36.1919C33.5013 34.4404 34.3321 32.0614 36.1379 31.2549ZM27.1568 34.3254C27.2856 33.2338 28.3154 32.5234 29.3544 32.45C30.4738 32.585 31.368 33.4544 31.4898 34.5873C31.4164 35.7089 30.5497 36.8051 29.3611 36.7983C28.0535 36.9109 26.9071 35.61 27.1568 34.3254ZM53.6839 32.6873C55.0263 31.9059 56.8904 33.0434 56.8307 34.5857C56.9228 36.2197 54.8597 37.3713 53.523 36.4128C52.1343 35.6146 52.2426 33.3669 53.6839 32.6873ZM32.4877 38.4464C34.0578 38.0144 35.853 38.7545 36.6231 40.1976C37.4666 41.6502 37.1218 43.6682 35.8117 44.7336C34.1315 46.2964 31.0327 45.6689 30.1385 43.5362C29.1108 41.5811 30.3591 38.961 32.4877 38.4464ZM49.5002 38.4383C51.0265 38.0017 52.8196 38.59 53.6401 39.9805C54.725 41.5709 54.2071 43.9428 52.592 44.968C50.9002 46.1584 48.2795 45.5334 47.3486 43.672C46.22 41.7466 47.3556 39.0256 49.5002 38.4383ZM22.3894 40.2527C23.7456 39.7397 25.249 41.2363 24.6996 42.5809C24.364 43.8059 22.6376 44.2587 21.7458 43.3556C20.7022 42.5075 21.0886 40.6204 22.3894 40.2527ZM59.1501 42.204C59.1109 41.0803 59.9331 40.085 61.0854 40.0229C62.0142 40.1701 62.9174 40.9193 62.8439 41.9305C62.929 43.2659 61.3198 44.1737 60.182 43.5462C59.6487 43.2751 59.3752 42.7281 59.1501 42.204ZM15.721 40.9123C16.5369 40.5562 17.5462 41.2633 17.3599 42.1694C17.3161 43.1954 15.8014 43.5899 15.2449 42.7327C14.7533 42.1373 15.0476 41.2193 15.721 40.9123ZM67.1677 40.8918C67.7423 40.4827 68.6641 40.7768 68.8917 41.448C69.2778 42.1811 68.5698 43.1855 67.7447 43.0615C66.5864 43.1671 66.2117 41.4018 67.1677 40.8918ZM36.9195 45.8169C39.0666 45.2585 41.3745 47.0489 41.388 49.2597C41.5282 51.4937 39.255 53.4746 37.0572 52.9587C35.3584 52.6852 34.0254 51.0487 34.0805 49.332C34.0759 47.6901 35.3149 46.1641 36.9195 45.8169ZM45.4224 45.8123C47.6016 45.2032 49.9784 47.0257 49.9438 49.2875C50.0589 51.4801 47.8567 53.3945 45.7048 52.9595C43.6798 52.6976 42.1856 50.4728 42.751 48.5077C43.0364 47.1982 44.1304 46.1333 45.4224 45.8123ZM29.0282 47.1731C30.5362 46.9158 31.9499 48.5982 31.3383 50.03C30.8923 51.5557 28.6718 51.9697 27.6901 50.7233C26.5385 49.5264 27.3982 47.3383 29.0282 47.1731ZM53.9641 47.2403C55.3088 46.6771 56.9593 47.8403 56.8559 49.2996C56.9099 50.9061 54.8722 52.0139 53.5573 51.0762C52.0679 50.2344 52.339 47.7568 53.9641 47.2403ZM60.9339 54.2312C60.4074 53.2497 61.3638 51.9489 62.4535 52.1306C62.9959 52.1214 63.3753 52.5488 63.7225 52.9074C63.7938 53.489 63.9134 54.1829 63.4306 54.6311C62.7751 55.4608 61.2901 55.224 60.9339 54.2312ZM20.9827 52.4038C22.0012 51.7259 23.4667 52.737 23.2378 53.9277C23.116 54.9807 21.7895 55.5825 20.9158 54.985C19.9781 54.4426 20.0126 52.8982 20.9827 52.4038ZM41.1032 54.6081C42.4365 54.0198 44.135 55.1805 44.0087 56.649C44.1075 58.2718 42.0066 59.3955 40.7031 58.4211C39.255 57.5843 39.4964 55.1227 41.1032 54.6081ZM31.7841 56.7822C32.9197 56.1846 34.4436 57.2166 34.3402 58.4875C34.3748 59.531 33.3563 60.4204 32.3265 60.2662C31.4736 60.2479 30.9174 59.4832 30.6439 58.7561C30.6579 57.9637 30.9841 57.0811 31.7841 56.7822ZM50.661 56.8005C51.8287 56.0788 53.4884 57.1153 53.378 58.4745C53.4079 59.895 51.5322 60.8049 50.445 59.8718C49.3922 59.1403 49.5207 57.3821 50.661 56.8005ZM53.9436 64.9159C53.4241 64.13 54.0357 63.1831 54.8792 63.0038C55.5574 63.1418 56.2745 63.6518 56.132 64.438C56.0332 65.5021 54.4769 65.8285 53.9436 64.9159ZM27.8856 64.2334C28.0924 63.6105 28.5935 62.9914 29.3268 63.1534C30.3958 63.2292 30.713 64.8403 29.7775 65.3369C28.9361 65.9041 27.9601 65.1273 27.8856 64.2334ZM40.4571 64.9481C40.6617 64.0266 41.8546 63.5784 42.6408 64.0679C43.1603 64.2909 43.3121 64.8722 43.4455 65.3663C43.3742 65.6236 43.3104 65.8812 43.2478 66.1385C42.926 66.52 42.5123 66.9015 41.9766 66.8878C40.9812 67.0044 40.0831 65.879 40.4571 64.9481Z" fill="white"/>
</svg>
