<svg width="84" height="84" viewBox="0 0 84 84" fill="none" xmlns="http://www.w3.org/2000/svg">
<circle cx="42" cy="42" r="42" fill="#1C1C1C"/>
<path fill-rule="evenodd" clip-rule="evenodd" d="M41.0736 18.4743L26.7764 41.2274C26.6067 41.3666 26.4907 41.556 26.4401 41.7626L26 42.463L42 51.7222L58 42.463L42.9264 18.4743C42.8823 18.366 42.8197 18.2673 42.7426 18.1819L42 17L41.2574 18.1818C41.1803 18.2673 41.1177 18.366 41.0736 18.4743ZM41 22.3505L30.1756 39.5768L41 34.4241V22.3505ZM41 36.6391L29.4391 42.1424L41 48.8328V36.6391ZM43 48.8328V36.6622L54.368 42.2541L43 48.8328ZM43 34.4333V22.3505L53.989 39.8387L43 34.4333ZM41.8834 54.4325L26 45.2407L42 67L58 45.2407L42.1166 54.4325C42.0784 54.4281 42.0394 54.4258 42 54.4258C41.9606 54.4258 41.9216 54.4281 41.8834 54.4325ZM41 56.232L33.2791 51.7639L41 62.264V56.232ZM43 62.264L50.7209 51.7639L43 56.232V62.264Z" fill="white"/>
</svg>
