<svg width="84" height="84" viewBox="0 0 84 84" fill="none" xmlns="http://www.w3.org/2000/svg">
<circle cx="42" cy="42" r="42" fill="#83CD29"/>
<path d="M64.8614 26.2194L44.1909 14.217C42.8873 13.4745 41.19 13.4745 39.8761 14.217L18.9848 26.2194C17.6395 26.9933 16.6875 28.4478 16.6875 30.0036V53.9764C16.6875 55.5322 17.6644 56.9872 19.0097 57.7653L24.5292 60.9003C27.1673 62.1997 28.0997 62.1997 29.3002 62.1997C33.2063 62.1997 35.4375 59.8377 35.4375 55.7178V32.0506C35.4375 31.7164 35.2636 31.2191 34.9355 31.2191H32.2997C31.9659 31.2191 31.2188 31.7164 31.2188 32.0502V55.7173C31.2188 57.5436 29.5669 59.3609 26.4797 57.8173L20.7764 54.53C20.5777 54.4222 20.4375 54.2052 20.4375 53.9764V30.0036C20.4375 29.7777 20.6977 29.5508 20.8978 29.435L41.7216 17.4533C41.9161 17.3431 42.202 17.3431 42.3961 17.4533L62.9658 29.4322C63.1627 29.5508 63.0933 29.7706 63.0933 30.0036V53.9764C63.0933 54.2052 63.1791 54.4278 62.9845 54.538L42.3192 66.5267C42.142 66.6331 41.9222 66.6331 41.7281 66.5267L36.428 63.3631C36.2681 63.2703 36.0783 63.237 35.925 63.3228C34.4503 64.1586 34.1784 64.2697 32.7952 64.7492C32.4548 64.8678 31.9528 65.0736 32.9873 65.6534L39.9239 69.7569C40.5861 70.1394 41.3374 70.3408 42.1022 70.3409C42.8719 70.3409 43.6256 70.1412 44.2898 69.7569L64.8609 57.7653C66.2062 56.9816 66.8438 55.5322 66.8438 53.9764V30.0036C66.8438 28.4478 66.2063 26.997 64.8614 26.2194V26.2194ZM48.5203 50.1777C43.0238 50.1777 41.813 48.6612 41.4094 45.928C41.3625 45.6336 41.1127 45.2816 40.8131 45.2816H38.1267C37.7944 45.2816 37.5272 45.6847 37.5272 46.0156C37.5272 49.5153 39.4298 53.7556 48.5208 53.7556C55.1016 53.7556 58.8745 51.1986 58.8745 46.6733C58.8745 42.1864 55.8431 41.0089 49.4611 40.1642C43.0102 39.3116 42.3548 38.8808 42.3548 37.3695C42.3548 36.1236 42.9098 34.4619 47.6864 34.4619C51.9544 34.4619 53.5275 35.3778 54.1748 38.2545C54.2302 38.525 54.4772 38.7191 54.7561 38.7191H57.4533C57.6192 38.7191 57.7777 38.652 57.8939 38.5334C58.0064 38.4059 58.0659 38.2461 58.0509 38.0745C57.6333 33.1208 54.3422 30.8122 47.6859 30.8122C41.7652 30.8122 38.2331 33.3125 38.2331 37.5036C38.2331 42.0495 41.7473 43.3058 47.4309 43.8678C54.2302 44.5344 54.7589 45.5281 54.7589 46.8655C54.7589 49.1881 52.8942 50.1777 48.5203 50.1777Z" fill="white"/>
</svg>
