<svg width="50" height="50" viewBox="0 0 50 50" fill="none" xmlns="http://www.w3.org/2000/svg">
<path d="M42.9688 5.46875H7.03125C6.16699 5.46875 5.46875 6.16699 5.46875 7.03125V42.9688C5.46875 43.833 6.16699 44.5312 7.03125 44.5312H42.9688C43.833 44.5312 44.5312 43.833 44.5312 42.9688V7.03125C44.5312 6.16699 43.833 5.46875 42.9688 5.46875ZM41.0156 41.0156H8.98438V8.98438H41.0156V41.0156Z" fill="#3B82F6"/>
<path d="M30.0785 21.4844C30.0785 21.9506 30.2637 22.3977 30.5933 22.7273C30.923 23.057 31.3701 23.2422 31.8363 23.2422C32.3025 23.2422 32.7496 23.057 33.0793 22.7273C33.4089 22.3977 33.5941 21.9506 33.5941 21.4844C33.5941 21.0182 33.4089 20.5711 33.0793 20.2414C32.7496 19.9118 32.3025 19.7266 31.8363 19.7266C31.3701 19.7266 30.923 19.9118 30.5933 20.2414C30.2637 20.5711 30.0785 21.0182 30.0785 21.4844ZM16.6215 29.3701L16.6947 29.4873C16.6947 29.4922 16.6996 29.4922 16.6996 29.4971L16.7435 29.5557C16.7484 29.5605 16.7533 29.5654 16.7533 29.5703C16.8021 29.6338 16.851 29.6924 16.9095 29.7461L16.9193 29.7559C16.9388 29.7754 16.9584 29.7949 16.9779 29.8096C17.017 29.8486 17.0609 29.8828 17.1049 29.9121H17.1097L17.1683 29.9561C17.1732 29.9609 17.183 29.9658 17.1879 29.9707C17.2465 30.0098 17.3099 30.0488 17.3783 30.0781C17.3881 30.083 17.4027 30.0879 17.4125 30.0977C17.432 30.1074 17.4467 30.1123 17.4662 30.1221C17.4808 30.127 17.5004 30.1367 17.515 30.1416C17.5394 30.1514 17.5638 30.1611 17.5883 30.166C17.6078 30.1709 17.6322 30.1807 17.6517 30.1855L17.6957 30.2002L17.764 30.2148C17.7738 30.2197 17.7885 30.2197 17.7982 30.2246C17.8324 30.2295 17.8666 30.2393 17.9008 30.2441C17.9105 30.2441 17.9203 30.2441 17.9301 30.249C17.9594 30.2539 17.9838 30.2539 18.0131 30.2588C18.0228 30.2588 18.0326 30.2588 18.0472 30.2637C18.0863 30.2637 18.1205 30.2686 18.1595 30.2686C18.1986 30.2686 18.2328 30.2686 18.2719 30.2637C18.2816 30.2637 18.2914 30.2637 18.306 30.2588C18.3353 30.2588 18.3646 30.2539 18.389 30.249C18.3988 30.249 18.4086 30.249 18.4183 30.2441C18.4525 30.2393 18.4867 30.2344 18.5209 30.2246C18.5306 30.2197 18.5453 30.2197 18.5551 30.2148L18.6234 30.2002L18.6674 30.1855C18.6869 30.1807 18.7113 30.1709 18.7308 30.166C18.7553 30.1563 18.7797 30.1465 18.8041 30.1416C18.8187 30.1367 18.8383 30.127 18.8529 30.1221C18.8724 30.1123 18.8871 30.1074 18.9066 30.0977C18.9164 30.0928 18.931 30.0879 18.9408 30.0781C19.0043 30.0439 19.0677 30.0098 19.1312 29.9707C19.1361 29.9658 19.1459 29.9609 19.1508 29.9561L19.2094 29.9121H19.2142C19.2582 29.8779 19.3021 29.8438 19.3412 29.8096C19.3607 29.79 19.3802 29.7754 19.3998 29.7559L19.4095 29.7461C19.4633 29.6924 19.517 29.6289 19.5658 29.5703C19.5707 29.5654 19.5756 29.5605 19.5756 29.5557L19.6195 29.4971C19.6195 29.4922 19.6244 29.4922 19.6244 29.4873L19.6976 29.3701C19.7025 29.3604 19.7074 29.3555 19.7123 29.3457C19.8441 29.0967 19.9222 28.8135 19.9222 28.5156C19.9222 28.2178 19.8441 27.9297 19.7123 27.6855C19.7074 27.6758 19.7025 27.666 19.6976 27.6611L19.6244 27.5439C19.6244 27.5391 19.6195 27.5391 19.6195 27.5342L19.5756 27.4756C19.5707 27.4707 19.5658 27.4658 19.5658 27.4609C19.517 27.3975 19.4681 27.3389 19.4095 27.2852L19.3998 27.2754C19.3802 27.2559 19.3607 27.2363 19.3412 27.2217C19.3021 27.1826 19.2582 27.1484 19.2142 27.1191H19.2094L19.1508 27.0752C19.1459 27.0703 19.1361 27.0654 19.1312 27.0605C19.0726 27.0215 19.0092 26.9824 18.9408 26.9531C18.931 26.9482 18.9164 26.9434 18.9066 26.9336C18.8871 26.9238 18.8724 26.9189 18.8529 26.9092C18.8383 26.9043 18.8187 26.8945 18.8041 26.8896C18.7797 26.8799 18.7553 26.8701 18.7308 26.8652C18.7113 26.8604 18.6869 26.8506 18.6674 26.8457L18.6234 26.8311L18.5551 26.8164C18.5453 26.8115 18.5306 26.8115 18.5209 26.8066C18.4867 26.8018 18.4525 26.792 18.4183 26.7871C18.4086 26.7871 18.3988 26.7871 18.389 26.7822C18.3597 26.7773 18.3353 26.7773 18.306 26.7725C18.2963 26.7725 18.2865 26.7725 18.2719 26.7676C18.2328 26.7676 18.1986 26.7627 18.1595 26.7627C18.1205 26.7627 18.0863 26.7627 18.0472 26.7676C18.0375 26.7676 18.0277 26.7676 18.0131 26.7725C17.9838 26.7725 17.9545 26.7773 17.9301 26.7822C17.9203 26.7822 17.9105 26.7822 17.9008 26.7871C17.8666 26.792 17.8324 26.7969 17.7982 26.8066C17.7885 26.8115 17.7738 26.8115 17.764 26.8164L17.6957 26.8311L17.6517 26.8457C17.6322 26.8506 17.6078 26.8604 17.5883 26.8652C17.5638 26.875 17.5394 26.8848 17.515 26.8896C17.5004 26.8945 17.4808 26.9043 17.4662 26.9092C17.4467 26.9189 17.432 26.9238 17.4125 26.9336C17.4027 26.9385 17.3881 26.9434 17.3783 26.9531C17.3148 26.9873 17.2513 27.0215 17.1879 27.0605C17.183 27.0654 17.1732 27.0703 17.1683 27.0752L17.1097 27.1191H17.1049C17.0609 27.1533 17.017 27.1875 16.9779 27.2217C16.9584 27.2412 16.9388 27.2559 16.9193 27.2754L16.9095 27.2852C16.8549 27.3414 16.8028 27.4001 16.7533 27.4609C16.7484 27.4658 16.7435 27.4707 16.7435 27.4756L16.6996 27.5342C16.6996 27.5391 16.6947 27.5391 16.6947 27.5439L16.6215 27.6611C16.6166 27.6709 16.6117 27.6758 16.6068 27.6855C16.475 27.9346 16.3969 28.2178 16.3969 28.5156C16.3969 28.8135 16.475 29.1016 16.6068 29.3457C16.6117 29.3555 16.6166 29.3604 16.6215 29.3701Z" fill="white"/>
<path d="M8.98438 41.0156H41.0156V8.98438H8.98438V41.0156ZM30.293 16.6455C30.2832 16.6455 30.2783 16.6504 30.2734 16.6504V12.8906C30.2734 12.6758 30.4492 12.5 30.6641 12.5H33.0078C33.2227 12.5 33.3984 12.6758 33.3984 12.8906V16.6504C33.3887 16.6504 33.3838 16.6455 33.3789 16.6455C35.4297 17.2998 36.9141 19.2187 36.9141 21.4844C36.9141 23.75 35.4297 25.6689 33.3789 26.3232C33.3887 26.3232 33.3936 26.3184 33.3984 26.3184V37.1094C33.3984 37.3242 33.2227 37.5 33.0078 37.5H30.6641C30.4492 37.5 30.2734 37.3242 30.2734 37.1094V26.3184C30.2832 26.3184 30.2881 26.3232 30.293 26.3232C28.2422 25.6689 26.7578 23.75 26.7578 21.4844C26.7578 19.2187 28.2422 17.2998 30.293 16.6455ZM16.6016 23.6816V12.8906C16.6016 12.6758 16.7773 12.5 16.9922 12.5H19.3359C19.5508 12.5 19.7266 12.6758 19.7266 12.8906V23.6816C21.7627 24.3457 23.2422 26.2598 23.2422 28.5156C23.2422 30.7715 21.7627 32.6904 19.7266 33.3496V37.1094C19.7266 37.3242 19.5508 37.5 19.3359 37.5H16.9922C16.7773 37.5 16.6016 37.3242 16.6016 37.1094V33.3496C14.5654 32.6855 13.0859 30.7715 13.0859 28.5156C13.0859 26.2598 14.5654 24.3408 16.6016 23.6816Z" fill="white"/>
<path d="M16.6016 33.3496V37.1094C16.6016 37.3242 16.7773 37.5 16.9922 37.5H19.3359C19.5508 37.5 19.7266 37.3242 19.7266 37.1094V33.3496C21.7627 32.6904 23.2422 30.7715 23.2422 28.5156C23.2422 26.2598 21.7627 24.3457 19.7266 23.6816V12.8906C19.7266 12.6758 19.5508 12.5 19.3359 12.5H16.9922C16.7773 12.5 16.6016 12.6758 16.6016 12.8906V23.6816C14.5654 24.3408 13.0859 26.2598 13.0859 28.5156C13.0859 30.7715 14.5654 32.6855 16.6016 33.3496ZM16.6064 27.6855C16.6113 27.6758 16.6162 27.6709 16.6211 27.6611L16.6943 27.5439C16.6943 27.5391 16.6992 27.5391 16.6992 27.5342L16.7432 27.4756C16.7432 27.4707 16.748 27.4658 16.7529 27.4609C16.8018 27.4023 16.8555 27.3389 16.9092 27.2852L16.9189 27.2754C16.9385 27.2559 16.958 27.2412 16.9775 27.2217C17.0166 27.1875 17.0605 27.1533 17.1045 27.1191H17.1094L17.168 27.0752C17.1729 27.0703 17.1826 27.0654 17.1875 27.0605C17.251 27.0215 17.3145 26.9873 17.3779 26.9531C17.3877 26.9434 17.4023 26.9385 17.4121 26.9336C17.4316 26.9238 17.4463 26.9189 17.4658 26.9092C17.4805 26.9043 17.5 26.8945 17.5146 26.8896C17.5391 26.8848 17.5635 26.875 17.5879 26.8652C17.6074 26.8604 17.6318 26.8506 17.6514 26.8457L17.6953 26.8311L17.7637 26.8164C17.7734 26.8115 17.7881 26.8115 17.7979 26.8066C17.832 26.7969 17.8662 26.792 17.9004 26.7871C17.9102 26.7822 17.9199 26.7822 17.9297 26.7822C17.9541 26.7773 17.9834 26.7725 18.0127 26.7725C18.0273 26.7676 18.0371 26.7676 18.0469 26.7676C18.0859 26.7627 18.1201 26.7627 18.1592 26.7627C18.1982 26.7627 18.2324 26.7676 18.2715 26.7676C18.2861 26.7725 18.2959 26.7725 18.3057 26.7725C18.335 26.7773 18.3594 26.7773 18.3887 26.7822C18.3984 26.7871 18.4082 26.7871 18.418 26.7871C18.4521 26.792 18.4863 26.8018 18.5205 26.8066C18.5303 26.8115 18.5449 26.8115 18.5547 26.8164L18.623 26.8311L18.667 26.8457C18.6865 26.8506 18.7109 26.8604 18.7305 26.8652C18.7549 26.8701 18.7793 26.8799 18.8037 26.8896C18.8184 26.8945 18.8379 26.9043 18.8525 26.9092C18.8721 26.9189 18.8867 26.9238 18.9063 26.9336C18.916 26.9434 18.9307 26.9482 18.9404 26.9531C19.0088 26.9824 19.0723 27.0215 19.1309 27.0605C19.1357 27.0654 19.1455 27.0703 19.1504 27.0752L19.209 27.1191H19.2139C19.2578 27.1484 19.3018 27.1826 19.3408 27.2217C19.3604 27.2363 19.3799 27.2559 19.3994 27.2754L19.4092 27.2852C19.4678 27.3389 19.5166 27.3975 19.5654 27.4609C19.5654 27.4658 19.5703 27.4707 19.5752 27.4756L19.6191 27.5342C19.6191 27.5391 19.624 27.5391 19.624 27.5439L19.6973 27.6611C19.8436 27.9222 19.9209 28.2163 19.9219 28.5156C19.9219 28.8135 19.8438 29.0967 19.7119 29.3457C19.707 29.3555 19.7021 29.3604 19.6973 29.3701L19.624 29.4873C19.624 29.4922 19.6191 29.4922 19.6191 29.4971L19.5752 29.5557C19.5752 29.5605 19.5703 29.5654 19.5654 29.5703C19.5166 29.6289 19.4629 29.6924 19.4092 29.7461L19.3994 29.7559C19.3799 29.7754 19.3604 29.79 19.3408 29.8096C19.3018 29.8437 19.2578 29.8779 19.2139 29.9121H19.209L19.1504 29.9561C19.1455 29.9609 19.1357 29.9658 19.1309 29.9707C19.0674 30.0098 19.0039 30.0439 18.9404 30.0781C18.9307 30.0879 18.916 30.0928 18.9063 30.0977C18.8867 30.1074 18.8721 30.1123 18.8525 30.1221C18.8379 30.127 18.8184 30.1367 18.8037 30.1416C18.7793 30.1465 18.7549 30.1562 18.7305 30.166C18.7109 30.1709 18.6865 30.1807 18.667 30.1855L18.623 30.2002L18.5547 30.2148C18.5449 30.2197 18.5303 30.2197 18.5205 30.2246C18.4863 30.2344 18.4521 30.2393 18.418 30.2441C18.4082 30.249 18.3984 30.249 18.3887 30.249C18.3643 30.2539 18.335 30.2588 18.3057 30.2588C18.291 30.2637 18.2813 30.2637 18.2715 30.2637C18.2324 30.2686 18.1982 30.2686 18.1592 30.2686C18.1201 30.2686 18.0859 30.2637 18.0469 30.2637C18.0322 30.2588 18.0225 30.2588 18.0127 30.2588C17.9834 30.2539 17.959 30.2539 17.9297 30.249C17.9199 30.2441 17.9102 30.2441 17.9004 30.2441C17.8662 30.2393 17.832 30.2295 17.7979 30.2246C17.7881 30.2197 17.7734 30.2197 17.7637 30.2148L17.6953 30.2002L17.6514 30.1855C17.6318 30.1807 17.6074 30.1709 17.5879 30.166C17.5635 30.1611 17.5391 30.1514 17.5146 30.1416C17.5 30.1367 17.4805 30.127 17.4658 30.1221C17.4463 30.1123 17.4316 30.1074 17.4121 30.0977C17.4023 30.0879 17.3877 30.083 17.3779 30.0781C17.3096 30.0488 17.2461 30.0098 17.1875 29.9707C17.1826 29.9658 17.1729 29.9609 17.168 29.9561L17.1094 29.9121H17.1045C17.0605 29.8828 17.0166 29.8486 16.9775 29.8096C16.958 29.7949 16.9385 29.7754 16.9189 29.7559L16.9092 29.7461C16.8506 29.6924 16.8018 29.6338 16.7529 29.5703C16.7529 29.5654 16.748 29.5605 16.7432 29.5557L16.6992 29.4971C16.6992 29.4922 16.6943 29.4922 16.6943 29.4873L16.6211 29.3701C16.6162 29.3604 16.6113 29.3555 16.6064 29.3457C16.4746 29.1016 16.3965 28.8135 16.3965 28.5156C16.3965 28.2178 16.4746 27.9346 16.6064 27.6855V27.6855ZM30.293 26.3232C30.2881 26.3232 30.2832 26.3184 30.2734 26.3184V37.1094C30.2734 37.3242 30.4492 37.5 30.6641 37.5H33.0078C33.2227 37.5 33.3984 37.3242 33.3984 37.1094V26.3184C33.3936 26.3184 33.3887 26.3232 33.3789 26.3232C35.4297 25.6689 36.9141 23.75 36.9141 21.4844C36.9141 19.2187 35.4297 17.2998 33.3789 16.6455C33.3838 16.6455 33.3887 16.6504 33.3984 16.6504V12.8906C33.3984 12.6758 33.2227 12.5 33.0078 12.5H30.6641C30.4492 12.5 30.2734 12.6758 30.2734 12.8906V16.6504C30.2783 16.6504 30.2832 16.6455 30.293 16.6455C28.2422 17.2998 26.7578 19.2187 26.7578 21.4844C26.7578 23.75 28.2422 25.6689 30.293 26.3232ZM31.8359 19.7266C32.8076 19.7266 33.5938 20.5127 33.5938 21.4844C33.5938 22.4561 32.8076 23.2422 31.8359 23.2422C30.8643 23.2422 30.0781 22.4561 30.0781 21.4844C30.0781 20.5127 30.8643 19.7266 31.8359 19.7266Z" fill="#3B82F6"/>
</svg>
