<svg width="120" height="120" viewBox="0 0 120 120" fill="none" xmlns="http://www.w3.org/2000/svg">
<rect width="120" height="120" rx="60" fill="#9A4ECC" fill-opacity="0.1"/>
<g clip-path="url(#clip0_3297_18584)">
<path d="M35 50.6247C35.0008 54.241 36.2554 57.7451 38.55 60.5401C40.8447 63.3351 44.0375 65.2479 47.5844 65.9528C47.7864 63.7139 48.361 61.5244 49.2844 59.4747C46.5469 58.5497 44.7875 56.4497 44.375 53.4685H42.8125V52.1372H44.2688V50.781C44.2688 50.6372 44.2688 50.4903 44.2812 50.3591H42.8125V49.0247H44.4094C45.1125 45.1247 48.1656 42.8122 52.7531 42.8122C53.7406 42.8122 54.5969 42.9091 55.3125 43.0778V45.3685C54.4767 45.1825 53.6217 45.0965 52.7656 45.1122C49.8938 45.1122 47.9594 46.5685 47.3469 49.0247H53.3375V50.3591H47.15C47.1406 50.5028 47.1406 50.6622 47.1406 50.8185V52.1372H53.3375V53.4716H47.2812C47.65 55.3528 48.7437 56.6903 50.4219 57.3122C52.0673 54.5871 54.3302 52.2868 57.028 50.597C59.7259 48.9072 62.7831 47.8752 65.9531 47.5841C65.1867 43.7888 63.039 40.413 59.926 38.1107C56.813 35.8083 52.9563 34.7433 49.103 35.1218C45.2497 35.5003 41.6739 37.2955 39.0685 40.1596C36.463 43.0237 35.0132 46.7528 35 50.6247V50.6247ZM85 67.8122C85 72.3706 83.1892 76.7423 79.9659 79.9656C76.7426 83.1889 72.3709 84.9997 67.8125 84.9997C63.2541 84.9997 58.8824 83.1889 55.6591 79.9656C52.4358 76.7423 50.625 72.3706 50.625 67.8122C50.625 63.2538 52.4358 58.8821 55.6591 55.6588C58.8824 52.4355 63.2541 50.6247 67.8125 50.6247C72.3709 50.6247 76.7426 52.4355 79.9659 55.6588C83.1892 58.8821 85 63.2538 85 67.8122ZM60.7812 71.9435C60.9969 74.5528 63.1125 76.5841 66.9187 76.8247V78.7497H68.6063V76.8122C72.5406 76.5435 74.8438 74.4997 74.8438 71.531C74.8438 68.8278 73.0844 67.4372 69.9375 66.7185L68.6063 66.406V61.1685C70.2938 61.356 71.3688 62.2528 71.625 63.4966H74.5875C74.3688 60.9841 72.1531 59.0185 68.6063 58.8028V56.8747H66.9187V58.8403C63.5562 59.1622 61.2688 61.1278 61.2688 63.9091C61.2688 66.3685 62.9688 67.9341 65.8 68.5747L66.9187 68.8403V74.4028C65.1875 74.1528 64.0438 73.2278 63.7844 71.9435H60.7812ZM66.9062 66.0216C65.2437 65.6466 64.3438 64.8841 64.3438 63.7341C64.3438 62.4528 65.3156 61.4872 66.9187 61.206V66.0185H66.9031L66.9062 66.0216ZM68.85 69.2841C70.8656 69.7372 71.7969 70.4716 71.7969 71.7716C71.7969 73.2528 70.6406 74.2716 68.6094 74.4591V69.2278L68.85 69.2841Z" fill="#3B82F6"/>
</g>
<defs>
<clipPath id="clip0_3297_18584">
<rect width="50" height="50" fill="white" transform="translate(35 35)"/>
</clipPath>
</defs>
</svg>
