<svg width="120" height="120" viewBox="0 0 120 120" fill="none" xmlns="http://www.w3.org/2000/svg">
<rect width="120" height="120" rx="60" fill="#2390FB" fill-opacity="0.1"/>
<g clip-path="url(#clip0_3297_18600)">
<path d="M46.1911 44.3972C49.9968 41.0209 54.91 39.16 59.9974 39.168C71.5036 39.168 80.8307 48.4951 80.8307 60.0013C80.8375 64.2595 79.5333 68.4165 77.0953 71.9076L71.4557 60.0013H76.6641C76.6641 56.6875 75.6763 53.4489 73.8268 50.6991C71.9773 47.9494 69.3501 45.8135 66.2808 44.5642C63.2115 43.3148 59.8394 43.0088 56.5953 43.6853C53.3513 44.3617 50.3825 45.9899 48.0682 48.3617L46.1932 44.3992L46.1911 44.3972ZM73.8036 75.6055C69.998 78.9818 65.0848 80.8427 59.9974 80.8347C48.4911 80.8347 39.1641 71.5076 39.1641 60.0013C39.1641 55.5742 40.5453 51.4701 42.8995 48.0951L48.5391 60.0013H43.3307C43.3307 63.3152 44.3185 66.5538 46.168 69.3035C48.0175 72.0532 50.6447 74.1892 53.714 75.4385C56.7833 76.6878 60.1554 76.9938 63.3995 76.3174C66.6435 75.6409 69.6123 74.0128 71.9266 71.6409L73.8016 75.6034L73.8036 75.6055ZM62.0807 63.1992H68.3307V67.3659H62.0807V71.5326H57.9141V67.3659H51.6641V63.1992H57.9141V61.1159H51.6641V56.9492H57.0516L52.6307 52.5305L55.5807 49.5847L59.9974 54.0034L64.4161 49.5847L67.3641 52.5305L62.9432 56.9513H68.3307V61.118H62.0807V63.2013V63.1992Z" fill="#3B82F6"/>
</g>
<defs>
<clipPath id="clip0_3297_18600">
<rect width="50" height="50" fill="white" transform="translate(35 35)"/>
</clipPath>
</defs>
</svg>
