<svg width="50" height="50" viewBox="0 0 50 50" fill="none" xmlns="http://www.w3.org/2000/svg">
<path fill-rule="evenodd" clip-rule="evenodd" d="M25 18.5191C28.4519 18.5191 31.25 21.3173 31.25 24.7692C31.25 27.4904 29.5108 29.8054 27.0833 30.6635V41.4358H22.9167V30.6635C20.4892 29.8054 18.75 27.4904 18.75 24.7692C18.75 21.3173 21.5481 18.5191 25 18.5191ZM25 22.6858C26.1506 22.6858 27.0833 23.6185 27.0833 24.7692C27.0833 25.9196 26.1506 26.8525 25 26.8525C23.8494 26.8525 22.9167 25.9196 22.9167 24.7692C22.9167 23.6185 23.8494 22.6858 25 22.6858Z" fill="#3B82F6"/>
<path d="M14.6879 14.457C12.0489 17.0961 10.4167 20.7419 10.4167 24.769C10.4167 29.3054 12.4881 33.3581 15.7366 36.0327L18.7024 33.0669C16.1994 31.1644 14.5834 28.1554 14.5834 24.769C14.5834 21.8925 15.7492 19.2884 17.6342 17.4033L14.6879 14.457Z" fill="#3B82F6"/>
<path d="M32.3656 17.4031C34.2506 19.2882 35.4167 21.8923 35.4167 24.769C35.4167 28.1554 33.8006 31.1646 31.2975 33.0671L34.2631 36.0329C37.5119 33.3583 39.5833 29.3054 39.5833 24.769C39.5833 20.7418 37.951 17.0959 35.3119 14.4568L32.3656 17.4031Z" fill="#3B82F6"/>
<path d="M2.08331 24.769C2.08331 18.4407 4.64829 12.7116 8.79531 8.56448L11.7416 11.5108C8.34858 14.9038 6.24998 19.5913 6.24998 24.769C6.24998 29.9465 8.34858 34.634 11.7416 38.0269L8.79529 40.9733C4.64829 36.8263 2.08331 31.0971 2.08331 24.769Z" fill="#3B82F6"/>
<path d="M41.2044 40.9735C45.3517 36.8265 47.9167 31.0971 47.9167 24.769C47.9167 18.4406 45.3517 12.7114 41.2044 8.56425L38.2581 11.5105C41.6512 14.9036 43.75 19.5912 43.75 24.769C43.75 29.9467 41.6512 34.6342 38.2581 38.0273L41.2044 40.9735Z" fill="#3B82F6"/>
</svg>
