<svg width="38" height="44" viewBox="0 0 38 44" fill="none" xmlns="http://www.w3.org/2000/svg">
<path d="M27.5938 9.89062C27.5938 9.67578 27.418 9.5 27.2031 9.5H8.45313C8.23828 9.5 8.0625 9.67578 8.0625 9.89062V12.2344C8.0625 12.4492 8.23828 12.625 8.45313 12.625H27.2031C27.418 12.625 27.5938 12.4492 27.5938 12.2344V9.89062ZM27.2031 16.5312H8.45313C8.23828 16.5312 8.0625 16.707 8.0625 16.9219V19.2656C8.0625 19.4805 8.23828 19.6562 8.45313 19.6562H27.2031C27.418 19.6562 27.5938 19.4805 27.5938 19.2656V16.9219C27.5938 16.707 27.418 16.5312 27.2031 16.5312ZM17.4375 23.5625H8.45313C8.23828 23.5625 8.0625 23.7383 8.0625 23.9531V26.2969C8.0625 26.5117 8.23828 26.6875 8.45313 26.6875H17.4375C17.6523 26.6875 17.8281 26.5117 17.8281 26.2969V23.9531C17.8281 23.7383 17.6523 23.5625 17.4375 23.5625ZM15.0938 38.6016H4.15625V4.22656H31.5V21.0234C31.5 21.2383 31.6758 21.4141 31.8906 21.4141H34.625C34.8398 21.4141 35.0156 21.2383 35.0156 21.0234V2.27344C35.0156 1.40918 34.3174 0.710938 33.4531 0.710938H2.20313C1.33887 0.710938 0.640625 1.40918 0.640625 2.27344V40.5547C0.640625 41.4189 1.33887 42.1172 2.20313 42.1172H15.0938C15.3086 42.1172 15.4844 41.9414 15.4844 41.7266V38.9922C15.4844 38.7773 15.3086 38.6016 15.0938 38.6016ZM32.5156 34.9687C33.9316 33.6846 34.8203 31.8291 34.8203 29.7637C34.8203 25.8818 31.6709 22.7324 27.7891 22.7324C23.9072 22.7324 20.7578 25.8818 20.7578 29.7637C20.7578 31.8291 21.6465 33.6846 23.0625 34.9687C20.2793 36.5557 18.3652 39.4951 18.2188 42.8838C18.209 43.1035 18.3896 43.2891 18.6094 43.2891H20.958C21.1631 43.2891 21.334 43.1279 21.3486 42.918C21.5391 39.5391 24.3564 36.8438 27.7891 36.8438C31.2217 36.8438 34.0391 39.5391 34.2295 42.918C34.2393 43.123 34.4102 43.2891 34.6201 43.2891H36.9688C37.1934 43.2891 37.3691 43.1035 37.3594 42.8838C37.2178 39.4902 35.2988 36.5557 32.5156 34.9687ZM27.7891 25.8574C29.9473 25.8574 31.6953 27.6055 31.6953 29.7637C31.6953 31.9219 29.9473 33.6699 27.7891 33.6699C25.6309 33.6699 23.8828 31.9219 23.8828 29.7637C23.8828 27.6055 25.6309 25.8574 27.7891 25.8574Z" fill="#3B82F6"/>
</svg>
