<svg width="50" height="50" viewBox="0 0 50 50" fill="none" xmlns="http://www.w3.org/2000/svg">
<path d="M16.6665 35.4163H20.8332V33.333H22.9165C24.0623 33.333 24.9998 32.3955 24.9998 31.2497V24.9997C24.9998 23.8538 24.0623 22.9163 22.9165 22.9163H16.6665V20.833H24.9998V16.6663H20.8332V14.583H16.6665V16.6663H14.5832C13.4373 16.6663 12.4998 17.6038 12.4998 18.7497V24.9997C12.4998 26.1455 13.4373 27.083 14.5832 27.083H20.8332V29.1663H12.4998V33.333H16.6665V35.4163ZM41.6665 8.33301H8.33317C6.02067 8.33301 4.18734 10.1872 4.18734 12.4997L4.1665 37.4997C4.1665 39.8122 6.02067 41.6663 8.33317 41.6663H41.6665C43.979 41.6663 45.8332 39.8122 45.8332 37.4997V12.4997C45.8332 10.1872 43.979 8.33301 41.6665 8.33301ZM41.6665 37.4997H8.33317V12.4997H41.6665V37.4997ZM29.1665 20.833L33.3332 16.6663L37.4998 20.833M37.4998 29.6872L33.3332 33.8538L29.1665 29.6872" fill="url(#paint0_linear_2290_4186)"/>
<defs>
<linearGradient id="paint0_linear_2290_4186" x1="24.9998" y1="8.33301" x2="24.9998" y2="41.6663" gradientUnits="userSpaceOnUse">
<stop stop-color="#3B81F6"/>
<stop offset="1" stop-color="#A655F7"/>
</linearGradient>
</defs>
</svg>
