<svg width="50" height="50" viewBox="0 0 50 50" fill="none" xmlns="http://www.w3.org/2000/svg">
<g clip-path="url(#clip0_1_3162)">
<path d="M25 12.5C25.4144 12.5 25.8118 12.6646 26.1049 12.9576C26.3979 13.2507 26.5625 13.6481 26.5625 14.0625V18.75C26.5625 19.1644 26.3979 19.5618 26.1049 19.8549C25.8118 20.1479 25.4144 20.3125 25 20.3125C24.5856 20.3125 24.1882 20.1479 23.8951 19.8549C23.6021 19.5618 23.4375 19.1644 23.4375 18.75V14.0625C23.4375 13.6481 23.6021 13.2507 23.8951 12.9576C24.1882 12.6646 24.5856 12.5 25 12.5V12.5ZM11.6625 17.9125C11.9555 17.6196 12.3529 17.455 12.7672 17.455C13.1815 17.455 13.5789 17.6196 13.8719 17.9125L16.7313 20.7688C16.8765 20.914 16.9918 21.0865 17.0704 21.2763C17.149 21.4661 17.1895 21.6696 17.1895 21.875C17.1895 22.0805 17.149 22.2839 17.0704 22.4737C16.9918 22.6635 16.8765 22.836 16.7313 22.9813C16.586 23.1265 16.4135 23.2418 16.2237 23.3204C16.0339 23.399 15.8304 23.4395 15.625 23.4395C15.4196 23.4395 15.2161 23.399 15.0263 23.3204C14.8365 23.2418 14.664 23.1265 14.5187 22.9813L11.6625 20.1219C11.3696 19.8289 11.205 19.4315 11.205 19.0172C11.205 18.6029 11.3696 18.2055 11.6625 17.9125V17.9125ZM6.25 31.25C6.25 30.8356 6.41462 30.4382 6.70765 30.1451C7.00067 29.8521 7.3981 29.6875 7.8125 29.6875H12.7687C13.1832 29.6875 13.5806 29.8521 13.8736 30.1451C14.1666 30.4382 14.3312 30.8356 14.3312 31.25C14.3312 31.6644 14.1666 32.0618 13.8736 32.3549C13.5806 32.6479 13.1832 32.8125 12.7687 32.8125H7.8125C7.3981 32.8125 7.00067 32.6479 6.70765 32.3549C6.41462 32.0618 6.25 31.6644 6.25 31.25ZM35.9375 31.25C35.9375 30.8356 36.1021 30.4382 36.3951 30.1451C36.6882 29.8521 37.0856 29.6875 37.5 29.6875H42.1875C42.6019 29.6875 42.9993 29.8521 43.2924 30.1451C43.5854 30.4382 43.75 30.8356 43.75 31.25C43.75 31.6644 43.5854 32.0618 43.2924 32.3549C42.9993 32.6479 42.6019 32.8125 42.1875 32.8125H37.5C37.0856 32.8125 36.6882 32.6479 36.3951 32.3549C36.1021 32.0618 35.9375 31.6644 35.9375 31.25ZM38.2937 17.9813C38.0773 17.7659 37.7877 17.6399 37.4825 17.6283C37.1774 17.6167 36.8791 17.7204 36.6469 17.9188L23.5844 29.0938C23.28 29.3502 23.0329 29.6676 22.859 30.0256C22.685 30.3835 22.5881 30.774 22.5746 31.1717C22.5611 31.5695 22.6312 31.9656 22.7803 32.3346C22.9295 32.7035 23.1545 33.0371 23.4407 33.3136C23.7269 33.5901 24.068 33.8035 24.4418 33.9399C24.8157 34.0764 25.214 34.1328 25.6111 34.1056C26.0081 34.0784 26.395 33.9682 26.7468 33.782C27.0985 33.5959 27.4073 33.338 27.6531 33.025L38.3844 19.5969C38.5711 19.3632 38.6651 19.0688 38.6483 18.7702C38.6316 18.4715 38.5054 18.1895 38.2937 17.9781V17.9813Z" fill="#3B82F6"/>
<path fill-rule="evenodd" clip-rule="evenodd" d="M1.32818e-06 31.2499C0.00326811 27.6118 0.800542 24.0182 2.33616 20.72C3.87179 17.4219 6.10875 14.4986 8.89089 12.1544C11.673 9.81009 14.9333 8.10128 18.4441 7.14724C21.9549 6.1932 25.6316 6.01691 29.2176 6.63068C32.8036 7.24445 36.2124 8.63349 39.2061 10.7008C42.1997 12.7682 44.7061 15.464 46.5503 18.6001C48.3944 21.7362 49.5318 25.237 49.8832 28.8581C50.2345 32.4792 49.7912 36.1334 48.5844 39.5655C47.2031 43.4811 42.8188 44.5718 39.4219 43.4718C35.3406 42.1499 29.6094 40.6249 25 40.6249C20.3938 40.6249 14.6563 42.1499 10.5781 43.4718C7.18125 44.5718 2.79688 43.4811 1.41563 39.5655C0.475445 36.894 -0.00326345 34.082 1.32818e-06 31.2499V31.2499ZM25 9.37489C21.5012 9.37399 18.0532 10.2124 14.9453 11.8197C11.8375 13.427 9.16063 15.7563 7.13927 18.6122C5.11791 21.4681 3.81108 24.7671 3.32846 28.2325C2.84584 31.6979 3.20151 35.2285 4.36563 38.528C5 40.3249 7.25 41.2655 9.61563 40.4968C13.7406 39.1655 19.8688 37.4999 25 37.4999C30.1313 37.4999 36.2625 39.1624 40.3844 40.4999C42.75 41.2655 45 40.3249 45.6344 38.528C46.7985 35.2285 47.1542 31.6979 46.6715 28.2325C46.1889 24.7671 44.8821 21.4681 42.8607 18.6122C40.8394 15.7563 38.1625 13.427 35.0547 11.8197C31.9469 10.2124 28.4988 9.37399 25 9.37489V9.37489Z" fill="#3B82F6"/>
</g>
<defs>
<clipPath id="clip0_1_3162">
<rect width="50" height="50" fill="white"/>
</clipPath>
</defs>
</svg>
