<svg width="50" height="50" viewBox="0 0 50 50" fill="none" xmlns="http://www.w3.org/2000/svg">
<path d="M29.1668 24.9997L25.0002 29.1663L20.8335 24.9997L25.0002 20.833L29.1668 24.9997ZM25.0002 12.4997L29.4168 16.9163L34.6252 11.708L25.0002 2.08301L15.3752 11.708L20.5835 16.9163L25.0002 12.4997ZM12.5002 24.9997L16.9168 20.583L11.7085 15.3747L2.0835 24.9997L11.7085 34.6247L16.9168 29.4163L12.5002 24.9997ZM37.5002 24.9997L33.0835 29.4163L38.2918 34.6247L47.9168 24.9997L38.2918 15.3747L33.0835 20.583L37.5002 24.9997ZM25.0002 37.4997L20.5835 33.083L15.3752 38.2913L25.0002 47.9163L34.6252 38.2913L29.4168 33.083L25.0002 37.4997Z" fill="url(#paint0_linear_2290_4224)"/>
<defs>
<linearGradient id="paint0_linear_2290_4224" x1="25.0002" y1="2.08301" x2="25.0002" y2="47.9163" gradientUnits="userSpaceOnUse">
<stop stop-color="#3D81F6"/>
<stop offset="1" stop-color="#A556F7"/>
</linearGradient>
</defs>
</svg>
