<svg xmlns="http://www.w3.org/2000/svg" width="45.664" height="45.667" viewBox="0 0 45.664 45.667">
  <g id="rocket-icon" transform="translate(0 0)">
    <g id="Group_1383" data-name="Group 1383" transform="translate(0 0)">
      <g id="Group_1380" data-name="Group 1380" transform="translate(1.653 29.524)">
        <path id="Path_1977" data-name="Path 1977" d="M18.646,345.4a17.293,17.293,0,0,0,9.37-1.825c2.913-1.464,4.933-4.3,5.013-7.031L27.5,331.016c-2.738.083-5.57,2.1-7.033,5.016A17.311,17.311,0,0,0,18.646,345.4Z" transform="translate(-18.542 -331.016)" fill="#b2f0fb" fill-rule="evenodd"/>
      </g>
      <g id="Group_1381" data-name="Group 1381" transform="translate(33.771 0.892)">
        <path id="Path_1978" data-name="Path 1978" d="M378.646,10.484A16.671,16.671,0,0,0,389.158,21q.186-.937.291-1.9a34.153,34.153,0,0,0,.129-5.866c-.144-2.293-.872-3.021-3.163-3.165a34.422,34.422,0,0,0-5.868.129C379.905,10.264,379.273,10.362,378.646,10.484Z" transform="translate(-378.646 -9.996)" fill="#b2f0fb" fill-rule="evenodd"/>
      </g>
      <g id="Group_1382" data-name="Group 1382">
        <path id="Path_1979" data-name="Path 1979" d="M45.608,4.07c-.173-2.743-1.256-3.827-4-4A35.472,35.472,0,0,0,35.589.2a25.1,25.1,0,0,0-9.473,3.086,33.823,33.823,0,0,0-7.672,5.964C9.536,7.539,4.559,12.4.225,17.542a.892.892,0,0,0,.886,1.443,10.6,10.6,0,0,1,8.917,2.069A60.031,60.031,0,0,0,7.4,26.8a.892.892,0,0,0,.2.958L17.918,38.079a.892.892,0,0,0,.958.2,60.035,60.035,0,0,0,5.75-2.625,10.589,10.589,0,0,1,2.068,8.918.892.892,0,0,0,1.443.887c5.142-4.336,10-9.316,8.289-18.221a33.823,33.823,0,0,0,5.964-7.673,25.1,25.1,0,0,0,3.086-9.475,35.187,35.187,0,0,0,.132-6.019ZM3.1,16.959C6.641,13.046,10.63,10,16.984,10.824A50.29,50.29,0,0,0,10.9,19.449a12.142,12.142,0,0,0-7.8-2.49ZM18.763,36.4,9.28,26.916q.562-1.383,1.219-2.781L21.546,35.182Q20.15,35.838,18.763,36.4Zm9.957,6.183a12.127,12.127,0,0,0-2.489-7.8A50.285,50.285,0,0,0,34.855,28.7C35.673,35.048,32.633,39.038,28.721,42.584ZM43.7,9.893C42.492,20.88,33.062,29.325,23.238,34.351l-5.324-5.324,5.2-5.2a.892.892,0,0,0-1.261-1.261l-5.2,5.2L11.33,22.442C16.356,12.617,24.8,3.186,35.785,1.976A33.671,33.671,0,0,1,41.5,1.85c1.843.116,2.213.486,2.329,2.331A33.4,33.4,0,0,1,43.7,9.893Z" transform="translate(-0.015 0)" fill="#020288"/>
        <path id="Path_1980" data-name="Path 1980" d="M272.334,99.448a6.546,6.546,0,1,0,4.629,1.919A6.5,6.5,0,0,0,272.334,99.448Zm3.368,9.913a4.763,4.763,0,1,1,0-6.733A4.772,4.772,0,0,1,275.7,109.361Z" transform="translate(-242.086 -90.578)" fill="#020288"/>
      </g>
    </g>
  </g>
</svg>
