<svg xmlns="http://www.w3.org/2000/svg" width="45.667" height="43.643" viewBox="0 0 45.667 43.643">
  <g id="client-icon" transform="translate(0 0)">
    <g id="Group_1378" data-name="Group 1378" transform="translate(0 0)">
      <g id="Group_1376" data-name="Group 1376" transform="translate(13.18)">
        <g id="Group_1375" data-name="Group 1375">
          <path id="Path_1972" data-name="Path 1972" d="M161.655,11.344a4.333,4.333,0,0,0-4.242,2.53,4.318,4.318,0,0,0-4.234-2.53,5.249,5.249,0,0,0-5.414,5.577,7.587,7.587,0,0,0,1.118,4.1c1.675,2.841,8.529,6.567,8.529,6.567s6.857-3.7,8.545-6.567a7.585,7.585,0,0,0,1.116-4.1A5.252,5.252,0,0,0,161.655,11.344Z" transform="translate(-147.766 -11.344)" fill="#ffbdbc"/>
        </g>
      </g>
      <g id="Group_1377" data-name="Group 1377" transform="translate(0 19.113)">
        <path id="Path_1973" data-name="Path 1973" d="M351.243,236.7a5.533,5.533,0,1,0-5.516-5.533A5.531,5.531,0,0,0,351.243,236.7Zm0-9.282a3.749,3.749,0,1,1-3.732,3.749A3.745,3.745,0,0,1,351.243,227.415Z" transform="translate(-314.891 -225.631)" fill="#020288"/>
        <path id="Path_1974" data-name="Path 1974" d="M36.352,372.475a9.236,9.236,0,0,0-6.763,2.908,9.3,9.3,0,0,0-13.511,0A9.316,9.316,0,0,0,0,381.789v1.227a.892.892,0,0,0,.892.892H44.775a.892.892,0,0,0,.892-.892v-1.227A9.325,9.325,0,0,0,36.352,372.475ZM1.784,381.789a7.531,7.531,0,0,1,13.181-4.979,9.259,9.259,0,0,0-1.446,4.979v.335H1.784Zm13.519.335v-.335a7.53,7.53,0,1,1,15.061,0v.335Zm28.58,0H32.148v-.335A9.259,9.259,0,0,0,30.7,376.81a7.531,7.531,0,0,1,13.181,4.979Z" transform="translate(0 -359.378)" fill="#020288"/>
        <path id="Path_1975" data-name="Path 1975" d="M48.1,236.7a5.533,5.533,0,1,0-5.516-5.533A5.531,5.531,0,0,0,48.1,236.7Zm0-9.282a3.749,3.749,0,1,1-3.732,3.749A3.745,3.745,0,0,1,48.1,227.415Z" transform="translate(-38.788 -225.631)" fill="#020288"/>
        <path id="Path_1976" data-name="Path 1976" d="M199.672,236.7a5.533,5.533,0,1,0-5.516-5.533A5.531,5.531,0,0,0,199.672,236.7Zm0-9.282a3.749,3.749,0,1,1-3.732,3.749A3.745,3.745,0,0,1,199.672,227.416Z" transform="translate(-176.839 -225.632)" fill="#020288"/>
      </g>
    </g>
  </g>
</svg>
