<svg id="map-icon" xmlns="http://www.w3.org/2000/svg" width="31.411" height="45.667" viewBox="0 0 31.411 45.667">
  <g id="Group_1368" data-name="Group 1368" transform="translate(0)">
    <path id="Path_1962" data-name="Path 1962" d="M178.581,90.326a7.805,7.805,0,0,0-7.581,7.7,7.582,7.582,0,0,0,15.163,0A7.805,7.805,0,0,0,178.581,90.326Zm0,11.642a4.051,4.051,0,0,1-4.014-3.984,4.014,4.014,0,1,1,8.027,0A4.05,4.05,0,0,1,178.581,101.968Z" transform="translate(-162.876 -82.27)" fill="#e2c4ff"/>
    <path id="Path_1963" data-name="Path 1963" d="M108.7,352.59h-.908a46.247,46.247,0,0,1-6.632,5.266,46.234,46.234,0,0,1-6.632-5.266h-.908C88.85,353.966,86,356.436,86,359.2c0,1.96,1.483,3.826,4.177,5.252a24.021,24.021,0,0,0,10.986,2.36,24.022,24.022,0,0,0,10.986-2.36c2.693-1.427,4.177-3.292,4.177-5.252,0-2.76-2.85-5.23-7.623-6.606Z" transform="translate(-85.457 -321.141)" fill="#e2c4ff"/>
    <g id="Group_1367" data-name="Group 1367">
      <path id="Path_1964" data-name="Path 1964" d="M205.906,120.49a4.922,4.922,0,1,0,4.906,4.969A5,5,0,0,0,205.906,120.49Zm0,8.06a3.148,3.148,0,0,1-3.122-3.092,3.122,3.122,0,1,1,6.243,0A3.148,3.148,0,0,1,205.906,128.55Z" transform="translate(-190.2 -109.743)" fill="#020288"/>
      <path id="Path_1965" data-name="Path 1965" d="M111.318,15.723C110.989,6.987,104.232,0,95.622,0s-15.366,6.981-15.7,15.723c-.221,5.859,3.377,11.259,7.5,15.436a47,47,0,0,0,7.727,6.313.892.892,0,0,0,.944,0,47.015,47.015,0,0,0,7.727-6.313C107.941,26.982,111.539,21.582,111.318,15.723ZM102.577,29.88a47.09,47.09,0,0,1-6.955,5.768,47.085,47.085,0,0,1-6.955-5.768c-3.291-3.343-7.169-8.5-6.959-14.09C82,7.936,88.116,1.784,95.622,1.784s13.617,6.152,13.913,14.006C109.746,21.38,105.867,26.538,102.577,29.88Z" transform="translate(-79.917)" fill="#020288"/>
    </g>
  </g>
</svg>
