<svg width="40" height="43" viewBox="0 0 40 43" fill="none" xmlns="http://www.w3.org/2000/svg">
<path d="M19.3391 1.1111C19.2141 1.19936 19.05 1.32774 18.9875 1.40798C18.925 1.48019 18.4172 2.47512 17.8547 3.59844L16.8391 5.66052L14.5813 5.99752C12.4407 6.31847 12.3078 6.35056 12.0422 6.5672C11.55 6.96838 11.3703 7.6504 11.5969 8.19601C11.6672 8.37253 12.3235 9.09466 13.3313 10.1137L14.9563 11.7425L14.5735 14.0854L14.1828 16.4363L14.3391 16.8215C14.4485 17.0782 14.6047 17.2868 14.8078 17.4313C15.0891 17.6399 15.175 17.6559 15.6282 17.6318C16.1047 17.6078 16.2453 17.5436 18.0657 16.5487L20.0032 15.4976L21.9328 16.5487C23.7375 17.5275 23.9016 17.5998 24.3782 17.6318C24.8469 17.6639 24.9094 17.6479 25.2063 17.4313C25.4328 17.2628 25.5735 17.0702 25.675 16.8054L25.8157 16.4203L25.4328 14.0774L25.05 11.7344L26.7063 10.0655C28.1125 8.63731 28.3703 8.34043 28.4485 8.04356C28.5969 7.52202 28.4485 7.02455 28.05 6.64744C27.6907 6.31847 27.7766 6.33451 24.925 5.91728L23.1672 5.66052L22.1516 3.59844C21.1125 1.48821 20.9797 1.27157 20.6125 1.079C20.3078 0.918531 19.6203 0.934579 19.3391 1.1111ZM20.8625 4.80199C21.7141 6.59929 22.0266 7.08071 22.4485 7.21712C22.5891 7.26526 23.4719 7.40969 24.4172 7.54609C25.3625 7.68249 26.2219 7.81889 26.3235 7.84296C26.4953 7.89111 26.3782 8.02751 25.0188 9.38351C23.7141 10.6914 23.5188 10.9241 23.4407 11.229C23.3625 11.5419 23.3938 11.8307 23.6907 13.6601C23.886 14.7995 24.0344 15.7302 24.0188 15.7302C24.011 15.7302 23.1985 15.297 22.2141 14.7674C20.5735 13.8848 20.386 13.8046 20.0032 13.8046C19.6125 13.8046 19.4328 13.8848 17.8 14.7674C16.8157 15.297 16.0032 15.7302 15.9875 15.7302C15.9797 15.7302 16.1203 14.7995 16.3157 13.6601C16.6203 11.8227 16.6438 11.5419 16.5657 11.229C16.4875 10.9241 16.2844 10.6833 14.9797 9.38351C13.511 7.91518 13.4875 7.88308 13.7141 7.83494C13.8469 7.81087 14.7063 7.68249 15.6282 7.54609C16.55 7.40969 17.4172 7.25724 17.5578 7.21712C17.9797 7.08071 18.3 6.59929 19.1438 4.79397C19.5969 3.83915 19.9797 3.05283 20.0032 3.05283C20.0266 3.06085 20.4094 3.83915 20.8625 4.80199Z" fill="#9A4ECC"/>
<path d="M6.38371 3.90587C6.12589 4.17059 6.05558 4.49145 6.19621 4.82836C6.25871 4.98077 6.75089 5.54229 7.28996 6.07974C8.24308 7.04234 8.27433 7.06641 8.61808 7.06641C9.03214 7.06641 9.34464 6.80169 9.42277 6.38457C9.49308 5.9915 9.33683 5.7669 8.25871 4.67595C7.30558 3.71335 7.28214 3.69731 6.93839 3.69731C6.66496 3.69731 6.53996 3.74544 6.38371 3.90587Z" fill="#9A4ECC"/>
<path d="M31.7445 4.67595C30.6508 5.78294 30.5101 5.9915 30.5883 6.40061C30.6664 6.81773 30.9633 7.06641 31.3929 7.06641C31.7445 7.06641 31.7601 7.05838 32.7758 5.99953C33.4633 5.29362 33.8226 4.86847 33.8461 4.71606C33.9554 4.13048 33.6195 3.69731 33.0648 3.69731C32.7211 3.69731 32.6976 3.71335 31.7445 4.67595Z" fill="#9A4ECC"/>
<path d="M4.42717 8.71144C4.21623 8.93605 4.13811 9.20077 4.20061 9.51361C4.21623 9.61789 4.32561 9.80239 4.42717 9.91469L4.63029 10.1152H6.18498H7.74748L7.97404 9.88261C8.15373 9.69811 8.20061 9.57778 8.20061 9.31307C8.20061 9.04835 8.15373 8.92803 7.97404 8.74353L7.74748 8.5109H6.18498H4.63029L4.42717 8.71144Z" fill="#9A4ECC"/>
<path d="M32.0234 8.74353C31.8438 8.92803 31.7969 9.04835 31.7969 9.31307C31.7969 9.57778 31.8438 9.69811 32.0234 9.88261L32.25 10.1152H33.8125H35.3672L35.5781 9.90667C35.8672 9.60185 35.8672 9.02429 35.5781 8.71947L35.3672 8.5109H33.8125H32.25L32.0234 8.74353Z" fill="#9A4ECC"/>
<path d="M7.29016 12.5392C6.75109 13.0847 6.25891 13.6462 6.19641 13.7986C5.96203 14.3682 6.32922 14.9297 6.93859 14.9297C7.28234 14.9297 7.30578 14.9136 8.25891 13.943C9.33703 12.8601 9.49328 12.6355 9.42297 12.2424C9.34484 11.8253 9.03234 11.5606 8.61828 11.5606C8.27453 11.5606 8.24328 11.5847 7.29016 12.5392Z" fill="#9A4ECC"/>
<path d="M30.836 11.7531C30.5781 12.0018 30.4922 12.4269 30.6485 12.7318C30.7188 12.8601 31.2031 13.4056 31.7422 13.943C32.6953 14.9136 32.7188 14.9297 33.0625 14.9297C33.4766 14.9297 33.7813 14.681 33.8594 14.2799C33.9375 13.8708 33.7344 13.574 32.711 12.5392C31.7578 11.5847 31.7266 11.5606 31.3828 11.5606C31.125 11.5606 30.9844 11.6087 30.836 11.7531Z" fill="#9A4ECC"/>
<path d="M11.6094 19.4702L11.4062 19.6868V23.0006V26.3224H8.48438H5.57031L5.35938 26.531L5.15625 26.7477V30.0615V33.3833H2.78125H0.414062L0.203125 33.5919L0 33.8085V37.716V41.6236L0.203125 41.8402L0.414062 42.0488H20H39.5859L39.7969 41.8402L40 41.6236V37.716V33.8085L39.7969 33.5919L39.5859 33.3833H37.2188H34.8438V30.0615V26.7477L34.6406 26.531L34.4297 26.3224H31.5156H28.5938V23.0006V19.6868L28.3906 19.4702L28.1797 19.2616H20H11.8203L11.6094 19.4702ZM27.0312 23.5944V26.3224H20H12.9688V23.5944V20.8663H20H27.0312V23.5944ZM33.2812 30.6552V33.3833H31.8672H30.4531L30.2266 33.6159C30.0469 33.8005 30 33.9208 30 34.1856C30 34.4504 30.0469 34.5708 30.2266 34.7553L30.4531 34.988H34.4453H38.4375V37.716V40.4441H20H1.5625V37.716V34.988H13.1953H24.8203L25.0312 34.7794C25.3203 34.4745 25.3203 33.8968 25.0312 33.5919L24.8203 33.3833H15.7734H6.71875V32.4204V31.4576H10.2266H13.7266L13.9375 31.249C14.2266 30.9441 14.2266 30.3664 13.9375 30.0615L13.7266 29.8528H10.2266H6.71875V28.89V27.9272H20H33.2812V30.6552Z" fill="#9A4ECC"/>
<path d="M16.2969 30.0613C16.1328 30.2297 16.0938 30.35 16.0938 30.6549C16.0938 30.9597 16.1328 31.08 16.2969 31.2485C16.4609 31.4169 16.5781 31.457 16.875 31.457C17.1719 31.457 17.2891 31.4169 17.4531 31.2485C17.7422 30.9436 17.7422 30.3661 17.4531 30.0613C17.2891 29.8928 17.1719 29.8527 16.875 29.8527C16.5781 29.8527 16.4609 29.8928 16.2969 30.0613Z" fill="#9A4ECC"/>
<path d="M27.148 33.5763C26.9293 33.8089 26.8355 34.1057 26.9058 34.3945C27.1011 35.1966 28.2886 35.1966 28.4839 34.3945C28.5543 34.1057 28.4605 33.8089 28.2418 33.5763C28.1011 33.4319 27.9683 33.3837 27.6949 33.3837C27.4214 33.3837 27.2886 33.4319 27.148 33.5763Z" fill="#9A4ECC"/>
</svg>
