<svg id="team-icon" xmlns="http://www.w3.org/2000/svg" width="45.667" height="41.029" viewBox="0 0 45.667 41.029">
  <g id="Group_1371" data-name="Group 1371" transform="translate(0 0)">
    <path id="Path_1966" data-name="Path 1966" d="M110,76h26.044V90.272H110Z" transform="translate(-100.189 -71.541)" fill="#a4fbc4" fill-rule="evenodd"/>
    <g id="Group_1370" data-name="Group 1370">
      <path id="Path_1967" data-name="Path 1967" d="M9.786,329.168a3.926,3.926,0,0,0,.407-1.746v-1.529a3.95,3.95,0,0,0-7.9,0v1.529a3.926,3.926,0,0,0,.407,1.746A6.29,6.29,0,0,0,0,334.3v1.4a.892.892,0,0,0,.892.892H11.6a.892.892,0,0,0,.892-.892v-1.4A6.29,6.29,0,0,0,9.786,329.168Zm-5.709-3.275a2.166,2.166,0,0,1,4.332,0v1.529a2.166,2.166,0,0,1-4.332,0Zm6.626,8.922H1.784V334.3a4.5,4.5,0,0,1,2.054-3.749,3.975,3.975,0,0,0,4.811,0A4.5,4.5,0,0,1,10.7,334.3Z" transform="translate(0 -295.571)" fill="#020288"/>
      <path id="Path_1968" data-name="Path 1968" d="M195.787,329.168a3.926,3.926,0,0,0,.407-1.746v-1.529a3.95,3.95,0,0,0-7.9,0v1.529a3.926,3.926,0,0,0,.407,1.746A6.29,6.29,0,0,0,186,334.3v1.4a.892.892,0,0,0,.892.892h10.7a.892.892,0,0,0,.892-.892v-1.4A6.291,6.291,0,0,0,195.787,329.168Zm-5.709-3.275a2.166,2.166,0,0,1,4.332,0v1.529a2.166,2.166,0,0,1-4.332,0Zm6.626,8.922h-8.919V334.3a4.5,4.5,0,0,1,2.054-3.749,3.975,3.975,0,0,0,4.811,0A4.5,4.5,0,0,1,196.7,334.3Z" transform="translate(-169.411 -295.571)" fill="#020288"/>
      <path id="Path_1969" data-name="Path 1969" d="M381.788,329.168a3.927,3.927,0,0,0,.407-1.746v-1.529a3.95,3.95,0,0,0-7.9,0v1.529a3.927,3.927,0,0,0,.407,1.746A6.29,6.29,0,0,0,372,334.3v1.4a.892.892,0,0,0,.892.892h10.7a.892.892,0,0,0,.892-.892v-1.4A6.291,6.291,0,0,0,381.788,329.168Zm-5.709-3.275a2.166,2.166,0,0,1,4.332,0v1.529a2.166,2.166,0,0,1-4.332,0Zm6.626,8.922h-8.919V334.3a4.5,4.5,0,0,1,2.054-3.749,3.975,3.975,0,0,0,4.811,0,4.5,4.5,0,0,1,2.054,3.749Z" transform="translate(-338.822 -295.571)" fill="#020288"/>
      <path id="Path_1970" data-name="Path 1970" d="M60.423,50.843a.892.892,0,0,0,.868.039l3.379-1.69H75.329l1.523,1.523a.892.892,0,0,0,1.261,0l1.523-1.523H90.294l3.379,1.69a.892.892,0,0,0,1.291-.8V28.678A2.679,2.679,0,0,0,92.288,26H62.676A2.679,2.679,0,0,0,60,28.678V50.084a.892.892,0,0,0,.423.759Zm1.361-22.165a.893.893,0,0,1,.892-.892H92.288a.893.893,0,0,1,.892.892V48.641L90.9,47.5a.893.893,0,0,0-.4-.094H79.266a.892.892,0,0,0-.631.261l-1.153,1.153-1.153-1.153a.892.892,0,0,0-.631-.261H64.46a.891.891,0,0,0-.4.094l-2.277,1.138Z" transform="translate(-54.648 -26.002)" fill="#020288"/>
      <path id="Path_1971" data-name="Path 1971" d="M210.992,126.984a.9.9,0,0,0,1.261,0l4.46-4.46a.892.892,0,0,0-1.261-1.261l-3.829,3.829-1.6-1.6a.892.892,0,0,0-1.261,1.261Z" transform="translate(-189.904 -112.528)" fill="#020288"/>
    </g>
  </g>
</svg>
