<svg id="business-icon" xmlns="http://www.w3.org/2000/svg" width="45.667" height="44.771" viewBox="0 0 45.667 44.771">
  <g id="Group_1373" data-name="Group 1373" transform="translate(0 0)">
    <g id="XMLID_3_" transform="translate(0.895 6.268)">
      <path id="XMLID_835_" d="M345.848,312.082a9.753,9.753,0,0,1-4.515-8.25V301.4l5.373-2.149,5.373,2.149v2.432a9.752,9.752,0,0,1-4.515,8.25l-.858.549Z" transform="translate(-311.784 -279.276)" fill="#fff496"/>
      <g id="XMLID_832_">
        <path id="Union_5" data-name="Union 5" d="M0,5.417H43.876l-21.938,9.8Zm0,0V2.686A2.686,2.686,0,0,1,2.686,0h38.5a2.686,2.686,0,0,1,2.686,2.686V5.417Z" fill="#fff496"/>
      </g>
    </g>
    <g id="XMLID_836_">
      <path id="XMLID_972_" d="M42.085,10.393H31.34V8.6A3.586,3.586,0,0,0,27.758,5.02h-9.85A3.586,3.586,0,0,0,14.327,8.6v1.791H3.582A3.586,3.586,0,0,0,0,13.974V38.151a3.586,3.586,0,0,0,3.582,3.582h23.65a14.232,14.232,0,0,0,5.315,6.133l2.788,1.785a.9.9,0,0,0,.965,0l2.788-1.785a14.21,14.21,0,0,0,6.579-12.021V13.974a3.586,3.586,0,0,0-3.582-3.582ZM16.118,8.6a1.793,1.793,0,0,1,1.791-1.791h9.85A1.793,1.793,0,0,1,29.549,8.6v1.791H16.118ZM3.582,12.183h38.5a1.793,1.793,0,0,1,1.791,1.791V29.665L36.15,26.574a.9.9,0,0,0-.665,0L26.53,30.156a.9.9,0,0,0-.563.831v2.686H1.791v-19.7a1.793,1.793,0,0,1,1.791-1.791Zm0,27.758a1.793,1.793,0,0,1-1.791-1.791V35.464H25.967a14.693,14.693,0,0,0,.6,4.477Zm40.294-4.1a12.427,12.427,0,0,1-5.753,10.513l-2.306,1.476-2.306-1.476a12.43,12.43,0,0,1-5.753-10.513V31.594l8.059-3.224,8.059,3.224Z" transform="translate(0 -5.02)" fill="#090e8b"/>
      <path id="XMLID_976_" d="M372.98,347.958a.9.9,0,0,0-1.266,1.266l1.343,1.343a.9.9,0,0,0,1.266,0l2.686-2.686a.9.9,0,0,0-1.266-1.266l-2.053,2.053Z" transform="translate(-338.32 -315.908)" fill="#090e8b"/>
    </g>
  </g>
</svg>
