<svg width="100" height="102" viewBox="0 0 100 102" fill="none" xmlns="http://www.w3.org/2000/svg">
<g filter="url(#filter0_d_279_94)">
<path d="M17.1875 71.875L6.25 93.75H28.125L17.1875 71.875ZM81.25 46.875V53.125C84.6969 53.125 87.5 55.9313 87.5 59.375V75C87.5 78.4469 84.6969 81.25 81.25 81.25H31.25V87.5H81.25C88.1438 87.5 93.75 81.8938 93.75 75V59.375C93.75 52.4812 88.1438 46.875 81.25 46.875Z" fill="#1D4ED8"/>
<path d="M43.75 75C43.0713 74.9997 42.4111 74.7784 41.8693 74.3697C41.3275 73.9609 40.9335 73.3869 40.7469 72.7344L35.1438 53.125H25V46.875H37.5C38.1787 46.8753 38.8389 47.0965 39.3807 47.5053C39.9225 47.9141 40.3165 48.4881 40.5031 49.1406L43.75 60.5L53.2469 27.2656C53.4344 26.614 53.8288 26.041 54.3705 25.6332C54.9122 25.2254 55.5719 25.0048 56.25 25.0048C56.9281 25.0048 57.5878 25.2254 58.1295 25.6332C58.6712 26.041 59.0656 26.614 59.2531 27.2656L64.8562 46.875H75V53.125H62.5C61.8213 53.1247 61.1611 52.9034 60.6193 52.4947C60.0775 52.0859 59.6835 51.5119 59.4969 50.8594L56.25 39.5L46.7531 72.7344C46.5665 73.3869 46.1725 73.9609 45.6307 74.3697C45.0889 74.7784 44.4287 74.9997 43.75 75Z" fill="#1D4ED8"/>
<path d="M12.5 40.625V25C12.5 21.5531 15.3031 18.75 18.75 18.75H68.75V12.5H18.75C11.8562 12.5 6.25 18.1062 6.25 25V40.625C6.25 47.5188 11.8562 53.125 18.75 53.125V46.875C15.3031 46.875 12.5 44.0719 12.5 40.625Z" fill="#1D4ED8"/>
<path d="M84.375 25C89.5527 25 93.75 20.8027 93.75 15.625C93.75 10.4473 89.5527 6.25 84.375 6.25C79.1973 6.25 75 10.4473 75 15.625C75 20.8027 79.1973 25 84.375 25Z" fill="#1D4ED8"/>
</g>
<defs>
<filter id="filter0_d_279_94" x="-4" y="0" width="108" height="108" filterUnits="userSpaceOnUse" color-interpolation-filters="sRGB">
<feFlood flood-opacity="0" result="BackgroundImageFix"/>
<feColorMatrix in="SourceAlpha" type="matrix" values="0 0 0 0 0 0 0 0 0 0 0 0 0 0 0 0 0 0 127 0" result="hardAlpha"/>
<feOffset dy="4"/>
<feGaussianBlur stdDeviation="2"/>
<feComposite in2="hardAlpha" operator="out"/>
<feColorMatrix type="matrix" values="0 0 0 0 0 0 0 0 0 0 0 0 0 0 0 0 0 0 0.25 0"/>
<feBlend mode="normal" in2="BackgroundImageFix" result="effect1_dropShadow_279_94"/>
<feBlend mode="normal" in="SourceGraphic" in2="effect1_dropShadow_279_94" result="shape"/>
</filter>
</defs>
</svg>
