<svg width="100" height="100" viewBox="0 0 100 100" fill="none" xmlns="http://www.w3.org/2000/svg">
<path d="M81.25 68.75C79.0429 68.7608 76.8811 69.3769 75 70.5312L65.3438 60.8437C67.5906 57.6743 68.7975 53.8851 68.7975 50C68.7975 46.1149 67.5906 42.3257 65.3438 39.1562L75 29.4687C76.8811 30.6231 79.0429 31.2392 81.25 31.25C83.7223 31.25 86.139 30.5169 88.1946 29.1434C90.2502 27.7698 91.8524 25.8176 92.7985 23.5335C93.7446 21.2495 93.9921 18.7361 93.5098 16.3114C93.0275 13.8866 91.837 11.6593 90.0888 9.91116C88.3407 8.16301 86.1134 6.9725 83.6886 6.49018C81.2639 6.00787 78.7505 6.25541 76.4665 7.2015C74.1824 8.1476 72.2302 9.74976 70.8566 11.8054C69.4831 13.861 68.75 16.2777 68.75 18.75C68.7608 20.9571 69.3769 23.1189 70.5313 25L60.8438 34.6562C57.6743 32.4094 53.8851 31.2025 50 31.2025C46.1149 31.2025 42.3257 32.4094 39.1563 34.6562L29.4688 25C30.6231 23.1189 31.2392 20.9571 31.25 18.75C31.25 16.2777 30.5169 13.861 29.1434 11.8054C27.7699 9.74976 25.8176 8.1476 23.5335 7.2015C21.2495 6.25541 18.7361 6.00787 16.3114 6.49018C13.8866 6.9725 11.6593 8.16301 9.91117 9.91116C8.16301 11.6593 6.9725 13.8866 6.49019 16.3114C6.00787 18.7361 6.25542 21.2495 7.20151 23.5335C8.14761 25.8176 9.74976 27.7698 11.8054 29.1434C13.861 30.5169 16.2777 31.25 18.75 31.25C20.9571 31.2392 23.1189 30.6231 25 29.4687L34.6563 39.1562C32.4094 42.3257 31.2025 46.1149 31.2025 50C31.2025 53.8851 32.4094 57.6743 34.6563 60.8437L25 70.5312C23.1189 69.3769 20.9571 68.7608 18.75 68.75C16.2777 68.75 13.861 69.4831 11.8054 70.8566C9.74976 72.2301 8.14761 74.1824 7.20151 76.4665C6.25542 78.7505 6.00787 81.2639 6.49019 83.6886C6.9725 86.1134 8.16301 88.3407 9.91117 90.0888C11.6593 91.837 13.8866 93.0275 16.3114 93.5098C18.7361 93.9921 21.2495 93.7446 23.5335 92.7985C25.8176 91.8524 27.7699 90.2502 29.1434 88.1946C30.5169 86.139 31.25 83.7223 31.25 81.25C31.2392 79.0429 30.6231 76.8811 29.4688 75L39.1563 65.3437C42.3257 67.5906 46.1149 68.7975 50 68.7975C53.8851 68.7975 57.6743 67.5906 60.8438 65.3437L70.5313 75C69.3769 76.8811 68.7608 79.0429 68.75 81.25C68.75 83.7223 69.4831 86.139 70.8566 88.1946C72.2302 90.2502 74.1824 91.8524 76.4665 92.7985C78.7505 93.7446 81.2639 93.9921 83.6886 93.5098C86.1134 93.0275 88.3407 91.837 90.0888 90.0888C91.837 88.3407 93.0275 86.1134 93.5098 83.6886C93.9921 81.2639 93.7446 78.7505 92.7985 76.4665C91.8524 74.1824 90.2502 72.2301 88.1946 70.8566C86.139 69.4831 83.7223 68.75 81.25 68.75ZM81.25 12.5C82.4861 12.5 83.6945 12.8666 84.7223 13.5533C85.7501 14.2401 86.5512 15.2162 87.0243 16.3582C87.4973 17.5003 87.6211 18.7569 87.3799 19.9693C87.1388 21.1817 86.5435 22.2953 85.6694 23.1694C84.7953 24.0435 83.6817 24.6387 82.4693 24.8799C81.2569 25.1211 80.0003 24.9973 78.8582 24.5242C77.7162 24.0512 76.7401 23.2501 76.0533 22.2223C75.3666 21.1945 75 19.9861 75 18.75C75 17.0924 75.6585 15.5027 76.8306 14.3306C78.0027 13.1585 79.5924 12.5 81.25 12.5ZM12.5 18.75C12.5 17.5139 12.8666 16.3055 13.5533 15.2777C14.2401 14.2499 15.2162 13.4488 16.3582 12.9757C17.5003 12.5027 18.7569 12.3789 19.9693 12.6201C21.1817 12.8612 22.2953 13.4565 23.1694 14.3306C24.0435 15.2047 24.6388 16.3183 24.8799 17.5307C25.1211 18.7431 24.9973 19.9997 24.5243 21.1418C24.0512 22.2838 23.2501 23.2599 22.2223 23.9467C21.1945 24.6334 19.9861 25 18.75 25C17.0924 25 15.5027 24.3415 14.3306 23.1694C13.1585 21.9973 12.5 20.4076 12.5 18.75ZM18.75 87.5C17.5139 87.5 16.3055 87.1334 15.2777 86.4467C14.2499 85.7599 13.4488 84.7838 12.9758 83.6418C12.5027 82.4997 12.3789 81.2431 12.6201 80.0307C12.8613 78.8183 13.4565 77.7047 14.3306 76.8306C15.2047 75.9565 16.3183 75.3612 17.5307 75.1201C18.7431 74.8789 19.9997 75.0027 21.1418 75.4758C22.2838 75.9488 23.2599 76.7499 23.9467 77.7777C24.6334 78.8055 25 80.0139 25 81.25C25 82.9076 24.3415 84.4973 23.1694 85.6694C21.9973 86.8415 20.4076 87.5 18.75 87.5ZM50 62.5C47.5277 62.5 45.111 61.7669 43.0554 60.3934C40.9998 59.0198 39.3976 57.0676 38.4515 54.7835C37.5054 52.4995 37.2579 49.9861 37.7402 47.5614C38.2225 45.1366 39.413 42.9093 41.1612 41.1612C42.9093 39.413 45.1366 38.2225 47.5614 37.7402C49.9861 37.2579 52.4995 37.5054 54.7835 38.4515C57.0676 39.3976 59.0199 40.9998 60.3934 43.0554C61.7669 45.111 62.5 47.5277 62.5 50C62.5 53.3152 61.183 56.4946 58.8388 58.8388C56.4946 61.183 53.3152 62.5 50 62.5ZM81.25 87.5C80.0139 87.5 78.8055 87.1334 77.7777 86.4467C76.7499 85.7599 75.9488 84.7838 75.4758 83.6418C75.0027 82.4997 74.8789 81.2431 75.1201 80.0307C75.3613 78.8183 75.9565 77.7047 76.8306 76.8306C77.7047 75.9565 78.8183 75.3612 80.0307 75.1201C81.2431 74.8789 82.4997 75.0027 83.6418 75.4758C84.7838 75.9488 85.7599 76.7499 86.4467 77.7777C87.1334 78.8055 87.5 80.0139 87.5 81.25C87.5 82.9076 86.8415 84.4973 85.6694 85.6694C84.4973 86.8415 82.9076 87.5 81.25 87.5Z" fill="white"/>
</svg>
