<svg width="100" height="100" viewBox="0 0 100 100" fill="none" xmlns="http://www.w3.org/2000/svg">
<path d="M36.4939 30.125C34.7083 28.8746 33.3696 27.0858 32.6734 25.0201C31.9773 22.9544 31.9602 20.7202 32.6247 18.6441C33.2892 16.568 34.6005 14.7589 36.3667 13.4814C38.133 12.2039 40.2616 11.5249 42.4414 11.5437C44.6211 11.5626 46.7377 12.2782 48.4816 13.5861C50.2255 14.894 51.5053 16.7254 52.1339 18.8127C52.7624 20.8999 52.7067 23.1335 51.975 25.1869C51.2432 27.2403 49.8737 29.0057 48.0668 30.225M16.9585 53.4313C18.2699 51.69 20.1039 50.4139 22.1924 49.7895C24.2809 49.1652 26.5144 49.2253 28.5663 49.9612C30.6182 50.6971 32.3808 52.0701 33.5965 53.8795C34.8122 55.6888 35.4172 57.8396 35.3231 60.0175C35.2289 62.1953 34.4405 64.2858 33.0731 65.9835C31.7058 67.6812 29.8312 68.8969 27.7234 69.4529C25.6157 70.0089 23.3853 69.876 21.3585 69.0737C19.3317 68.2714 17.6146 66.8417 16.4585 64.9938" stroke="#60A5FA" stroke-width="2.08333" stroke-linecap="round" stroke-linejoin="round"/>
<path d="M36.4939 30.125C37.1814 31.4042 37.0481 33.5833 33.8064 33.9708H13.7023V51.1375C13.6427 51.5457 13.6975 51.9625 13.8606 52.3415C14.0237 52.7204 14.2886 53.0468 14.626 53.2842C14.9634 53.5217 15.36 53.6609 15.7718 53.6865C16.1835 53.7121 16.5943 53.623 16.9585 53.4292M16.4606 64.9917C16.1225 64.8341 15.7467 64.7753 15.3766 64.8221C15.0065 64.8688 14.6571 65.0192 14.3688 65.256C14.0805 65.4927 13.8649 65.806 13.747 66.16C13.6291 66.5139 13.6136 66.8939 13.7023 67.2563V83.7771H56.4106" stroke="#60A5FA" stroke-width="2.08333" stroke-linecap="round" stroke-linejoin="round"/>
<path d="M39.1792 71.7771L44.4959 81.0271C50.8875 77.2479 57.4167 81.0437 57.4167 88.4583H68.0355C68.0355 81.0437 73.948 77.5958 80.9855 81.0437L86.3042 71.7729C79.7438 68.0083 79.7396 60.6521 86.3042 56.8771L80.9855 47.6333C74.6625 51.3875 68.0355 47.6417 68.0355 40.1917H57.4167C57.4167 47.6417 50.8896 51.3875 44.4917 47.6417L39.1792 56.7104C45.9042 60.6479 45.5125 68.1375 39.1792 71.7771Z" stroke="#60A5FA" stroke-width="2.08333" stroke-linecap="round" stroke-linejoin="round"/>
<path d="M62.7414 73.0083C67.5371 73.0083 71.4248 69.1207 71.4248 64.325C71.4248 59.5293 67.5371 55.6417 62.7414 55.6417C57.9458 55.6417 54.0581 59.5293 54.0581 64.325C54.0581 69.1207 57.9458 73.0083 62.7414 73.0083Z" stroke="#60A5FA" stroke-width="2.08333" stroke-linecap="round" stroke-linejoin="round"/>
<path d="M48.0668 30.225C47.0918 31.0083 46.8584 33.575 50.5376 33.9708H68.0355V40.1917" stroke="#60A5FA" stroke-width="2.08333" stroke-linecap="round" stroke-linejoin="round"/>
</svg>
