<svg width="714" height="1138" viewBox="0 0 714 1138" fill="none" xmlns="http://www.w3.org/2000/svg">
<path d="M405.5 605.969H117.219L115.656 484.875H377.375C420.604 484.875 458.365 477.583 490.656 463C522.948 448.417 547.948 427.583 565.656 400.5C583.885 372.896 593 340.083 593 302.062C593 260.396 584.927 226.542 568.781 200.5C553.156 173.938 528.938 154.667 496.125 142.688C463.833 130.188 422.688 123.938 372.688 123.938H150.812V1138H0.03125V0.5H372.688C431.021 0.5 483.104 6.48958 528.938 18.4688C574.771 29.9271 613.573 48.1562 645.344 73.1562C677.635 97.6354 702.115 128.885 718.781 166.906C735.448 204.927 743.781 250.5 743.781 303.625C743.781 350.5 731.802 392.948 707.844 430.969C683.885 468.469 650.552 499.198 607.844 523.156C565.656 547.115 516.177 562.479 459.406 569.25L405.5 605.969ZM398.469 1138H57.8438L143 1015.34H398.469C446.385 1015.34 487.01 1007.01 520.344 990.344C554.198 973.677 579.979 950.24 597.688 920.031C615.396 889.302 624.25 853.104 624.25 811.438C624.25 769.25 616.698 732.792 601.594 702.062C586.49 671.333 562.792 647.635 530.5 630.969C498.208 614.302 456.542 605.969 405.5 605.969H190.656L192.219 484.875H485.969L518 528.625C572.688 533.312 619.042 548.938 657.062 575.5C695.083 601.542 723.99 634.875 743.781 675.5C764.094 716.125 774.25 760.917 774.25 809.875C774.25 880.708 758.625 940.604 727.375 989.562C696.646 1038 653.156 1074.98 596.906 1100.5C540.656 1125.5 474.51 1138 398.469 1138Z" fill="url(#paint0_linear_3700_14670)"/>
<defs>
<linearGradient id="paint0_linear_3700_14670" x1="176.5" y1="13" x2="176.5" y2="1170" gradientUnits="userSpaceOnUse">
<stop stop-color="white"/>
<stop offset="1" stop-color="white" stop-opacity="0"/>
</linearGradient>
</defs>
</svg>
