<svg width="100" height="100" viewBox="0 0 100 100" fill="none" xmlns="http://www.w3.org/2000/svg">
<path d="M25 12.5V25H12.5V12.5H25ZM6.25 6.25V31.25H31.25V6.25H6.25ZM56.25 21.875V34.375H43.75V21.875H56.25ZM37.5 15.625V40.625H62.5V15.625H37.5ZM25 50V62.5H12.5V50H25ZM6.25 43.75V68.75H31.25V43.75H6.25Z" fill="black"/>
<path d="M68.75 31.25V50H50V68.75H31.25V93.75H93.75V31.25H68.75ZM56.25 56.25H68.75V68.75H56.25V56.25ZM50 87.5H37.5V75H50V87.5ZM68.75 87.5H56.25V75H68.75V87.5ZM87.5 87.5H75V75H87.5V87.5ZM87.5 68.75H75V56.25H87.5V68.75ZM75 50V37.5H87.5V50H75Z" fill="black"/>
</svg>
