<svg width="100" height="100" viewBox="0 0 100 100" fill="none" xmlns="http://www.w3.org/2000/svg">
<path d="M37.5001 78.125C35.1938 78.125 33.2001 79.3906 32.1157 81.25H14.5219L22.7969 65.3375C23.5063 65.5094 24.2376 65.625 25.0001 65.625C30.1688 65.625 34.3751 61.4188 34.3751 56.25C34.3751 51.0812 30.1688 46.875 25.0001 46.875C19.8313 46.875 15.6251 51.0812 15.6251 56.25C15.6251 58.3719 16.3594 60.3063 17.5501 61.8781L6.60318 82.9375C6.35652 83.4136 6.23652 83.9452 6.25473 84.4811C6.27295 85.0171 6.42876 85.5393 6.70718 85.9976C6.98561 86.4559 7.37727 86.8348 7.84451 87.0979C8.31174 87.361 8.83883 87.4995 9.37506 87.5H32.1157C33.2001 89.3594 35.1938 90.625 37.5001 90.625C39.1577 90.625 40.7474 89.9665 41.9195 88.7944C43.0916 87.6223 43.7501 86.0326 43.7501 84.375C43.7501 82.7174 43.0916 81.1277 41.9195 79.9556C40.7474 78.7835 39.1577 78.125 37.5001 78.125ZM25.0001 53.125C25.8047 53.161 26.5644 53.506 27.1211 54.0881C27.6777 54.6702 27.9884 55.4446 27.9884 56.25C27.9884 57.0554 27.6777 57.8298 27.1211 58.4119C26.5644 58.994 25.8047 59.339 25.0001 59.375C24.1713 59.375 23.3764 59.0458 22.7904 58.4597C22.2043 57.8737 21.8751 57.0788 21.8751 56.25C21.8751 55.4212 22.2043 54.6263 22.7904 54.0403C23.3764 53.4542 24.1713 53.125 25.0001 53.125ZM93.3969 82.9344L80.7719 58.65C81.2869 57.4116 81.3899 56.0405 81.0657 54.7391C80.7415 53.4377 80.0072 52.2751 78.9714 51.4231C77.9356 50.5711 76.6532 50.0749 75.3137 50.0078C73.9742 49.9407 72.6487 50.3063 71.5329 51.0505C70.4172 51.7948 69.5704 52.8782 69.1178 54.1407C68.6652 55.4032 68.6306 56.7778 69.0194 58.0614C69.4081 59.345 70.1994 60.4696 71.2764 61.2688C72.3533 62.0681 73.6589 62.4998 75.0001 62.5C75.2344 62.5 75.4594 62.4562 75.6876 62.4281L85.4782 81.25H71.3001C70.658 79.4271 69.4674 77.8477 67.8918 76.7287C66.3161 75.6096 64.4327 75.0057 62.5001 75C57.3313 75 53.1251 79.2062 53.1251 84.375C53.1251 89.5438 57.3313 93.75 62.5001 93.75C64.4327 93.7443 66.3161 93.1404 67.8918 92.0213C69.4674 90.9023 70.658 89.3229 71.3001 87.5H90.6251C91.1622 87.5001 91.6902 87.3617 92.1583 87.0982C92.6263 86.8348 93.0186 86.4551 93.2972 85.9959C93.5758 85.5367 93.7313 85.0135 93.7488 84.4767C93.7663 83.9399 93.6451 83.4107 93.3969 82.9344ZM62.5001 87.5C61.6954 87.464 60.9357 87.119 60.379 86.5369C59.8224 85.9548 59.5117 85.1804 59.5117 84.375C59.5117 83.5696 59.8224 82.7952 60.379 82.2131C60.9357 81.631 61.6954 81.286 62.5001 81.25C63.3047 81.286 64.0644 81.631 64.6211 82.2131C65.1777 82.7952 65.4884 83.5696 65.4884 84.375C65.4884 85.1804 65.1777 85.9548 64.6211 86.5369C64.0644 87.119 63.3047 87.464 62.5001 87.5ZM65.6251 25C64.8819 25.0082 64.1423 25.1047 63.4219 25.2875L52.7719 4.8125C52.2344 3.77187 51.1157 3.125 50.0001 3.125C48.8844 3.125 47.7657 3.77188 47.2282 4.80938L35.0626 28.1969C34.8376 28.1687 34.6126 28.125 34.3751 28.125C33.0337 28.1246 31.7279 28.5556 30.6504 29.3545C29.573 30.1534 28.7811 31.2778 28.3919 32.5614C28.0027 33.845 28.0367 35.2197 28.489 36.4825C28.9413 37.7452 29.7878 38.829 30.9035 39.5736C32.0192 40.3182 33.3448 40.6841 34.6844 40.6172C36.0241 40.5504 37.3067 40.0543 38.3427 39.2024C39.3787 38.3505 40.1132 37.1878 40.4375 35.8863C40.7618 34.5848 40.6589 33.2135 40.1438 31.975L50.0001 13.025L58.1751 28.7437C56.9327 30.3587 56.2562 32.3375 56.2501 34.375C56.2501 39.5438 60.4563 43.75 65.6251 43.75C70.7938 43.75 75.0001 39.5438 75.0001 34.375C75.0001 29.2062 70.7938 25 65.6251 25ZM65.6251 37.5C64.8204 37.464 64.0607 37.119 63.504 36.5369C62.9474 35.9548 62.6367 35.1804 62.6367 34.375C62.6367 33.5696 62.9474 32.7952 63.504 32.2131C64.0607 31.631 64.8204 31.286 65.6251 31.25C66.4297 31.286 67.1894 31.631 67.7461 32.2131C68.3027 32.7952 68.6134 33.5696 68.6134 34.375C68.6134 35.1804 68.3027 35.9548 67.7461 36.5369C67.1894 37.119 66.4297 37.464 65.6251 37.5Z" fill="#7CD7FB"/>
</svg>
