<svg width="100" height="100" viewBox="0 0 100 100" fill="none" xmlns="http://www.w3.org/2000/svg">
<mask id="mask0_262_50" style="mask-type:luminance" maskUnits="userSpaceOnUse" x="4" y="4" width="92" height="92">
<path d="M59.0979 75H50L31.25 64.6667L8.35205 73.0875L14.6062 85.4709L29.3396 79.3188C43.125 87.55 51.5146 91.6667 54.5104 91.6667C57.5062 91.6667 69.8916 86.1104 91.6666 75" stroke="white" stroke-width="8.33333" stroke-linecap="round" stroke-linejoin="round"/>
<path fill-rule="evenodd" clip-rule="evenodd" d="M60.3998 56.225V46.4958C62.6915 45.5438 65.6978 44.1521 67.4248 42.425C70.0471 39.8028 71.8328 36.4618 72.5563 32.8247C73.2797 29.1876 72.9084 25.4176 71.4892 21.9915C70.0701 18.5654 67.6668 15.637 64.5834 13.5768C61.5 11.5165 57.8749 10.4168 54.1665 10.4168C50.4581 10.4168 46.833 11.5165 43.7496 13.5768C40.6662 15.637 38.2629 18.5654 36.8438 21.9915C35.4246 25.4176 35.0533 29.1876 35.7768 32.8247C36.5002 36.4618 38.286 39.8028 40.9082 42.425C42.6353 44.1521 45.6248 45.5438 47.9165 46.4938C47.929 47.1917 47.929 50.4354 47.9165 56.2229L60.3998 56.225Z" fill="#555555" stroke="white" stroke-width="8.33333" stroke-linejoin="round"/>
<path d="M24.9998 43.75L27.0832 41.6667M83.3332 43.75L81.2498 41.6667M31.2498 10.4167L29.1665 8.33334M77.0832 10.4167L79.1665 8.33334M85.4165 25H83.3332M24.9998 25H22.9165" stroke="white" stroke-width="8.33333" stroke-linecap="round"/>
</mask>
<g mask="url(#mask0_262_50)">
<path d="M0 0H100V100H0V0Z" fill="#1D4ED8"/>
</g>
</svg>
