<svg width="100" height="100" viewBox="0 0 100 100" fill="none" xmlns="http://www.w3.org/2000/svg">
<path d="M62.5 43.75H87.5C89.1576 43.75 90.7473 43.0915 91.9194 41.9194C93.0915 40.7473 93.75 39.1576 93.75 37.5V12.5C93.75 10.8424 93.0915 9.25268 91.9194 8.08058C90.7473 6.90848 89.1576 6.25 87.5 6.25H62.5C60.8424 6.25 59.2527 6.90848 58.0806 8.08058C56.9085 9.25268 56.25 10.8424 56.25 12.5H28.125C26.4674 12.5 24.8777 13.1585 23.7056 14.3306C22.5335 15.5027 21.875 17.0924 21.875 18.75V31.25H12.5C10.8424 31.25 9.25268 31.9085 8.08058 33.0806C6.90848 34.2527 6.25 35.8424 6.25 37.5V62.5C6.25 64.1576 6.90848 65.7473 8.08058 66.9194C9.25268 68.0915 10.8424 68.75 12.5 68.75H18.75V81.25C18.75 82.9076 19.4085 84.4973 20.5806 85.6694C21.7527 86.8415 23.3424 87.5 25 87.5H56.25C56.25 89.1576 56.9085 90.7473 58.0806 91.9194C59.2527 93.0915 60.8424 93.75 62.5 93.75H87.5C89.1576 93.75 90.7473 93.0915 91.9194 91.9194C93.0915 90.7473 93.75 89.1576 93.75 87.5V62.5C93.75 60.8424 93.0915 59.2527 91.9194 58.0806C90.7473 56.9085 89.1576 56.25 87.5 56.25H62.5C60.8424 56.25 59.2527 56.9085 58.0806 58.0806C56.9085 59.2527 56.25 60.8424 56.25 62.5V81.25H25V68.75H37.5C39.1576 68.75 40.7473 68.0915 41.9194 66.9194C43.0915 65.7473 43.75 64.1576 43.75 62.5V37.5C43.75 35.8424 43.0915 34.2527 41.9194 33.0806C40.7473 31.9085 39.1576 31.25 37.5 31.25H28.125V18.75H56.25V37.5C56.25 39.1576 56.9085 40.7473 58.0806 41.9194C59.2527 43.0915 60.8424 43.75 62.5 43.75ZM62.5 87.5V75H87.5V87.5H62.5ZM87.5 62.5V68.75H62.5V62.5H87.5ZM12.5 62.5V50H37.5V62.5H12.5ZM37.5 43.75H12.5V37.5H37.5V43.75ZM62.5 37.5V25H87.5V37.5H62.5ZM87.5 12.5V18.75H62.5V12.5H87.5Z" fill="black"/>
</svg>
