<svg width="110" height="153" viewBox="0 0 110 153" fill="none" xmlns="http://www.w3.org/2000/svg">
<path d="M76.4571 48.2743H34.1829C20.8973 48.2743 14.2545 48.2743 10.1273 52.4016C6 56.5288 6 63.1717 6 76.4571V118.731C6 132.017 6 138.66 10.1273 142.787C14.2545 146.914 20.8973 146.914 34.1829 146.914H76.4571C89.7425 146.914 96.3852 146.914 100.513 142.787C104.64 138.66 104.64 132.017 104.64 118.731V76.4571C104.64 63.1717 104.64 56.5288 100.513 52.4016C96.3852 48.2743 89.7425 48.2743 76.4571 48.2743Z" stroke="white" stroke-width="10.5686" stroke-linecap="round" stroke-linejoin="round"/>
<path d="M97.5943 48.2743V34.1829C97.5943 20.8973 97.5943 14.2545 93.4669 10.1273C89.3395 6 82.6968 6 69.4114 6H41.2286C27.943 6 21.3003 6 17.173 10.1273C13.0457 14.2545 13.0457 20.8973 13.0457 34.1829V48.2743" stroke="white" stroke-width="10.5686" stroke-linecap="round" stroke-linejoin="round"/>
<path d="M55.32 48.2743V27.1371" stroke="white" stroke-width="10.5686" stroke-linecap="round" stroke-linejoin="round"/>
<path d="M34.1829 48.2743V27.1371" stroke="white" stroke-width="10.5686" stroke-linecap="round" stroke-linejoin="round"/>
<path d="M76.4571 48.2743V27.1371" stroke="white" stroke-width="10.5686" stroke-linecap="round" stroke-linejoin="round"/>
<path d="M56.4072 125.777C67.4802 125.777 76.4571 116.945 76.4571 106.049C76.4571 89.8778 59.2712 86.3211 59.2712 69.4114C46.3839 76.4571 48.2743 97.5943 48.2743 97.5943C48.2743 97.5943 36.3729 97.5943 36.3689 87.0257C29.685 104.64 38.8826 125.777 56.4072 125.777Z" stroke="white" stroke-width="10.5686" stroke-linejoin="round"/>
</svg>
