<svg width="100" height="100" viewBox="0 0 100 100" fill="none" xmlns="http://www.w3.org/2000/svg">
<path d="M58.3332 76.3333C53.7886 74.1368 49.8857 70.8079 46.9998 66.6667H12.4998V16.6667H87.4998V26.0833C90.8715 28.4561 93.71 31.5075 95.8332 35.0417V16.6667C95.8332 14.4565 94.9552 12.3369 93.3924 10.7741C91.8296 9.21132 89.71 8.33334 87.4998 8.33334H12.4998C10.2897 8.33334 8.17008 9.21132 6.60728 10.7741C5.04448 12.3369 4.1665 14.4565 4.1665 16.6667V66.6667C4.1665 68.8768 5.04448 70.9964 6.60728 72.5592C8.17008 74.122 10.2897 75 12.4998 75H41.6665V83.3333H33.3332V91.6667H66.6665V83.3333H58.3332V76.3333Z" fill="white"/>
<path d="M70.8335 25C65.889 25 61.0555 26.4662 56.9442 29.2133C52.833 31.9603 49.6287 35.8648 47.7365 40.4329C45.8443 45.0011 45.3492 50.0277 46.3139 54.8773C47.2785 59.7268 49.6595 64.1814 53.1558 67.6777C56.6521 71.174 61.1067 73.555 65.9562 74.5196C70.8058 75.4843 75.8324 74.9892 80.4006 73.097C84.9687 71.2048 88.8732 68.0005 91.6202 63.8893C94.3673 59.778 95.8335 54.9445 95.8335 50C95.8335 43.3696 93.1996 37.0107 88.5112 32.3223C83.8228 27.6339 77.4639 25 70.8335 25ZM70.8335 56.25C69.5974 56.25 68.389 55.8834 67.3612 55.1967C66.3334 54.5099 65.5323 53.5338 65.0593 52.3918C64.5862 51.2497 64.4624 49.9931 64.7036 48.7807C64.9448 47.5683 65.54 46.4547 66.4141 45.5806C67.2882 44.7065 68.4018 44.1112 69.6142 43.8701C70.8266 43.6289 72.0832 43.7527 73.2253 44.2258C74.3673 44.6988 75.3434 45.4999 76.0302 46.5277C76.7169 47.5555 77.0835 48.7639 77.0835 50C77.0835 51.6576 76.425 53.2473 75.2529 54.4194C74.0808 55.5915 72.4911 56.25 70.8335 56.25Z" fill="white"/>
</svg>
