<svg width="99" height="74" viewBox="0 0 99 74" fill="none" xmlns="http://www.w3.org/2000/svg">
<path d="M76.446 55.485H80.7615C81.9945 55.485 83.2275 54.252 83.2275 53.019V8.631C83.2275 7.398 81.9945 6.165 80.7615 6.165H76.446C75.213 6.165 73.98 7.398 73.98 8.631V53.019C73.98 54.252 75.213 55.485 76.446 55.485ZM39.456 55.485H43.7715C45.0045 55.485 46.2375 54.252 46.2375 53.019V14.796C46.2375 13.563 45.0045 12.33 43.7715 12.33H39.456C38.223 12.33 36.99 13.563 36.99 14.796V53.019C36.99 54.252 38.223 55.485 39.456 55.485ZM57.951 55.485H62.2665C63.4995 55.485 64.7325 54.252 64.7325 53.019V27.126C64.7325 25.893 63.4995 24.66 62.2665 24.66H57.951C56.718 24.66 55.485 25.893 55.485 27.126V53.019C55.485 54.252 56.718 55.485 57.951 55.485ZM95.5575 64.7325H9.2475V3.0825C9.2475 1.37942 7.86808 0 6.165 0H3.0825C1.37942 0 0 1.37942 0 3.0825V67.815C0 71.2192 2.76076 73.98 6.165 73.98H95.5575C97.2606 73.98 98.64 72.6006 98.64 70.8975V67.815C98.64 66.1119 97.2606 64.7325 95.5575 64.7325ZM20.961 55.485H25.2765C26.5095 55.485 27.7425 54.252 27.7425 53.019V39.456C27.7425 38.223 26.5095 36.99 25.2765 36.99H20.961C19.728 36.99 18.495 38.223 18.495 39.456V53.019C18.495 54.252 19.728 55.485 20.961 55.485Z" fill="white"/>
</svg>
