<svg width="100" height="100" viewBox="0 0 100 100" fill="none" xmlns="http://www.w3.org/2000/svg">
<path d="M53.0333 9.23333C53.3328 8.94203 53.6878 8.71377 54.0771 8.56204C54.4664 8.41032 54.8822 8.33822 55.2999 8.35C64.8491 8.63861 73.9282 12.561 80.6835 19.3164C87.4389 26.0718 91.3613 35.1508 91.6499 44.7C91.6622 45.118 91.5904 45.5343 91.4389 45.9241C91.2873 46.3138 91.0591 46.6692 90.7677 46.9692C90.4763 47.2692 90.1276 47.5076 89.7424 47.6703C89.3571 47.8331 88.9431 47.9168 88.5249 47.9167H55.2083C54.3795 47.9167 53.5846 47.5874 52.9986 47.0014C52.4125 46.4153 52.0833 45.6205 52.0833 44.7917V11.475C52.0836 11.0568 52.1678 10.6429 52.331 10.2578C52.4942 9.87279 52.733 9.5244 53.0333 9.23333ZM45.8333 19.9333C45.8333 19.4994 45.7429 19.0703 45.5679 18.6732C45.3929 18.2761 45.1372 17.9198 44.817 17.627C44.4967 17.3342 44.119 17.1113 43.7079 16.9725C43.2968 16.8337 42.8613 16.7821 42.4291 16.8208C35.3319 17.4679 28.566 20.124 22.9239 24.4779C17.2819 28.8318 12.9973 34.7033 10.5721 41.4046C8.14692 48.1059 7.68148 55.3596 9.23033 62.3159C10.7792 69.2722 14.2782 75.6431 19.3175 80.6824C24.3568 85.7217 30.7277 89.2207 37.684 90.7696C44.6404 92.3184 51.894 91.853 58.5953 89.4278C65.2966 87.0026 71.1681 82.718 75.522 77.076C79.876 71.4339 82.532 64.668 83.1791 57.5708C83.2179 57.1386 83.1662 56.7031 83.0274 56.292C82.8886 55.8809 82.6657 55.5032 82.3729 55.183C82.0801 54.8627 81.7238 54.607 81.3267 54.432C80.9297 54.257 80.5005 54.1667 80.0666 54.1667H45.8333V19.9333Z" fill="black"/>
</svg>
