<svg width="100" height="100" viewBox="0 0 100 100" fill="none" xmlns="http://www.w3.org/2000/svg">
<g clip-path="url(#clip0_263_71)">
<path d="M91.6669 5.55554H61.3891C60.6524 5.55554 59.9459 5.8482 59.4249 6.36913C58.904 6.89007 58.6113 7.59661 58.6113 8.33332C58.6113 9.07003 58.904 9.77657 59.4249 10.2975C59.9459 10.8184 60.6524 11.1111 61.3891 11.1111H85.0835L60.5835 36.1111C60.3282 36.3719 60.1267 36.6805 59.9906 37.0192C59.8545 37.3578 59.7865 37.72 59.7903 38.085C59.7942 38.45 59.8699 38.8106 60.0132 39.1464C60.1564 39.4821 60.3644 39.7863 60.6252 40.0417C60.886 40.297 61.1946 40.4985 61.5333 40.6346C61.872 40.7707 62.2341 40.8387 62.5991 40.8349C62.9641 40.831 63.3248 40.7553 63.6605 40.612C63.9962 40.4688 64.3004 40.2608 64.5558 40L88.8891 15.1667V38.6111C88.8891 39.3478 89.1818 40.0543 89.7027 40.5753C90.2236 41.0962 90.9302 41.3889 91.6669 41.3889C92.4036 41.3889 93.1101 41.0962 93.6311 40.5753C94.152 40.0543 94.4447 39.3478 94.4447 38.6111V8.33332C94.4447 7.59661 94.152 6.89007 93.6311 6.36913C93.1101 5.8482 92.4036 5.55554 91.6669 5.55554Z" fill="#1D4ED8"/>
<path d="M34.6111 29.8056C34.1888 29.5618 33.7098 29.4334 33.2222 29.4334C32.7346 29.4334 32.2556 29.5618 31.8333 29.8056L7.72217 43.6944L33.3333 58.3333L58.8611 43.7222L34.6111 29.8056Z" fill="#1D4ED8"/>
<path d="M5.55569 77.0278C5.55374 77.5172 5.68117 77.9985 5.92507 78.4229C6.16897 78.8473 6.52067 79.1997 6.94457 79.4444L30.5557 92.9444V62.3889L5.55569 48V77.0278Z" fill="#1D4ED8"/>
<path d="M36.1113 92.9444L59.7224 79.4444C60.1463 79.1997 60.498 78.8473 60.7419 78.4229C60.9858 77.9985 61.1133 77.5172 61.1113 77.0278V48.0278L36.1113 62.3333V92.9444Z" fill="#1D4ED8"/>
</g>
<defs>
<clipPath id="clip0_263_71">
<rect width="100" height="100" fill="white"/>
</clipPath>
</defs>
</svg>
