<svg width="100" height="100" viewBox="0 0 100 100" fill="none" xmlns="http://www.w3.org/2000/svg">
<path d="M13.7334 85.8417L40.25 59.325M73.6417 47.5334L65.7042 71.35C65.577 71.731 65.3598 72.0756 65.0712 72.3549C64.7825 72.6341 64.4308 72.8397 64.0459 72.9542L15.3875 87.4209C14.9492 87.5511 14.4835 87.5585 14.0412 87.4424C13.5988 87.3264 13.1968 87.0912 12.8789 86.7625C12.561 86.4338 12.3393 86.0242 12.2379 85.5783C12.1366 85.1324 12.1595 84.6672 12.3042 84.2334L28.1042 36.8417C28.2174 36.5014 28.4026 36.1895 28.647 35.9271C28.8914 35.6647 29.1895 35.4579 29.5209 35.3209L51.9667 26.0792C52.423 25.8907 52.9249 25.8416 53.4091 25.938C53.8934 26.0344 54.3382 26.272 54.6875 26.6209L73.0375 44.975C73.3659 45.3033 73.5963 45.7165 73.703 46.1684C73.8097 46.6203 73.7885 47.0929 73.6417 47.5334Z" stroke="#1D4ED8" stroke-width="6.25" stroke-linecap="round" stroke-linejoin="round"/>
<path d="M76.6791 13.2584L86.5291 23.1084C87.2693 23.8165 87.8606 24.6654 88.2682 25.6052C88.6759 26.545 88.8917 27.5567 88.903 28.5811C88.9144 29.6054 88.721 30.6217 88.3342 31.5703C87.9474 32.5188 87.375 33.3806 86.6507 34.1049C85.9263 34.8293 85.0646 35.4017 84.116 35.7885C83.1674 36.1752 82.1511 36.3686 81.1268 36.3573C80.1025 36.346 79.0907 36.1302 78.1509 35.7225C77.2111 35.3148 76.3623 34.7236 75.6541 33.9834L65.7999 24.1334C64.4101 22.6806 63.6443 20.7415 63.6665 18.7311C63.6887 16.7207 64.4972 14.7989 65.9189 13.3773C67.3405 11.9556 69.2623 11.1471 71.2726 11.1249C73.283 11.1027 75.2264 11.8685 76.6791 13.2584Z" fill="#1D4ED8" stroke="#1D4ED8" stroke-width="6.25" stroke-linecap="round" stroke-linejoin="round"/>
<path d="M49.0873 50.4834C48.5108 49.8864 47.8211 49.4103 47.0586 49.0827C46.2961 48.7552 45.476 48.5828 44.6461 48.5756C43.8162 48.5683 42.9932 48.7265 42.2251 49.0407C41.457 49.355 40.7592 49.8191 40.1724 50.4059C39.5856 50.9927 39.1215 51.6906 38.8072 52.4587C38.493 53.2268 38.3348 54.0498 38.342 54.8796C38.3492 55.7095 38.5217 56.5296 38.8492 57.2921C39.1768 58.0547 39.6529 58.7443 40.2498 59.3209C41.4286 60.4594 43.0074 61.0893 44.6461 61.0751C46.2848 61.0608 47.8524 60.4035 49.0112 59.2447C50.17 58.0859 50.8273 56.5184 50.8416 54.8796C50.8558 53.2409 50.2258 51.6621 49.0873 50.4834Z" stroke="#1D4ED8" stroke-width="6.25" stroke-linecap="round" stroke-linejoin="round"/>
</svg>
