<svg width="100" height="100" viewBox="0 0 100 100" fill="none" xmlns="http://www.w3.org/2000/svg">
<path d="M68.1668 58.3333C68.5002 55.5833 68.7502 52.8333 68.7502 50C68.7502 47.1667 68.5002 44.4167 68.1668 41.6667H82.2502C82.9168 44.3333 83.3335 47.125 83.3335 50C83.3335 52.875 82.9168 55.6667 82.2502 58.3333M60.7918 81.5C63.2918 76.875 65.2085 71.875 66.5418 66.6667H78.8335C74.7967 73.6178 68.3923 78.8833 60.7918 81.5ZM59.7502 58.3333H40.2502C39.8335 55.5833 39.5835 52.8333 39.5835 50C39.5835 47.1667 39.8335 44.375 40.2502 41.6667H59.7502C60.1252 44.375 60.4168 47.1667 60.4168 50C60.4168 52.8333 60.1252 55.5833 59.7502 58.3333ZM50.0002 83.1667C46.5418 78.1667 43.7502 72.625 42.0418 66.6667H57.9585C56.2502 72.625 53.4585 78.1667 50.0002 83.1667ZM33.3335 33.3333H21.1668C25.1612 26.3626 31.5612 21.0885 39.1668 18.5C36.6668 23.125 34.7918 28.125 33.3335 33.3333ZM21.1668 66.6667H33.3335C34.7918 71.875 36.6668 76.875 39.1668 81.5C31.5763 78.8846 25.1847 73.6175 21.1668 66.6667ZM17.7502 58.3333C17.0835 55.6667 16.6668 52.875 16.6668 50C16.6668 47.125 17.0835 44.3333 17.7502 41.6667H31.8335C31.5002 44.4167 31.2502 47.1667 31.2502 50C31.2502 52.8333 31.5002 55.5833 31.8335 58.3333M50.0002 16.7917C53.4585 21.7917 56.2502 27.375 57.9585 33.3333H42.0418C43.7502 27.375 46.5418 21.7917 50.0002 16.7917ZM78.8335 33.3333H66.5418C65.2358 28.1734 63.3048 23.1921 60.7918 18.5C68.4585 21.125 74.8335 26.4167 78.8335 33.3333ZM50.0002 8.33334C26.9585 8.33334 8.3335 27.0833 8.3335 50C8.3335 61.0507 12.7234 71.6488 20.5374 79.4628C24.4065 83.3319 28.9998 86.401 34.055 88.495C39.1102 90.5889 44.5284 91.6667 50.0002 91.6667C61.0508 91.6667 71.6489 87.2768 79.4629 79.4628C87.277 71.6488 91.6668 61.0507 91.6668 50C91.6668 44.5283 90.5891 39.1101 88.4951 34.0549C86.4012 28.9996 83.3321 24.4063 79.4629 20.5372C75.5938 16.6681 71.0005 13.599 65.9453 11.505C60.8901 9.41108 55.4719 8.33334 50.0002 8.33334Z" fill="#60A5FA"/>
</svg>
