<svg width="100" height="100" viewBox="0 0 100 100" fill="none" xmlns="http://www.w3.org/2000/svg">
<path fill-rule="evenodd" clip-rule="evenodd" d="M49.9999 17.075L31.5936 27.7L49.9999 38.3438L68.4061 27.7125L49.9999 17.075ZM77.7811 22.2875L49.9999 6.25L22.2186 22.2875L13.2811 17.1312C12.7475 16.7978 12.1522 16.5751 11.5308 16.4766C10.9093 16.3781 10.2744 16.4057 9.66379 16.5578C9.05322 16.7099 8.47953 16.9834 7.9769 17.3619C7.47427 17.7405 7.053 18.2163 6.73819 18.7612C6.42339 19.306 6.2215 19.9086 6.14455 20.5331C6.06761 21.1576 6.11719 21.7912 6.29033 22.3962C6.46347 23.0011 6.75664 23.565 7.15235 24.0542C7.54807 24.5434 8.03823 24.948 8.59362 25.2438L17.5249 30.4062V62.5L45.3124 78.5438V89.0625C45.3124 90.3057 45.8062 91.498 46.6853 92.3771C47.5644 93.2561 48.7567 93.75 49.9999 93.75C51.2431 93.75 52.4354 93.2561 53.3144 92.3771C54.1935 91.498 54.6874 90.3057 54.6874 89.0625V78.5438L82.4749 62.5V30.4062L91.4124 25.2438C92.4578 24.6063 93.2123 23.585 93.5145 22.3984C93.8167 21.2117 93.6425 19.954 93.0293 18.8941C92.4161 17.8342 91.4125 17.0564 90.2331 16.7269C89.0538 16.3975 87.7923 16.5426 86.7186 17.1312L77.7811 22.2875ZM73.0999 35.8187L54.6874 46.4563V67.7188L73.0999 57.0875V35.8187ZM26.8999 57.0875L45.3124 67.7125V46.4625L26.8999 35.8125V57.0875Z" fill="#1D4ED8"/>
</svg>
