<svg width="100" height="100" viewBox="0 0 100 100" fill="none" xmlns="http://www.w3.org/2000/svg">
<g clip-path="url(#clip0_280_126)">
<path d="M83.3332 43.75C84.8869 43.7501 86.3848 44.3288 87.535 45.3734C88.6851 46.418 89.4049 47.8535 89.554 49.4L89.5832 50V66.6667C89.5832 71.4865 87.7271 76.1213 84.4002 79.6088C81.0732 83.0964 76.5311 85.1688 71.7165 85.3958L70.8332 85.4167H16.6665C15.4829 85.4176 14.3234 85.0824 13.3228 84.4501C12.3222 83.8178 11.5218 82.9144 11.0146 81.845C10.5074 80.7755 10.3142 79.5841 10.4577 78.4092C10.6011 77.2343 11.0753 76.1243 11.8249 75.2083L12.2457 74.75L24.7457 62.25C25.8774 61.112 27.4035 60.453 29.0079 60.4095C30.6122 60.3659 32.1718 60.9413 33.3636 62.0162C34.5553 63.0912 35.2878 64.5834 35.4094 66.1838C35.531 67.7841 35.0322 69.3698 34.0165 70.6125L33.5874 71.0875L31.754 72.9167H70.8332C72.3869 72.9166 73.8848 72.3378 75.035 71.2933C76.1851 70.2487 76.9049 68.8132 77.054 67.2667L77.0832 66.6667V50C77.0832 48.3424 77.7417 46.7527 78.9138 45.5806C80.0859 44.4085 81.6756 43.75 83.3332 43.75ZM83.3332 14.5833C84.5168 14.5824 85.6764 14.9176 86.6769 15.5499C87.6775 16.1822 88.478 17.0856 88.9852 18.155C89.4924 19.2244 89.6855 20.4159 89.5421 21.5908C89.3986 22.7657 88.9245 23.8757 88.1749 24.7917L87.754 25.25L75.254 37.75C74.1223 38.888 72.5962 39.547 70.9919 39.5905C69.3875 39.6341 67.8279 39.0587 66.6362 37.9838C65.4445 36.9088 64.7119 35.4165 64.5904 33.8162C64.4688 32.2159 64.9675 30.6301 65.9832 29.3875L66.4124 28.9125L68.2457 27.0833H29.1665C27.6129 27.0834 26.1149 27.6622 24.9648 28.7067C23.8147 29.7513 23.0949 31.1868 22.9457 32.7333L22.9165 33.3333V50C22.9158 51.6051 22.2975 53.1483 21.1898 54.3099C20.0822 55.4716 18.5701 56.1625 16.9669 56.2397C15.3637 56.3168 13.7922 55.7742 12.5782 54.7243C11.3642 53.6743 10.6006 52.1976 10.4457 50.6L10.4165 50V33.3333C10.4166 28.5134 12.2727 23.8787 15.5996 20.3912C18.9265 16.9036 23.4687 14.8312 28.2832 14.6042L29.1665 14.5833H83.3332Z" fill="#7CD7FB"/>
</g>
<defs>
<clipPath id="clip0_280_126">
<rect width="100" height="100" fill="white"/>
</clipPath>
</defs>
</svg>
