<svg width="99" height="99" viewBox="0 0 99 99" fill="none" xmlns="http://www.w3.org/2000/svg">
<path d="M92.2832 42.196H86.9402C87.2253 43.6445 87.4266 45.1083 87.543 46.58H47.9226L22.742 76.9118C16.5756 70.9255 12.5981 63.0418 11.4473 54.525C10.2965 46.0082 12.039 37.3516 16.3955 29.9434C20.752 22.5352 27.47 16.8045 35.4723 13.6703C43.4747 10.536 52.2977 10.1798 60.5266 12.6588L63.2666 7.8364C54.4692 4.8844 44.9621 4.79999 36.1137 7.59532C27.2653 10.3907 19.5321 15.9216 14.0273 23.3918C8.52252 30.8621 5.53005 39.8864 5.48069 49.1657C5.43133 58.445 8.32763 67.5006 13.7527 75.029C19.1777 82.5574 26.8516 88.1703 35.6698 91.0596C44.4879 93.9489 53.9954 93.9656 62.8237 91.1074C71.6519 88.2491 79.3456 82.6633 84.7971 75.1541C90.2485 67.6448 93.1767 58.5994 93.16 49.32C93.1458 46.923 92.935 44.5312 92.5298 42.1686L92.2832 42.196ZM49.32 87.68C41.2883 87.6759 33.4632 85.1347 26.9616 80.419L50.4982 52.06H87.543C86.8507 61.7279 82.5241 70.7753 75.4332 77.3834C68.3423 83.9914 59.0127 87.6701 49.32 87.68Z" fill="white"/>
<path d="M73.569 3.1236L57.8962 30.14C57.5316 30.6752 57.3222 31.3009 57.2914 31.9478C57.2606 32.5947 57.4095 33.2374 57.7216 33.8049C58.0337 34.3723 58.4968 34.8423 59.0596 35.1627C59.6224 35.483 60.2629 35.6413 60.9102 35.62H92.2832C92.9305 35.6413 93.571 35.483 94.1338 35.1627C94.6966 34.8423 95.1597 34.3723 95.4718 33.8049C95.7839 33.2374 95.9328 32.5947 95.902 31.9478C95.8712 31.3009 95.6618 30.6752 95.2972 30.14L79.6244 3.1236C79.3153 2.59493 78.8732 2.15641 78.342 1.85166C77.8108 1.54692 77.2091 1.38657 76.5967 1.38657C75.9843 1.38657 75.3826 1.54692 74.8514 1.85166C74.3202 2.15641 73.8781 2.59493 73.569 3.1236Z" fill="white"/>
</svg>
