<svg enable-background="new 0 0 100 100" height="100" viewBox="0 0 100 100" width="100" xmlns="http://www.w3.org/2000/svg"><g fill="#fff"><path d="m38 30h4c.6 0 1-.4 1-1v-3h14v3c0 .6.4 1 1 1h4c.6 0 1-.4 1-1v-3c0-3.3-2.7-6-6-6h-14c-3.3 0-6 2.7-6 6v3c0 .6.4 1 1 1z"/><path d="m74 36h-48c-3.3 0-6 2.7-6 6v32c0 3.3 2.7 6 6 6h48c3.3 0 6-2.7 6-6v-32c0-3.3-2.7-6-6-6zm-24 36c-7.7 0-14-6.3-14-14s6.3-14 14-14 14 6.3 14 14-6.3 14-14 14z"/><path d="m56 55h-3v-3c0-1.1-.9-2-2-2h-2c-1.1 0-2 .9-2 2v3h-3c-1.1 0-2 .9-2 2v2c0 1.1.9 2 2 2h3v3c0 1.1.9 2 2 2h2c1.1 0 2-.9 2-2v-3h3c1.1 0 2-.9 2-2v-2c0-1.1-.9-2-2-2z"/></g></svg>