<svg width="100" height="100" viewBox="0 0 100 100" fill="none" xmlns="http://www.w3.org/2000/svg">
<path d="M66.6665 75C68.8766 75 70.9963 75.878 72.5591 77.4408C74.1219 79.0036 74.9998 81.1232 74.9998 83.3333C74.9998 85.5435 74.1219 87.6631 72.5591 89.2259C70.9963 90.7887 68.8766 91.6667 66.6665 91.6667C64.4564 91.6667 62.3367 90.7887 60.7739 89.2259C59.2111 87.6631 58.3332 85.5435 58.3332 83.3333C58.3332 81.1232 59.2111 79.0036 60.7739 77.4408C62.3367 75.878 64.4564 75 66.6665 75ZM66.6665 79.1667C65.5614 79.1667 64.5016 79.6056 63.7202 80.387C62.9388 81.1685 62.4998 82.2283 62.4998 83.3333C62.4998 84.4384 62.9388 85.4982 63.7202 86.2796C64.5016 87.061 65.5614 87.5 66.6665 87.5C67.7716 87.5 68.8314 87.061 69.6128 86.2796C70.3942 85.4982 70.8332 84.4384 70.8332 83.3333C70.8332 82.2283 70.3942 81.1685 69.6128 80.387C68.8314 79.6056 67.7716 79.1667 66.6665 79.1667ZM29.1665 75C31.3766 75 33.4963 75.878 35.0591 77.4408C36.6219 79.0036 37.4998 81.1232 37.4998 83.3333C37.4998 85.5435 36.6219 87.6631 35.0591 89.2259C33.4963 90.7887 31.3766 91.6667 29.1665 91.6667C26.9564 91.6667 24.8367 90.7887 23.2739 89.2259C21.7111 87.6631 20.8332 85.5435 20.8332 83.3333C20.8332 81.1232 21.7111 79.0036 23.2739 77.4408C24.8367 75.878 26.9564 75 29.1665 75ZM29.1665 79.1667C28.0614 79.1667 27.0016 79.6056 26.2202 80.387C25.4388 81.1685 24.9998 82.2283 24.9998 83.3333C24.9998 84.4384 25.4388 85.4982 26.2202 86.2796C27.0016 87.061 28.0614 87.5 29.1665 87.5C30.2716 87.5 31.3314 87.061 32.1128 86.2796C32.8942 85.4982 33.3332 84.4384 33.3332 83.3333C33.3332 82.2283 32.8942 81.1685 32.1128 80.387C31.3314 79.6056 30.2716 79.1667 29.1665 79.1667ZM74.9998 25H17.7915L28.4165 50H62.4998C63.8748 50 65.0832 49.3333 65.8332 48.3333L78.3332 31.6667C78.8748 30.9583 79.1665 30.0833 79.1665 29.1667C79.1665 28.0616 78.7275 27.0018 77.9461 26.2204C77.1647 25.439 76.1049 25 74.9998 25ZM62.4998 54.1667H28.6248L25.4165 60.6667L24.9998 62.5C24.9998 63.6051 25.4388 64.6649 26.2202 65.4463C27.0016 66.2277 28.0614 66.6667 29.1665 66.6667H74.9998V70.8333H29.1665C26.9564 70.8333 24.8367 69.9554 23.2739 68.3926C21.7111 66.8297 20.8332 64.7101 20.8332 62.5C20.8319 61.0862 21.1904 59.6954 21.8748 58.4583L24.8748 52.3333L9.74984 16.6667H4.1665V12.5H12.4998L16.0415 20.8333H74.9998C77.21 20.8333 79.3296 21.7113 80.8924 23.2741C82.4552 24.8369 83.3332 26.9565 83.3332 29.1667C83.3332 31.25 82.6248 33 81.4582 34.4167L69.3332 50.625C67.8332 52.75 65.3332 54.1667 62.4998 54.1667Z" fill="#1D4ED8"/>
</svg>
