<svg viewBox="0 0 400 300" xmlns="http://www.w3.org/2000/svg"><path d="m315.26 220.08h-231.54a1 1 0 0 1 0-2h231.54a1 1 0 0 1 0 2z" fill="#093f68"/><rect fill="#fff" height="129.12" rx="11.03" width="170.43" x="106.21" y="89.95"/><path d="m265.61 220.08h-148.37a12 12 0 0 1 -12-12v-107.08a12 12 0 0 1 12-12h148.37a12 12 0 0 1 12 12v107.05a12 12 0 0 1 -12 12.03zm-148.37-129.08a10 10 0 0 0 -10 10v107.05a10 10 0 0 0 10 10h148.37a10 10 0 0 0 10-10v-107.05a10 10 0 0 0 -10-10z" fill="#093f68"/><path d="m276.64 101v13.8h-170.43v-13.8a11 11 0 0 1 11-11h148.4a11 11 0 0 1 11.03 11z" fill="#68e1fd"/><path d="m276.64 115.8h-170.43a1 1 0 0 1 -1-1v-13.8a12 12 0 0 1 12-12h148.4a12 12 0 0 1 12 12v13.8a1 1 0 0 1 -.97 1zm-169.43-2h168.43v-12.8a10 10 0 0 0 -10-10h-148.4a10 10 0 0 0 -10 10z" fill="#093f68"/><path d="m153.46 129.47h17.7v17.7h-17.7z" fill="#fff"/><path d="m171.17 148.17h-17.71a1 1 0 0 1 -1-1v-17.7a1 1 0 0 1 1-1h17.71a1 1 0 0 1 1 1v17.7a1 1 0 0 1 -1 1zm-16.71-2h15.71v-15.7h-15.71z" fill="#dfeaef"/><path d="m182.57 129.47h17.7v17.7h-17.7z" fill="#fff"/><path d="m200.28 148.17h-17.71a1 1 0 0 1 -1-1v-17.7a1 1 0 0 1 1-1h17.71a1 1 0 0 1 1 1v17.7a1 1 0 0 1 -1 1zm-16.71-2h15.71v-15.7h-15.71z" fill="#dfeaef"/><path d="m211.68 129.47h17.7v17.7h-17.7z" fill="#fff"/><path d="m229.38 148.17h-17.7a1 1 0 0 1 -1-1v-17.7a1 1 0 0 1 1-1h17.7a1 1 0 0 1 1 1v17.7a1 1 0 0 1 -1 1zm-16.7-2h15.7v-15.7h-15.7z" fill="#dfeaef"/><path d="m240.79 129.47h17.7v17.7h-17.7z" fill="#f56132"/><path d="m258.49 148.17h-17.7a1 1 0 0 1 -1-1v-17.7a1 1 0 0 1 1-1h17.7a1 1 0 0 1 1 1v17.7a1 1 0 0 1 -1 1zm-16.7-2h15.7v-15.7h-15.7z" fill="#093f68"/><path d="m124.36 156.36h17.7v17.7h-17.7z" fill="#fff"/><path d="m142.06 175.06h-17.7a1 1 0 0 1 -1-1v-17.7a1 1 0 0 1 1-1h17.7a1 1 0 0 1 1 1v17.7a1 1 0 0 1 -1 1zm-16.7-2h15.7v-15.7h-15.7z" fill="#dfeaef"/><path d="m153.46 156.36h17.7v17.7h-17.7z" fill="#fff"/><path d="m171.17 175.06h-17.71a1 1 0 0 1 -1-1v-17.7a1 1 0 0 1 1-1h17.71a1 1 0 0 1 1 1v17.7a1 1 0 0 1 -1 1zm-16.71-2h15.71v-15.7h-15.71z" fill="#dfeaef"/><path d="m182.57 156.36h17.7v17.7h-17.7z" fill="#fff"/><path d="m200.28 175.06h-17.71a1 1 0 0 1 -1-1v-17.7a1 1 0 0 1 1-1h17.71a1 1 0 0 1 1 1v17.7a1 1 0 0 1 -1 1zm-16.71-2h15.71v-15.7h-15.71z" fill="#dfeaef"/><path d="m211.68 156.36h17.7v17.7h-17.7z" fill="#fff"/><path d="m229.38 175.06h-17.7a1 1 0 0 1 -1-1v-17.7a1 1 0 0 1 1-1h17.7a1 1 0 0 1 1 1v17.7a1 1 0 0 1 -1 1zm-16.7-2h15.7v-15.7h-15.7z" fill="#dfeaef"/><path d="m240.79 156.36h17.7v17.7h-17.7z" fill="#f56132"/><path d="m258.49 175.06h-17.7a1 1 0 0 1 -1-1v-17.7a1 1 0 0 1 1-1h17.7a1 1 0 0 1 1 1v17.7a1 1 0 0 1 -1 1zm-16.7-2h15.7v-15.7h-15.7z" fill="#093f68"/><path d="m124.36 183.25h17.7v17.7h-17.7z" fill="#fff"/><path d="m142.06 202h-17.7a1 1 0 0 1 -1-1v-17.7a1 1 0 0 1 1-1h17.7a1 1 0 0 1 1 1v17.7a1 1 0 0 1 -1 1zm-16.7-2h15.7v-15.7h-15.7z" fill="#dfeaef"/><path d="m153.46 183.25h17.7v17.7h-17.7z" fill="#fff"/><path d="m171.17 202h-17.71a1 1 0 0 1 -1-1v-17.7a1 1 0 0 1 1-1h17.71a1 1 0 0 1 1 1v17.7a1 1 0 0 1 -1 1zm-16.71-2h15.71v-15.7h-15.71z" fill="#093f68"/><path d="m182.57 183.25h17.7v17.7h-17.7z" fill="#fff"/><path d="m200.28 202h-17.71a1 1 0 0 1 -1-1v-17.7a1 1 0 0 1 1-1h17.71a1 1 0 0 1 1 1v17.7a1 1 0 0 1 -1 1zm-16.71-2h15.71v-15.7h-15.71z" fill="#dfeaef"/><path d="m211.68 183.25h17.7v17.7h-17.7z" fill="#fff"/><path d="m229.38 202h-17.7a1 1 0 0 1 -1-1v-17.7a1 1 0 0 1 1-1h17.7a1 1 0 0 1 1 1v17.7a1 1 0 0 1 -1 1zm-16.7-2h15.7v-15.7h-15.7z" fill="#dfeaef"/><circle cx="148.21" cy="101.29" fill="#093f68" r="4.69"/><path d="m148.21 107a5.69 5.69 0 1 1 5.68-5.69 5.69 5.69 0 0 1 -5.68 5.69zm0-9.38a3.69 3.69 0 1 0 3.68 3.69 3.69 3.69 0 0 0 -3.68-3.71z" fill="#093f68"/><rect fill="#fff" height="22.34" rx="3.21" width="6.42" x="144.99" y="80.8"/><g fill="#093f68"><path d="m148.21 104.14a4.22 4.22 0 0 1 -4.21-4.21v-15.93a4.22 4.22 0 0 1 8.43 0v15.93a4.22 4.22 0 0 1 -4.22 4.21zm0-22.34a2.22 2.22 0 0 0 -2.21 2.2v15.93a2.22 2.22 0 0 0 4.43 0v-15.93a2.22 2.22 0 0 0 -2.22-2.2z"/><circle cx="234.64" cy="101.29" r="4.69"/><path d="m234.64 107a5.69 5.69 0 1 1 5.69-5.69 5.69 5.69 0 0 1 -5.69 5.69zm0-9.38a3.69 3.69 0 1 0 3.69 3.69 3.69 3.69 0 0 0 -3.69-3.71z"/></g><rect fill="#fff" height="22.34" rx="3.21" width="6.42" x="231.43" y="80.8"/><path d="m234.64 104.14a4.22 4.22 0 0 1 -4.21-4.21v-15.93a4.21 4.21 0 0 1 8.42 0v15.93a4.22 4.22 0 0 1 -4.21 4.21zm0-22.34a2.21 2.21 0 0 0 -2.21 2.2v15.93a2.21 2.21 0 0 0 4.42 0v-15.93a2.21 2.21 0 0 0 -2.21-2.2z" fill="#093f68"/><path d="m160.78 197.75a1.57 1.57 0 0 1 -.37-.05 1.48 1.48 0 0 1 -1-.88l-3-7.17a1.5 1.5 0 1 1 2.77-1.15l2.19 5.3 12.9-10.58a1.5 1.5 0 1 1 1.9 2.32l-14.46 11.87a1.51 1.51 0 0 1 -.93.34z" fill="#70cc40"/><path d="m108.26 114.61h4.45a4.2 4.2 0 0 1 4.2 4.2v67.32a0 0 0 0 1 0 0h-12.85a0 0 0 0 1 0 0v-67.31a4.2 4.2 0 0 1 4.2-4.21z" fill="#68e1fd" transform="matrix(.74953368 -.66196621 .66196621 .74953368 -71.87 110.79)"/><path d="m129.34 182.44h-.07a1 1 0 0 1 -.68-.33l-44.59-50.47a5.2 5.2 0 0 1 .45-7.35l3.34-2.94a5.2 5.2 0 0 1 7.34.45l44.56 50.47a1 1 0 0 1 -.09 1.41l-9.6 8.51a1 1 0 0 1 -.66.25zm-38.08-60.39a3.19 3.19 0 0 0 -2.12.8l-3.33 2.94a3.19 3.19 0 0 0 -.28 4.52l43.89 49.69 8.14-7.18-43.9-49.71a3.17 3.17 0 0 0 -2.4-1.06z" fill="#093f68"/><path d="m138.97 172.92 4.17 10.18 3.24 7.92-7.46-4.19-9.59-5.39z" fill="#fff"/><path d="m146.38 192a1 1 0 0 1 -.49-.13l-17-9.58a1 1 0 0 1 -.5-.77 1 1 0 0 1 .33-.85l9.64-8.52a1 1 0 0 1 .89-.22 1 1 0 0 1 .7.59l7.4 18.1a1 1 0 0 1 -.26 1.13 1 1 0 0 1 -.71.25zm-15.33-10.76 13.31 7.48-5.78-14.14z" fill="#093f68"/><path d="m142.46 181.44 3.92 9.58-9.24-5.19z" fill="#70cc40"/><path d="m146.38 192a1 1 0 0 1 -.49-.13l-9.24-5.19a1 1 0 0 1 -.51-.78 1 1 0 0 1 .36-.86l5.32-4.39a1 1 0 0 1 1.56.39l3.92 9.58a1 1 0 0 1 -.26 1.13 1 1 0 0 1 -.66.25zm-7.48-6.35 5.46 3.07-2.36-5.64z" fill="#093f68"/><path d="m292 201.18s-9.05-18.45-7.79-30.92c0 0 7.28 3.29 10.79 13 5.36 14.86 4.12 17.93 4.12 17.93z" fill="#70cc40"/><path d="m299.12 202.2h-7.12a1 1 0 0 1 -.89-.56c-.38-.76-9.17-18.85-7.9-31.46a1 1 0 0 1 .5-.77 1 1 0 0 1 .91 0c.31.14 7.71 3.58 11.32 13.58 5.22 14.48 4.34 18.07 4.11 18.64a1 1 0 0 1 -.93.57zm-6.48-2h5.61c0-1.48-.32-5.86-4.19-16.59a23.27 23.27 0 0 0 -9-11.68c-.3 10.74 6.17 25.25 7.58 28.26z" fill="#093f68"/><path d="m296.31 200.29s-6.8-26.31 3-43.93c0 0 5.63 6.44 7 22a39.31 39.31 0 0 1 -4.07 21.52z" fill="#70cc40"/><path d="m296.31 201.29a1 1 0 0 1 -1-.75 87 87 0 0 1 -2.18-15.54c-.44-8.15.12-19.81 5.28-29.12a1 1 0 0 1 .77-.51 1 1 0 0 1 .86.34c.23.27 5.85 6.86 7.21 22.59a40 40 0 0 1 -4.2 22.12 1 1 0 0 1 -.79.49l-5.89.39zm3.1-43c-7.51 15.3-3.31 36.59-2.33 41l4.49-.3a39.36 39.36 0 0 0 3.69-20.47c-.97-11.33-4.26-17.73-5.85-20.25z" fill="#093f68"/><path d="m299.24 199.47s2.11-17.57 16.31-29c0 0 4.19 13.09-7.55 30.59z" fill="#70cc40"/><path d="m308 202h-.17l-8.76-1.55a1 1 0 0 1 -.82-1.1c.09-.73 2.32-18.11 16.67-29.69a1 1 0 0 1 .92-.18 1 1 0 0 1 .66.65c.18.55 4.2 13.75-7.67 31.45a1 1 0 0 1 -.83.42zm-7.61-3.36 7.14 1.26c8.65-13.21 8-23.83 7.39-27.65-10.83 9.55-13.92 22.8-14.53 26.41z" fill="#093f68"/><path d="m308.97 219.2h-17.87l-2.65-21.75h23.16z" fill="#fff"/><path d="m309 220.2h-17.9a1 1 0 0 1 -1-.88l-2.65-21.75a1 1 0 0 1 .25-.78 1 1 0 0 1 .75-.34h23.15a1 1 0 0 1 .75.34 1 1 0 0 1 .25.78l-2.6 21.75a1 1 0 0 1 -1 .88zm-17-2h16.09l2.41-19.75h-20.92z" fill="#093f68"/></svg>