<svg viewBox="0 0 400 300" xmlns="http://www.w3.org/2000/svg"><path d="m200 189.11a1 1 0 0 1 -1-1v-35.11a1 1 0 0 1 2 0v35.16a1 1 0 0 1 -1 .95z" fill="#093f68"/><path d="m278.38 184.41a1 1 0 0 1 -1-1v-12.76h-154.75v12.76a1 1 0 0 1 -2 0v-13.76a1 1 0 0 1 1-1h156.75a1 1 0 0 1 1 1v13.76a1 1 0 0 1 -1 1z" fill="#093f68"/><path d="m145.67 187.88v35.44a4.47 4.47 0 0 1 -4.47 4.47h-39.15a4.47 4.47 0 0 1 -4.47-4.47v-35.44a4.47 4.47 0 0 1 4.47-4.47h39.15a4.47 4.47 0 0 1 4.47 4.47z" fill="#fff"/><path d="m141.2 228.79h-39.15a5.48 5.48 0 0 1 -5.47-5.47v-35.44a5.48 5.48 0 0 1 5.47-5.47h39.15a5.48 5.48 0 0 1 5.47 5.47v35.44a5.48 5.48 0 0 1 -5.47 5.47zm-39.15-44.38a3.48 3.48 0 0 0 -3.47 3.47v35.44a3.48 3.48 0 0 0 3.47 3.47h39.15a3.48 3.48 0 0 0 3.47-3.47v-35.44a3.48 3.48 0 0 0 -3.47-3.47z" fill="#093f68"/><path d="m145.67 187.88v4.05h-48.09v-4.05a4.47 4.47 0 0 1 4.47-4.47h39.15a4.47 4.47 0 0 1 4.47 4.47z" fill="#68e1fd"/><path d="m145.67 192.93h-48.09a1 1 0 0 1 -1-1v-4.05a5.48 5.48 0 0 1 5.47-5.47h39.15a5.48 5.48 0 0 1 5.47 5.47v4.05a1 1 0 0 1 -1 1zm-47.09-2h46.09v-3.05a3.48 3.48 0 0 0 -3.47-3.47h-39.15a3.48 3.48 0 0 0 -3.47 3.47z" fill="#093f68"/><path d="m137.28 201.1h-31.28a1 1 0 0 1 0-2h31.31a1 1 0 0 1 0 2z" fill="#dfeaef"/><path d="m137.28 207.56h-31.28a1 1 0 1 1 0-2h31.31a1 1 0 1 1 0 2z" fill="#dfeaef"/><rect fill="#68e1fd" height="7.1" rx="3.55" width="31.31" x="105.97" y="212.95"/><path d="m133.73 221.05h-24.21a4.55 4.55 0 1 1 0-9.1h24.21a4.55 4.55 0 1 1 0 9.1zm-24.21-7.05a2.55 2.55 0 1 0 0 5.1h24.21a2.55 2.55 0 1 0 0-5.1z" fill="#093f68"/><path d="m224 187.88v35.44a4.46 4.46 0 0 1 -4.46 4.47h-39.12a4.46 4.46 0 0 1 -4.46-4.47v-35.44a4.46 4.46 0 0 1 4.46-4.47h39.16a4.46 4.46 0 0 1 4.42 4.47z" fill="#fff"/><path d="m219.58 228.79h-39.16a5.48 5.48 0 0 1 -5.46-5.47v-35.44a5.48 5.48 0 0 1 5.46-5.47h39.16a5.48 5.48 0 0 1 5.46 5.47v35.44a5.48 5.48 0 0 1 -5.46 5.47zm-39.16-44.38a3.47 3.47 0 0 0 -3.46 3.47v35.44a3.47 3.47 0 0 0 3.46 3.47h39.16a3.47 3.47 0 0 0 3.46-3.47v-35.44a3.47 3.47 0 0 0 -3.46-3.47z" fill="#093f68"/><path d="m224 187.88v4.05h-48v-4.05a4.46 4.46 0 0 1 4.46-4.47h39.16a4.46 4.46 0 0 1 4.38 4.47z" fill="#68e1fd"/><path d="m224 192.93h-48a1 1 0 0 1 -1-1v-4.05a5.48 5.48 0 0 1 5.46-5.47h39.16a5.48 5.48 0 0 1 5.46 5.47v4.05a1 1 0 0 1 -1.08 1zm-47.08-2h46.08v-3.05a3.47 3.47 0 0 0 -3.46-3.47h-39.12a3.47 3.47 0 0 0 -3.46 3.47z" fill="#093f68"/><path d="m215.66 201.1h-31.32a1 1 0 0 1 0-2h31.32a1 1 0 0 1 0 2z" fill="#dfeaef"/><path d="m215.66 207.56h-31.32a1 1 0 1 1 0-2h31.32a1 1 0 1 1 0 2z" fill="#dfeaef"/><rect fill="#68e1fd" height="7.1" rx="3.55" width="31.31" x="184.34" y="212.95"/><path d="m212.11 221.05h-24.22a4.55 4.55 0 1 1 0-9.1h24.22a4.55 4.55 0 0 1 0 9.1zm-24.22-7.05a2.55 2.55 0 1 0 0 5.1h24.22a2.55 2.55 0 0 0 0-5.1z" fill="#093f68"/><path d="m302.42 187.88v35.44a4.47 4.47 0 0 1 -4.47 4.47h-39.15a4.47 4.47 0 0 1 -4.47-4.47v-35.44a4.47 4.47 0 0 1 4.47-4.47h39.2a4.47 4.47 0 0 1 4.42 4.47z" fill="#fff"/><path d="m298 228.79h-39.2a5.48 5.48 0 0 1 -5.47-5.47v-35.44a5.48 5.48 0 0 1 5.47-5.47h39.2a5.48 5.48 0 0 1 5.47 5.47v35.44a5.48 5.48 0 0 1 -5.47 5.47zm-39.2-44.38a3.48 3.48 0 0 0 -3.47 3.47v35.44a3.48 3.48 0 0 0 3.47 3.47h39.2a3.48 3.48 0 0 0 3.47-3.47v-35.44a3.48 3.48 0 0 0 -3.47-3.47z" fill="#093f68"/><path d="m302.42 187.88v4.05h-48.09v-4.05a4.47 4.47 0 0 1 4.47-4.47h39.2a4.47 4.47 0 0 1 4.42 4.47z" fill="#68e1fd"/><path d="m302.42 192.93h-48.09a1 1 0 0 1 -1-1v-4.05a5.48 5.48 0 0 1 5.47-5.47h39.2a5.48 5.48 0 0 1 5.47 5.47v4.05a1 1 0 0 1 -1.05 1zm-47.09-2h46.09v-3.05a3.48 3.48 0 0 0 -3.47-3.47h-39.15a3.48 3.48 0 0 0 -3.47 3.47z" fill="#093f68"/><path d="m294 201.1h-31.28a1 1 0 0 1 0-2h31.28a1 1 0 0 1 0 2z" fill="#dfeaef"/><path d="m294 207.56h-31.28a1 1 0 0 1 0-2h31.28a1 1 0 0 1 0 2z" fill="#dfeaef"/><rect fill="#68e1fd" height="7.1" rx="3.55" width="31.31" x="262.72" y="212.95"/><path d="m290.48 221.05h-24.21a4.55 4.55 0 1 1 0-9.1h24.21a4.55 4.55 0 0 1 0 9.1zm-24.21-7.05a2.55 2.55 0 1 0 0 5.1h24.21a2.55 2.55 0 0 0 0-5.1z" fill="#093f68"/><path d="m265 78.38v70.82a6.17 6.17 0 0 1 -6.16 6.17h-117.63a6.17 6.17 0 0 1 -6.16-6.17v-70.82a6.16 6.16 0 0 1 6.16-6.17h117.58a6.16 6.16 0 0 1 6.21 6.17z" fill="#fff"/><path d="m258.79 156.37h-117.58a7.18 7.18 0 0 1 -7.16-7.17v-70.82a7.18 7.18 0 0 1 7.16-7.17h117.58a7.18 7.18 0 0 1 7.21 7.17v70.82a7.18 7.18 0 0 1 -7.21 7.17zm-117.58-83.16a5.17 5.17 0 0 0 -5.16 5.17v70.82a5.17 5.17 0 0 0 5.16 5.17h117.58a5.17 5.17 0 0 0 5.21-5.17v-70.82a5.17 5.17 0 0 0 -5.16-5.17z" fill="#093f68"/><path d="m265 78.38v5.62h-129.95v-5.62a6.16 6.16 0 0 1 6.16-6.17h117.58a6.16 6.16 0 0 1 6.21 6.17z" fill="#68e1fd"/><path d="m265 85h-129.95a1 1 0 0 1 -1-1v-5.62a7.18 7.18 0 0 1 7.16-7.17h117.58a7.18 7.18 0 0 1 7.21 7.17v5.62a1 1 0 0 1 -1 1zm-128.9-2h127.9v-4.62a5.17 5.17 0 0 0 -5.16-5.17h-117.63a5.17 5.17 0 0 0 -5.16 5.17z" fill="#093f68"/><path d="m146.28 93.98h27.23v27.23h-27.23z" fill="#f56132"/><path d="m173.5 122.2h-27.22a1 1 0 0 1 -1-1v-27.2a1 1 0 0 1 1-1h27.22a1 1 0 0 1 1 1v27.2a1 1 0 0 1 -1 1zm-26.22-2h25.22v-25.2h-25.22z" fill="#093f68"/><g fill="#dfeaef"><path d="m173.5 132h-27.22a1 1 0 0 1 0-2h27.22a1 1 0 0 1 0 2z"/><path d="m173.5 137.82h-27.22a1 1 0 0 1 0-2h27.22a1 1 0 0 1 0 2z"/><path d="m169.59 143.63h-19.4a1 1 0 0 1 0-2h19.4a1 1 0 1 1 0 2z"/></g><path d="m146.28 122.2a1 1 0 0 1 -.71-.29 1 1 0 0 1 0-1.41l27.23-27.23a1 1 0 0 1 1.41 1.41l-27.21 27.23a1 1 0 0 1 -.72.29z" fill="#093f68"/><path d="m173.5 122.2a1 1 0 0 1 -.7-.29l-27.23-27.23a1 1 0 1 1 1.43-1.41l27.23 27.23a1 1 0 0 1 0 1.41 1 1 0 0 1 -.73.29z" fill="#093f68"/><path d="m186.39 93.98h27.23v27.23h-27.23z" fill="#70cc40"/><path d="m213.61 122.2h-27.22a1 1 0 0 1 -1-1v-27.2a1 1 0 0 1 1-1h27.22a1 1 0 0 1 1 1v27.2a1 1 0 0 1 -1 1zm-26.22-2h25.22v-25.2h-25.22z" fill="#093f68"/><path d="m213.61 132h-27.22a1 1 0 0 1 0-2h27.22a1 1 0 0 1 0 2z" fill="#dfeaef"/><path d="m213.61 137.82h-27.22a1 1 0 0 1 0-2h27.22a1 1 0 0 1 0 2z" fill="#dfeaef"/><path d="m209.7 143.63h-19.4a1 1 0 0 1 0-2h19.4a1 1 0 0 1 0 2z" fill="#dfeaef"/><path d="m186.39 122.2a1 1 0 0 1 -.71-.29 1 1 0 0 1 0-1.41l27.23-27.23a1 1 0 1 1 1.41 1.41l-27.23 27.23a1 1 0 0 1 -.7.29z" fill="#093f68"/><path d="m213.61 122.2a1 1 0 0 1 -.7-.29l-27.23-27.23a1 1 0 1 1 1.41-1.41l27.23 27.23a1 1 0 0 1 0 1.41 1 1 0 0 1 -.71.29z" fill="#093f68"/><path d="m226.5 93.98h27.23v27.23h-27.23z" fill="#ffbc0e"/><path d="m253.72 122.2h-27.22a1 1 0 0 1 -1-1v-27.2a1 1 0 0 1 1-1h27.22a1 1 0 0 1 1 1v27.2a1 1 0 0 1 -1 1zm-26.22-2h25.22v-25.2h-25.22z" fill="#093f68"/><path d="m253.72 132h-27.22a1 1 0 0 1 0-2h27.22a1 1 0 0 1 0 2z" fill="#dfeaef"/><path d="m253.72 137.82h-27.22a1 1 0 0 1 0-2h27.22a1 1 0 0 1 0 2z" fill="#dfeaef"/><path d="m249.81 143.63h-19.4a1 1 0 1 1 0-2h19.4a1 1 0 0 1 0 2z" fill="#dfeaef"/><path d="m226.5 122.2a1 1 0 0 1 -.71-.29 1 1 0 0 1 0-1.41l27.21-27.23a1 1 0 1 1 1.41 1.41l-27.21 27.23a1 1 0 0 1 -.7.29z" fill="#093f68"/><path d="m253.72 122.2a1 1 0 0 1 -.7-.29l-27.23-27.23a1 1 0 0 1 1.41-1.41l27.23 27.23a1 1 0 0 1 0 1.41 1 1 0 0 1 -.71.29z" fill="#093f68"/></svg>