<svg width="100" height="100" viewBox="0 0 100 100" fill="none" xmlns="http://www.w3.org/2000/svg">
<path d="M50 3.36249L99.3125 35.4167L91.6667 40.3875V66.6667H83.3333V45.8042L79.1667 48.5125V72.9167C79.1667 79.0417 74.9417 83.8125 69.7792 86.8292C64.5083 89.9 57.5083 91.6625 50 91.6625C42.4917 91.6625 35.4875 89.9 30.2208 86.8292C25.0542 83.8125 20.8333 79.0375 20.8333 72.9125V48.5125L0.6875 35.4167L50 3.36249ZM29.1667 53.9292V72.9167C29.1667 74.8458 30.5417 77.3625 34.4208 79.625C38.2042 81.8333 43.7 83.3333 50 83.3333C56.3 83.3333 61.7958 81.8333 65.5792 79.625C69.4625 77.3625 70.8292 74.8458 70.8292 72.9167V53.9292L49.9958 67.4708L29.1667 53.9292ZM84.0208 35.4167L50 13.3042L15.9792 35.4167L50 57.5292L84.0208 35.4167Z" fill="#1D4ED8"/>
</svg>
