<svg width="100" height="100" viewBox="0 0 100 100" fill="none" xmlns="http://www.w3.org/2000/svg">
<path d="M81.25 93.75H75V84.375C74.995 80.2325 73.3472 76.2611 70.4181 73.3319C67.4889 70.4028 63.5175 68.755 59.375 68.75H40.625C36.4825 68.755 32.5111 70.4028 29.5819 73.3319C26.6528 76.2611 25.005 80.2325 25 84.375V93.75H18.75V84.375C18.7583 78.5759 21.0656 73.0167 25.1662 68.9162C29.2667 64.8156 34.8259 62.5083 40.625 62.5H59.375C65.1741 62.5083 70.7333 64.8156 74.8338 68.9162C78.9344 73.0167 81.2417 78.5759 81.25 84.375V93.75ZM15.625 18.75C14.7962 18.75 14.0013 19.0792 13.4153 19.6653C12.8292 20.2513 12.5 21.0462 12.5 21.875V50H18.75V21.875C18.75 21.0462 18.4208 20.2513 17.8347 19.6653C17.2487 19.0792 16.4538 18.75 15.625 18.75Z" fill="#1B1935"/>
<path d="M12.5 6.25V12.5H28.125V34.375C28.125 40.1766 30.4297 45.7406 34.532 49.843C38.6344 53.9453 44.1984 56.25 50 56.25C55.8016 56.25 61.3656 53.9453 65.468 49.843C69.5703 45.7406 71.875 40.1766 71.875 34.375V12.5H87.5V6.25H12.5ZM34.375 12.5H65.625V21.875H34.375V12.5ZM50 50C45.856 50 41.8817 48.3538 38.9515 45.4235C36.0212 42.4933 34.375 38.519 34.375 34.375V28.125H65.625V34.375C65.625 38.519 63.9788 42.4933 61.0485 45.4235C58.1183 48.3538 54.144 50 50 50Z" fill="#1B1935"/>
</svg>
