<svg width="100" height="100" viewBox="0 0 100 100" fill="none" xmlns="http://www.w3.org/2000/svg">
<g clip-path="url(#clip0_275_41)">
<path d="M98.4375 74.9875H89.0625C88.1996 74.9875 87.5 75.5471 87.5 76.2375V79.9875C87.5 80.6778 88.1996 81.2375 89.0625 81.2375H98.4375C99.3004 81.2375 100 80.6778 100 79.9875V76.2375C100 75.5471 99.3004 74.9875 98.4375 74.9875Z" fill="#60A5FA"/>
<path d="M98.4375 46.8625H89.0625C88.1996 46.8625 87.5 47.4221 87.5 48.1125V51.8625C87.5 52.5529 88.1996 53.1125 89.0625 53.1125H98.4375C99.3004 53.1125 100 52.5529 100 51.8625V48.1125C100 47.4221 99.3004 46.8625 98.4375 46.8625Z" fill="#60A5FA"/>
<path d="M98.4375 32.8H89.0625C88.1996 32.8 87.5 33.3596 87.5 34.05V37.8C87.5 38.4904 88.1996 39.05 89.0625 39.05H98.4375C99.3004 39.05 100 38.4904 100 37.8V34.05C100 33.3596 99.3004 32.8 98.4375 32.8Z" fill="#60A5FA"/>
<path d="M98.4375 18.7375H89.0625C88.1996 18.7375 87.5 19.2971 87.5 19.9875V23.7375C87.5 24.4279 88.1996 24.9875 89.0625 24.9875H98.4375C99.3004 24.9875 100 24.4279 100 23.7375V19.9875C100 19.2971 99.3004 18.7375 98.4375 18.7375Z" fill="#60A5FA"/>
<path d="M98.4375 60.925H89.0625C88.1996 60.925 87.5 61.4846 87.5 62.175V65.925C87.5 66.6154 88.1996 67.175 89.0625 67.175H98.4375C99.3004 67.175 100 66.6154 100 65.925V62.175C100 61.4846 99.3004 60.925 98.4375 60.925Z" fill="#60A5FA"/>
<path d="M25.0156 98.4375V89.0625C25.0156 88.1996 24.456 87.5 23.7656 87.5H20.0156C19.3253 87.5 18.7656 88.1996 18.7656 89.0625V98.4375C18.7656 99.3004 19.3253 100 20.0156 100H23.7656C24.456 100 25.0156 99.3004 25.0156 98.4375Z" fill="#60A5FA"/>
<path d="M53.1406 98.4375V89.0625C53.1406 88.1996 52.581 87.5 51.8906 87.5H48.1406C47.4503 87.5 46.8906 88.1996 46.8906 89.0625V98.4375C46.8906 99.3004 47.4503 100 48.1406 100H51.8906C52.581 100 53.1406 99.3004 53.1406 98.4375Z" fill="#60A5FA"/>
<path d="M67.2031 98.4375V89.0625C67.2031 88.1996 66.6435 87.5 65.9531 87.5H62.2031C61.5128 87.5 60.9531 88.1996 60.9531 89.0625V98.4375C60.9531 99.3004 61.5128 100 62.2031 100H65.9531C66.6435 100 67.2031 99.3004 67.2031 98.4375Z" fill="#60A5FA"/>
<path d="M81.2656 98.4375V89.0625C81.2656 88.1996 80.706 87.5 80.0156 87.5H76.2656C75.5753 87.5 75.0156 88.1996 75.0156 89.0625V98.4375C75.0156 99.3004 75.5753 100 76.2656 100H80.0156C80.706 100 81.2656 99.3004 81.2656 98.4375Z" fill="#60A5FA"/>
<path d="M39.0781 98.4375V89.0625C39.0781 88.1996 38.5185 87.5 37.8281 87.5H34.0781C33.3878 87.5 32.8281 88.1996 32.8281 89.0625V98.4375C32.8281 99.3004 33.3878 100 34.0781 100H37.8281C38.5185 100 39.0781 99.3004 39.0781 98.4375Z" fill="#60A5FA"/>
<path d="M10.9375 74.9875H1.5625C0.699555 74.9875 0 75.5471 0 76.2375V79.9875C0 80.6778 0.699555 81.2375 1.5625 81.2375H10.9375C11.8004 81.2375 12.5 80.6778 12.5 79.9875V76.2375C12.5 75.5471 11.8004 74.9875 10.9375 74.9875Z" fill="#60A5FA"/>
<path d="M10.9375 46.8625H1.5625C0.699555 46.8625 0 47.4221 0 48.1125V51.8625C0 52.5529 0.699555 53.1125 1.5625 53.1125H10.9375C11.8004 53.1125 12.5 52.5529 12.5 51.8625V48.1125C12.5 47.4221 11.8004 46.8625 10.9375 46.8625Z" fill="#60A5FA"/>
<path d="M10.9375 32.8H1.5625C0.699555 32.8 0 33.3596 0 34.05V37.8C0 38.4904 0.699555 39.05 1.5625 39.05H10.9375C11.8004 39.05 12.5 38.4904 12.5 37.8V34.05C12.5 33.3596 11.8004 32.8 10.9375 32.8Z" fill="#60A5FA"/>
<path d="M10.9375 18.7375H1.5625C0.699555 18.7375 0 19.2971 0 19.9875V23.7375C0 24.4279 0.699555 24.9875 1.5625 24.9875H10.9375C11.8004 24.9875 12.5 24.4279 12.5 23.7375V19.9875C12.5 19.2971 11.8004 18.7375 10.9375 18.7375Z" fill="#60A5FA"/>
<path d="M10.9375 60.925H1.5625C0.699555 60.925 0 61.4846 0 62.175V65.925C0 66.6154 0.699555 67.175 1.5625 67.175H10.9375C11.8004 67.175 12.5 66.6154 12.5 65.925V62.175C12.5 61.4846 11.8004 60.925 10.9375 60.925Z" fill="#60A5FA"/>
<path d="M25.0156 10.9381V1.56313C25.0156 0.700181 24.456 0.00062561 23.7656 0.00062561H20.0156C19.3253 0.00062561 18.7656 0.700181 18.7656 1.56313V10.9381C18.7656 11.8011 19.3253 12.5006 20.0156 12.5006H23.7656C24.456 12.5006 25.0156 11.8011 25.0156 10.9381Z" fill="#60A5FA"/>
<path d="M53.1406 10.9381V1.56313C53.1406 0.700181 52.581 0.00062561 51.8906 0.00062561H48.1406C47.4503 0.00062561 46.8906 0.700181 46.8906 1.56313V10.9381C46.8906 11.8011 47.4503 12.5006 48.1406 12.5006H51.8906C52.581 12.5006 53.1406 11.8011 53.1406 10.9381Z" fill="#60A5FA"/>
<path d="M67.2031 10.9381V1.56313C67.2031 0.700181 66.6435 0.00062561 65.9531 0.00062561H62.2031C61.5128 0.00062561 60.9531 0.700181 60.9531 1.56313V10.9381C60.9531 11.8011 61.5128 12.5006 62.2031 12.5006H65.9531C66.6435 12.5006 67.2031 11.8011 67.2031 10.9381Z" fill="#60A5FA"/>
<path d="M81.2656 10.9381V1.56313C81.2656 0.700181 80.706 0.00062561 80.0156 0.00062561H76.2656C75.5753 0.00062561 75.0156 0.700181 75.0156 1.56313V10.9381C75.0156 11.8011 75.5753 12.5006 76.2656 12.5006H80.0156C80.706 12.5006 81.2656 11.8011 81.2656 10.9381Z" fill="#60A5FA"/>
<path d="M39.0781 10.9381V1.56313C39.0781 0.700181 38.5185 0.00062561 37.8281 0.00062561H34.0781C33.3878 0.00062561 32.8281 0.700181 32.8281 1.56313V10.9381C32.8281 11.8011 33.3878 12.5006 34.0781 12.5006H37.8281C38.5185 12.5006 39.0781 11.8011 39.0781 10.9381Z" fill="#60A5FA"/>
<path d="M66.6406 59.425C63.3594 65.2375 57.1094 69.1125 50 69.1125C39.4531 69.1125 30.8594 60.55 30.8594 49.9875C30.8594 39.425 39.4531 30.8625 50 30.8625C57.1094 30.8625 63.3594 34.8 66.6406 40.6125L76.7969 34.7375C71.4844 25.425 61.4844 19.1125 50 19.1125C32.9688 19.1125 19.1406 32.925 19.1406 49.9875C19.1406 67.05 32.9688 80.8625 50 80.8625C61.4063 80.8625 71.4062 74.6125 76.7187 65.425L66.6406 59.425Z" fill="#60A5FA"/>
<path d="M17.9688 20.3625C19.2632 20.3625 20.3125 19.2992 20.3125 17.9875C20.3125 16.6758 19.2632 15.6125 17.9688 15.6125C16.6743 15.6125 15.625 16.6758 15.625 17.9875C15.625 19.2992 16.6743 20.3625 17.9688 20.3625Z" fill="#60A5FA"/>
</g>
<defs>
<clipPath id="clip0_275_41">
<rect width="100" height="100" fill="white"/>
</clipPath>
</defs>
</svg>
