<svg width="100" height="100" viewBox="0 0 100 100" fill="none" xmlns="http://www.w3.org/2000/svg">
<path d="M66.3145 25.0214C66.3145 26.5419 66.6139 28.0476 67.1958 29.4524C67.7777 30.8571 68.6306 32.1335 69.7057 33.2087C70.7809 34.2839 72.0573 35.1368 73.4621 35.7186C74.8669 36.3005 76.3725 36.6 77.893 36.6C79.4135 36.6 80.9192 36.3005 82.3239 35.7186C83.7287 35.1368 85.0051 34.2839 86.0803 33.2087C87.1555 32.1335 88.0084 30.8571 88.5902 29.4524C89.1721 28.0476 89.4716 26.5419 89.4716 25.0214C89.4716 21.9506 88.2517 19.0055 86.0803 16.8341C83.9089 14.6627 80.9638 13.4429 77.893 13.4429C74.8222 13.4429 71.8771 14.6627 69.7057 16.8341C67.5343 19.0055 66.3145 21.9506 66.3145 25.0214Z" stroke="#1D4ED8" stroke-width="7.14286" stroke-linecap="round" stroke-linejoin="round"/>
<path d="M60.5215 59.7643V53.9786C60.5215 49.3704 62.352 44.951 65.6105 41.6926C68.8689 38.4341 73.2883 36.6036 77.8965 36.6036C82.5046 36.6036 86.924 38.4341 90.1824 41.6926C93.4409 44.951 95.2715 49.3704 95.2715 53.9786V59.7643M47.1429 59.7786H95.2715M25.7429 40.0857C28.9871 40.0857 32.0983 38.797 34.3923 36.503C36.6863 34.209 37.975 31.0977 37.975 27.8536C37.975 24.6094 36.6863 21.4981 34.3923 19.2041C32.0983 16.9102 28.9871 15.6214 25.7429 15.6214C22.4987 15.6214 19.3874 16.9102 17.0935 19.2041C14.7995 21.4981 13.5107 24.6094 13.5107 27.8536C13.5107 31.0977 14.7995 34.209 17.0935 36.503C19.3874 38.797 22.4987 40.0857 25.7429 40.0857Z" stroke="#1D4ED8" stroke-width="7.14286" stroke-linecap="round" stroke-linejoin="round"/>
<path d="M47.1431 61.4929C47.1431 55.8163 44.8881 50.3722 40.8741 46.3582C36.8602 42.3443 31.4161 40.0893 25.7395 40.0893C20.0629 40.0893 14.6188 42.3443 10.6049 46.3582C6.59095 50.3722 4.33594 55.8163 4.33594 61.4929V70.6643H13.5145L16.5717 95.1214H34.9145L37.9717 70.6643H47.1431V61.4929Z" stroke="#1D4ED8" stroke-width="7.14286" stroke-linecap="round" stroke-linejoin="round"/>
</svg>
