<svg width="87" height="87" viewBox="0 0 87 87" fill="none" xmlns="http://www.w3.org/2000/svg">
<path d="M86.475 4.5255L82.1145 0.165L47.3063 34.9741C47.0129 35.2587 46.7791 35.5989 46.6184 35.9747C46.4577 36.3505 46.3733 36.7545 46.3702 37.1633C46.3671 37.572 46.4453 37.9773 46.6003 38.3555C46.7553 38.7337 46.984 39.0773 47.273 39.3663C47.5621 39.6554 47.9057 39.884 48.2839 40.039C48.6622 40.1939 49.0674 40.2721 49.4762 40.269C49.8849 40.2659 50.2889 40.1815 50.6647 40.0208C51.0406 39.8601 51.3807 39.6262 51.6653 39.3328L62.3131 28.6855C63.8594 31.0019 64.7467 33.6951 64.8799 36.477C65.0131 39.2588 64.3873 42.0245 63.0694 44.478C61.7515 46.9315 59.7912 48.9804 57.3983 50.4054C55.0054 51.8304 52.27 52.5777 49.485 52.5675C48.8584 52.554 48.2331 52.5025 47.6127 52.4134C45.097 46.3571 40.2843 41.5442 34.2282 39.0282C33.9108 36.8569 34.0703 34.6425 34.6957 32.539C35.3211 30.4356 36.3973 28.4937 37.8494 26.8485C39.3015 25.2033 41.0947 23.8942 43.1041 23.0124C45.1136 22.1306 47.291 21.6973 49.485 21.7425V15.5775C43.7642 15.5839 38.2796 17.8592 34.2344 21.9044C30.1892 25.9496 27.9139 31.4342 27.9075 37.155C27.9075 37.2271 27.9248 37.2996 27.9257 37.3708C26.8977 37.2341 25.8621 37.162 24.825 37.155C22.7564 37.1624 20.697 37.4317 18.6961 37.9565C18.6893 37.688 18.66 37.426 18.66 37.155C18.6693 28.9826 21.9199 21.1475 27.6987 15.3687C33.4775 9.58991 41.3126 6.3393 49.485 6.33V0.165C39.6781 0.176177 30.276 4.07692 23.3415 11.0115C16.4069 17.946 12.5062 27.3481 12.495 37.155C12.495 38.2493 12.5477 39.3316 12.6402 40.403C9.34008 42.2768 6.51731 44.8874 4.39196 48.0313C2.26661 51.1753 0.896107 54.7676 0.387295 58.5283C-0.121518 62.289 0.245112 66.1164 1.4586 69.7121C2.67209 73.3077 4.69965 76.5746 7.3832 79.2579C10.0667 81.9412 13.3338 83.9685 16.9296 85.1816C20.5254 86.3948 24.3528 86.7611 28.1134 86.2519C31.8741 85.7427 35.4663 84.3719 38.6101 82.2463C41.7538 80.1206 44.3642 77.2976 46.2376 73.9974C47.3165 74.0898 48.4012 74.145 49.485 74.145C56.5386 74.1537 63.4473 72.1429 69.3946 68.3504C75.3418 64.5578 80.0791 59.142 83.0466 52.743C86.014 46.3439 87.0876 39.2291 86.1405 32.2394C85.1933 25.2497 82.265 18.6772 77.7016 13.2986L86.475 4.5255ZM43.0426 58.7325H37.0203C36.6199 54.0848 35.3461 49.5544 33.2658 45.3791C35.8191 46.6947 38.0314 48.5859 39.7282 50.9034C41.425 53.2209 42.5596 55.9011 43.0426 58.7325ZM6.60743 64.8975H12.6291C13.0297 69.5457 14.3036 74.0766 16.3842 78.2524C13.8308 76.9367 11.6183 75.0453 9.92148 72.7275C8.2247 70.4097 7.09014 67.7291 6.60743 64.8975ZM12.6282 58.7325H6.60743C7.09027 55.9012 8.22479 53.221 9.92139 50.9035C11.618 48.5861 13.8302 46.6948 16.3833 45.3791C14.3033 49.5545 13.0287 54.0849 12.6282 58.7325ZM24.825 80.2662C21.4696 75.782 19.3973 70.4694 18.8302 64.8975H30.8211C30.2535 70.4695 28.1808 75.7821 24.825 80.2662ZM18.8302 58.7325C19.3973 53.1615 21.4696 47.8498 24.825 43.3665C28.1806 47.8497 30.2529 53.1614 30.8198 58.7325H18.8302ZM33.2658 78.2524C35.3464 74.0766 36.6203 69.5457 37.0209 64.8975H43.0426C42.5599 67.7291 41.4253 70.4097 39.7285 72.7275C38.0317 75.0453 35.8192 76.9367 33.2658 78.2524ZM80.31 37.155C80.3007 45.3274 77.0501 53.1625 71.2713 58.9413C65.4925 64.7201 57.6574 67.9707 49.485 67.98C49.2171 67.98 48.9508 67.9492 48.6835 67.9439C49.494 64.9375 49.6932 61.7991 49.2692 58.7143C49.3423 58.7143 49.4129 58.7325 49.485 58.7325C53.4896 58.733 57.4152 57.6189 60.8226 55.515C64.23 53.4111 66.9845 50.4003 68.7779 46.8198C70.5713 43.2393 71.3328 39.2302 70.9771 35.2415C70.6214 31.2528 69.1626 27.4417 66.764 24.235L73.3337 17.665C77.8475 23.1568 80.3135 30.0462 80.31 37.155Z" fill="white"/>
</svg>
