<?xml version="1.0" standalone="no"?>
<!DOCTYPE svg PUBLIC "-//W3C//DTD SVG 20010904//EN"
 "http://www.w3.org/TR/2001/REC-SVG-20010904/DTD/svg10.dtd">
<svg version="1.0" xmlns="http://www.w3.org/2000/svg"
 width="496.000000pt" height="382.000000pt" viewBox="0 0 496.000000 382.000000"
 preserveAspectRatio="xMidYMid meet">

<g transform="translate(0.000000,382.000000) scale(0.100000,-0.100000)"
fill="#000000" stroke="none">
<path d="M1100 3809 c-108 -9 -170 -22 -267 -54 -395 -132 -689 -513 -800
-1034 -25 -118 -27 -143 -28 -381 0 -222 3 -270 22 -370 144 -752 648 -1413
1328 -1745 310 -152 582 -215 918 -215 231 0 423 32 632 103 l70 24 3 93 c2
80 1 91 -12 81 -11 -9 -15 -9 -18 1 -3 9 -11 8 -32 -6 -15 -9 -30 -15 -33 -12
-4 3 -12 1 -20 -5 -7 -6 -13 -8 -13 -5 0 4 -10 1 -22 -5 -24 -13 -36 -15 -132
-23 l-60 -5 44 26 c128 77 545 313 552 313 12 0 9 -41 -7 -85 -15 -42 -21
-265 -7 -265 13 0 211 98 312 155 61 34 101 63 102 73 5 51 5 114 0 172 l-6
65 -7 -45 c-4 -25 -10 -71 -14 -102 -7 -66 -36 -111 -69 -106 -16 2 -21 9 -19
33 1 17 5 103 9 191 l7 162 36 -15 c24 -11 54 -14 93 -10 l58 5 2 -71 c2 -40
1 -107 -1 -149 -1 -47 1 -78 7 -78 14 0 215 145 332 238 132 106 441 418 527
532 143 190 242 377 307 577 57 179 69 268 63 488 -5 208 -22 294 -87 448
-153 359 -476 556 -960 587 -126 8 -530 -2 -607 -15 -33 -6 -42 -18 -23 -30 6
-3 10 -41 10 -84 0 -42 5 -82 10 -87 6 -6 15 -44 20 -85 18 -140 21 -147 68
-175 23 -14 42 -20 42 -15 0 6 7 11 15 11 8 0 15 -9 15 -20 0 -10 9 -24 20
-30 16 -9 19 -8 13 6 -4 12 -2 15 8 12 8 -2 15 -14 17 -26 4 -24 18 -29 25 -9
3 9 8 9 18 -2 9 -9 9 -11 2 -7 -8 4 -13 2 -13 -6 0 -7 8 -18 19 -23 77 -41
103 -59 128 -90 16 -19 58 -55 93 -80 181 -125 297 -386 249 -558 -6 -22 -25
-55 -43 -74 -27 -30 -41 -36 -82 -40 l-49 -4 -31 54 -32 55 45 -1 c37 0 50 5
76 32 31 30 32 35 32 114 0 76 -3 90 -37 158 -26 52 -55 92 -95 130 l-58 54
-3 -53 c-2 -29 -2 -74 0 -100 l3 -47 24 43 c14 23 30 42 36 42 13 0 75 -62 75
-74 0 -5 -31 -43 -70 -86 l-69 -77 -1 -354 c-1 -312 0 -355 14 -365 9 -6 84
-51 166 -99 124 -72 154 -94 179 -132 59 -88 67 -236 15 -281 l-26 -23 -28 43
c-36 55 -82 89 -101 77 -51 -32 -92 28 -43 64 27 21 33 64 10 73 -8 3 -35 -7
-61 -21 l-46 -28 21 -22 c18 -19 19 -23 6 -28 -17 -7 -62 35 -72 66 -3 9 -12
17 -20 17 -8 0 -14 10 -14 25 0 27 -25 34 -60 15 -12 -7 -26 -7 -37 -1 -10 5
-31 15 -48 22 l-30 13 34 5 c27 5 36 12 42 34 4 16 16 35 26 42 17 13 17 14
-1 34 -11 12 -29 21 -40 21 -12 0 -28 4 -36 10 -16 10 -7 25 16 25 7 0 14 3
14 8 1 53 -1 57 -34 74 -19 10 -65 45 -102 78 -37 32 -75 59 -83 60 -19 0
-101 54 -101 66 0 5 -4 9 -9 9 -5 0 -36 18 -69 40 -61 41 -98 49 -122 28 -12
-11 -12 -10 -1 5 7 9 25 17 39 17 14 0 123 -56 246 -126 122 -70 224 -129 229
-131 4 -2 7 129 7 293 0 249 -2 295 -14 285 -10 -9 -19 -3 -38 27 -119 179
-142 386 -55 481 19 20 20 25 7 33 -15 9 -1478 853 -1577 910 l-53 30 0 -187
0 -187 -32 21 c-21 12 -36 33 -42 53 -9 34 -2 312 9 339 4 11 -22 24 -117 57
-165 56 -271 80 -414 92 -65 5 -121 9 -124 8 -3 0 -43 -4 -90 -9z m376 -404
c17 -26 16 -56 -3 -62 -18 -6 -53 34 -53 62 0 33 34 34 56 0z m106 -52 c25
-28 30 -59 14 -72 -28 -24 -85 56 -59 82 11 12 29 8 45 -10z m-26 -124 c126
-72 248 -141 272 -152 l42 -21 60 59 c32 32 56 63 53 69 -4 5 9 1 28 -11 19
-11 60 -35 92 -52 89 -51 108 -90 120 -261 l11 -137 43 -24 c40 -22 55 -39 34
-39 -6 0 -26 10 -46 21 l-36 21 3 -153 3 -154 53 -28 c28 -16 52 -32 52 -38 0
-14 -9 -11 -61 21 -27 16 -49 26 -49 22 0 -4 14 -16 30 -25 81 -48 229 -219
260 -301 8 -23 7 -28 -15 -38 -30 -14 -30 -14 -4 -80 12 -29 29 -78 39 -108
11 -37 22 -54 31 -51 57 16 27 30 434 -206 105 -61 262 -152 350 -202 182
-105 184 -106 167 -123 -8 -8 -12 -66 -12 -192 l0 -181 -123 -70 c-67 -38
-248 -144 -402 -234 -380 -223 -365 -216 -455 -216 l-75 0 -672 389 -671 390
-17 60 c-10 33 -19 65 -21 70 -2 6 16 22 41 35 63 34 105 83 105 125 0 29 5
36 30 45 40 13 46 33 32 100 -25 116 -31 131 -68 148 -33 16 -35 16 -60 -8
-18 -16 -28 -20 -31 -11 -3 6 -15 12 -28 12 -18 0 -24 7 -29 38 -10 60 -8 67
26 80 33 12 47 5 48 -27 0 -11 3 -11 15 -1 13 11 15 8 15 -20 0 -26 3 -31 17
-25 15 5 294 164 401 228 l34 20 -134 78 c-73 43 -139 81 -146 86 -10 6 -14
135 -19 606 -3 328 -4 597 -1 597 3 0 109 -59 234 -131z m139 53 c-3 -3 -11 0
-18 7 -9 10 -8 11 6 5 10 -3 15 -9 12 -12z m519 -53 c74 -42 126 -77 126 -86
0 -12 -9 -10 -42 9 -24 14 -85 49 -135 78 -83 47 -111 70 -84 70 5 0 66 -32
135 -71z m319 -241 c48 -27 87 -54 87 -59 0 -5 -2 -9 -5 -9 -10 0 -281 163
-295 177 -15 16 52 -19 213 -109z m-163 31 c0 -4 -7 -6 -15 -3 -8 4 -15 10
-15 15 0 4 7 6 15 3 8 -4 15 -10 15 -15z m238 -29 c2 -6 -12 -1 -32 11 -20 11
-36 25 -36 31 0 12 63 -27 68 -42z m852 -7 c0 -67 -15 -61 -23 10 -3 36 -1 47
9 47 10 0 14 -15 14 -57z m58 -31 c2 -28 -1 -52 -5 -52 -20 0 -33 27 -33 68 0
36 3 43 18 40 13 -2 18 -15 20 -56z m52 8 c16 -29 9 -85 -10 -85 -11 0 -16 14
-18 53 -3 54 9 68 28 32z m-1022 -89 c53 -29 77 -51 56 -51 -12 0 -134 76
-134 83 0 10 -1 11 78 -32z m-18 -51 c0 -5 -2 -10 -4 -10 -3 0 -8 5 -11 10 -3
6 -1 10 4 10 6 0 11 -4 11 -10z m354 -35 c11 -8 17 -17 14 -20 -3 -3 -16 3
-29 14 -27 23 -14 28 15 6z m-318 -37 c30 -18 54 -37 54 -41 0 -10 -86 37
-110 59 -24 23 -1 16 56 -18z m462 -106 c2 -7 -2 -10 -12 -6 -9 3 -16 11 -16
16 0 13 23 5 28 -10z m-600 -40 c2 -7 -2 -10 -12 -6 -9 3 -16 11 -16 16 0 13
23 5 28 -10z m187 -45 c11 -9 17 -18 13 -22 -10 -10 -79 35 -72 46 5 9 23 2
59 -24z m165 7 c0 -14 -3 -14 -15 -4 -8 7 -15 14 -15 16 0 2 7 4 15 4 8 0 15
-7 15 -16z m37 -26 c-3 -8 -6 -5 -6 6 -1 11 2 17 5 13 3 -3 4 -12 1 -19z
m-447 -9 c0 -4 -7 -6 -15 -3 -8 4 -15 10 -15 15 0 4 7 6 15 3 8 -4 15 -10 15
-15z m466 -150 c29 -18 45 -39 29 -39 -8 0 -85 50 -85 55 0 11 24 4 56 -16z
m-21 -99 c4 -6 5 -14 2 -17 -7 -7 -127 67 -127 79 0 10 116 -47 125 -62z
m-135 25 c12 -7 13 -25 3 -25 -5 0 -19 9 -33 20 -24 19 -25 19 -2 15 12 -2 27
-7 32 -10z m-61 -73 c65 -40 65 -62 0 -25 -29 16 -55 35 -57 41 -6 18 8 14 57
-16z m-128 -49 c13 -16 12 -17 -3 -4 -10 7 -18 15 -18 17 0 8 8 3 21 -13z
m289 -161 c0 -17 4 -19 -108 47 -50 29 -92 58 -92 63 0 5 45 -15 100 -44 55
-29 100 -59 100 -66z m113 51 c32 -20 49 -43 32 -43 -10 0 -113 68 -120 79 -8
14 35 -4 88 -36z m-55 -82 c3 -8 -1 -12 -9 -9 -7 2 -15 10 -17 17 -3 8 1 12 9
9 7 -2 15 -10 17 -17z m-63 -12 c4 -6 5 -12 2 -15 -7 -7 -37 7 -37 17 0 13 27
11 35 -2z m1097 -76 c20 -18 25 -73 6 -73 -22 0 -48 33 -48 62 0 32 15 36 42
11z m0 -100 c22 -25 29 -55 18 -73 -12 -19 -38 -5 -59 32 -26 45 8 79 41 41z
m8 -120 c26 -34 22 -58 -10 -58 -28 0 -57 42 -47 68 9 25 33 21 57 -10z
m-2905 -95 c-9 -43 -9 -42 -40 -22 l-27 18 34 17 c18 10 34 18 36 19 2 0 0
-15 -3 -32z m2911 -23 c15 -59 -24 -68 -52 -13 -12 23 -13 33 -4 44 16 19 48
1 56 -31z m-510 21 c14 4 16 3 5 -4 -7 -5 -10 -15 -7 -21 9 -15 -5 -14 -25 2
-9 7 -14 18 -11 26 3 9 6 10 12 2 3 -7 15 -9 26 -5z m-2334 -36 c2 -28 0 -40
-10 -40 -19 0 -24 23 -13 53 14 36 18 34 23 -13z m-142 -54 l0 -74 36 -23 37
-22 -34 -28 -33 -27 17 -72 c9 -39 15 -76 11 -81 -14 -23 -34 -5 -48 45 -13
43 -22 56 -46 66 -16 7 -41 23 -55 36 -22 20 -25 31 -25 91 0 38 6 75 13 84
13 17 106 78 120 79 4 0 7 -33 7 -74z m327 22 c-3 -8 -6 -5 -6 6 -1 11 2 17 5
13 3 -3 4 -12 1 -19z m-64 -86 c12 -13 13 -19 5 -20 -7 -1 -27 -4 -44 -8 -34
-6 -50 6 -40 31 8 21 60 19 79 -3z m-47 -94 c24 12 44 20 44 18 0 -2 -25 -20
-55 -40 -32 -21 -55 -44 -55 -54 0 -9 12 -52 26 -95 14 -43 24 -80 22 -82 -2
-2 -14 -2 -26 1 -14 4 -27 22 -38 51 -11 27 -27 49 -44 58 -20 10 -29 26 -38
65 -17 72 -16 76 21 87 26 8 38 6 66 -10 l33 -20 44 21z"/>
<path d="M1410 2980 c0 -196 2 -230 15 -230 16 0 649 49 680 53 15 1 -518 316
-672 396 l-23 12 0 -231z"/>
<path d="M1737 2713 c-13 -13 -7 -71 11 -92 9 -12 82 -60 162 -106 152 -88
170 -92 170 -36 0 45 -24 66 -179 155 -158 91 -154 90 -164 79z"/>
<path d="M1452 2555 c5 -22 373 -234 389 -224 7 4 11 10 9 12 -10 8 -392 227
-396 227 -3 0 -4 -7 -2 -15z"/>
<path d="M1450 2482 c0 -4 20 -19 45 -34 56 -34 60 -18 5 17 -42 27 -50 29
-50 17z"/>
<path d="M1450 2431 c0 -11 69 -55 76 -48 3 3 -7 14 -23 24 -44 31 -53 35 -53
24z"/>
<path d="M1560 2422 c0 -11 182 -124 188 -117 9 9 -13 26 -76 61 -37 20 -77
44 -89 52 -14 9 -23 10 -23 4z"/>
<path d="M1450 2373 c0 -8 73 -53 84 -53 18 0 1 19 -33 38 -42 24 -51 26 -51
15z"/>
<path d="M1550 2366 c25 -24 130 -79 130 -68 0 6 -29 26 -64 46 -68 38 -90 45
-66 22z"/>
<path d="M1450 2320 c0 -5 5 -10 11 -10 5 0 7 5 4 10 -3 6 -8 10 -11 10 -2 0
-4 -4 -4 -10z"/>
<path d="M1560 2311 c0 -5 32 -27 70 -50 72 -41 99 -40 33 2 -62 39 -103 58
-103 48z"/>
<path d="M1480 2301 c0 -9 99 -71 114 -71 20 0 -2 20 -54 48 -33 19 -60 29
-60 23z"/>
<path d="M1770 2302 c0 -12 19 -26 26 -19 2 2 -2 10 -11 17 -9 8 -15 8 -15 2z"/>
<path d="M1700 2282 c0 -8 52 -42 64 -42 15 0 3 17 -23 33 -32 19 -41 21 -41
9z"/>
<path d="M1620 2222 c0 -12 121 -85 128 -77 8 8 -5 17 -70 54 -32 18 -58 28
-58 23z"/>
<path d="M1720 2222 c0 -10 21 -32 32 -32 16 0 8 19 -12 30 -11 6 -20 7 -20 2z"/>
<path d="M2252 2120 c-29 -24 -28 -34 8 -60 36 -26 39 -44 5 -38 -39 8 -21 -7
76 -63 49 -28 92 -56 95 -61 15 -25 -13 -16 -101 32 -78 42 -99 50 -106 39 -5
-8 -9 -20 -9 -26 0 -7 -6 -13 -12 -13 -7 -1 5 -16 27 -35 48 -41 42 -54 -14
-26 -46 24 -62 26 -56 9 2 -7 0 -29 -4 -48 -8 -30 -9 -32 -10 -9 -1 19 -9 30
-30 39 -17 6 -34 9 -39 6 -5 -3 -22 -1 -38 3 -24 7 -34 4 -57 -18 -28 -25 -28
-26 -59 -8 -17 10 -32 16 -34 14 -8 -7 39 -102 84 -172 24 -38 74 -100 110
-137 62 -65 64 -68 42 -76 -23 -9 -23 -9 8 -30 75 -54 208 -70 269 -32 151 92
128 398 -49 651 -48 69 -75 84 -106 59z m60 -217 c15 -18 -6 -17 -42 2 -17 9
-30 22 -30 31 0 13 4 13 31 -3 17 -10 35 -24 41 -30z m-78 -84 c-8 -13 -44 9
-44 27 0 12 4 12 25 -2 14 -9 22 -20 19 -25z m-77 -71 c-3 -7 -5 -2 -5 12 0
14 2 19 5 13 2 -7 2 -19 0 -25z m-23 -4 c15 -27 25 -32 47 -27 11 3 19 0 19
-6 0 -7 -5 -9 -11 -5 -8 4 -9 -4 -4 -27 12 -61 16 -70 38 -80 22 -10 22 -10 0
-5 -13 2 -23 0 -23 -5 0 -5 -10 -7 -22 -5 -13 3 -28 5 -34 5 -6 1 -26 15 -44
33 -18 17 -26 29 -17 25 24 -9 21 1 -13 40 -16 18 -30 39 -29 46 0 7 6 3 14
-8 46 -65 42 -63 55 -30 8 22 9 35 1 47 -6 10 -11 20 -11 24 0 12 24 -3 34
-22z"/>
<path d="M2480 1395 c0 -3 11 -27 25 -54 13 -27 21 -51 18 -55 -12 -12 -46 -6
-60 12 -13 16 -14 16 -11 -3 2 -11 12 -21 23 -23 11 -2 24 -7 28 -12 5 -4 -3
-5 -17 -3 -14 3 -26 2 -26 -2 0 -3 32 -66 71 -138 40 -73 99 -182 132 -244 48
-89 67 -115 98 -132 29 -17 43 -19 63 -11 53 20 53 96 -2 187 -17 29 -55 98
-86 155 -125 236 -154 283 -174 286 -16 3 -19 -2 -15 -25 4 -23 0 -20 -24 19
-24 42 -43 60 -43 43z m270 -583 c36 -72 17 -67 -23 6 -20 38 -37 73 -37 78 1
14 37 -36 60 -84z"/>
<path d="M3503 2955 c0 -22 2 -30 4 -17 2 12 2 30 0 40 -3 9 -5 -1 -4 -23z"/>
<path d="M3550 2926 c0 -20 5 -36 10 -36 6 0 10 13 10 29 0 17 -4 33 -10 36
-6 4 -10 -8 -10 -29z"/>
<path d="M2585 3375 c44 -26 96 -55 116 -65 38 -20 79 -17 79 5 0 7 7 15 15
19 33 12 15 35 -32 41 -80 11 -222 35 -240 41 -10 3 18 -15 62 -41z"/>
<path d="M3608 2552 c-44 -50 -51 -146 -18 -235 43 -116 48 -108 49 75 0 92
-3 170 -8 172 -5 3 -15 -2 -23 -12z"/>
<path d="M3707 1349 c-4 -13 -7 -34 -7 -45 0 -12 -7 -27 -15 -34 -12 -10 -13
-16 -5 -24 8 -8 17 -5 31 13 19 24 23 61 10 95 -7 18 -8 18 -14 -5z"/>
<path d="M3787 1352 c-10 -10 -17 -25 -17 -33 0 -8 6 -5 16 9 20 28 65 29 110
1 46 -28 43 -16 -3 16 -44 30 -83 32 -106 7z"/>
<path d="M3811 1296 c-9 -11 -6 -18 15 -33 l27 -20 -24 -23 -24 -23 43 24 c37
20 41 25 28 35 -9 6 -16 21 -16 33 0 24 -31 29 -49 7z"/>
<path d="M3875 1290 c3 -5 8 -10 11 -10 2 0 4 5 4 10 0 6 -5 10 -11 10 -5 0
-7 -4 -4 -10z"/>
<path d="M3900 1270 c0 -5 5 -10 11 -10 5 0 7 5 4 10 -3 6 -8 10 -11 10 -2 0
-4 -4 -4 -10z"/>
<path d="M4030 1140 c0 -33 2 -60 4 -60 10 0 66 23 66 27 0 7 -60 93 -65 93
-3 0 -5 -27 -5 -60z"/>
<path d="M3705 418 c-7 -15 -22 -25 -45 -29 -26 -4 -31 -8 -19 -13 33 -15 147
32 134 55 -12 19 -60 10 -70 -13z"/>
</g>
</svg>
