<svg width="50" height="50" viewBox="0 0 50 50" fill="none" xmlns="http://www.w3.org/2000/svg">
<path d="M25 22.5C28.3152 22.5 31.4946 23.817 33.8388 26.1612C36.183 28.5054 37.5 31.6848 37.5 35V50H32.5V35C32.5001 33.087 31.7692 31.2462 30.4568 29.8543C29.1444 28.4625 27.3497 27.6247 25.44 27.5125L25 27.5C23.087 27.4999 21.2462 28.2308 19.8543 29.5432C18.4625 30.8556 17.6247 32.6503 17.5125 34.56L17.5 35V50H12.5V35C12.5 31.6848 13.817 28.5054 16.1612 26.1612C18.5054 23.817 21.6848 22.5 25 22.5ZM8.75 30C9.4475 30 10.125 30.0825 10.775 30.235C10.3476 31.5075 10.0944 32.832 10.0225 34.1725L10 35V35.215C9.71263 35.1122 9.41373 35.045 9.11 35.015L8.75 35C7.81779 35 6.91902 35.3473 6.22895 35.974C5.53888 36.6008 5.10699 37.4621 5.0175 38.39L5 38.75V50H0V38.75C0 36.4294 0.921872 34.2038 2.56282 32.5628C4.20376 30.9219 6.42936 30 8.75 30V30ZM41.25 30C43.5706 30 45.7962 30.9219 47.4372 32.5628C49.0781 34.2038 50 36.4294 50 38.75V50H45V38.75C45 37.8178 44.6527 36.919 44.026 36.229C43.3992 35.5389 42.5379 35.107 41.61 35.0175L41.25 35C40.8125 35 40.3925 35.075 40 35.2125V35C40 33.335 39.73 31.735 39.2275 30.24C39.875 30.0825 40.5525 30 41.25 30ZM8.75 15C10.4076 15 11.9973 15.6585 13.1694 16.8306C14.3415 18.0027 15 19.5924 15 21.25C15 22.9076 14.3415 24.4973 13.1694 25.6694C11.9973 26.8415 10.4076 27.5 8.75 27.5C7.0924 27.5 5.50269 26.8415 4.33058 25.6694C3.15848 24.4973 2.5 22.9076 2.5 21.25C2.5 19.5924 3.15848 18.0027 4.33058 16.8306C5.50269 15.6585 7.0924 15 8.75 15V15ZM41.25 15C42.9076 15 44.4973 15.6585 45.6694 16.8306C46.8415 18.0027 47.5 19.5924 47.5 21.25C47.5 22.9076 46.8415 24.4973 45.6694 25.6694C44.4973 26.8415 42.9076 27.5 41.25 27.5C39.5924 27.5 38.0027 26.8415 36.8306 25.6694C35.6585 24.4973 35 22.9076 35 21.25C35 19.5924 35.6585 18.0027 36.8306 16.8306C38.0027 15.6585 39.5924 15 41.25 15V15ZM8.75 20C8.41848 20 8.10054 20.1317 7.86612 20.3661C7.6317 20.6005 7.5 20.9185 7.5 21.25C7.5 21.5815 7.6317 21.8995 7.86612 22.1339C8.10054 22.3683 8.41848 22.5 8.75 22.5C9.08152 22.5 9.39946 22.3683 9.63388 22.1339C9.8683 21.8995 10 21.5815 10 21.25C10 20.9185 9.8683 20.6005 9.63388 20.3661C9.39946 20.1317 9.08152 20 8.75 20ZM41.25 20C40.9185 20 40.6005 20.1317 40.3661 20.3661C40.1317 20.6005 40 20.9185 40 21.25C40 21.5815 40.1317 21.8995 40.3661 22.1339C40.6005 22.3683 40.9185 22.5 41.25 22.5C41.5815 22.5 41.8995 22.3683 42.1339 22.1339C42.3683 21.8995 42.5 21.5815 42.5 21.25C42.5 20.9185 42.3683 20.6005 42.1339 20.3661C41.8995 20.1317 41.5815 20 41.25 20ZM25 0C27.6522 0 30.1957 1.05357 32.0711 2.92893C33.9464 4.8043 35 7.34784 35 10C35 12.6522 33.9464 15.1957 32.0711 17.0711C30.1957 18.9464 27.6522 20 25 20C22.3478 20 19.8043 18.9464 17.9289 17.0711C16.0536 15.1957 15 12.6522 15 10C15 7.34784 16.0536 4.8043 17.9289 2.92893C19.8043 1.05357 22.3478 0 25 0V0ZM25 5C23.6739 5 22.4021 5.52678 21.4645 6.46447C20.5268 7.40215 20 8.67392 20 10C20 11.3261 20.5268 12.5979 21.4645 13.5355C22.4021 14.4732 23.6739 15 25 15C26.3261 15 27.5979 14.4732 28.5355 13.5355C29.4732 12.5979 30 11.3261 30 10C30 8.67392 29.4732 7.40215 28.5355 6.46447C27.5979 5.52678 26.3261 5 25 5V5Z" fill="#3B82F6"/>
</svg>
