<svg width="100" height="100" viewBox="0 0 100 100" fill="none" xmlns="http://www.w3.org/2000/svg">
<path d="M11.4585 68.6542C20.1252 77.9479 32.2064 76.5625 39.3585 76.3438M11.4585 57.0292C19.3439 66.0292 29.8022 66.7417 39.7168 65.6125M38.7022 36.3625C7.13558 29.7417 3.23975 58.3084 38.7022 55.0167M44.571 75.6292C52.8064 84.1709 80.6064 86.0875 88.5418 74.7334M44.571 62.5729C50.7397 73.9271 79.3981 73.7729 88.5418 63.4688M44.571 51.3959C57.446 64.8938 81.0293 60.275 88.5418 51.3959" stroke="#1D4ED8" stroke-width="2.08333" stroke-linecap="round" stroke-linejoin="round"/>
<path d="M44.5708 40.2167C52.6875 51.3958 79.4041 51.7208 88.5416 40.3958" stroke="#1D4ED8" stroke-width="2.08333" stroke-linecap="round" stroke-linejoin="round"/>
<path d="M66.5935 37.975C77.9522 37.975 87.1602 33.3589 87.1602 27.6646C87.1602 21.9703 77.9522 17.3542 66.5935 17.3542C55.2349 17.3542 46.0269 21.9703 46.0269 27.6646C46.0269 33.3589 55.2349 37.975 66.5935 37.975Z" stroke="#1D4ED8" stroke-width="2.08333" stroke-linecap="round" stroke-linejoin="round"/>
<path d="M38.7021 36.3625V55.0167" stroke="#1D4ED8" stroke-width="2.08333" stroke-linecap="round" stroke-linejoin="round"/>
</svg>
