<svg width="100" height="100" viewBox="0 0 100 100" fill="none" xmlns="http://www.w3.org/2000/svg">
<path d="M20.0002 45.8333L27.9168 37.9167C28.6807 37.1528 29.0627 36.1806 29.0627 35C29.0627 33.8194 28.6807 32.8472 27.9168 32.0833C27.1529 31.3194 26.1807 30.9375 25.0002 30.9375C23.8196 30.9375 22.8474 31.3194 22.0835 32.0833L11.2502 42.9167C10.4168 43.75 10.0002 44.7222 10.0002 45.8333C10.0002 46.9444 10.4168 47.9167 11.2502 48.75L22.0835 59.5833C22.8474 60.3472 23.8196 60.7292 25.0002 60.7292C26.1807 60.7292 27.1529 60.3472 27.9168 59.5833C28.6807 58.8194 29.0627 57.8472 29.0627 56.6667C29.0627 55.4861 28.6807 54.5139 27.9168 53.75L20.0002 45.8333ZM80.0002 45.8333L72.0835 53.75C71.3196 54.5139 70.9377 55.4861 70.9377 56.6667C70.9377 57.8472 71.3196 58.8194 72.0835 59.5833C72.8474 60.3472 73.8196 60.7292 75.0002 60.7292C76.1807 60.7292 77.1529 60.3472 77.9168 59.5833L88.7502 48.75C89.5835 47.9167 90.0002 46.9444 90.0002 45.8333C90.0002 44.7222 89.5835 43.75 88.7502 42.9167L77.9168 32.0833C77.1529 31.3194 76.1807 30.9375 75.0002 30.9375C73.8196 30.9375 72.8474 31.3194 72.0835 32.0833C71.3196 32.8472 70.9377 33.8194 70.9377 35C70.9377 36.1806 71.3196 37.1528 72.0835 37.9167L80.0002 45.8333ZM8.3335 25V20.8333C8.3335 18.5417 9.15016 16.5806 10.7835 14.95C12.4168 13.3194 14.3779 12.5028 16.6668 12.5H83.3335C85.6252 12.5 87.5877 13.3167 89.221 14.95C90.8543 16.5833 91.6696 18.5444 91.6668 20.8333V25C91.6668 26.1806 91.2668 27.1708 90.4668 27.9708C89.6668 28.7708 88.6779 29.1694 87.5002 29.1667C86.3224 29.1639 85.3335 28.7639 84.5335 27.9667C83.7335 27.1694 83.3335 26.1806 83.3335 25V20.8333H16.6668V25C16.6668 26.1806 16.2668 27.1708 15.4668 27.9708C14.6668 28.7708 13.6779 29.1694 12.5002 29.1667C11.3224 29.1639 10.3335 28.7639 9.5335 27.9667C8.7335 27.1694 8.3335 26.1806 8.3335 25ZM37.5002 87.5C36.3196 87.5 35.3307 87.1 34.5335 86.3C33.7363 85.5 33.3363 84.5111 33.3335 83.3333V79.1667H16.6668C14.3752 79.1667 12.4141 78.3514 10.7835 76.7208C9.15294 75.0903 8.33627 73.1278 8.3335 70.8333V66.7708C8.3335 65.5903 8.7335 64.6181 9.5335 63.8542C10.3335 63.0903 11.3224 62.7083 12.5002 62.7083C13.6779 62.7083 14.6682 63.1069 15.471 63.9042C16.2738 64.7014 16.6724 65.6917 16.6668 66.875V70.8333H83.3335V66.7708C83.3335 65.5903 83.7335 64.6181 84.5335 63.8542C85.3335 63.0903 86.3224 62.7083 87.5002 62.7083C88.6779 62.7083 89.6682 63.1069 90.471 63.9042C91.2738 64.7014 91.6724 65.6917 91.6668 66.875V70.8333C91.6668 73.125 90.8515 75.0875 89.221 76.7208C87.5904 78.3542 85.6279 79.1694 83.3335 79.1667H66.6668V83.3333C66.6668 84.5139 66.2668 85.5042 65.4668 86.3042C64.6668 87.1042 63.6779 87.5028 62.5002 87.5H37.5002Z" fill="black"/>
</svg>
