<svg width="100" height="69" viewBox="0 0 100 69" fill="none" xmlns="http://www.w3.org/2000/svg">
<path fill-rule="evenodd" clip-rule="evenodd" d="M25 0H75C81.6304 0 87.9893 2.63392 92.6777 7.32233C97.3661 12.0107 100 18.3696 100 25V43.75C100 50.3804 97.3661 56.7393 92.6777 61.4277C87.9893 66.1161 81.6304 68.75 75 68.75H25C18.3696 68.75 12.0107 66.1161 7.32233 61.4277C2.63392 56.7393 0 50.3804 0 43.75V25C0 18.3696 2.63392 12.0107 7.32233 7.32233C12.0107 2.63392 18.3696 0 25 0ZM25 6.25C20.0272 6.25 15.2581 8.22544 11.7417 11.7417C8.22544 15.2581 6.25 20.0272 6.25 25V43.75C6.25 48.7228 8.22544 53.4919 11.7417 57.0083C15.2581 60.5246 20.0272 62.5 25 62.5H75C79.9728 62.5 84.7419 60.5246 88.2583 57.0083C91.7746 53.4919 93.75 48.7228 93.75 43.75V25C93.75 20.0272 91.7746 15.2581 88.2583 11.7417C84.7419 8.22544 79.9728 6.25 75 6.25H25Z" fill="#1D4ED8"/>
<path d="M34.375 18.75C33.5462 18.75 32.7513 19.0792 32.1653 19.6653C31.5792 20.2513 31.25 21.0462 31.25 21.875V31.25H21.875C21.0462 31.25 20.2513 31.5792 19.6653 32.1653C19.0792 32.7513 18.75 33.5462 18.75 34.375C18.75 35.2038 19.0792 35.9987 19.6653 36.5847C20.2513 37.1708 21.0462 37.5 21.875 37.5H31.25V46.875C31.25 47.7038 31.5792 48.4987 32.1653 49.0847C32.7513 49.6708 33.5462 50 34.375 50C35.2038 50 35.9987 49.6708 36.5847 49.0847C37.1708 48.4987 37.5 47.7038 37.5 46.875V37.5H46.875C47.7038 37.5 48.4987 37.1708 49.0847 36.5847C49.6708 35.9987 50 35.2038 50 34.375C50 33.5462 49.6708 32.7513 49.0847 32.1653C48.4987 31.5792 47.7038 31.25 46.875 31.25H37.5V21.875C37.5 21.0462 37.1708 20.2513 36.5847 19.6653C35.9987 19.0792 35.2038 18.75 34.375 18.75ZM81.25 25C81.25 26.6576 80.5915 28.2473 79.4194 29.4194C78.2473 30.5915 76.6576 31.25 75 31.25C73.3424 31.25 71.7527 30.5915 70.5806 29.4194C69.4085 28.2473 68.75 26.6576 68.75 25C68.75 23.3424 69.4085 21.7527 70.5806 20.5806C71.7527 19.4085 73.3424 18.75 75 18.75C76.6576 18.75 78.2473 19.4085 79.4194 20.5806C80.5915 21.7527 81.25 23.3424 81.25 25ZM75 43.75C75 45.4076 74.3415 46.9973 73.1694 48.1694C71.9973 49.3415 70.4076 50 68.75 50C67.0924 50 65.5027 49.3415 64.3306 48.1694C63.1585 46.9973 62.5 45.4076 62.5 43.75C62.5 42.0924 63.1585 40.5027 64.3306 39.3306C65.5027 38.1585 67.0924 37.5 68.75 37.5C70.4076 37.5 71.9973 38.1585 73.1694 39.3306C74.3415 40.5027 75 42.0924 75 43.75Z" fill="#1D4ED8"/>
</svg>
