<svg width="100" height="100" viewBox="0 0 100 100" fill="none" xmlns="http://www.w3.org/2000/svg">
<path fill-rule="evenodd" clip-rule="evenodd" d="M25 18.75H75C81.6304 18.75 87.9893 21.3839 92.6777 26.0723C97.3661 30.7607 100 37.1196 100 43.75V62.5C100 69.1304 97.3661 75.4893 92.6777 80.1777C87.9893 84.8661 81.6304 87.5 75 87.5H25C18.3696 87.5 12.0107 84.8661 7.32233 80.1777C2.63392 75.4893 0 69.1304 0 62.5V43.75C0 37.1196 2.63392 30.7607 7.32233 26.0723C12.0107 21.3839 18.3696 18.75 25 18.75ZM25 25C20.0272 25 15.2581 26.9754 11.7417 30.4917C8.22544 34.0081 6.25 38.7772 6.25 43.75V62.5C6.25 67.4728 8.22544 72.2419 11.7417 75.7583C15.2581 79.2746 20.0272 81.25 25 81.25H75C79.9728 81.25 84.7419 79.2746 88.2583 75.7583C91.7746 72.2419 93.75 67.4728 93.75 62.5V43.75C93.75 38.7772 91.7746 34.0081 88.2583 30.4917C84.7419 26.9754 79.9728 25 75 25H25Z" fill="white"/>
<path d="M34.375 37.5C33.5462 37.5 32.7513 37.8292 32.1653 38.4153C31.5792 39.0013 31.25 39.7962 31.25 40.625V50H21.875C21.0462 50 20.2513 50.3292 19.6653 50.9153C19.0792 51.5013 18.75 52.2962 18.75 53.125C18.75 53.9538 19.0792 54.7487 19.6653 55.3347C20.2513 55.9208 21.0462 56.25 21.875 56.25H31.25V65.625C31.25 66.4538 31.5792 67.2487 32.1653 67.8347C32.7513 68.4208 33.5462 68.75 34.375 68.75C35.2038 68.75 35.9987 68.4208 36.5847 67.8347C37.1708 67.2487 37.5 66.4538 37.5 65.625V56.25H46.875C47.7038 56.25 48.4987 55.9208 49.0847 55.3347C49.6708 54.7487 50 53.9538 50 53.125C50 52.2962 49.6708 51.5013 49.0847 50.9153C48.4987 50.3292 47.7038 50 46.875 50H37.5V40.625C37.5 39.7962 37.1708 39.0013 36.5847 38.4153C35.9987 37.8292 35.2038 37.5 34.375 37.5ZM81.25 43.75C81.25 45.4076 80.5915 46.9973 79.4194 48.1694C78.2473 49.3415 76.6576 50 75 50C73.3424 50 71.7527 49.3415 70.5806 48.1694C69.4085 46.9973 68.75 45.4076 68.75 43.75C68.75 42.0924 69.4085 40.5027 70.5806 39.3306C71.7527 38.1585 73.3424 37.5 75 37.5C76.6576 37.5 78.2473 38.1585 79.4194 39.3306C80.5915 40.5027 81.25 42.0924 81.25 43.75ZM75 62.5C75 64.1576 74.3415 65.7473 73.1694 66.9194C71.9973 68.0915 70.4076 68.75 68.75 68.75C67.0924 68.75 65.5027 68.0915 64.3306 66.9194C63.1585 65.7473 62.5 64.1576 62.5 62.5C62.5 60.8424 63.1585 59.2527 64.3306 58.0806C65.5027 56.9085 67.0924 56.25 68.75 56.25C70.4076 56.25 71.9973 56.9085 73.1694 58.0806C74.3415 59.2527 75 60.8424 75 62.5Z" fill="white"/>
</svg>
