<svg width="100" height="100" viewBox="0 0 100 100" fill="none" xmlns="http://www.w3.org/2000/svg">
<g clip-path="url(#clip0_278_75)">
<path d="M91.6667 0H8.33333C6.1232 0 4.00358 0.877974 2.44078 2.44078C0.877974 4.00358 0 6.1232 0 8.33333L0 91.6667C0 93.8768 0.877974 95.9964 2.44078 97.5592C4.00358 99.122 6.1232 100 8.33333 100H91.6667C93.8768 100 95.9964 99.122 97.5592 97.5592C99.122 95.9964 100 93.8768 100 91.6667V8.33333C100 6.1232 99.122 4.00358 97.5592 2.44078C95.9964 0.877974 93.8768 0 91.6667 0ZM25 66.6667C24.1759 66.6667 23.3703 66.4223 22.6851 65.9645C21.9999 65.5066 21.4659 64.8559 21.1505 64.0945C20.8351 63.3332 20.7526 62.4954 20.9134 61.6871C21.0742 60.8789 21.471 60.1364 22.0537 59.5537C22.6364 58.971 23.3789 58.5742 24.1871 58.4134C24.9954 58.2526 25.8332 58.3351 26.5945 58.6505C27.3559 58.9659 28.0066 59.4999 28.4645 60.1851C28.9223 60.8703 29.1667 61.6759 29.1667 62.5C29.1667 63.6051 28.7277 64.6649 27.9463 65.4463C27.1649 66.2277 26.1051 66.6667 25 66.6667ZM91.6667 25H82.5667C81.5838 22.2199 79.6497 19.8769 77.1063 18.3849C74.563 16.8929 71.574 16.3481 68.6678 16.8467C65.7615 17.3453 63.1251 18.8553 61.2246 21.1097C59.324 23.3642 58.2816 26.218 58.2816 29.1667C58.2816 32.1154 59.324 34.9691 61.2246 37.2236C63.1251 39.478 65.7615 40.988 68.6678 41.4866C71.574 41.9853 74.563 41.4405 77.1063 39.9485C79.6497 38.4565 81.5838 36.1134 82.5667 33.3333H91.6667V50H75V58.3333H91.6667V66.6667H83.3333V75H91.6667V91.6667H58.3333V86.7333C61.1134 85.7504 63.4565 83.8164 64.9485 81.273C66.4404 78.7296 66.9853 75.7407 66.4866 72.8344C65.988 69.9282 64.478 67.2918 62.2236 65.3912C59.9691 63.4906 57.1154 62.4482 54.1667 62.4482C51.218 62.4482 48.3642 63.4906 46.1098 65.3912C43.8553 67.2918 42.3453 69.9282 41.8467 72.8344C41.3481 75.7407 41.8929 78.7296 43.3849 81.273C44.8769 83.8164 47.2199 85.7504 50 86.7333V91.6667H29.1667V74.2333C31.9467 73.2504 34.2898 71.3164 35.7818 68.773C37.2738 66.2296 37.8186 63.2407 37.32 60.3344C36.8214 57.4282 35.3114 54.7918 33.0569 52.8912C30.8025 50.9906 27.9487 49.9482 25 49.9482C22.0513 49.9482 19.1975 50.9906 16.9431 52.8912C14.6886 54.7918 13.1786 57.4282 12.68 60.3344C12.1814 63.2407 12.7262 66.2296 14.2182 68.773C15.7102 71.3164 18.0533 73.2504 20.8333 74.2333V91.6667H8.33333V8.33333H25V33.3333H33.3333V8.33333H41.6667V50H50V8.33333H91.6667V25ZM75 29.1667C75 29.9908 74.7556 30.7963 74.2978 31.4815C73.84 32.1667 73.1892 32.7008 72.4278 33.0162C71.6665 33.3315 70.8287 33.414 70.0205 33.2533C69.2122 33.0925 68.4698 32.6957 67.887 32.1129C67.3043 31.5302 66.9075 30.7878 66.7467 29.9795C66.586 29.1713 66.6685 28.3335 66.9838 27.5722C67.2992 26.8108 67.8332 26.16 68.5185 25.7022C69.2037 25.2444 70.0092 25 70.8333 25C71.9384 25 72.9982 25.439 73.7796 26.2204C74.561 27.0018 75 28.0616 75 29.1667Z" fill="black"/>
</g>
<defs>
<clipPath id="clip0_278_75">
<rect width="100" height="100" fill="white"/>
</clipPath>
</defs>
</svg>
