<svg width="100" height="100" viewBox="0 0 100 100" fill="none" xmlns="http://www.w3.org/2000/svg">
<path d="M75 83.3333L90.9333 67.4C91.4023 66.9316 91.6661 66.2961 91.6667 65.6333V43.75C91.6667 42.0924 91.0082 40.5027 89.8361 39.3306C88.664 38.1585 87.0743 37.5 85.4167 37.5C83.7591 37.5 82.1694 38.1585 80.9973 39.3306C79.8251 40.5027 79.1667 42.0924 79.1667 43.75V62.5" stroke="#1B1935" stroke-width="6.25" stroke-linecap="round" stroke-linejoin="round"/>
<path d="M75.0002 66.6667L78.5752 63.0917C78.7637 62.9047 78.9132 62.682 79.0147 62.4366C79.1163 62.1912 79.168 61.9281 79.1668 61.6625C79.1639 61.2883 79.0582 60.9221 78.8613 60.604C78.6643 60.2858 78.3838 60.0279 78.0502 59.8583L76.2043 58.9375C74.6405 58.1556 72.8704 57.8854 71.1446 58.165C69.4187 58.4447 67.8245 59.2601 66.5877 60.4958L62.8585 64.225C61.2956 65.7874 60.4173 67.9067 60.4168 70.1167V83.3333M25.0002 83.3333L9.06683 67.4C8.59785 66.9316 8.33408 66.2961 8.3335 65.6333V43.75C8.3335 42.0924 8.99198 40.5027 10.1641 39.3306C11.3362 38.1585 12.9259 37.5 14.5835 37.5C16.2411 37.5 17.8308 38.1585 19.0029 39.3306C20.175 40.5027 20.8335 42.0924 20.8335 43.75V62.5" stroke="#1B1935" stroke-width="6.25" stroke-linecap="round" stroke-linejoin="round"/>
<path d="M25.0002 66.6667L21.4252 63.0917C21.0518 62.7089 20.84 62.1972 20.8335 61.6625C20.8335 60.9 21.2668 60.2042 21.9502 59.8583L23.796 58.9375C25.3598 58.1556 27.1299 57.8854 28.8558 58.165C30.5816 58.4447 32.1758 59.2601 33.4127 60.4958L37.1418 64.225C38.7047 65.7874 39.583 67.9067 39.5835 70.1167V83.3333M56.946 50H43.0543V40.2792H33.3335V26.3875H43.0543V16.6667H56.946V26.3875H66.6668V40.2792H56.946V50Z" stroke="#1B1935" stroke-width="6.25" stroke-linecap="round" stroke-linejoin="round"/>
</svg>
