<svg width="100" height="100" viewBox="0 0 100 100" fill="none" xmlns="http://www.w3.org/2000/svg">
<g clip-path="url(#clip0_279_99)">
<path fill-rule="evenodd" clip-rule="evenodd" d="M6.6665 10C6.6665 7.34783 7.72007 4.8043 9.59544 2.92893C11.4708 1.05357 14.0143 0 16.6665 0L71.3798 0L93.3332 21.9533V90C93.3332 92.6522 92.2796 95.1957 90.4042 97.0711C88.5289 98.9464 85.9853 100 83.3332 100H16.6665C14.0143 100 11.4708 98.9464 9.59544 97.0711C7.72007 95.1957 6.6665 92.6522 6.6665 90V10ZM26.6665 26.6667H46.6665V33.3333H26.6665V26.6667ZM73.3332 46.6667H26.6665V53.3333H73.3332V46.6667ZM73.3332 66.6667H53.3332V73.3333H73.3332V66.6667Z" fill="#1D4ED8"/>
</g>
<defs>
<clipPath id="clip0_279_99">
<rect width="100" height="100" fill="white"/>
</clipPath>
</defs>
</svg>
