<svg width="100" height="100" viewBox="0 0 100 100" fill="none" xmlns="http://www.w3.org/2000/svg">
<path d="M64.2858 3.57143V46.4286L89.9287 79.0714C91.1778 80.6521 91.9559 82.5529 92.1737 84.5558C92.3916 86.5586 92.0403 88.5822 91.1603 90.3945C90.2803 92.2068 88.9071 93.7342 87.1984 94.8015C85.4897 95.8688 83.5147 96.4327 81.5001 96.4286H18.5001C16.4855 96.4327 14.5105 95.8688 12.8018 94.8015C11.0931 93.7342 9.71996 92.2068 8.83993 90.3945C7.9599 88.5822 7.60865 86.5586 7.8265 84.5558C8.04435 82.5529 8.82246 80.6521 10.0715 79.0714L35.7144 46.4286V3.57143M25.0001 3.57143H75.0001" stroke="#1D4ED8" stroke-width="7.14286" stroke-linecap="round" stroke-linejoin="round"/>
</svg>
