<svg viewBox="0 0 16 16" xmlns="http://www.w3.org/2000/svg"><path d="m14.5495758 0h-13.09915156c-.8010303 0-1.45042424.64939394-1.45042424 1.45042424v13.09915156c0 .8010303.64939394 1.4504242 1.45042424 1.4504242h13.09915156c.8010303 0 1.4504242-.6493939 1.4504242-1.4504242v-13.09915156c0-.8010303-.6493939-1.45042424-1.4504242-1.45042424" fill="#dc395f"/><g fill="#fff"><path d="m5.34721212 5.03406061c.53187879 0 .97739394-.4169091.97739394-.96327273 0-.546-.44551515-.96278788-.97739394-.96278788s-.97733333.41678788-.97733333.96278788c0 .54636363.44545454.96327273.97733333.96327273"/><path d="m3.32054546 10.1915758c-.05739395.2443636-.08624243.5082424-.08624243.7235151 0 .8481819.4599394 1.4112727 1.43739394 1.4112727.81066667 0 1.46781818-.4814545 1.94096972-1.2587272l-.28890913 1.1595757h1.609697l.92-3.68993935c.22993938-.93430306.67551513-1.41921212 1.35115154-1.41921212.5318182 0 .8624242.33072725.8624242.87672725 0 .15824243-.0144242.33054543-.0718788.51745456l-.4744242 1.69606056c-.0718788.2443637-.1004849.4889091-.1004849.7186667 0 .8052121.4741819 1.3941818 1.466 1.3941818.8480606 0 1.5235758-.5459394 1.8973334-1.854l-.6323637-.2441818c-.316303.8763636-.5893939 1.0347879-.8049697 1.0347879-.2156363 0-.3306667-.1436364-.3306667-.4309697 0-.1293333.0288486-.2729091.0718789-.4457576l.4600605-1.65242424c.1149092-.388.1581213-.73206062.1581213-1.04818181 0-1.23612125-.7475152-1.88121213-1.6530303-1.88121213-.848 0-1.71048491.76490907-2.14157579 1.56993938l.31612119-1.44496968h-2.45781819l-.34503031 1.27272724h1.14993944l-.70806063 2.83503034c-.55612118 1.2361212-1.57757575 1.2561818-1.70575757 1.2274545-.21048485-.0474545-.34509091-.1273939-.34509091-.400909 0-.1578182.02872728-.3844849.10060606-.6578182l1.07812122-4.27648488h-2.7309091l-.3450303 1.27272724h1.13545455z"/></g></svg>