<svg width="100" height="100" viewBox="0 0 100 100" fill="none" xmlns="http://www.w3.org/2000/svg">
<path d="M75.0002 82.2917C75.0005 84.6672 74.0989 86.9542 72.4778 88.6906C70.8566 90.427 68.6368 91.4832 66.2668 91.6458L65.6252 91.6667H34.3752C31.9996 91.667 29.7126 90.7654 27.9762 89.1443C26.2398 87.5231 25.1836 85.3033 25.021 82.9333L25.0002 82.2917V17.7083C24.9999 15.3328 25.9014 13.0457 27.5225 11.3094C29.1437 9.57297 31.3635 8.51675 33.7335 8.35416L34.3752 8.33333H65.6252C68.0007 8.33304 70.2877 9.23456 72.0241 10.8557C73.7605 12.4768 74.8167 14.6967 74.9793 17.0667L75.0002 17.7083V82.2917ZM79.1668 20.8333H82.2918C84.6674 20.833 86.9544 21.7346 88.6908 23.3557C90.4272 24.9768 91.4834 27.1967 91.646 29.5667L91.6668 30.2083V69.7917C91.6671 72.1672 90.7656 74.4542 89.1445 76.1906C87.5233 77.927 85.3034 78.9832 82.9335 79.1458L82.2918 79.1667H79.1668V20.8333ZM20.8335 79.1667H17.7085C15.333 79.167 13.0459 78.2654 11.3095 76.6443C9.57314 75.0231 8.51692 72.8033 8.35433 70.4333L8.3335 69.7917V30.2083C8.3332 27.8328 9.23473 25.5457 10.8559 23.8094C12.477 22.073 14.6969 21.0168 17.0668 20.8542L17.7085 20.8333H20.8335V79.1667Z" fill="#60A5FA"/>
</svg>
