<svg width="100" height="100" viewBox="0 0 100 100" fill="none" xmlns="http://www.w3.org/2000/svg">
<path d="M24.9998 91.6667C22.7082 91.6667 20.7471 90.8514 19.1165 89.2208C17.4859 87.5903 16.6693 85.6278 16.6665 83.3333V16.6667C16.6665 14.375 17.4832 12.4139 19.1165 10.7833C20.7498 9.15277 22.7109 8.33611 24.9998 8.33333H74.9998C77.2915 8.33333 79.254 9.15 80.8873 10.7833C82.5207 12.4167 83.3359 14.3778 83.3332 16.6667V83.3333C83.3332 85.625 82.5179 87.5875 80.8873 89.2208C79.2568 90.8542 77.2943 91.6694 74.9998 91.6667H24.9998ZM49.9998 79.1667C55.7637 79.1667 60.6776 77.1347 64.7415 73.0708C68.8054 69.0069 70.8359 64.0944 70.8332 58.3333C70.8304 52.5722 68.7984 47.6597 64.7373 43.5958C60.6762 39.5319 55.7637 37.5 49.9998 37.5C44.2359 37.5 39.3234 39.5319 35.2623 43.5958C31.2012 47.6597 29.1693 52.5722 29.1665 58.3333C29.1637 64.0944 31.1957 69.0083 35.2623 73.075C39.329 77.1417 44.2415 79.1722 49.9998 79.1667ZM49.9998 72.0833C48.1943 72.0833 46.4401 71.7528 44.7373 71.0917C43.0346 70.4305 41.5248 69.4417 40.2082 68.125L59.7915 48.5417C61.1109 49.8611 62.1012 51.3722 62.7623 53.075C63.4234 54.7778 63.7526 56.5305 63.7498 58.3333C63.7498 62.1528 62.4137 65.4 59.7415 68.075C57.0693 70.75 53.8221 72.0861 49.9998 72.0833ZM33.3332 29.1667C34.5137 29.1667 35.504 28.7667 36.304 27.9667C37.104 27.1667 37.5026 26.1778 37.4998 25C37.4971 23.8222 37.0971 22.8333 36.2998 22.0333C35.5026 21.2333 34.5137 20.8333 33.3332 20.8333C32.1526 20.8333 31.1637 21.2333 30.3665 22.0333C29.5693 22.8333 29.1693 23.8222 29.1665 25C29.1637 26.1778 29.5637 27.168 30.3665 27.9708C31.1693 28.7736 32.1582 29.1722 33.3332 29.1667ZM45.8332 29.1667C47.0137 29.1667 48.004 28.7667 48.804 27.9667C49.604 27.1667 50.0026 26.1778 49.9998 25C49.9971 23.8222 49.5971 22.8333 48.7998 22.0333C48.0026 21.2333 47.0137 20.8333 45.8332 20.8333C44.6526 20.8333 43.6637 21.2333 42.8665 22.0333C42.0693 22.8333 41.6693 23.8222 41.6665 25C41.6637 26.1778 42.0637 27.168 42.8665 27.9708C43.6693 28.7736 44.6582 29.1722 45.8332 29.1667Z" fill="#60A5FA"/>
</svg>
