<svg width="100" height="100" viewBox="0 0 100 100" fill="none" xmlns="http://www.w3.org/2000/svg">
<path fill-rule="evenodd" clip-rule="evenodd" d="M70.3125 6.25C71.5557 6.25 72.748 6.74386 73.6271 7.62294C74.5061 8.50201 75 9.6943 75 10.9375V18.75H87.5C89.1576 18.75 90.7473 19.4085 91.9194 20.5806C93.0915 21.7527 93.75 23.3424 93.75 25V87.5C93.75 89.1576 93.0915 90.7473 91.9194 91.9194C90.7473 93.0915 89.1576 93.75 87.5 93.75H12.5C10.8424 93.75 9.25268 93.0915 8.08058 91.9194C6.90848 90.7473 6.25 89.1576 6.25 87.5V25C6.25 23.3424 6.90848 21.7527 8.08058 20.5806C9.25268 19.4085 10.8424 18.75 12.5 18.75H25V10.9375C25 9.6943 25.4939 8.50201 26.3729 7.62294C27.252 6.74386 28.4443 6.25 29.6875 6.25C30.9307 6.25 32.123 6.74386 33.0021 7.62294C33.8811 8.50201 34.375 9.6943 34.375 10.9375V18.75H65.625V10.9375C65.625 9.6943 66.1189 8.50201 66.9979 7.62294C67.877 6.74386 69.0693 6.25 70.3125 6.25ZM15.625 46.875V84.375H84.375V46.875H15.625ZM15.625 37.5H84.375V28.125H15.625V37.5ZM64.25 56.0625C65.1278 56.9414 65.6209 58.1328 65.6209 59.375C65.6209 60.6172 65.1278 61.8086 64.25 62.6875L50.1875 76.75C49.3086 77.6278 48.1172 78.1209 46.875 78.1209C45.6328 78.1209 44.4414 77.6278 43.5625 76.75L35.75 68.9375C35.2895 68.5084 34.9201 67.9909 34.6639 67.4159C34.4077 66.8409 34.2699 66.2202 34.2588 65.5908C34.2477 64.9614 34.3635 64.3362 34.5992 63.7525C34.835 63.1688 35.1859 62.6386 35.631 62.1935C36.0761 61.7484 36.6063 61.3975 37.19 61.1617C37.7737 60.926 38.3989 60.8102 39.0283 60.8213C39.6577 60.8324 40.2784 60.9702 40.8534 61.2264C41.4284 61.4826 41.9459 61.852 42.375 62.3125L46.875 66.8125L57.625 56.0625C58.5039 55.1847 59.6953 54.6916 60.9375 54.6916C62.1797 54.6916 63.3711 55.1847 64.25 56.0625Z" fill="#7CD7FB"/>
</svg>
