<svg width="100" height="100" viewBox="0 0 100 100" fill="none" xmlns="http://www.w3.org/2000/svg">
<path d="M38.2918 26.4583C29.7918 36 23.9585 49.7083 23.4168 51L8.3335 44.5417L25.2085 27.6667C27.1668 25.7083 30.0002 24.8333 32.7502 25.375L38.2918 26.4583ZM46.5418 70.8333C46.5418 70.8333 62.1252 64.375 71.0835 55.4167C93.5835 32.9167 89.8335 15.3333 88.6252 11.375C84.6668 10.125 67.0835 6.41667 44.5835 28.9167C35.6252 37.875 29.1668 53.4583 29.1668 53.4583L46.5418 70.8333ZM73.5418 61.7083C64.0002 70.2083 50.2918 76.0417 49.0002 76.5833L55.4585 91.6667L72.3335 74.7917C74.2918 72.8333 75.1668 70 74.6252 67.25L73.5418 61.7083ZM37.5002 75C37.5002 78.4583 36.0835 81.5833 33.8335 83.8333C28.9168 88.75 8.3335 91.6667 8.3335 91.6667C8.3335 91.6667 11.2502 71.0833 16.1668 66.1667C17.9118 64.4126 20.1387 63.2166 22.5647 62.7305C24.9908 62.2445 27.5065 62.4904 29.7925 63.437C32.0786 64.3835 34.0317 65.988 35.4041 68.0468C36.7764 70.1056 37.506 72.5258 37.5002 75ZM54.1668 37.5C54.1668 32.9167 57.9168 29.1667 62.5002 29.1667C67.0835 29.1667 70.8335 32.9167 70.8335 37.5C70.8335 42.0833 67.0835 45.8333 62.5002 45.8333C57.9168 45.8333 54.1668 42.0833 54.1668 37.5Z" fill="#1D4ED8"/>
</svg>
