<svg width="100" height="100" viewBox="0 0 100 100" fill="none" xmlns="http://www.w3.org/2000/svg">
<path d="M50.0002 12.5C44.7086 12.5 40.0002 15.8333 38.2502 20.8333H12.5002V29.1667H20.6252L8.33358 58.3333C6.37525 66.6667 12.5002 70.8333 22.9169 70.8333C33.3336 70.8333 39.8336 66.6667 37.5002 58.3333L25.2086 29.1667H38.2086C39.5836 32.7083 42.2919 35.4167 45.8336 36.7917V83.3333H8.33358V91.6667H91.6669V83.3333H54.1669V36.75C57.7086 35.4167 60.4169 32.7083 61.7502 29.1667H74.7919L62.5002 58.3333C60.5419 66.6667 66.6669 70.8333 77.0836 70.8333C87.5002 70.8333 94.0002 66.6667 91.6669 58.3333L79.3752 29.1667H87.5002V20.8333H61.7919C60.0002 15.8333 55.2919 12.5 50.0002 12.5ZM50.0002 20.8333C51.1053 20.8333 52.1651 21.2723 52.9465 22.0537C53.7279 22.8351 54.1669 23.8949 54.1669 25C54.1669 26.1051 53.7279 27.1649 52.9465 27.9463C52.1651 28.7277 51.1053 29.1667 50.0002 29.1667C48.8952 29.1667 47.8354 28.7277 47.054 27.9463C46.2726 27.1649 45.8336 26.1051 45.8336 25C45.8336 23.8949 46.2726 22.8351 47.054 22.0537C47.8354 21.2723 48.8952 20.8333 50.0002 20.8333ZM22.9169 42.7083L29.1669 58.3333H16.6669L22.9169 42.7083ZM77.0836 42.7083L83.3336 58.3333H70.8336L77.0836 42.7083Z" fill="#1D4ED8"/>
</svg>
