<svg width="100" height="100" viewBox="0 0 100 100" fill="none" xmlns="http://www.w3.org/2000/svg">
<circle cx="50" cy="50" r="50" fill="#0250BC"/>
<path d="M25.9375 49.9998C25.9369 45.7756 27.0482 41.6257 29.1599 37.9672C31.2715 34.3087 34.3091 31.2706 37.9672 29.1582C41.6252 27.0459 45.7749 25.9337 49.9991 25.9335C54.2233 25.9334 58.3731 27.0452 62.0313 29.1573C62.5335 29.4428 63.1282 29.5181 63.6856 29.3667C64.2431 29.2154 64.7181 28.8497 65.0069 28.3494C65.2957 27.8492 65.375 27.255 65.2273 26.6965C65.0797 26.1381 64.7171 25.6607 64.2188 25.3685C58.7976 22.2386 52.495 20.9849 46.2887 21.8019C40.0823 22.6188 34.3189 25.4609 29.8923 29.8871C25.4658 34.3134 22.6234 40.0766 21.806 46.2829C20.9886 52.4893 22.2419 58.7919 25.3715 64.2133C28.5011 69.6347 33.3322 73.8721 39.1154 76.2681C44.8986 78.6641 51.3108 79.085 57.3576 77.4654C63.4043 75.8458 68.7477 72.2762 72.5591 67.3103C76.3704 62.3444 78.4367 56.2597 78.4375 49.9998C78.4375 49.4196 78.2071 48.8632 77.7968 48.453C77.3866 48.0428 76.8302 47.8123 76.25 47.8123C75.6699 47.8123 75.1135 48.0428 74.7032 48.453C74.293 48.8632 74.0625 49.4196 74.0625 49.9998C74.0625 56.3816 71.5274 62.502 67.0148 67.0145C62.5022 71.5271 56.3818 74.0623 50 74.0623C43.6183 74.0623 37.4979 71.5271 32.9853 67.0145C28.4727 62.502 25.9375 56.3816 25.9375 49.9998Z" fill="white"/>
<path d="M82.1746 29.6736C82.3779 29.4702 82.5393 29.2287 82.6494 28.963C82.7594 28.6973 82.8161 28.4125 82.8161 28.1248C82.8161 27.8372 82.7594 27.5524 82.6494 27.2867C82.5393 27.0209 82.3779 26.7795 82.1746 26.5761C81.9712 26.3727 81.7297 26.2114 81.464 26.1013C81.1983 25.9912 80.9134 25.9346 80.6258 25.9346C80.3382 25.9346 80.0534 25.9912 79.7876 26.1013C79.5219 26.2114 79.2804 26.3727 79.0771 26.5761L50.0008 55.6567L38.4246 44.0761C38.2212 43.8727 37.9797 43.7114 37.714 43.6013C37.4483 43.4912 37.1634 43.4346 36.8758 43.4346C36.5882 43.4346 36.3034 43.4912 36.0376 43.6013C35.7719 43.7114 35.5304 43.8727 35.3271 44.0761C35.1237 44.2795 34.9623 44.5209 34.8523 44.7867C34.7422 45.0524 34.6855 45.3372 34.6855 45.6248C34.6855 45.9125 34.7422 46.1973 34.8523 46.463C34.9623 46.7287 35.1237 46.9702 35.3271 47.1736L48.4521 60.2986C48.6553 60.5023 48.8967 60.6639 49.1624 60.7742C49.4282 60.8845 49.7131 60.9412 50.0008 60.9412C50.2885 60.9412 50.5734 60.8845 50.8392 60.7742C51.105 60.6639 51.3464 60.5023 51.5496 60.2986L82.1746 29.6736Z" fill="white"/>
</svg>
