<svg width="100" height="100" viewBox="0 0 100 100" fill="none" xmlns="http://www.w3.org/2000/svg">
<path d="M87.5002 50.9167C87.5002 28.0417 69.7502 12.5 50.0002 12.5C30.4585 12.5 12.5002 27.7083 12.5002 51.1667C10.0002 52.5833 8.3335 55.25 8.3335 58.3333V66.6667C8.3335 71.25 12.0835 75 16.6668 75H20.8335V49.5833C20.8335 33.4583 33.8752 20.4167 50.0002 20.4167C66.1252 20.4167 79.1668 33.4583 79.1668 49.5833V79.1667H45.8335V87.5H79.1668C83.7502 87.5 87.5002 83.75 87.5002 79.1667V74.0833C89.9585 72.7917 91.6668 70.25 91.6668 67.25V57.6667C91.6668 54.75 89.9585 52.2083 87.5002 50.9167Z" fill="white"/>
<path d="M37.5002 58.3333C39.8013 58.3333 41.6668 56.4679 41.6668 54.1667C41.6668 51.8655 39.8013 50 37.5002 50C35.199 50 33.3335 51.8655 33.3335 54.1667C33.3335 56.4679 35.199 58.3333 37.5002 58.3333Z" fill="white"/>
<path d="M62.5002 58.3333C64.8013 58.3333 66.6668 56.4679 66.6668 54.1667C66.6668 51.8655 64.8013 50 62.5002 50C60.199 50 58.3335 51.8655 58.3335 54.1667C58.3335 56.4679 60.199 58.3333 62.5002 58.3333Z" fill="white"/>
<path d="M75 45.9583C74.0064 40.1006 70.9725 34.7832 66.4352 30.9474C61.8978 27.1117 56.1497 25.0049 50.2083 25C37.5833 25 24 35.4583 25.0833 51.875C30.2213 49.7725 34.7593 46.4312 38.2926 42.1491C41.8258 37.867 44.2446 32.7772 45.3333 27.3333C50.7916 38.2917 62 45.8333 75 45.9583Z" fill="white"/>
</svg>
