<svg width="100" height="100" viewBox="0 0 100 100" fill="none" xmlns="http://www.w3.org/2000/svg">
<path d="M79.1668 41.6667V8.33333H29.1668V58.3333H58.3335V29.1667H8.3335V79.1667H41.6668M58.3335 95.8333L83.3335 70.8333M87.5002 58.3333C85.852 58.3333 84.2408 58.8221 82.8704 59.7377C81.5 60.6534 80.4319 61.9549 79.8012 63.4776C79.1704 65.0003 79.0054 66.6759 79.3269 68.2924C79.6485 69.9089 80.4422 71.3938 81.6076 72.5592C82.773 73.7247 84.2579 74.5183 85.8744 74.8399C87.4909 75.1614 89.1665 74.9964 90.6892 74.3657C92.2119 73.7349 93.5134 72.6668 94.4291 71.2964C95.3448 69.926 95.8335 68.3148 95.8335 66.6667" stroke="#60A5FA" stroke-width="8.33333"/>
</svg>
