<svg width="100" height="100" viewBox="0 0 100 100" fill="none" xmlns="http://www.w3.org/2000/svg">
<path d="M66.2501 76.875C71.8751 76.875 76.4585 72.2917 76.4585 66.6667C76.4585 61.0417 71.8751 56.4583 66.2501 56.4583C60.5835 56.4583 56.0418 61.0417 56.0418 66.6667C56.0418 72.2917 60.5835 76.875 66.2501 76.875ZM87.9168 69.5L94.0835 74.3333C94.6251 74.7917 94.7918 75.5417 94.4168 76.2083L88.5835 86.2917C88.4085 86.5925 88.1318 86.8208 87.8032 86.9354C87.4746 87.05 87.1159 87.0434 86.7918 86.9167L79.5418 84C78.0418 85.1667 76.3751 86.125 74.6251 86.875L73.5001 94.5833C73.4168 95.2917 72.7918 95.8333 72.0835 95.8333H60.4168C59.6668 95.8333 59.0835 95.2917 58.9585 94.5833L57.8751 86.875C56.0835 86.125 54.4585 85.1667 52.9585 84L45.6668 86.9167C45.0418 87.1667 44.2501 86.9167 43.9168 86.2917L38.0835 76.2083C37.9051 75.9077 37.8407 75.5531 37.9018 75.2089C37.963 74.8648 38.1458 74.554 38.4168 74.3333L44.5835 69.5L44.3751 66.6667L44.5835 63.7917L38.4168 59C38.1458 58.7793 37.963 58.4686 37.9018 58.1244C37.8407 57.7803 37.9051 57.4256 38.0835 57.125L43.9168 47.0417C44.2501 46.375 45.0418 46.125 45.6668 46.375L52.9585 49.3333C54.4585 48.1667 56.0835 47.1667 57.8751 46.4583L58.9585 38.7083C59.0835 38.0417 59.6668 37.5 60.4168 37.5H72.0835C72.7918 37.5 73.4168 38.0417 73.5001 38.7083L74.6251 46.4583C76.3751 47.1667 78.0418 48.1667 79.5418 49.3333L86.7918 46.375C87.5001 46.125 88.2085 46.375 88.5835 47.0417L94.4168 57.125C94.7918 57.75 94.6251 58.5417 94.0835 59L87.9168 63.7917L88.1251 66.6667L87.9168 69.5ZM27.8751 33.625C31.5001 33.625 34.4168 30.7083 34.4168 27.0833C34.4168 23.4583 31.5001 20.5 27.8751 20.5C26.1291 20.5 24.4546 21.1936 23.22 22.4282C21.9854 23.6628 21.2918 25.3373 21.2918 27.0833C21.2918 30.7083 24.2501 33.625 27.8751 33.625ZM41.7918 28.9167L45.8335 32C46.1251 32.2917 46.2085 32.7917 45.9585 33.2083L42.2085 39.7083C42.0001 40.125 41.5001 40.2917 41.0835 40.125L36.4168 38.25L33.3335 40.0833L32.5418 45.0417C32.4585 45.5 32.0835 45.8333 31.6251 45.8333H24.1251C23.6251 45.8333 23.2501 45.5 23.1668 45.0417L22.5001 40.0833L19.3335 38.25L14.5835 40.125C14.2085 40.2917 13.7501 40.125 13.5001 39.7083L9.75015 33.2083C9.50015 32.7917 9.62515 32.2917 9.95848 32L13.9168 28.9167L13.7918 27.0833L13.9168 25.25L9.95848 22.1667C9.78801 22.0214 9.67383 21.8209 9.63577 21.6002C9.59771 21.3794 9.63818 21.1523 9.75015 20.9583L13.5001 14.4583C13.7501 14.0417 14.2085 13.875 14.5835 14.0417L19.2918 15.9167L22.5001 14.0833L23.1668 9.125C23.2501 8.66667 23.6251 8.33334 24.1251 8.33334H31.6251C32.0835 8.33334 32.4585 8.66667 32.5418 9.125L33.3335 14.0833L36.4168 15.9167L41.0835 14.0417C41.5001 13.875 42.0001 14.0417 42.2085 14.4583L45.9585 20.9583C46.2085 21.375 46.1251 21.875 45.8335 22.1667L41.7918 25.25L41.9168 27.0833L41.7918 28.9167Z" fill="#1B1935"/>
</svg>
