<svg width="100" height="100" viewBox="0 0 100 100" fill="none" xmlns="http://www.w3.org/2000/svg">
<path d="M95.8335 50L79.1668 33.3333V45.8333H66.0835C64.2085 38.6667 57.7502 33.3333 50.0002 33.3333C42.2502 33.3333 35.7918 38.6667 33.9168 45.8333H20.8335L8.3335 33.3333V66.6667L20.8335 54.1667H33.9168C35.7918 61.3333 42.2502 66.6667 50.0002 66.6667C57.7502 66.6667 64.2085 61.3333 66.0835 54.1667H79.1668V66.6667L95.8335 50ZM50.0002 58.3333C45.4168 58.3333 41.6668 54.5833 41.6668 50C41.6668 45.4167 45.4168 41.6667 50.0002 41.6667C54.5835 41.6667 58.3335 45.4167 58.3335 50C58.3335 54.5833 54.5835 58.3333 50.0002 58.3333Z" fill="black"/>
</svg>
