<svg width="100" height="100" viewBox="0 0 100 100" fill="none" xmlns="http://www.w3.org/2000/svg">
<g clip-path="url(#clip0_275_69)">
<path d="M95.6729 3.10525e-06C94.8114 0.0926223 94.0063 0.473449 93.3883 1.08077L75.4806 18.9923C67.0037 12.8692 55.246 13.9692 47.3537 21.5154C47.3537 21.8077 44.0652 25.0154 41.1075 27.8846L37.3767 24.1577C36.9193 23.6846 36.3481 23.3368 35.7178 23.1476C35.0874 22.9584 34.4191 22.934 33.7767 23.0769C33.0729 23.2043 32.4185 23.5254 31.8871 24.0043C31.3557 24.4831 30.9684 25.1006 30.7686 25.7874C30.5688 26.4742 30.5645 27.2032 30.7562 27.8923C30.9479 28.5814 31.3279 29.2034 31.8537 29.6885L70.3152 68.15C70.6784 68.5132 71.1095 68.8012 71.584 68.9978C72.0585 69.1943 72.567 69.2955 73.0806 69.2955C73.5942 69.2955 74.1027 69.1943 74.5772 68.9978C75.0517 68.8012 75.4828 68.5132 75.846 68.15C76.2091 67.7868 76.4972 67.3557 76.6937 66.8812C76.8903 66.4067 76.9914 65.8982 76.9914 65.3846C76.9914 64.871 76.8903 64.3625 76.6937 63.888C76.4972 63.4135 76.2091 62.9824 75.846 62.6192L72.119 58.8962L78.4883 52.6423C86.0267 45.1038 86.7921 33.3846 80.8921 24.6423L98.9229 6.61154C99.5287 6.04868 99.937 5.30555 100.087 4.49237C100.237 3.67919 100.121 2.83926 99.7566 2.09715C99.3918 1.35503 98.7976 0.750245 98.062 0.372486C97.3264 -0.00527366 96.4886 -0.135891 95.6729 3.10525e-06ZM26.5614 30.65C26.3987 30.6794 26.2381 30.7192 26.0806 30.7692C25.3767 30.8966 24.7223 31.2178 24.1909 31.6966C23.6595 32.1754 23.2722 32.7929 23.0724 33.4797C22.8726 34.1665 22.8684 34.8955 23.06 35.5846C23.2517 36.2737 23.6318 36.8957 24.1575 37.3808L27.8844 41.1077L21.5152 47.3538C13.9767 54.8923 13.2114 66.6154 19.1114 75.3615L1.07674 93.3846C0.71308 93.7483 0.424609 94.18 0.227797 94.6552C0.0309852 95.1303 -0.0703125 95.6396 -0.0703125 96.1538C-0.0703125 96.6681 0.0309852 97.1774 0.227797 97.6525C0.424609 98.1277 0.71308 98.5594 1.07674 98.9231C1.4404 99.2867 1.87213 99.5752 2.34727 99.772C2.82242 99.9688 3.33168 100.07 3.84597 100.07C4.36026 100.07 4.86952 99.9688 5.34467 99.772C5.81981 99.5752 6.25154 99.2867 6.6152 98.9231L24.5229 81.0115C32.9998 87.1346 44.7575 86.0346 52.6498 78.4885C52.6498 78.1962 55.9383 74.9885 58.896 72.1192L62.6267 75.8462C62.9899 76.2091 63.421 76.4969 63.8954 76.6932C64.3698 76.8895 64.8782 76.9904 65.3916 76.9903C65.905 76.9901 66.4133 76.8888 66.8876 76.6921C67.3618 76.4955 67.7927 76.2074 68.1556 75.8442C68.5185 75.4811 68.8063 75.05 69.0026 74.5756C69.1989 74.1012 69.2999 73.5928 69.2997 73.0794C69.2995 72.566 69.1982 72.0577 69.0016 71.5834C68.8049 71.1092 68.5168 70.6783 68.1537 70.3154L29.6921 31.8538C29.2951 31.431 28.8076 31.1034 28.2661 30.8956C27.7246 30.6878 27.1432 30.6052 26.5652 30.6538L26.5614 30.65Z" fill="#60A5FA"/>
</g>
<defs>
<clipPath id="clip0_275_69">
<rect width="100" height="100" fill="white"/>
</clipPath>
</defs>
</svg>
