<svg width="83" height="83" viewBox="0 0 83 83" fill="none" xmlns="http://www.w3.org/2000/svg">
<path d="M41.32 0.220001C18.6328 0.220001 0.220001 18.6328 0.220001 41.32C0.220001 64.0072 18.6328 82.42 41.32 82.42C64.0072 82.42 82.42 64.0072 82.42 41.32C82.42 18.6328 64.0072 0.220001 41.32 0.220001ZM41.32 74.2C23.1949 74.2 8.44 59.4451 8.44 41.32C8.44 23.1949 23.1949 8.44 41.32 8.44C59.4451 8.44 74.2 23.1949 74.2 41.32C74.2 59.4451 59.4451 74.2 41.32 74.2ZM42.5941 37.7854C35.3194 35.9359 32.9767 33.922 32.9767 30.9217C32.9767 27.4693 36.2236 25.0444 41.6077 25.0444C47.2795 25.0444 49.4167 27.757 49.5811 31.7848H56.6092C56.4037 26.2774 53.0335 21.2221 46.3753 19.5781V12.55H36.799V19.4959C30.5929 20.8111 25.6198 24.8389 25.6198 31.045C25.6198 38.4019 31.7437 42.1009 40.6624 44.2381C48.6769 46.1287 50.2798 48.9646 50.2798 51.9238C50.2798 54.1021 48.6769 57.6367 41.6488 57.6367C35.0728 57.6367 32.4835 54.6775 32.1136 50.8963H25.0444C25.4554 57.8833 30.634 61.8289 36.799 63.103V70.09H46.4164V63.2263C52.6636 62.0344 57.5956 58.4587 57.6367 51.8416C57.5956 42.7996 49.8277 39.676 42.5941 37.7854Z" fill="white"/>
</svg>
