<svg width="100" height="100" viewBox="0 0 100 100" fill="none" xmlns="http://www.w3.org/2000/svg">
<path d="M50.0002 91.6666C47.7085 91.6666 45.7474 90.8514 44.1168 89.2208C42.4863 87.5903 41.6696 85.6278 41.6668 83.3333V50C41.6668 47.7083 42.4835 45.7472 44.1168 44.1166C45.7502 42.4861 47.7113 41.6694 50.0002 41.6666H83.3335C85.6252 41.6666 87.5877 42.4833 89.221 44.1166C90.8543 45.75 91.6696 47.7111 91.6668 50V83.3333C91.6668 85.625 90.8515 87.5875 89.221 89.2208C87.5904 90.8541 85.6279 91.6694 83.3335 91.6666H50.0002ZM25.0002 75V33.3333C25.0002 31.0416 25.8168 29.0805 27.4502 27.45C29.0835 25.8194 31.0446 25.0028 33.3335 25H75.0002V33.3333H33.3335V75H25.0002ZM8.3335 58.3333V16.6666C8.3335 14.375 9.15016 12.4139 10.7835 10.7833C12.4168 9.15276 14.3779 8.33609 16.6668 8.33331H58.3335V16.6666H16.6668V58.3333H8.3335Z" fill="black" fill-opacity="0.84"/>
</svg>
