<svg width="100" height="100" viewBox="0 0 100 100" fill="none" xmlns="http://www.w3.org/2000/svg">
<path d="M87.5 87.5H12.5C9.05312 87.5 6.25 84.6969 6.25 81.25V62.5H12.5V81.25H87.5V62.5H93.75V81.25C93.75 84.6969 90.9469 87.5 87.5 87.5Z" fill="white"/>
<path d="M53.125 53.125V65.625C53.125 66.4538 53.4542 67.2487 54.0403 67.8347C54.6263 68.4208 55.4212 68.75 56.25 68.75H68.75C69.5788 68.75 70.3737 68.4208 70.9597 67.8347C71.5458 67.2487 71.875 66.4538 71.875 65.625V53.125C71.875 52.2962 71.5458 51.5013 70.9597 50.9153C70.3737 50.3292 69.5788 50 68.75 50H56.25C55.4212 50 54.6263 50.3292 54.0403 50.9153C53.4542 51.5013 53.125 52.2962 53.125 53.125ZM59.375 56.25H65.625V62.5H59.375V56.25ZM28.125 53.125V65.625C28.125 66.4538 28.4542 67.2487 29.0403 67.8347C29.6263 68.4208 30.4212 68.75 31.25 68.75H43.75C44.5788 68.75 45.3737 68.4208 45.9597 67.8347C46.5458 67.2487 46.875 66.4538 46.875 65.625V53.125C46.875 52.2962 46.5458 51.5013 45.9597 50.9153C45.3737 50.3292 44.5788 50 43.75 50H31.25C30.4212 50 29.6263 50.3292 29.0403 50.9153C28.4542 51.5013 28.125 52.2962 28.125 53.125ZM34.375 56.25H40.625V62.5H34.375V56.25ZM53.125 28.125V40.625C53.125 41.4538 53.4542 42.2487 54.0403 42.8347C54.6263 43.4208 55.4212 43.75 56.25 43.75H68.75C69.5788 43.75 70.3737 43.4208 70.9597 42.8347C71.5458 42.2487 71.875 41.4538 71.875 40.625V28.125C71.875 27.2962 71.5458 26.5013 70.9597 25.9153C70.3737 25.3292 69.5788 25 68.75 25H56.25C55.4212 25 54.6263 25.3292 54.0403 25.9153C53.4542 26.5013 53.125 27.2962 53.125 28.125ZM59.375 31.25H65.625V37.5H59.375V31.25ZM15.625 15.625V40.625C15.625 41.4538 15.9542 42.2487 16.5403 42.8347C17.1263 43.4208 17.9212 43.75 18.75 43.75H43.75C44.5788 43.75 45.3737 43.4208 45.9597 42.8347C46.5458 42.2487 46.875 41.4538 46.875 40.625V15.625C46.875 14.7962 46.5458 14.0013 45.9597 13.4153C45.3737 12.8292 44.5788 12.5 43.75 12.5H18.75C17.9212 12.5 17.1263 12.8292 16.5403 13.4153C15.9542 14.0013 15.625 14.7962 15.625 15.625ZM21.875 18.75H40.625V37.5H21.875V18.75Z" fill="white"/>
</svg>
