<svg width="100" height="100" viewBox="0 0 100 100" fill="none" xmlns="http://www.w3.org/2000/svg">
<path d="M65.9457 78.2875C66.7234 78.2875 67.3859 78.0139 67.9332 77.4667C68.4776 76.9222 68.7498 76.2611 68.7498 75.4833C68.7498 74.7028 68.4776 74.0403 67.9332 73.4958C67.3887 72.9486 66.7262 72.675 65.9457 72.675C65.1651 72.675 64.5026 72.9486 63.9582 73.4958C63.4137 74.0431 63.1415 74.7056 63.1415 75.4833C63.1415 76.2611 63.4137 76.9222 63.9582 77.4667C64.5026 78.0139 65.1651 78.2875 65.9457 78.2875ZM74.9998 78.2875C75.7776 78.2875 76.4401 78.0139 76.9873 77.4667C77.5318 76.9222 77.804 76.2611 77.804 75.4833C77.804 74.7028 77.5318 74.0403 76.9873 73.4958C76.4429 72.9486 75.7804 72.675 74.9998 72.675C74.2193 72.675 73.5568 72.9486 73.0123 73.4958C72.4679 74.0431 72.1957 74.7056 72.1957 75.4833C72.1957 76.2611 72.4679 76.9222 73.0123 77.4667C73.5568 78.0139 74.2193 78.2875 74.9998 78.2875ZM84.054 78.2875C84.8318 78.2875 85.4943 78.0139 86.0415 77.4667C86.5859 76.9222 86.8582 76.2611 86.8582 75.4833C86.8582 74.7028 86.5859 74.0403 86.0415 73.4958C85.4971 72.9486 84.8346 72.675 84.054 72.675C83.2734 72.675 82.6109 72.9486 82.0665 73.4958C81.5221 74.0431 81.2498 74.7056 81.2498 75.4833C81.2498 76.2611 81.5221 76.9222 82.0665 77.4667C82.6109 78.0139 83.2734 78.2875 84.054 78.2875ZM23.3998 83.3333C21.5471 83.3333 19.9623 82.6736 18.6457 81.3542C17.329 80.0347 16.6693 78.4528 16.6665 76.6083V23.3958C16.6665 21.5458 17.3262 19.9625 18.6457 18.6458C19.9651 17.3292 21.5484 16.6694 23.3957 16.6667H76.604C78.454 16.6667 80.0373 17.3264 81.354 18.6458C82.6707 19.9653 83.3304 21.5486 83.3332 23.3958V44.7125C83.3332 45.3014 83.1332 45.7958 82.7332 46.1958C82.3332 46.5958 81.8373 46.7958 81.2457 46.7958C80.654 46.7958 80.1596 46.5958 79.7623 46.1958C79.3651 45.7958 79.1665 45.3014 79.1665 44.7125V23.4C79.1665 22.7583 78.8998 22.1694 78.3665 21.6333C77.8332 21.0972 77.2443 20.8306 76.5998 20.8333H23.3998C22.7582 20.8333 22.1693 21.1 21.6332 21.6333C21.0971 22.1667 20.8304 22.7556 20.8332 23.4V76.6042C20.8332 77.2431 21.0998 77.8306 21.6332 78.3667C22.1665 78.9028 22.754 79.1694 23.3957 79.1667H44.7123C45.3012 79.1667 45.7957 79.3667 46.1957 79.7667C46.5957 80.1667 46.7957 80.6625 46.7957 81.2542C46.7957 81.8458 46.5957 82.3403 46.1957 82.7375C45.7957 83.1347 45.3012 83.3333 44.7123 83.3333H23.3998ZM20.8332 75.0292V79.1667V20.8333V47.1083V46.7958V75.0292ZM31.2498 65.7083C31.2498 66.3 31.4498 66.7944 31.8498 67.1917C32.2498 67.5889 32.7443 67.7875 33.3332 67.7875H45.6665C46.2554 67.7875 46.7498 67.5875 47.1498 67.1875C47.5498 66.7875 47.7484 66.2931 47.7457 65.7042C47.7429 65.1153 47.5443 64.6208 47.1498 64.2208C46.7554 63.8208 46.2596 63.6208 45.6623 63.6208H33.3332C32.7415 63.6208 32.2471 63.8208 31.8498 64.2208C31.4498 64.6208 31.2498 65.1167 31.2498 65.7083ZM31.2498 50C31.2498 50.5944 31.4498 51.0903 31.8498 51.4875C32.2498 51.8847 32.7443 52.0833 33.3332 52.0833H60.3332C60.9248 52.0833 61.4207 51.8833 61.8207 51.4833C62.2207 51.0833 62.4207 50.5875 62.4207 49.9958C62.4207 49.4042 62.2207 48.9097 61.8207 48.5125C61.4207 48.1153 60.9262 47.9167 60.3373 47.9167H33.3332C32.7415 47.9167 32.2471 48.1167 31.8498 48.5167C31.4526 48.9167 31.2526 49.4125 31.2498 50.0042M31.2498 34.2958C31.2498 34.8875 31.4498 35.3833 31.8498 35.7833C32.2498 36.1833 32.7443 36.3806 33.3332 36.375H66.6665C67.2582 36.375 67.7526 36.175 68.1498 35.775C68.5498 35.375 68.7498 34.8792 68.7498 34.2875C68.7498 33.6958 68.5498 33.2014 68.1498 32.8042C67.7498 32.4069 67.2554 32.2097 66.6665 32.2125H33.3332C32.7415 32.2125 32.2471 32.4125 31.8498 32.8125C31.4526 33.2125 31.2526 33.7083 31.2498 34.3M74.9998 92.15C70.3582 92.15 66.4207 90.5319 63.1873 87.2958C59.9512 84.0625 58.3332 80.125 58.3332 75.4833C58.3332 70.8417 59.9512 66.9028 63.1873 63.6667C66.4234 60.4306 70.3609 58.8139 74.9998 58.8167C79.6387 58.8194 83.5776 60.4361 86.8165 63.6667C90.0554 66.8972 91.6721 70.8361 91.6665 75.4833C91.6665 80.1222 90.0498 84.0597 86.8165 87.2958C83.5776 90.5319 79.6387 92.15 74.9998 92.15Z" fill="#1B1935"/>
</svg>
