<svg width="100" height="100" viewBox="0 0 100 100" fill="none" xmlns="http://www.w3.org/2000/svg">
<g clip-path="url(#clip0_261_29)">
<path d="M29.1667 16.6667C20 16.6667 12.5 24.1667 12.5 33.3334C12.5 42.5 20 50 29.1667 50C38.3333 50 45.8333 42.5 45.8333 33.3334C45.8333 24.1667 38.3333 16.6667 29.1667 16.6667ZM29.1667 41.6667C24.5833 41.6667 20.8333 37.9167 20.8333 33.3334C20.8333 28.75 24.5833 25 29.1667 25C33.75 25 37.5 28.75 37.5 33.3334C37.5 37.9167 33.75 41.6667 29.1667 41.6667ZM29.1667 58.3334C12.9167 58.3334 0 65.8334 0 75V83.3334H45.8333V75H8.33333C8.33333 72.5 15.8333 66.6667 29.1667 66.6667C36.6667 66.6667 42.5 68.75 45.8333 70.8334V61.6667C41.25 59.5834 35.4167 58.3334 29.1667 58.3334ZM91.6667 16.6667H62.5C57.9167 16.6667 54.1667 20.4167 54.1667 25V75C54.1667 79.5834 57.9167 83.3334 62.5 83.3334H91.6667C96.25 83.3334 100 79.5834 100 75V25C100 20.4167 96.25 16.6667 91.6667 16.6667ZM66.6667 75H62.5V25H66.6667V75ZM91.6667 75H75V25H91.6667V75Z" fill="white"/>
</g>
<defs>
<clipPath id="clip0_261_29">
<rect width="100" height="100" fill="white"/>
</clipPath>
</defs>
</svg>
