<svg width="1033" height="1258" viewBox="0 0 1033 1258" fill="none" xmlns="http://www.w3.org/2000/svg">
<path d="M0.0390625 -163.875H470.742C577.513 -163.875 667.682 -147.599 741.25 -115.047C815.469 -82.4948 871.784 -34.3177 910.195 29.4844C949.258 92.6354 968.789 170.435 968.789 262.883C968.789 327.987 955.443 387.557 928.75 441.594C902.708 494.979 864.948 540.552 815.469 578.312C766.641 615.422 708.047 643.091 639.688 661.32L586.953 681.828H144.57L142.617 528.508H476.602C544.31 528.508 600.625 516.789 645.547 493.352C690.469 469.263 724.323 437.036 747.109 396.672C769.896 356.307 781.289 311.711 781.289 262.883C781.289 208.195 770.547 160.344 749.062 119.328C727.578 78.3125 693.724 46.737 647.5 24.6016C601.927 1.8151 543.008 -9.57812 470.742 -9.57812H188.516V1258H0.0390625V-163.875ZM831.094 1258L485.391 613.469L681.68 612.492L1032.27 1246.28V1258H831.094Z" fill="url(#paint0_linear_3664_14206)"/>
<defs>
<linearGradient id="paint0_linear_3664_14206" x1="143.5" y1="-4" x2="143.5" y2="1153" gradientUnits="userSpaceOnUse">
<stop stop-color="white"/>
<stop offset="1" stop-color="white" stop-opacity="0"/>
</linearGradient>
</defs>
</svg>
