<svg width="8013" height="7195" viewBox="0 0 8013 7195" fill="none" xmlns="http://www.w3.org/2000/svg">
<path fill-rule="evenodd" clip-rule="evenodd" d="M4627.91 61.2088C5684.2 -101.538 6920.61 31.5339 7614.3 811.406C8287.16 1567.87 7923.8 2680.52 7838.59 3670.79C7764 4537.53 7756.77 5439.53 7159.66 6094.87C6526.35 6789.94 5591.13 7178.74 4627.91 7194.58C3648.6 7210.68 2773.84 6763.85 2007.68 6179.6C1114.07 5498.16 -102.928 4759.54 6.9456 3670.79C116.08 2589.37 1590.19 2290.9 2469.43 1604.1C3192.68 1039.15 3706.36 203.197 4627.91 61.2088Z" fill="#CDADFF"/>
<g opacity="0.3">
<path d="M5729.8 1422.21C5759.31 1422.21 5783.23 1397.58 5783.23 1367.2C5783.23 1336.82 5759.31 1312.19 5729.8 1312.19C5700.29 1312.19 5676.37 1336.82 5676.37 1367.2C5676.37 1397.58 5700.29 1422.21 5729.8 1422.21Z" stroke="black" stroke-linecap="round" stroke-linejoin="round"/>
<path d="M1041.29 2357.34C1070.8 2357.34 1094.72 2332.71 1094.72 2302.33C1094.72 2271.95 1070.8 2247.32 1041.29 2247.32C1011.78 2247.32 987.861 2271.95 987.861 2302.33C987.861 2332.71 1011.78 2357.34 1041.29 2357.34Z" stroke="black" stroke-linecap="round" stroke-linejoin="round"/>
<path d="M5061.91 5203.78C5091.42 5203.78 5115.35 5179.15 5115.35 5148.77C5115.35 5118.39 5091.42 5093.76 5061.91 5093.76C5032.41 5093.76 5008.48 5118.39 5008.48 5148.77C5008.48 5179.15 5032.41 5203.78 5061.91 5203.78Z" stroke="black" stroke-linecap="round" stroke-linejoin="round"/>
<path d="M1134.87 4750.03C1164.38 4750.03 1188.3 4725.41 1188.3 4695.03C1188.3 4664.65 1164.38 4640.02 1134.87 4640.02C1105.36 4640.02 1081.44 4664.65 1081.44 4695.03C1081.44 4725.41 1105.36 4750.03 1134.87 4750.03Z" stroke="black" stroke-linecap="round" stroke-linejoin="round"/>
<path d="M4757.97 2326.38L4644.54 2443.16" stroke="black" stroke-linecap="round" stroke-linejoin="round"/>
<path d="M4757.97 2443.16L4644.54 2326.38" stroke="black" stroke-linecap="round" stroke-linejoin="round"/>
<path d="M4350.67 5681.85L4464.1 5798.49" stroke="black" stroke-linecap="round" stroke-linejoin="round"/>
<path d="M4464.1 5681.85L4350.67 5798.49" stroke="black" stroke-linecap="round" stroke-linejoin="round"/>
<path d="M784.347 3055.3L897.643 3171.94" stroke="black" stroke-linecap="round" stroke-linejoin="round"/>
<path d="M897.643 3055.3L784.347 3171.94" stroke="black" stroke-linecap="round" stroke-linejoin="round"/>
<path d="M4965.12 332.42L5078.56 449.204" stroke="black" stroke-linecap="round" stroke-linejoin="round"/>
<path d="M5078.56 332.42L4965.12 449.204" stroke="black" stroke-linecap="round" stroke-linejoin="round"/>
<path d="M2213.56 428.756L2326.86 545.395" stroke="black" stroke-linecap="round" stroke-linejoin="round"/>
<path d="M2326.86 428.756L2213.56 545.395" stroke="black" stroke-linecap="round" stroke-linejoin="round"/>
</g>
<path opacity="0.3" d="M1423.28 5548.51L1459.79 5443.82L1375.87 5396.3L1310.13 5484.72C1291.25 5480.12 1271.89 5478 1252.5 5478.38L1206.34 5377.58L1114.03 5405.52L1128.01 5515.82C1111.53 5526.37 1096.36 5538.94 1082.83 5553.26L981.147 5515.68L934.989 5602.08L1020.87 5669.76C1016.42 5689.15 1014.31 5709.02 1014.58 5728.94L916.666 5776.46L943.801 5871.5L1050.94 5857.1C1061.22 5874 1073.43 5889.57 1087.31 5903.47L1050.8 6008.16L1135.43 6055.68L1200.61 5967.98C1219.49 5972.55 1238.84 5974.73 1258.23 5974.46L1304.39 6075.26L1396.71 6047.33L1382.72 5937.02C1399.13 5926.44 1414.25 5913.87 1427.76 5899.58L1529.45 5937.17L1575.6 5850.77L1489.72 5783.09C1494.16 5763.65 1496.28 5743.72 1496.02 5723.76L1593.93 5676.38L1566.79 5581.2L1459.65 5595.6C1457.27 5591.42 1454.61 5587.39 1451.82 5583.36M1140.88 5829.89C1116.47 5801.26 1103.02 5764.45 1103.06 5726.35C1103.11 5688.25 1116.63 5651.47 1141.11 5622.9C1165.58 5594.33 1199.33 5575.91 1236.04 5571.11C1272.75 5566.3 1309.91 5575.43 1340.55 5596.78C1371.2 5618.14 1393.23 5650.26 1402.54 5687.14C1411.84 5724.01 1407.78 5763.11 1391.1 5797.12C1374.43 5831.13 1346.28 5857.72 1311.94 5871.92C1277.6 5886.11 1239.41 5886.94 1204.52 5874.24" stroke="black" stroke-linecap="round" stroke-linejoin="round"/>
<path opacity="0.3" d="M1260.47 5205.07C1237.89 5212.11 1213.63 5210.86 1191.85 5201.53C1170.06 5192.21 1152.1 5175.38 1141.03 5153.93C1129.96 5132.48 1126.47 5107.73 1131.15 5083.93C1135.84 5060.12 1148.41 5038.73 1166.71 5023.4C1185.02 5008.08 1207.93 4999.78 1231.52 4999.91C1255.12 5000.05 1277.93 5008.61 1296.07 5024.15C1314.21 5039.68 1326.55 5061.22 1330.97 5085.08C1335.4 5108.94 1331.64 5133.64 1320.34 5154.96C1317.47 5160.38 1314.15 5165.54 1310.41 5170.37M1094.02 5293.92L1149.97 5325.6L1194.03 5266.42C1206.66 5269.57 1219.64 5271.02 1232.64 5270.74L1263.41 5338.13L1325.23 5319.41L1315.72 5245.54C1326.73 5238.47 1336.88 5230.05 1345.93 5220.48L1413.91 5245.68L1444.82 5187.36L1387.33 5142.14C1390.32 5129.12 1391.73 5115.78 1391.53 5102.4L1456.99 5070.72L1438.81 5007.07L1367.05 5016.87C1360.19 5005.53 1352.01 4995.08 1342.72 4985.76L1368.45 4915.92L1312.5 4884.24L1268.58 4943.28C1255.93 4940.26 1242.96 4938.85 1229.98 4939.11L1199.21 4871.71L1135.98 4890.72L1145.5 4964.59C1134.46 4971.63 1124.31 4980.04 1115.28 4989.65L1046.75 4964.16L1015.97 5021.76L1073.32 5066.98C1070.4 5080.01 1068.99 5093.35 1069.13 5106.72L1004.78 5139.12L1022.97 5202.77L1094.58 5192.98C1101.5 5204.32 1109.72 5214.76 1119.06 5224.08L1094.02 5293.92Z" stroke="black" stroke-linecap="round" stroke-linejoin="round"/>
<path opacity="0.3" d="M4895.89 1505.87L4932.53 1401.18L4847.91 1353.66L4782.17 1442.08C4763.29 1437.49 4743.94 1435.32 4724.54 1435.6L4678.52 1334.8L4586.21 1362.74L4600.2 1473.04C4583.78 1483.62 4568.66 1496.19 4555.16 1510.48L4453.47 1472.9L4407.31 1559.29L4493.19 1626.83C4488.75 1646.27 4486.64 1666.19 4486.9 1686.16L4388.99 1733.68L4416.26 1828.72L4523.27 1814.32C4533.59 1831.22 4545.85 1846.79 4559.77 1860.69L4523.27 1965.37L4607.19 2012.89L4672.93 1924.48C4691.81 1929.05 4711.16 1931.23 4730.56 1930.96L4776.58 2031.76L4869.03 2003.82L4855.04 1893.52C4871.51 1883.01 4886.64 1870.43 4900.08 1856.08L5001.91 1893.66L5047.93 1807.26L4962.19 1739.58C4966.51 1720.13 4968.58 1700.21 4968.34 1680.25L5066.25 1632.88L5039.11 1537.7L4931.97 1552.09C4929.46 1547.92 4926.8 1543.89 4924.14 1539.86M4613.48 1787.25C4589.12 1758.62 4575.71 1721.83 4575.79 1683.76C4575.86 1645.7 4589.41 1608.97 4613.89 1580.44C4638.37 1551.92 4672.11 1533.55 4708.79 1528.79C4745.48 1524.02 4782.59 1533.18 4813.19 1554.55C4843.79 1575.92 4865.77 1608.04 4875.03 1644.89C4884.29 1681.74 4880.18 1720.8 4863.49 1754.77C4846.79 1788.73 4818.64 1815.26 4784.32 1829.41C4749.99 1843.55 4711.83 1844.33 4676.99 1831.6" stroke="white" stroke-linecap="round" stroke-linejoin="round"/>
<path opacity="0.3" d="M4733.22 1162.72C4710.61 1169.83 4686.31 1168.63 4664.46 1159.33C4642.62 1150.03 4624.6 1133.2 4613.47 1111.74C4602.34 1090.27 4598.81 1065.48 4603.47 1041.63C4608.13 1017.77 4620.69 996.321 4639.02 980.948C4657.34 965.575 4680.28 957.233 4703.92 957.348C4727.55 957.463 4750.42 966.028 4768.6 981.579C4786.78 997.13 4799.15 1018.7 4803.59 1042.6C4808.03 1066.5 4804.26 1091.25 4792.94 1112.61C4790.14 1118.07 4786.81 1123.24 4783.01 1128.02M4566.63 1251.42L4623.28 1283.25L4667.2 1224.06C4679.83 1227.21 4692.81 1228.66 4705.8 1228.38L4736.71 1295.78L4798.54 1277.06L4789.02 1203.18C4800.02 1196.15 4810.12 1187.73 4819.1 1178.13L4887.21 1203.33L4918.13 1145.01L4860.64 1099.79C4863.67 1086.87 4865.22 1073.63 4865.25 1060.34L4930.57 1028.66L4912.39 965.009L4840.78 974.801C4833.9 963.433 4825.67 952.986 4816.3 943.697L4840.36 873.138L4784.41 841.458L4739.37 900.642C4726.76 897.618 4713.84 896.215 4700.9 896.466L4669.99 829.074L4608.17 847.794L4617.68 921.522C4606.71 928.654 4596.62 937.114 4587.61 946.721L4519.49 921.522L4488.58 979.121L4546.07 1024.34C4543.14 1037.37 4541.74 1050.71 4541.87 1064.08L4476.55 1095.76L4494.73 1159.41L4566.35 1149.62C4573.26 1160.92 4581.43 1171.36 4590.69 1180.72L4566.63 1251.42Z" stroke="black" stroke-linecap="round" stroke-linejoin="round"/>
<path d="M839.457 6230.92H6968.65" stroke="#263238" stroke-linecap="round" stroke-linejoin="round"/>
<path d="M1392.23 1216.86L1392.23 5856.24C1392.23 6019.27 1520.61 6151.44 1678.97 6151.44H3725.44C3883.8 6151.44 4012.17 6019.27 4012.17 5856.24L4012.17 1216.86C4012.17 1053.83 3883.8 921.666 3725.44 921.666H1678.97C1520.61 921.666 1392.23 1053.83 1392.23 1216.86Z" fill="white"/>
<path d="M4012.04 1203.47C4012.11 1138.65 3990.36 1075.81 3950.49 1025.63C3819.57 1091.01 3632.14 1229.68 3389.47 1520.42C2867.88 2145.08 2708.15 3657.51 2090.61 4314.72C1826.39 4596.24 1583.58 4769.19 1392.09 4875.03V5868.62C1392.09 5943.4 1420.95 6015.11 1472.31 6067.99C1523.67 6120.87 1593.33 6150.57 1665.96 6150.57H3586.68C3599.27 6134.54 3611.63 6117.93 3623.75 6100.75C3767.82 5896.13 3900.14 5723.76 4012.04 5586.24V1203.47Z" fill="#D6D6D6"/>
<path d="M1392.09 1203.47V2409.76C1605.4 2311.69 1863.32 2125.64 2048.09 1772.41C2235.66 1414.58 2476.1 1123.12 2669.26 921.666H1665.96C1593.35 921.666 1523.71 951.351 1472.36 1004.2C1421 1057.04 1392.13 1128.72 1392.09 1203.47Z" fill="#D6D6D6"/>
<path d="M1594.63 1034.85C1594.63 1066.82 1559.66 1078.05 1559.52 1102.67V1104.4H1593.37V1115.06H1548.19V1105.98C1548.19 1071.71 1583.16 1065.09 1583.16 1035.28C1583.16 1024.34 1579.52 1018.58 1570.99 1018.58C1562.46 1018.58 1558.96 1024.77 1558.96 1034.13V1043.63H1548.19V1034.99C1548.19 1018.72 1555.46 1007.92 1571.27 1007.92C1587.07 1007.92 1594.63 1018.58 1594.63 1034.85Z" fill="#263238"/>
<path d="M1650.99 1034.56V1037.3C1651.47 1041.84 1650.52 1046.41 1648.28 1050.36C1646.04 1054.3 1642.62 1057.39 1638.55 1059.19C1642.68 1060.95 1646.13 1064.06 1648.38 1068.04C1650.63 1072.02 1651.55 1076.65 1650.99 1081.22V1089.14C1650.99 1105.41 1643.58 1116.06 1627.78 1116.06C1611.97 1116.06 1604.56 1105.41 1604.56 1089.14V1081.94H1615.33V1090C1615.33 1099.5 1619.24 1105.26 1627.5 1105.26C1635.75 1105.26 1639.53 1099.65 1639.53 1088.85V1080.64C1639.53 1070.27 1635.19 1065.23 1626.52 1064.95H1620.22V1054.29H1626.94C1628.72 1054.33 1630.48 1053.97 1632.11 1053.23C1633.75 1052.5 1635.2 1051.41 1636.39 1050.04C1637.57 1048.68 1638.45 1047.06 1638.97 1045.31C1639.49 1043.55 1639.63 1041.7 1639.39 1039.89V1035.14C1639.39 1024.19 1635.75 1018.58 1627.36 1018.58C1618.96 1018.58 1615.19 1024.48 1615.19 1033.99V1039.46H1604.42V1034.56C1604.42 1018.43 1611.83 1007.92 1627.64 1007.92C1643.44 1007.92 1650.99 1018.43 1650.99 1034.56Z" fill="#263238"/>
<path d="M1673.23 1042.63V1057.03H1662.18V1042.63H1673.23ZM1673.23 1100.22V1114.62H1662.18V1100.22H1673.23Z" fill="#263238"/>
<path d="M1696.45 1052.27C1697.96 1049.48 1700.21 1047.17 1702.93 1045.62C1705.65 1044.06 1708.73 1043.33 1711.84 1043.49C1724.99 1043.49 1730.86 1053.43 1730.86 1068.54V1089.14C1730.86 1105.41 1723.45 1116.06 1707.64 1116.06C1691.84 1116.06 1684.56 1105.55 1684.56 1089.14V1082.08H1695.33V1090C1695.33 1099.5 1699.11 1105.26 1707.36 1105.26C1715.62 1105.26 1719.39 1099.5 1719.39 1090V1069.55C1719.39 1059.9 1715.62 1054.15 1707.36 1054.15C1705.87 1054.07 1704.37 1054.3 1702.96 1054.84C1701.56 1055.38 1700.27 1056.2 1699.19 1057.27C1698.1 1058.33 1697.23 1059.61 1696.64 1061.03C1696.05 1062.45 1695.75 1063.98 1695.75 1065.52V1067.97H1684.98L1687.78 1009.07H1728.48V1019.59H1698.13L1696.45 1052.27Z" fill="#263238"/>
<path d="M1788.07 1034.42V1036.43H1777.3V1033.7C1777.3 1024.19 1773.52 1018.58 1765.13 1018.58C1756.74 1018.58 1752.54 1024.34 1752.54 1035.71V1059.47C1753.75 1055.98 1756.02 1052.98 1759.02 1050.93C1762.02 1048.88 1765.59 1047.88 1769.19 1048.1C1783.17 1048.1 1788.35 1058.03 1788.35 1073.3V1089.14C1788.35 1105.41 1780.52 1116.06 1764.85 1116.06C1749.19 1116.06 1741.07 1105.41 1741.07 1089.14V1035.28C1741.07 1018.43 1748.49 1007.92 1764.85 1007.92C1781.22 1007.92 1788.07 1018.29 1788.07 1034.42ZM1752.68 1074.74V1090.72C1752.68 1100.22 1756.6 1105.98 1764.99 1105.98C1773.38 1105.98 1777.16 1100.22 1777.16 1090.72V1074.74C1777.16 1065.23 1773.24 1059.47 1764.99 1059.47C1756.74 1059.47 1752.68 1064.66 1752.68 1074.74Z" fill="#263238"/>
<path d="M3396.74 1039.17H3367.64V1114.05H3396.74V1039.17Z" fill="#263238"/>
<path d="M3435.48 1024.19H3406.39V1114.05H3435.48V1024.19Z" fill="#263238"/>
<path d="M3474.37 1013.54H3445.27V1114.05H3474.37V1013.54Z" fill="#263238"/>
<path d="M3513.11 994.961H3484.02V1114.05H3513.11V994.961Z" fill="#263238"/>
<path d="M3873.14 1112.03H3698.58V1002.74H3873.14V1112.03ZM3708.23 1101.95H3863.49V1012.1H3708.23V1101.95Z" fill="#263238"/>
<path d="M3814.96 1023.04H3722.78V1091.15H3814.96V1023.04Z" fill="#263238"/>
<path d="M3889.09 1044.07H3867.13V1069.99H3889.09V1044.07Z" fill="#263238"/>
<path d="M3634.38 1088.13C3633.19 1088.13 3632.02 1087.78 3631.02 1087.12C3595.5 1065.38 3572.14 1085.54 3571.16 1087.12C3569.84 1088.1 3568.21 1088.54 3566.59 1088.35C3564.97 1088.16 3563.48 1087.36 3562.4 1086.11C3561.32 1084.86 3560.74 1083.23 3560.75 1081.56C3560.77 1079.88 3561.38 1078.27 3562.49 1077.04C3563.75 1075.89 3593.82 1049.39 3637.74 1077.04C3638.48 1077.49 3639.13 1078.08 3639.65 1078.79C3640.17 1079.5 3640.54 1080.3 3640.75 1081.16C3640.96 1082.02 3641 1082.92 3640.86 1083.79C3640.73 1084.67 3640.43 1085.5 3639.98 1086.26C3639.26 1087.01 3638.38 1087.58 3637.4 1087.91C3636.43 1088.23 3635.39 1088.31 3634.38 1088.13Z" fill="#263238"/>
<path d="M3648.37 1065.52C3647.18 1065.53 3646.01 1065.18 3645.01 1064.51C3593.68 1033.12 3559.13 1063.5 3558.85 1063.79C3558.23 1064.49 3557.47 1065.04 3556.62 1065.42C3555.78 1065.8 3554.87 1065.99 3553.95 1065.98C3553.03 1065.97 3552.12 1065.76 3551.28 1065.37C3550.45 1064.98 3549.7 1064.41 3549.09 1063.7C3548.48 1062.99 3548.02 1062.16 3547.74 1061.25C3547.47 1060.35 3547.38 1059.4 3547.48 1058.46C3547.58 1057.52 3547.87 1056.61 3548.34 1055.79C3548.8 1054.97 3549.43 1054.27 3550.18 1053.71C3550.18 1053.71 3592.14 1016.71 3651.72 1052.99C3652.47 1053.44 3653.12 1054.03 3653.64 1054.74C3654.15 1055.45 3654.53 1056.26 3654.73 1057.11C3654.94 1057.97 3654.98 1058.87 3654.85 1059.74C3654.72 1060.62 3654.42 1061.46 3653.96 1062.21C3653.41 1063.23 3652.59 1064.08 3651.61 1064.66C3650.62 1065.24 3649.5 1065.54 3648.37 1065.52Z" fill="#263238"/>
<path d="M3659.7 1039.46C3658.51 1039.43 3657.35 1039.08 3656.34 1038.45C3591.3 998.561 3547.94 1036.15 3546.12 1038.45C3544.92 1039.69 3543.28 1040.39 3541.58 1040.39C3539.87 1040.39 3538.24 1039.69 3537.03 1038.45C3535.82 1037.18 3535.14 1035.48 3535.14 1033.7C3535.14 1031.92 3535.82 1030.21 3537.03 1028.95C3537.03 1028.95 3588.92 983.153 3662.91 1028.95C3663.67 1029.38 3664.33 1029.96 3664.86 1030.67C3665.4 1031.37 3665.78 1032.17 3666.01 1033.03C3666.23 1033.89 3666.28 1034.79 3666.16 1035.67C3666.03 1036.55 3665.74 1037.4 3665.29 1038.16C3664.5 1038.77 3663.59 1039.2 3662.63 1039.43C3661.67 1039.65 3660.67 1039.66 3659.7 1039.46Z" fill="#263238"/>
<path d="M3614.94 1099.36C3614.94 1102.69 3613.98 1105.95 3612.18 1108.72C3610.38 1111.49 3607.83 1113.65 3604.84 1114.93C3601.85 1116.2 3598.56 1116.54 3595.38 1115.89C3592.21 1115.24 3589.29 1113.63 3587 1111.27C3584.71 1108.92 3583.15 1105.92 3582.52 1102.65C3581.89 1099.38 3582.22 1095.99 3583.45 1092.91C3584.69 1089.83 3586.79 1087.2 3589.48 1085.35C3592.17 1083.5 3595.34 1082.51 3598.57 1082.51C3602.91 1082.51 3607.08 1084.29 3610.15 1087.45C3613.21 1090.61 3614.94 1094.89 3614.94 1099.36Z" fill="#263238"/>
<path d="M4081.97 1107.57V1268.27H4130.37V1724.75H4081.97V1828.43H4130.37V2285.05H4081.97V2388.73H4130.37V2845.93H4081.97V5965.39C4081.97 6044.25 4051.54 6119.89 3997.37 6175.65C3943.21 6231.42 3869.74 6262.75 3793.14 6262.75H1610.43C1572.51 6262.75 1534.96 6255.06 1499.92 6240.11C1464.88 6225.16 1433.05 6203.26 1406.24 6175.64C1379.43 6148.03 1358.17 6115.25 1343.67 6079.17C1329.17 6043.1 1321.72 6004.43 1321.74 5965.39V2089.93H1287.05V1633.45H1321.74V1107.57C1321.74 1028.74 1352.15 953.145 1406.29 897.406C1460.43 841.668 1533.86 810.354 1610.43 810.354H3793.69C3870.18 810.507 3943.48 841.883 3997.52 897.601C4051.56 953.319 4081.93 1028.83 4081.97 1107.57ZM3326.66 921.666L3242.74 1052.13C3230.14 1071.42 3213.13 1087.22 3193.2 1098.15C3173.27 1109.07 3151.04 1114.78 3128.46 1114.77H2276.08C2253.53 1114.77 2231.32 1109.05 2211.41 1098.13C2191.51 1087.2 2174.52 1071.41 2161.95 1052.13L2076.63 921.666H1680.93C1604.37 921.666 1530.95 952.955 1476.79 1008.66C1422.63 1064.36 1392.17 1139.92 1392.09 1218.74V5854.08C1392.13 5932.92 1422.58 6008.51 1476.74 6064.25C1530.9 6119.98 1604.35 6151.29 1680.93 6151.29H3723.06C3760.98 6151.33 3798.54 6143.68 3833.59 6128.76C3868.64 6113.85 3900.49 6091.98 3927.33 6064.39C3954.17 6036.81 3975.46 6004.05 3989.99 5967.98C4004.53 5931.92 4012.02 5893.26 4012.04 5854.22V1218.74C4012.04 1139.91 3981.62 1064.31 3927.48 1008.57C3873.34 952.835 3799.91 921.522 3723.34 921.522L3326.66 921.666Z" fill="#263238"/>
<path d="M3785.44 2385.13H3805.44C3824.92 2385.13 3843.6 2393.1 3857.37 2407.27C3871.14 2421.45 3878.88 2440.68 3878.88 2460.73V3905.33C3878.88 4018.09 3922.37 4126.22 3999.8 4205.97C4077.23 4285.71 4182.26 4330.53 4291.78 4330.56C4401.34 4330.56 4506.41 4285.77 4583.89 4206.03C4661.38 4126.28 4704.92 4018.12 4704.96 3905.33V3374.84" stroke="white" stroke-linecap="round" stroke-linejoin="round"/>
<path d="M3724.18 2384.84H3785.44" stroke="white" stroke-width="3" stroke-linecap="round" stroke-linejoin="round"/>
<path d="M2264.47 3270.87C2275.84 3270.87 2286.74 3275.51 2294.79 3283.77C2302.84 3292.03 2307.38 3303.24 2307.41 3314.94V3906.77C2307.4 4065.8 2337.8 4223.28 2396.91 4370.21C2456.01 4517.13 2542.64 4650.64 2651.86 4763.1C2761.08 4875.55 2890.75 4964.76 3033.46 5025.62C3176.17 5086.48 3329.13 5117.81 3483.6 5117.81C3780.11 5117.81 4064.48 4996.54 4274.14 4780.69C4483.81 4564.84 4601.6 4272.08 4601.6 3966.82V3378.73" stroke="white" stroke-linecap="round" stroke-linejoin="round"/>
<path d="M2196.91 3270.87H2264.47" stroke="white" stroke-width="3" stroke-linecap="round" stroke-linejoin="round"/>
<path d="M3821.25 4199.52C3840.96 4199.52 3859.87 4207.58 3873.82 4221.91C3887.77 4236.25 3895.62 4255.7 3895.66 4275.99V4967.19C3895.66 5093.22 3944.29 5214.08 4030.85 5303.2C4117.42 5392.32 4234.82 5442.38 4357.24 5442.38C4479.66 5442.38 4597.06 5392.32 4683.62 5303.2C4770.19 5214.08 4818.82 5093.22 4818.82 4967.19V3394.86" stroke="white" stroke-linecap="round" stroke-linejoin="round"/>
<path d="M3734.11 4199.67H3821.25" stroke="white" stroke-width="3" stroke-linecap="round" stroke-linejoin="round"/>
<path d="M3657.88 2071.79H3197.56C3157.85 2071.79 3125.67 2104.93 3125.67 2145.8V2619.71C3125.67 2660.58 3157.85 2693.72 3197.56 2693.72H3657.88C3697.58 2693.72 3729.77 2660.58 3729.77 2619.71V2145.8C3729.77 2104.93 3697.58 2071.79 3657.88 2071.79Z" fill="#190F7B" stroke="#263238" stroke-linecap="round" stroke-linejoin="round"/>
<path d="M3622.49 2369V2321.92L3576.33 2313.85C3572.44 2294.57 3565.09 2276.21 3554.65 2259.71L3582.63 2220.11L3550.18 2186.7L3511.85 2215.5C3495.93 2204.75 3478.18 2197.18 3459.54 2193.18L3451.71 2144.8H3405.97L3398.14 2193.18C3379.69 2197.11 3362.13 2204.58 3346.38 2215.21L3307.08 2186.41L3274.77 2219.82L3302.74 2260C3292.4 2276.11 3285.09 2294.09 3281.2 2312.99L3233.51 2321.2V2368.28L3280.92 2376.49C3284.63 2394.92 3291.6 2412.5 3301.48 2428.33L3273.51 2468.94L3305.82 2502.2L3344.85 2473.4C3360.5 2484.24 3378.02 2491.91 3396.46 2496.01L3404.29 2544.54H3450.03L3457.86 2496.44C3476.56 2492.72 3494.38 2485.29 3510.31 2474.56L3548.92 2503.36L3581.37 2470.09L3554.09 2430.78C3564.75 2414.35 3572.25 2395.97 3576.19 2376.64L3622.49 2369ZM3428.35 2460.3C3406.22 2460.3 3384.58 2453.54 3366.18 2440.88C3347.78 2428.23 3333.44 2410.23 3324.97 2389.18C3316.5 2368.13 3314.28 2344.97 3318.6 2322.63C3322.92 2300.28 3333.58 2279.75 3349.23 2263.64C3364.87 2247.53 3384.81 2236.56 3406.52 2232.11C3428.22 2227.67 3450.72 2229.95 3471.17 2238.67C3491.62 2247.39 3509.09 2262.15 3521.39 2281.1C3533.68 2300.04 3540.25 2322.32 3540.25 2345.1C3540.25 2375.65 3528.46 2404.95 3507.47 2426.56C3486.49 2448.16 3458.03 2460.3 3428.35 2460.3Z" fill="white" stroke="#263238" stroke-linecap="round" stroke-linejoin="round"/>
<path d="M3608.92 2593.79H3231.69V2625.61H3608.92V2593.79Z" fill="white" stroke="#263238" stroke-linecap="round" stroke-linejoin="round"/>
<path d="M3420.38 2593.79H3231.69V2625.61H3420.38V2593.79Z" fill="#263238" stroke="#263238" stroke-linecap="round" stroke-linejoin="round"/>
<path d="M2885.65 2072.22H2434C2392.59 2072.22 2359.03 2106.78 2359.03 2149.4V2614.38C2359.03 2657.01 2392.59 2691.56 2434 2691.56H2885.65C2927.05 2691.56 2960.62 2657.01 2960.62 2614.38V2149.4C2960.62 2106.78 2927.05 2072.22 2885.65 2072.22Z" fill="white" stroke="#263238" stroke-linecap="round" stroke-linejoin="round"/>
<path d="M2707.24 2589.64C2818.7 2562.73 2887.86 2447.89 2861.72 2333.14C2835.57 2218.4 2724.03 2147.19 2612.57 2174.11C2501.11 2201.02 2431.95 2315.86 2458.09 2430.61C2484.23 2545.36 2595.78 2616.56 2707.24 2589.64Z" fill="#263238" stroke="#263238" stroke-linecap="round" stroke-linejoin="round"/>
<path d="M2594.43 2469.23L2659.75 2381.96V2225.58" stroke="white" stroke-linecap="round" stroke-linejoin="round"/>
<path d="M2117.75 2072.22H1666.1C1624.69 2072.22 1591.13 2106.78 1591.13 2149.4V2614.38C1591.13 2657.01 1624.69 2691.56 1666.1 2691.56H2117.75C2159.15 2691.56 2192.72 2657.01 2192.72 2614.38V2149.4C2192.72 2106.78 2159.15 2072.22 2117.75 2072.22Z" fill="white" stroke="#263238" stroke-linecap="round" stroke-linejoin="round"/>
<path d="M1826.53 2469.23L1891.99 2381.96V2225.58" stroke="white" stroke-linecap="round" stroke-linejoin="round"/>
<path d="M2060.4 2368L1787.23 2205.56V2530.28L2060.4 2368Z" fill="#263238" stroke="#263238" stroke-linecap="round" stroke-linejoin="round"/>
<path d="M3657.88 2982.15H3197.56C3157.85 2982.15 3125.67 3015.29 3125.67 3056.17V3530.07C3125.67 3570.95 3157.85 3604.09 3197.56 3604.09H3657.88C3697.58 3604.09 3729.77 3570.95 3729.77 3530.07V3056.17C3729.77 3015.29 3697.58 2982.15 3657.88 2982.15Z" fill="white" stroke="#263238" stroke-linecap="round" stroke-linejoin="round"/>
<path d="M3418.98 3108.58C3311.56 3108.58 3224.42 3180.58 3224.42 3268.71C3224.42 3326.31 3260.92 3375.99 3315.61 3404.36L3282.74 3489.03L3386.81 3426.54C3397.47 3428.04 3408.22 3428.81 3418.98 3428.84C3526.26 3428.84 3613.4 3356.84 3613.4 3268.71C3613.4 3180.58 3526.26 3108.58 3418.98 3108.58Z" fill="#263238" stroke="#263238" stroke-linecap="round" stroke-linejoin="round"/>
<path d="M3657.88 3892.52H3197.56C3157.85 3892.52 3125.67 3925.66 3125.67 3966.53V4440.44C3125.67 4481.31 3157.85 4514.45 3197.56 4514.45H3657.88C3697.58 4514.45 3729.77 4481.31 3729.77 4440.44V3966.53C3729.77 3925.66 3697.58 3892.52 3657.88 3892.52Z" fill="#190F7B" stroke="#263238" stroke-linecap="round" stroke-linejoin="round"/>
<path d="M3622.49 4189.73V4142.64L3576.33 4134.72C3572.46 4115.4 3565.1 4096.98 3554.65 4080.44L3582.63 4040.84L3550.18 4007.57L3511.85 4036.37C3495.97 4025.52 3478.21 4017.89 3459.54 4013.91L3451.71 3965.53H3405.97L3398.14 4013.91C3379.68 4017.89 3362.13 4025.41 3346.38 4036.08L3307.08 4007.28L3274.77 4040.55L3302.74 4080.87C3292.38 4096.92 3285.07 4114.86 3281.2 4133.72L3233.51 4141.92V4189.01L3280.92 4197.22C3284.62 4216.11 3291.79 4234.1 3302.04 4250.21L3274.07 4290.82L3306.38 4324.23L3345.4 4295.43C3361.1 4306.16 3378.6 4313.78 3397.02 4317.89L3404.85 4366.56H3450.59L3458.42 4318.47C3477.08 4314.62 3494.88 4307.2 3510.87 4296.58L3549.48 4325.38L3581.93 4291.97L3554.65 4252.66C3565.29 4236.27 3572.79 4217.94 3576.75 4198.66L3622.49 4189.73ZM3428.35 4281.03C3406.22 4281.03 3384.58 4274.27 3366.18 4261.61C3347.78 4248.96 3333.44 4230.96 3324.97 4209.91C3316.5 4188.86 3314.28 4165.7 3318.6 4143.35C3322.92 4121.01 3333.58 4100.48 3349.23 4084.37C3364.87 4068.26 3384.81 4057.29 3406.52 4052.84C3428.22 4048.4 3450.72 4050.68 3471.17 4059.4C3491.62 4068.12 3509.09 4082.88 3521.39 4101.83C3533.68 4120.77 3540.25 4143.04 3540.25 4165.83C3540.25 4196.38 3528.46 4225.68 3507.47 4247.29C3486.49 4268.89 3458.03 4281.03 3428.35 4281.03Z" fill="white" stroke="#263238" stroke-linecap="round" stroke-linejoin="round"/>
<path d="M3608.92 4414.52H3231.69V4446.34H3608.92V4414.52Z" fill="white" stroke="#263238" stroke-linecap="round" stroke-linejoin="round"/>
<path d="M3294.07 4414.52H3231.69V4446.34H3294.07V4414.52Z" fill="#263238" stroke="#263238" stroke-linecap="round" stroke-linejoin="round"/>
<path d="M2117.75 2982.73H1666.1C1624.69 2982.73 1591.13 3017.29 1591.13 3059.91V3524.89C1591.13 3567.51 1624.69 3602.07 1666.1 3602.07H2117.75C2159.15 3602.07 2192.72 3567.51 2192.72 3524.89V3059.91C2192.72 3017.29 2159.15 2982.73 2117.75 2982.73Z" fill="#190F7B" stroke="#263238" stroke-linecap="round" stroke-linejoin="round"/>
<path d="M2091.17 3279.37V3232.28L2044.87 3224.36C2041.12 3204.99 2033.75 3186.56 2023.19 3170.07L2051.17 3130.47L2018.86 3097.21L1980.53 3126.01C1964.61 3115.26 1946.86 3107.69 1928.22 3103.69L1920.39 3055.3H1874.65L1866.82 3103.69C1848.34 3107.65 1830.74 3115.12 1814.92 3125.72L1775.76 3096.92L1743.45 3130.33L1771.42 3170.65C1761.16 3186.74 1753.9 3204.66 1750.02 3223.5L1702.19 3231.7V3277.93L1749.6 3286.14C1753.38 3305 1760.55 3322.97 1770.72 3339.13L1742.75 3379.74L1774.08 3413.14L1812.97 3384.34C1828.67 3395.05 1846.17 3402.67 1864.58 3406.81L1872.55 3455.48H1918.29L1926.12 3407.38C1944.8 3403.52 1962.6 3396.05 1978.57 3385.35L2017.18 3414.15L2049.49 3380.89L2022.21 3341.58C2032.93 3325.18 2040.44 3306.79 2044.31 3287.43L2091.17 3279.37ZM1896.89 3370.66C1874.76 3370.66 1853.12 3363.91 1834.72 3351.25C1816.32 3338.59 1801.98 3320.6 1793.51 3299.55C1785.04 3278.5 1782.82 3255.34 1787.14 3232.99C1791.46 3210.64 1802.12 3190.12 1817.77 3174.01C1833.42 3157.89 1853.35 3146.92 1875.06 3142.48C1896.77 3138.03 1919.26 3140.31 1939.71 3149.03C1960.16 3157.75 1977.63 3172.52 1989.93 3191.46C2002.22 3210.41 2008.79 3232.68 2008.79 3255.46C2008.79 3286.02 1997 3315.32 1976.01 3336.92C1955.03 3358.53 1926.57 3370.66 1896.89 3370.66Z" fill="white" stroke="#263238" stroke-linecap="round" stroke-linejoin="round"/>
<path d="M2077.6 3504.15H1700.37V3535.98H2077.6V3504.15Z" fill="white" stroke="#263238" stroke-linecap="round" stroke-linejoin="round"/>
<path d="M2041.38 3504.15H1700.37V3535.98H2041.38V3504.15Z" fill="#263238" stroke="#263238" stroke-linecap="round" stroke-linejoin="round"/>
<path d="M2117.75 3893.09H1666.1C1624.69 3893.09 1591.13 3927.65 1591.13 3970.28V4435.25C1591.13 4477.88 1624.69 4512.43 1666.1 4512.43H2117.75C2159.15 4512.43 2192.72 4477.88 2192.72 4435.25V3970.28C2192.72 3927.65 2159.15 3893.09 2117.75 3893.09Z" fill="white" stroke="#263238" stroke-linecap="round" stroke-linejoin="round"/>
<path d="M1826.53 4290.1L1891.99 4202.69V4046.31" stroke="white" stroke-linecap="round" stroke-linejoin="round"/>
<path d="M2094.67 4068.77H1689.18V4336.61H2094.67V4068.77Z" fill="#263238" stroke="#263238" stroke-linecap="round" stroke-linejoin="round"/>
<path d="M1689.18 4068.77L1888.64 4242.72L2091.87 4071.22" stroke="white" stroke-linecap="round" stroke-linejoin="round"/>
<path d="M1689.18 4336.61L1834.51 4200.96" stroke="white" stroke-linecap="round" stroke-linejoin="round"/>
<path d="M2094.67 4336.61L1942.63 4200.96" stroke="white" stroke-linecap="round" stroke-linejoin="round"/>
<path d="M6362.03 4139.19L6522.18 5720.16" stroke="#263238" stroke-width="2" stroke-miterlimit="10"/>
<path d="M6496.44 5417.62L6423.71 5338.56" stroke="#263238" stroke-width="2" stroke-miterlimit="10"/>
<path d="M6445.81 5362.18C6445.67 5350.1 6443.01 5338.19 6438.02 5327.26C6433.02 5316.33 6425.81 5306.63 6416.86 5298.82C6398.25 5281.68 6300.06 5239.2 6290.97 5274.77C6280.62 5313.36 6381.05 5389.39 6445.81 5362.18Z" fill="#190F7B" stroke="#263238" stroke-miterlimit="10"/>
<path d="M6445.81 5362.18L6352.37 5302.27" stroke="#263238" stroke-width="0.5" stroke-miterlimit="10"/>
<path d="M6514.63 5597.33L6442.03 5518.42" stroke="#263238" stroke-width="2" stroke-miterlimit="10"/>
<path d="M6463.99 5542.03C6463.86 5529.94 6461.22 5518.02 6456.26 5507.07C6451.29 5496.12 6444.1 5486.39 6435.18 5478.53C6416.44 5461.39 6318.39 5418.91 6309.29 5454.48C6298.94 5493.21 6399.37 5569.25 6463.99 5542.03Z" fill="#190F7B" stroke="#263238" stroke-miterlimit="10"/>
<path d="M6463.99 5542.03L6370.56 5482.13" stroke="#263238" stroke-width="0.5" stroke-miterlimit="10"/>
<path d="M6451.96 4978.85L6379.23 4899.79" stroke="#263238" stroke-width="2" stroke-miterlimit="10"/>
<path d="M6401.33 4923.55C6401.19 4911.45 6398.54 4899.52 6393.54 4888.57C6388.55 4877.61 6381.33 4867.89 6372.38 4860.05C6353.77 4842.91 6255.58 4800.43 6246.49 4836C6236 4874.74 6336.57 4950.63 6401.33 4923.55Z" fill="#190F7B" stroke="#263238" stroke-miterlimit="10"/>
<path d="M6401.33 4923.55L6307.9 4863.51" stroke="#263238" stroke-width="0.5" stroke-miterlimit="10"/>
<path d="M6470.15 5158.56L6397.55 5079.65" stroke="#263238" stroke-width="2" stroke-miterlimit="10"/>
<path d="M6419.51 5103.26C6419.39 5091.2 6416.76 5079.3 6411.78 5068.37C6406.81 5057.44 6399.62 5047.73 6390.7 5039.9C6371.96 5022.62 6273.91 4980.15 6264.81 5015.71C6254.46 5054.45 6354.89 5130.48 6419.51 5103.26Z" fill="#190F7B" stroke="#263238" stroke-miterlimit="10"/>
<path d="M6419.51 5103.27L6326.08 5043.36" stroke="#263238" stroke-width="0.5" stroke-miterlimit="10"/>
<path d="M6422.31 4686.82L6349.72 4607.76" stroke="#263238" stroke-width="2" stroke-miterlimit="10"/>
<path d="M6371.68 4631.52C6371.54 4619.46 6368.89 4607.56 6363.92 4596.64C6358.95 4585.71 6351.77 4576 6342.86 4568.16C6324.12 4551.03 6226.07 4508.4 6216.98 4544.12C6206.63 4582.56 6307.06 4658.59 6371.68 4631.52Z" fill="#190F7B" stroke="#263238" stroke-miterlimit="10"/>
<path d="M6371.68 4631.38L6278.24 4571.47" stroke="#263238" stroke-width="0.5" stroke-miterlimit="10"/>
<path d="M6392.52 4393.35L6319.92 4314.44" stroke="#263238" stroke-width="2" stroke-miterlimit="10"/>
<path d="M6342.02 4338.05C6341.89 4325.97 6339.24 4314.06 6334.24 4303.13C6329.25 4292.2 6322.03 4282.5 6313.07 4274.69C6294.47 4257.41 6196.28 4214.93 6187.19 4250.5C6176.84 4289.24 6277.96 4365.27 6342.02 4338.05Z" fill="#190F7B" stroke="#263238" stroke-miterlimit="10"/>
<path d="M6342.02 4338.05L6248.59 4278.15" stroke="#263238" stroke-width="0.5" stroke-miterlimit="10"/>
<path d="M6484.13 5311.2L6539.38 5218.46" stroke="#263238" stroke-width="2" stroke-miterlimit="10"/>
<path d="M6522.6 5246.26C6520.41 5234.51 6520.66 5222.42 6523.33 5210.78C6526.01 5199.13 6531.05 5188.21 6538.12 5178.72C6552.95 5157.98 6640.51 5095.63 6656.74 5128.46C6674.36 5163.46 6591.28 5259.22 6522.6 5246.26Z" fill="#190F7B" stroke="#263238" stroke-miterlimit="10"/>
<path d="M6522.6 5246.26L6606.66 5163.46" stroke="#263238" stroke-width="0.5" stroke-miterlimit="10"/>
<path d="M6436.16 4838.02L6491.41 4745.28" stroke="#263238" stroke-width="2" stroke-miterlimit="10"/>
<path d="M6474.62 4773.22C6472.32 4761.36 6472.51 4749.13 6475.19 4737.36C6477.87 4725.58 6482.97 4714.53 6490.15 4704.96C6504.98 4684.23 6592.53 4621.73 6608.76 4654.56C6626.38 4690.27 6543.72 4786.03 6474.62 4773.22Z" fill="#190F7B" stroke="#263238" stroke-miterlimit="10"/>
<path d="M6474.62 4773.22L6558.69 4690.42" stroke="#263238" stroke-width="0.5" stroke-miterlimit="10"/>
<path d="M6415.18 4630.08L6470.43 4537.35" stroke="#263238" stroke-width="2" stroke-miterlimit="10"/>
<path d="M6453.5 4565.28C6451.24 4553.41 6451.47 4541.18 6454.17 4529.41C6456.88 4517.64 6461.99 4506.6 6469.17 4497.03C6483.85 4476.29 6571.41 4413.8 6587.64 4446.63C6605.4 4482.34 6522.32 4578.1 6453.5 4565.28Z" fill="#190F7B" stroke="#263238" stroke-miterlimit="10"/>
<path d="M6453.5 4565.28L6537.71 4482.48" stroke="#263238" stroke-width="0.5" stroke-miterlimit="10"/>
<path d="M6384.27 4325.24L6439.51 4232.5" stroke="#263238" stroke-width="2" stroke-miterlimit="10"/>
<path d="M6422.59 4260.44C6420.33 4248.57 6420.56 4236.34 6423.26 4224.57C6425.96 4212.8 6431.08 4201.75 6438.26 4192.18C6452.94 4171.44 6540.5 4108.95 6556.73 4141.78C6574.49 4177.49 6491.41 4273.25 6422.59 4260.44Z" fill="#190F7B" stroke="#263238" stroke-miterlimit="10"/>
<path d="M6422.59 4260.44L6506.79 4177.64" stroke="#263238" stroke-width="0.5" stroke-miterlimit="10"/>
<path d="M6360.63 4130.4C6358.33 4118.55 6358.53 4106.32 6361.21 4094.54C6363.88 4082.77 6368.98 4071.72 6376.15 4062.15C6390.98 4041.41 6478.54 3978.92 6494.76 4011.75C6512.39 4047.46 6429.3 4143.22 6360.63 4130.4Z" fill="#190F7B" stroke="#263238" stroke-miterlimit="10"/>
<path d="M6360.63 4130.4L6444.69 4047.6" stroke="#263238" stroke-width="0.5" stroke-miterlimit="10"/>
<path d="M6365.52 4134C6353.81 4135.06 6342.02 4133.54 6330.93 4129.55C6319.83 4125.55 6309.69 4119.16 6301.18 4110.82C6282.72 4093.54 6231.25 3997.35 6264.95 3984.24C6301.32 3969.85 6385.1 4064.89 6365.52 4134Z" fill="#190F7B" stroke="#263238" stroke-miterlimit="10"/>
<path d="M6365.52 4134L6294.33 4039.11" stroke="#263238" stroke-width="0.5" stroke-miterlimit="10"/>
<path d="M6784.72 4356.92L6625.26 5937.89" stroke="#263238" stroke-width="2" stroke-miterlimit="10"/>
<path d="M6660.51 5636.35L6605.26 5543.61" stroke="#263238" stroke-width="2" stroke-miterlimit="10"/>
<path d="M6622.05 5571.55C6624.35 5559.69 6624.16 5547.46 6621.48 5535.69C6618.8 5523.91 6613.7 5512.87 6606.52 5503.3C6591.7 5482.56 6504.14 5420.21 6487.91 5453.04C6470.29 5488.75 6553.37 5584.37 6622.05 5571.55Z" fill="#190F7B" stroke="#263238" stroke-miterlimit="10"/>
<path d="M6622.05 5571.55L6542.6 5493.07" stroke="#263238" stroke-width="0.5" stroke-miterlimit="10"/>
<path d="M6704.71 5197.58L6649.46 5104.85" stroke="#263238" stroke-width="2" stroke-miterlimit="10"/>
<path d="M6666.39 5132.78C6668.65 5120.91 6668.42 5108.69 6665.71 5096.91C6663.01 5085.14 6657.9 5074.1 6650.72 5064.53C6635.89 5043.79 6548.34 4981.44 6532.11 5014.27C6514.49 5049.98 6597.57 5145.6 6666.39 5132.78Z" fill="#190F7B" stroke="#263238" stroke-miterlimit="10"/>
<path d="M6666.39 5132.78L6586.94 5054.3" stroke="#263238" stroke-width="0.5" stroke-miterlimit="10"/>
<path d="M6686.67 5377.44L6631.28 5284.7" stroke="#263238" stroke-width="2" stroke-miterlimit="10"/>
<path d="M6648.2 5312.5C6650.46 5300.65 6650.23 5288.44 6647.53 5276.7C6644.83 5264.95 6639.72 5253.93 6632.54 5244.38C6617.71 5223.65 6530.29 5161.15 6514.07 5194.13C6496.3 5229.84 6579.39 5325.46 6648.2 5312.5Z" fill="#190F7B" stroke="#263238" stroke-miterlimit="10"/>
<path d="M6648.2 5312.5L6568.76 5234.16" stroke="#263238" stroke-width="0.5" stroke-miterlimit="10"/>
<path d="M6734.23 4905.55L6678.84 4812.82" stroke="#263238" stroke-width="2" stroke-miterlimit="10"/>
<path d="M6695.76 4840.61C6698.05 4828.76 6697.84 4816.55 6695.14 4804.8C6692.43 4793.04 6687.3 4782.03 6680.09 4772.5C6665.27 4751.76 6577.85 4689.27 6561.62 4722.1C6543.72 4757.95 6627.64 4853.57 6695.76 4840.61Z" fill="#190F7B" stroke="#263238" stroke-miterlimit="10"/>
<path d="M6695.76 4840.61L6616.31 4762.13" stroke="#263238" stroke-width="0.5" stroke-miterlimit="10"/>
<path d="M6763.74 4612.23L6708.49 4519.49" stroke="#263238" stroke-width="2" stroke-miterlimit="10"/>
<path d="M6725.55 4547.28C6727.85 4535.42 6727.65 4523.2 6724.97 4511.42C6722.3 4499.65 6717.2 4488.6 6710.03 4479.03C6695.2 4458.29 6607.64 4395.94 6591.42 4428.77C6573.51 4464.48 6656.6 4560.24 6725.55 4547.28Z" fill="#190F7B" stroke="#263238" stroke-miterlimit="10"/>
<path d="M6725.27 4547.28L6645.83 4468.8" stroke="#263238" stroke-width="0.5" stroke-miterlimit="10"/>
<path d="M6669.88 5529.65L6742.48 5450.59" stroke="#263238" stroke-width="2" stroke-miterlimit="10"/>
<path d="M6720.38 5474.35C6720.52 5462.25 6723.17 5450.32 6728.17 5439.37C6733.16 5428.41 6740.38 5418.69 6749.33 5410.85C6767.93 5393.71 6865.98 5351.09 6875.22 5386.8C6885.57 5425.39 6785.14 5501.57 6720.38 5474.35Z" fill="#190F7B" stroke="#263238" stroke-miterlimit="10"/>
<path d="M6720.38 5474.35L6819.27 5411.14" stroke="#263238" stroke-width="0.5" stroke-miterlimit="10"/>
<path d="M6717.58 5056.47L6790.17 4977.41" stroke="#263238" stroke-width="2" stroke-miterlimit="10"/>
<path d="M6767.51 5001.17C6767.65 4989.07 6770.31 4977.14 6775.3 4966.19C6780.3 4955.23 6787.51 4945.51 6796.47 4937.67C6815.07 4920.53 6913.12 4877.91 6922.35 4913.62C6933.26 4952.21 6832.83 5028.39 6767.51 5001.17Z" fill="#190F7B" stroke="#263238" stroke-miterlimit="10"/>
<path d="M6768.07 5001.17L6866.96 4937.95" stroke="#263238" stroke-width="0.5" stroke-miterlimit="10"/>
<path d="M6738.56 4848.53L6811.15 4769.47" stroke="#263238" stroke-width="2" stroke-miterlimit="10"/>
<path d="M6789.06 4793.23C6789.18 4781.15 6791.82 4769.23 6796.79 4758.27C6801.76 4747.32 6808.95 4737.59 6817.87 4729.73C6836.61 4712.59 6934.66 4669.97 6943.75 4705.68C6954.24 4744.27 6853.82 4820.45 6789.06 4793.23Z" fill="#190F7B" stroke="#263238" stroke-miterlimit="10"/>
<path d="M6789.06 4793.23L6887.94 4730.02" stroke="#263238" stroke-width="0.5" stroke-miterlimit="10"/>
<path d="M6769.19 4543.68L6841.79 4464.63" stroke="#263238" stroke-width="2" stroke-miterlimit="10"/>
<path d="M6819.83 4488.39C6819.96 4476.3 6822.59 4464.38 6827.56 4453.43C6832.53 4442.48 6839.72 4432.74 6848.64 4424.88C6867.24 4407.75 6965.43 4365.12 6974.53 4400.84C6984.88 4439.43 6884.45 4516.32 6819.83 4488.39Z" fill="#190F7B" stroke="#263238" stroke-miterlimit="10"/>
<path d="M6819.83 4488.39L6918.72 4425.17" stroke="#263238" stroke-width="0.5" stroke-miterlimit="10"/>
<path d="M6785.14 4347.99C6785.28 4335.9 6787.92 4323.99 6792.89 4313.03C6797.86 4302.08 6805.04 4292.35 6813.95 4284.48C6832.56 4267.35 6930.75 4224.87 6939.84 4260.44C6950.19 4299.17 6849.76 4375.2 6785.14 4347.99Z" fill="#190F7B" stroke="#263238" stroke-miterlimit="10"/>
<path d="M6785.14 4347.99L6884.03 4284.77" stroke="#263238" stroke-width="0.5" stroke-miterlimit="10"/>
<path d="M6789.19 4352.6C6777.53 4351.16 6766.29 4347.19 6756.23 4340.93C6746.17 4334.67 6737.53 4326.28 6730.87 4316.31C6716.18 4295.43 6685.41 4190.45 6720.8 4184.69C6759.26 4178.36 6822.2 4289.09 6789.19 4352.6Z" fill="#190F7B" stroke="#263238" stroke-miterlimit="10"/>
<path d="M6789.2 4352.6L6738.42 4244.74" stroke="#263238" stroke-width="0.5" stroke-miterlimit="10"/>
<path d="M6602.05 3713.09V5712.38" stroke="#263238" stroke-width="2" stroke-miterlimit="10"/>
<path d="M6603.58 5411.86L6539.24 5325.46" stroke="#263238" stroke-width="2" stroke-miterlimit="10"/>
<path d="M6558.83 5351.52C6559.9 5339.47 6558.46 5327.33 6554.6 5315.91C6550.74 5304.48 6544.55 5294.04 6536.45 5285.28C6519.66 5266.27 6426.37 5213.28 6413.5 5247.84C6399.51 5285.14 6491.83 5371.54 6558.83 5351.52Z" fill="#190F7B" stroke="#263238" stroke-miterlimit="10"/>
<path d="M6558.83 5351.38L6471.97 5281.82" stroke="#263238" stroke-width="0.5" stroke-miterlimit="10"/>
<path d="M6603.58 5036.02L6539.24 4949.76" stroke="#263238" stroke-width="2" stroke-miterlimit="10"/>
<path d="M6558.83 4975.68C6559.9 4963.64 6558.46 4951.49 6554.6 4940.07C6550.74 4928.64 6544.55 4918.2 6536.45 4909.44C6519.66 4890.43 6426.37 4837.44 6413.5 4872C6399.51 4909.44 6491.83 4995.84 6558.83 4975.68Z" fill="#190F7B" stroke="#263238" stroke-miterlimit="10"/>
<path d="M6558.83 4975.68L6471.97 4905.99" stroke="#263238" stroke-width="0.5" stroke-miterlimit="10"/>
<path d="M6603.58 4594.95L6539.24 4508.55" stroke="#263238" stroke-width="2" stroke-miterlimit="10"/>
<path d="M6558.83 4534.47C6559.91 4522.44 6558.47 4510.32 6554.61 4498.92C6550.75 4487.52 6544.55 4477.1 6536.45 4468.37C6519.66 4449.22 6426.37 4396.37 6413.5 4430.93C6399.51 4468.37 6491.83 4554.63 6558.83 4534.47Z" fill="#190F7B" stroke="#263238" stroke-miterlimit="10"/>
<path d="M6558.83 4534.47L6471.97 4464.92" stroke="#263238" stroke-width="0.5" stroke-miterlimit="10"/>
<path d="M6603.58 4301.33L6539.24 4214.93" stroke="#263238" stroke-width="2" stroke-miterlimit="10"/>
<path d="M6558.83 4240.85C6559.9 4228.81 6558.46 4216.66 6554.6 4205.24C6550.74 4193.81 6544.55 4183.37 6536.45 4174.61C6519.66 4155.6 6426.37 4102.61 6413.5 4137.32C6399.51 4174.61 6491.83 4261.01 6558.83 4240.85Z" fill="#190F7B" stroke="#263238" stroke-miterlimit="10"/>
<path d="M6558.83 4240.85L6471.97 4171.3" stroke="#263238" stroke-width="0.5" stroke-miterlimit="10"/>
<path d="M6603.58 4006.42L6539.24 3920.02" stroke="#263238" stroke-width="2" stroke-miterlimit="10"/>
<path d="M6558.83 3945.94C6559.9 3933.9 6558.46 3921.75 6554.6 3910.33C6550.74 3898.9 6544.55 3888.46 6536.45 3879.7C6519.66 3860.69 6426.37 3807.7 6413.5 3842.26C6399.51 3879.7 6491.83 3966.1 6558.83 3945.94Z" fill="#190F7B" stroke="#263238" stroke-miterlimit="10"/>
<path d="M6558.83 3945.94L6471.97 3876.25" stroke="#263238" stroke-width="0.5" stroke-miterlimit="10"/>
<path d="M6602.19 5526.48L6666.53 5440.22" stroke="#263238" stroke-width="2" stroke-miterlimit="10"/>
<path d="M6646.95 5466.72C6645.87 5454.67 6647.31 5442.53 6651.17 5431.11C6655.03 5419.68 6661.22 5409.24 6669.32 5400.48C6686.11 5381.47 6779.4 5328.48 6792.27 5363.04C6806.26 5399.9 6713.94 5486.3 6646.95 5466.72Z" fill="#190F7B" stroke="#263238" stroke-miterlimit="10"/>
<path d="M6646.94 5466.14L6738.98 5392.7" stroke="#263238" stroke-width="0.5" stroke-miterlimit="10"/>
<path d="M6602.19 4929.03L6666.53 4842.63" stroke="#263238" stroke-width="2" stroke-miterlimit="10"/>
<path d="M6646.95 4868.55C6645.87 4856.5 6647.31 4844.36 6651.17 4832.93C6655.03 4821.51 6661.22 4811.07 6669.32 4802.31C6686.11 4783.3 6779.4 4730.31 6792.27 4764.87C6806.26 4802.31 6713.94 4888.71 6646.95 4868.55Z" fill="#190F7B" stroke="#263238" stroke-miterlimit="10"/>
<path d="M6646.94 4868.55L6738.98 4795.11" stroke="#263238" stroke-width="0.5" stroke-miterlimit="10"/>
<path d="M6602.19 4633.97L6666.53 4547.72" stroke="#263238" stroke-width="2" stroke-miterlimit="10"/>
<path d="M6646.95 4573.92C6645.87 4561.88 6647.31 4549.73 6651.17 4538.31C6655.03 4526.89 6661.22 4516.44 6669.32 4507.68C6686.11 4488.68 6779.4 4435.68 6792.27 4470.24C6806.26 4507.4 6713.94 4593.79 6646.95 4573.92Z" fill="#190F7B" stroke="#263238" stroke-miterlimit="10"/>
<path d="M6646.94 4573.64L6738.98 4500.2" stroke="#263238" stroke-width="0.5" stroke-miterlimit="10"/>
<path d="M6602.19 4244.16L6666.53 4157.91" stroke="#263238" stroke-width="2" stroke-miterlimit="10"/>
<path d="M6646.95 4183.68C6645.87 4171.66 6647.32 4159.54 6651.18 4148.14C6655.04 4136.74 6661.23 4126.32 6669.33 4117.59C6686.11 4098.58 6779.4 4045.59 6792.27 4080.15C6806.26 4117.59 6713.94 4203.84 6646.95 4183.68Z" fill="#190F7B" stroke="#263238" stroke-miterlimit="10"/>
<path d="M6646.94 4183.68L6738.98 4110.39" stroke="#263238" stroke-width="0.5" stroke-miterlimit="10"/>
<path d="M6602.19 3937.73L6666.53 3851.33" stroke="#263238" stroke-width="2" stroke-miterlimit="10"/>
<path d="M6646.95 3877.25C6645.87 3865.14 6647.33 3852.93 6651.24 3841.45C6655.15 3829.97 6661.41 3819.49 6669.6 3810.73C6686.39 3791.72 6779.68 3738.73 6792.55 3773.43C6806.26 3810.73 6713.94 3897.13 6646.95 3877.25Z" fill="#190F7B" stroke="#263238" stroke-miterlimit="10"/>
<path d="M6646.94 3877.25L6738.98 3803.96" stroke="#263238" stroke-width="0.5" stroke-miterlimit="10"/>
<path d="M6598.27 3741.32C6597.19 3729.29 6598.63 3717.17 6602.49 3705.77C6606.35 3694.37 6612.54 3683.95 6620.65 3675.22C6637.43 3656.07 6730.87 3603.22 6743.74 3637.78C6757.58 3675.22 6665.41 3761.48 6598.27 3741.32Z" fill="#190F7B" stroke="#263238" stroke-miterlimit="10"/>
<path d="M6598.27 3741.32L6690.31 3668.02" stroke="#263238" stroke-width="0.5" stroke-miterlimit="10"/>
<path d="M6602.75 3745.35C6591.01 3745.21 6579.45 3742.47 6568.83 3737.33C6558.21 3732.19 6548.79 3724.76 6541.2 3715.54C6524.56 3696.39 6483.43 3595.3 6517.98 3585.94C6555.61 3575.29 6629.32 3678.82 6602.75 3745.35Z" fill="#190F7B" stroke="#263238" stroke-miterlimit="10"/>
<path d="M6602.75 3745.35L6541.62 3643.54" stroke="#263238" stroke-width="0.5" stroke-miterlimit="10"/>
<path d="M6681.91 6230.92H6476.3L6450.56 5696.25H6707.65L6681.91 6230.92Z" fill="#263238" stroke="#263238" stroke-miterlimit="10"/>
<path d="M6184.95 2345.96C6100.33 2272.67 6116.69 2155.88 6116.69 2155.88C6116.69 2155.88 5770.93 2479.02 5753.02 2584.43C5735.12 2689.83 5993.46 3070.28 6032.77 3129.9C6037.74 3137.15 6044.24 3143.16 6051.79 3147.46C6039.34 3178.94 6033.25 3212.7 6033.89 3246.68C6034.86 3363.61 6163.13 3322.14 6214.88 3286.71C6229.76 3275.95 6241.34 3261.02 6248.23 3243.69C6255.12 3226.36 6257.04 3207.36 6253.76 3188.94C6253.76 3188.94 6189 3215.58 6189 3184.62C6189 3153.66 6249.99 3105.13 6249.99 3105.13L6248.45 3103.98C6261.02 3094.22 6272.51 3083.06 6282.72 3070.71C6349.44 2988.2 6238.1 2896.47 6215.86 2846.07C6193.62 2795.67 6233.62 2749.88 6313.77 2681.05C6393.92 2612.22 6269.57 2419.4 6184.95 2345.96Z" fill="#263238" stroke="#263238" stroke-linecap="round" stroke-linejoin="round"/>
<path d="M4916.59 3055.74C4918.4 3095.89 4917.28 3136.14 4913.23 3176.12C4911.91 3199.91 4915.54 3223.72 4923.89 3245.95C4932.24 3268.18 4945.1 3288.31 4961.63 3305C4980.09 3319.4 5071.85 3349.64 5071.85 3349.64L5086.95 3267.13L5072.96 3232.86L5091.29 3107.29C5083.34 3084.06 5073.32 3061.65 5061.36 3040.33C5044.57 3012.83 4999.53 2983.59 4996.17 2978.41C4992.82 2973.23 4937.71 2985.32 4932.67 2985.32C4922.46 2987.96 4912.46 2991.38 4902.74 2995.55L4916.59 3055.74Z" fill="white" stroke="#263238" stroke-linecap="round" stroke-linejoin="round"/>
<path d="M4888.19 2971.79C4888.19 2971.79 4859.52 2974.23 4856.02 2986.19C4852.53 2998.14 4864.56 3065.53 4871.69 3071.72C4878.82 3077.91 4898.26 3071.72 4898.4 3044.36C4898.54 3017 4895.75 2982.59 4888.19 2971.79Z" fill="white" stroke="#263238" stroke-linecap="round" stroke-linejoin="round"/>
<path d="M4921.2 2963.72C4921.2 2963.72 4889.87 2963.72 4885.12 2976.11C4880.36 2988.49 4887.49 3062.51 4894.77 3070.14C4902.04 3077.77 4923.58 3072.58 4925.96 3042.92C4928.34 3013.26 4927.92 2975.53 4921.2 2963.72Z" fill="white" stroke="#263238" stroke-linecap="round" stroke-linejoin="round"/>
<path d="M4954.07 2951.19C4954.07 2951.19 4918.83 2951.19 4913.37 2965.59C4907.92 2979.99 4916.17 3063.37 4924.28 3071.72C4932.39 3080.07 4956.73 3074.46 4959.53 3041.05C4962.33 3007.64 4962.19 2965.16 4954.07 2951.19Z" fill="white" stroke="#263238" stroke-linecap="round" stroke-linejoin="round"/>
<path d="M4986.1 2951.48C4986.1 2951.48 4950.86 2951.48 4945.4 2965.88C4939.95 2980.28 4948.06 3063.51 4956.17 3071.86C4964.28 3080.22 4988.76 3074.74 4991.42 3041.19C4994.08 3007.64 4994.22 2965.45 4986.1 2951.48Z" fill="white" stroke="#263238" stroke-linecap="round" stroke-linejoin="round"/>
<path d="M5075.06 3205.93C5075.06 3205.93 5089.05 3133.93 5091.43 3094.18C5093.81 3054.44 5050.73 3007.79 5039.82 2993.39C5028.91 2978.99 5029.04 2929.31 5010.02 2929.31C4991 2929.31 4985.68 2951.63 4985.68 2951.63C4985.68 2951.63 4974.77 2987.91 4993.8 3007.35C5007.84 3022.93 5020.52 3039.74 5031.7 3057.61C5031.7 3057.61 4974.77 3169.35 4974.77 3200.02C4974.77 3230.7 5029.04 3266.98 5029.04 3266.98" fill="white"/>
<path d="M5075.06 3205.93C5075.06 3205.93 5089.05 3133.93 5091.43 3094.18C5093.81 3054.44 5050.73 3007.79 5039.82 2993.39C5028.91 2978.99 5029.04 2929.31 5010.02 2929.31C4991 2929.31 4985.68 2951.63 4985.68 2951.63C4985.68 2951.63 4974.77 2987.91 4993.8 3007.35C5007.84 3022.93 5020.52 3039.74 5031.7 3057.61C5031.7 3057.61 4974.77 3169.35 4974.77 3200.02C4974.77 3230.7 5029.04 3266.98 5029.04 3266.98" stroke="#263238" stroke-linecap="round" stroke-linejoin="round"/>
<path d="M5083.59 3260.36L5068.49 3394.42L5425.86 3514.66L5422.5 3313.64L5083.59 3260.36Z" fill="#190F7B" stroke="#263238" stroke-linecap="round" stroke-linejoin="round"/>
<path d="M5673.02 2627.77C5673.02 2627.77 5473.98 2689.11 5460.55 2753.19C5447.12 2817.27 5405.86 3012.39 5405.86 3012.39C5405.86 3012.39 5356.76 3145.3 5361.24 3213.99C5365.72 3282.68 5405.86 3420.34 5383.48 3511.93C5361.1 3603.51 5285.57 3878.69 5267.81 3970.42C5250.04 4062.15 5241.09 4117.01 5241.09 4117.01L5312.29 4131.41L5410.2 4145.09C5410.2 4145.09 5450.34 3870.05 5481.53 3631.73C5512.72 3393.42 5432.58 3228.54 5508.25 3072.44C5583.92 2916.35 5766.45 2760.83 5753.16 2696.6C5739.87 2632.38 5673.02 2627.77 5673.02 2627.77Z" fill="#190F7B" stroke="#263238" stroke-linecap="round" stroke-linejoin="round"/>
<path d="M5312.85 3952.42C5312.85 3952.42 5286.13 4287.08 5339.56 4534.61C5369.37 4676.24 5408.05 4815.73 5455.37 4952.21C5455.37 4952.21 5517.62 5355.41 5562.24 5497.68C5602.83 5623.1 5619.45 5755.42 5611.19 5887.34C5602.24 5997.21 5526.57 6139.34 5490.9 6166.84C5455.24 6194.35 5384.04 6258.57 5473.14 6282.04C5562.24 6305.52 5677.21 6252.24 5731.34 6249.93C5838.2 6245.32 5851.63 6172.03 5851.63 6103.34C5851.63 6034.65 5789.25 5800.94 5807.15 5681.57C5825.06 5562.19 5829.39 5168.21 5811.49 5062.37C5793.59 4956.53 5784.77 4860.77 5784.77 4860.77L5771.49 4003.54L5330.61 3939.46L5312.85 3952.42Z" fill="#263238" stroke="#263238" stroke-linecap="round" stroke-linejoin="round"/>
<path d="M5803.8 5752.41C5700.99 5798.21 5643.36 5789.85 5611.61 5770.99C5613.9 5809.61 5613.57 5848.34 5610.63 5886.91C5601.68 5996.78 5526.01 6138.91 5490.34 6166.41C5454.68 6193.92 5383.48 6258.14 5472.58 6281.61C5561.68 6305.08 5676.65 6251.8 5730.78 6249.5C5837.65 6244.89 5851.07 6171.6 5851.07 6102.91C5851.07 6045.6 5808.69 5876.69 5803.8 5752.41Z" fill="white" stroke="#263238" stroke-linecap="round" stroke-linejoin="round"/>
<path d="M5850.65 6091.53C5850.58 6090.81 5850.58 6090.09 5850.65 6089.37C5850.65 6085.48 5849.95 6081.31 5849.39 6076.99C5849.46 6076.03 5849.46 6075.07 5849.39 6074.11C5848.83 6069.88 5848.28 6065.42 5847.72 6060.72C5847.72 6060.72 5847.72 6059.71 5847.72 6059.13C5847.02 6054.24 5846.32 6048.91 5845.48 6043.58L5844.64 6038.54C5843.8 6033.64 5842.96 6028.46 5842.12 6023.13C5842.12 6020.25 5841.14 6017.37 5840.72 6014.49V6012.62C5834.57 6019.1 5827.99 6025.87 5821 6033.5C5749.81 6111.4 5651.76 6198.52 5549.37 6198.52C5500.55 6198.52 5488.24 6184.12 5488.66 6168.72C5452.3 6197.52 5386.98 6258.72 5473.7 6281.04C5562.8 6303.93 5677.77 6251.23 5731.9 6248.92C5838.76 6244.32 5852.19 6171.02 5852.19 6102.33C5851.45 6099.07 5850.93 6095.47 5850.65 6091.53Z" fill="#190F7B" stroke="#263238" stroke-linecap="round" stroke-linejoin="round"/>
<path d="M5761.97 6184.84C5677.35 6253.53 5588.39 6262.75 5512.72 6262.75C5454.12 6262.75 5438.31 6238.12 5434.11 6226.89C5423.9 6248.78 5429.08 6270.09 5472.58 6281.04C5561.68 6303.93 5676.65 6251.23 5730.78 6248.92C5831.49 6244.6 5849.12 6179.37 5850.93 6114.29C5829.53 6130.7 5799.74 6154.03 5761.97 6184.84Z" fill="white" stroke="#263238" stroke-linecap="round" stroke-linejoin="round"/>
<path d="M5597.2 4461.32C5597.2 4461.32 5641.82 5043.36 5677.35 5199.31C5712.88 5355.26 5789.25 5895.98 5789.25 5969.42C5789.25 6042.86 5740.29 6148.12 5713.58 6193.92C5686.86 6239.71 5615.67 6248.92 5615.67 6290.25C5615.67 6331.58 5758.06 6331.44 5784.77 6336.04C5811.49 6340.65 5994.58 6290.25 5998.5 6267.36C6002.41 6244.46 6002.97 6148.12 6002.97 6148.12C6005.45 6122.22 6005.45 6096.13 6002.97 6070.22C5998.5 6038.11 5945.07 5941.92 5945.07 5941.92C5945.07 5941.92 5994.16 5492.64 6007.45 5419.34C6020.74 5346.05 6016.4 5194.7 6011.93 5125.87C6007.45 5057.04 5966.89 4919.52 5966.89 4919.52L6055.85 4190.74L6047.03 3956.89C6047.03 3956.89 5922.27 3971.29 5784.21 3971.29H5548.25L5557.2 4145.38" fill="#263238"/>
<path d="M5597.2 4461.32C5597.2 4461.32 5641.82 5043.36 5677.35 5199.31C5712.88 5355.26 5789.25 5895.98 5789.25 5969.42C5789.25 6042.86 5740.29 6148.12 5713.58 6193.92C5686.86 6239.71 5615.67 6248.92 5615.67 6290.25C5615.67 6331.58 5758.06 6331.44 5784.77 6336.04C5811.49 6340.65 5994.58 6290.25 5998.5 6267.36C6002.41 6244.46 6002.97 6148.12 6002.97 6148.12C6005.45 6122.22 6005.45 6096.13 6002.97 6070.22C5998.5 6038.11 5945.07 5941.92 5945.07 5941.92C5945.07 5941.92 5994.16 5492.64 6007.45 5419.34C6020.74 5346.05 6016.4 5194.7 6011.93 5125.87C6007.45 5057.04 5966.89 4919.52 5966.89 4919.52L6055.85 4190.74L6047.03 3956.89C6047.03 3956.89 5922.27 3971.29 5784.21 3971.29H5548.25L5557.2 4145.38" stroke="#263238" stroke-linecap="round" stroke-linejoin="round"/>
<path d="M5998.22 6267.36C6002.69 6244.32 6002.69 6148.12 6002.69 6148.12C6005.17 6122.22 6005.17 6096.13 6002.69 6070.22C5998.22 6038.11 5944.79 5941.92 5944.79 5941.92C5944.79 5941.92 5952.2 5874.96 5961.85 5788.56C5930.58 5801.03 5897.01 5806.2 5863.56 5803.71C5830.11 5801.22 5797.61 5791.13 5768.41 5774.16C5780.72 5869.34 5788.97 5944.51 5788.97 5968.7C5788.97 6042 5740.01 6147.4 5713.3 6193.2C5686.58 6238.99 5615.39 6248.2 5615.39 6289.53C5615.39 6330.86 5757.78 6330.72 5784.49 6335.32C5811.21 6339.93 5993.6 6290.25 5998.22 6267.36Z" fill="white" stroke="#263238" stroke-linecap="round" stroke-linejoin="round"/>
<path d="M5998.22 6267.36C6002.69 6244.32 6002.69 6148.12 6002.69 6148.12C6005.17 6122.22 6005.17 6096.13 6002.69 6070.22C6000.18 6051.64 5981.29 6011.76 5965.77 5981.37C5964.65 5983.53 5963.67 5985.41 5962.69 5987.71C5935.98 6042.72 5821.56 6185.85 5768.13 6218.11C5714.7 6250.36 5700.01 6212.49 5700.01 6212.49H5698.61C5666.72 6243.31 5618.47 6255.69 5615.39 6290.4C5609.51 6355.77 5783.24 6351.45 5809.11 6342.96C5834.99 6334.46 5993.6 6290.25 5998.22 6267.36Z" fill="#190F7B" stroke="#263238" stroke-linecap="round" stroke-linejoin="round"/>
<path d="M5998.22 6267.36C6001.31 6237.32 6002.76 6207.13 6002.55 6176.92C5914.68 6247.95 5808.22 6290.36 5696.79 6298.75C5645.46 6302.06 5624.48 6278.59 5620.84 6273.84C5617.83 6278.81 5615.97 6284.42 5615.39 6290.25C5609.51 6355.63 5783.24 6351.31 5809.11 6342.81C5834.99 6334.32 5993.6 6290.25 5998.22 6267.36Z" fill="white" stroke="#263238" stroke-linecap="round" stroke-linejoin="round"/>
<path d="M5646.3 2650.67C5646.3 2650.67 5472.58 2999 5432.58 3095.34C5392.57 3191.67 5410.2 3347.34 5410.2 3402.34C5410.2 3457.35 5312.29 3952.42 5312.29 3952.42C5312.29 3952.42 5401.38 4048.76 5637.35 4039.54C5873.31 4030.33 6015.84 3970.85 6015.84 3970.85C6015.84 3970.85 5962.41 3516.97 5962.41 3420.78C5962.41 3324.58 6078.09 2911.88 6064.8 2801.58C6051.51 2691.27 5891.08 2700.78 5851.07 2691.56C5811.07 2682.35 5646.3 2650.67 5646.3 2650.67Z" fill="white" stroke="#263238" stroke-linecap="round" stroke-linejoin="round"/>
<path d="M5446.98 2000.37C5446.98 2000.37 5396.77 2176.19 5414.95 2197.93C5429.78 2220.71 5441.72 2245.34 5450.48 2271.23C5450.48 2271.23 5397.19 2377.5 5411.32 2392.19C5425.14 2403.51 5440.82 2412.19 5457.61 2417.82C5457.61 2417.82 5489.64 2576.22 5518.18 2582.84C5546.71 2589.47 5714 2542.52 5714 2542.52C5714 2542.52 5813.73 2450.8 5774.56 2285.92C5735.4 2121.04 5578.74 2003.68 5550.77 1988.99C5522.79 1974.3 5446.98 2000.37 5446.98 2000.37Z" fill="white" stroke="#263238" stroke-linecap="round" stroke-linejoin="round"/>
<path d="M5536.64 2264.17V2304.49C5536.64 2304.49 5580.84 2307.37 5602.24 2292.68" stroke="#263238" stroke-linecap="round" stroke-linejoin="round"/>
<path d="M5521.11 2245.6C5533.06 2239.09 5546.41 2235.82 5559.92 2236.1C5573.43 2236.38 5586.64 2240.19 5598.32 2247.18" stroke="#263238" stroke-linecap="round" stroke-linejoin="round"/>
<path d="M5481.67 2245.6C5481.67 2245.6 5497.48 2211.61 5558.88 2211.61C5620.28 2211.61 5655.11 2231.05 5659.73 2242.43C5661.16 2245.52 5661.77 2248.95 5661.5 2252.36C5661.23 2255.78 5660.09 2259.05 5658.19 2261.87C5658.19 2261.87 5658.19 2328.4 5640.85 2346.25C5623.5 2364.11 5560.56 2381.96 5528.95 2367.28C5497.34 2352.59 5480.13 2289.37 5480.13 2274.83C5480.13 2260.28 5481.67 2245.6 5481.67 2245.6Z" stroke="#263238" stroke-linecap="round" stroke-linejoin="round"/>
<path d="M5659.73 2242.43H5685.04" stroke="#263238" stroke-linecap="round" stroke-linejoin="round"/>
<path d="M5481.67 2245.6C5481.67 2245.6 5454.96 2222.84 5443.91 2250.49" stroke="#263238" stroke-linecap="round" stroke-linejoin="round"/>
<path d="M5432.86 2245.6C5416.91 2241.36 5400.51 2239.19 5384.04 2239.12C5357.18 2239.12 5349.35 2250.49 5350.89 2255.39C5356.12 2270.57 5359.32 2286.41 5360.4 2302.48C5360.4 2320.19 5361.94 2347.84 5377.75 2355.9C5388.69 2361.16 5400.42 2364.47 5412.43 2365.69" stroke="#263238" stroke-linecap="round" stroke-linejoin="round"/>
<path d="M5793.17 2678.17C5793.17 2678.17 5673.02 2989.79 5641.82 3164.02C5610.63 3338.26 5623.92 4241.28 5623.92 4241.28C5704.46 4280.46 5793.39 4297.81 5882.26 4291.68C6033.61 4282.47 6189.98 4181.67 6189.98 4181.67C6189.98 4181.67 6154.32 3915.85 6096.55 3727.78C6038.78 3539.72 6016.4 3452.89 6016.4 3452.89C6016.4 3452.89 6132.08 2843.19 6123.26 2778.97C6114.45 2714.75 5793.17 2678.17 5793.17 2678.17Z" fill="#190F7B" stroke="#263238" stroke-linecap="round" stroke-linejoin="round"/>
<path d="M5564.61 1828C5564.61 1828 5390.19 1879.41 5390.19 1908.64C5390.19 1937.87 5383.06 1978.33 5500.55 2062.57C5618.05 2146.81 5703.51 2223.85 5710.36 2326.52C5717.22 2429.2 5617.77 2700.92 5596.37 2788.33C5574.97 2875.74 5585.74 3004.33 5653.29 3022.91C5720.85 3041.48 5699.59 3030.25 5692.46 2989.93C5685.32 2949.61 5724.49 2780.99 5841.98 2726.12C5959.47 2671.26 6086.9 2582.99 6112.63 2418.11C6139.49 2246.17 6128.72 1997.34 5955.98 1860.97C5783.24 1724.61 5564.61 1828 5564.61 1828Z" fill="#263238" stroke="#263238" stroke-linecap="round" stroke-linejoin="round"/>
<path d="M5886.32 3017.29L5841.7 3439.06L5814.99 3448.28V3471.18L5788.27 3484.86L5774.98 3503.29L5156.05 3443.67C5156.05 3443.67 5013.52 3425.38 4986.8 3425.38C4960.09 3425.38 4857.7 3410.98 4857.7 3410.98C4857.7 3410.98 4871.69 3452.31 4893.37 3456.78C4915.05 3461.24 5031.42 3502.71 5031.42 3502.71C5031.42 3502.71 5107.09 3543.89 5156.05 3543.89C5205 3543.89 5280.67 3548.5 5280.67 3548.5C5280.67 3548.5 5605.74 3640.23 5708.12 3658.52C5810.51 3676.81 5895.13 3718.13 5930.8 3704.31C5952.7 3695.76 5972.46 3682.27 5988.63 3664.82C6004.79 3647.38 6016.96 3626.43 6024.23 3603.51C6038.22 3553.11 6095.57 3241.35 6095.57 3241.35C6095.57 3241.35 6166.76 2924.55 6166.76 2847.23C6166.76 2769.9 6064.38 2727.99 5970.94 2778.39" fill="#190F7B"/>
<path d="M5886.32 3017.29L5841.7 3439.06L5814.99 3448.28V3471.18L5788.27 3484.86L5774.98 3503.29L5156.05 3443.67C5156.05 3443.67 5013.52 3425.38 4986.8 3425.38C4960.09 3425.38 4857.7 3410.98 4857.7 3410.98C4857.7 3410.98 4871.69 3452.31 4893.37 3456.78C4915.05 3461.24 5031.42 3502.71 5031.42 3502.71C5031.42 3502.71 5107.09 3543.89 5156.05 3543.89C5205 3543.89 5280.67 3548.5 5280.67 3548.5C5280.67 3548.5 5605.74 3640.23 5708.12 3658.52C5810.51 3676.81 5895.13 3718.13 5930.8 3704.31C5952.7 3695.76 5972.46 3682.27 5988.63 3664.82C6004.79 3647.38 6016.96 3626.43 6024.23 3603.51C6038.22 3553.11 6095.57 3241.35 6095.57 3241.35C6095.57 3241.35 6166.76 2924.55 6166.76 2847.23C6166.76 2769.9 6064.38 2727.99 5970.94 2778.39" stroke="#263238" stroke-linecap="round" stroke-linejoin="round"/>
<path d="M5789.67 3678.1L5742.25 3499.98L5156.47 3443.67C5156.47 3443.67 5013.94 3425.38 4987.22 3425.38C4960.51 3425.38 4858.12 3410.98 4858.12 3410.98C4858.12 3410.98 4872.11 3452.31 4893.79 3456.78C4915.47 3461.24 5031.84 3502.71 5031.84 3502.71C5031.84 3502.71 5107.51 3543.9 5156.47 3543.9C5205.42 3543.9 5281.09 3548.5 5281.09 3548.5C5281.09 3548.5 5606.16 3640.23 5708.54 3658.52C5737.22 3664.28 5764.49 3671.19 5789.67 3678.1Z" fill="white" stroke="#263238" stroke-linecap="round" stroke-linejoin="round"/>
<path d="M5854.99 3624.25L5868.84 3645.27" stroke="#263238" stroke-linecap="round" stroke-linejoin="round"/>
<path d="M5775.4 3503.29L5838.06 3598.47" stroke="#263238" stroke-linecap="round" stroke-linejoin="round"/>
<path d="M5815.41 3471.18L5904.5 3535.4" stroke="#263238" stroke-linecap="round" stroke-linejoin="round"/>
<path d="M4885.26 3418.33C4887.19 3424.99 4890.95 3430.95 4896.08 3435.47C4901.22 3439.99 4907.51 3442.89 4914.21 3443.82C4936.87 3445.83 5002.75 3483.99 5008.9 3483.99" stroke="#263238" stroke-linecap="round" stroke-linejoin="round"/>
<path d="M4959.53 3424.66C4970.81 3435.17 4984.1 3443.12 4998.55 3447.99C5025.2 3457.15 5051.34 3467.77 5076.88 3479.82" stroke="#263238" stroke-linecap="round" stroke-linejoin="round"/>
<path d="M5272.56 3462.82C5272.56 3462.82 5180.53 3430.86 5172.97 3433.02C5151.26 3435.53 5129.32 3434.85 5107.79 3431C5076.88 3426.82 5058.28 3462.82 5083.04 3473.48C5100.12 3480.06 5118.51 3482.23 5136.61 3479.82C5144.86 3479.82 5169.48 3488.31 5175.77 3488.31" fill="white"/>
<path d="M5272.56 3462.82C5272.56 3462.82 5180.53 3430.86 5172.97 3433.02C5151.26 3435.53 5129.32 3434.85 5107.79 3431C5076.88 3426.82 5058.28 3462.82 5083.04 3473.48C5100.12 3480.06 5118.51 3482.23 5136.61 3479.82C5144.86 3479.82 5169.48 3488.31 5175.77 3488.31" stroke="#263238" stroke-linecap="round" stroke-linejoin="round"/>
<path d="M4549.56 3364.62L5417.19 3465.13L5414.39 3434.31L4544.11 3339.42L4549.56 3364.62Z" fill="white" stroke="#263238" stroke-linecap="round" stroke-linejoin="round"/>
<path d="M4544.11 3339.42L4373.18 2876.03L4861.34 2917.93L5021.35 3395.29L4544.11 3339.42Z" fill="white" stroke="#263238" stroke-linecap="round" stroke-linejoin="round"/>
<path d="M5021.35 3395.29V3419.19L5417.19 3465.13L5414.39 3434.31L5020.93 3391.4L5021.35 3395.29Z" fill="#263238" stroke="#263238" stroke-linecap="round" stroke-linejoin="round"/>
</svg>
