<svg width="100" height="100" viewBox="0 0 100 100" fill="none" xmlns="http://www.w3.org/2000/svg">
<path d="M26.6042 81.5958V53.525H35.2708C35.6514 53.525 36.0444 53.5639 36.45 53.6417C36.8556 53.7194 37.2486 53.8278 37.6292 53.9667L62.7167 63.175C63.9556 63.6278 64.9778 64.3722 65.7833 65.4083C66.5861 66.4444 66.9875 67.6097 66.9875 68.9042C66.9875 69.6681 66.7375 70.2875 66.2375 70.7625C65.7375 71.2375 65.1222 71.4736 64.3917 71.4708H59.3833C57.9667 71.4708 56.5847 71.3875 55.2375 71.2208C53.8903 71.0542 52.5694 70.7403 51.275 70.2792L43.8083 67.5958L42.6125 70.6958L50.7958 73.5083C52.1069 73.9528 53.4625 74.2583 54.8625 74.425C56.2625 74.5944 57.6806 74.6792 59.1167 74.6792H80.6083C82.5111 74.6792 84.1361 75.3042 85.4833 76.5542C86.8306 77.8042 87.5028 79.3694 87.5 81.25L58.3583 90.8667L26.6042 81.5958ZM9.9375 87.5V53.525H22.4375V87.5H9.9375ZM58.7333 35.175H62.1V31.8083H58.7333V35.175ZM50.4 35.175H53.7667V31.8083H50.4V35.175ZM58.7333 43.5083H62.1V40.1417H58.7333V43.5083ZM50.4 43.5083H53.7667V40.1417H50.4V43.5083ZM70.0583 61.5375C69.4055 59.8875 68.3639 58.4083 66.9333 57.1C65.5 55.7917 63.5972 54.7042 61.225 53.8375L33.3333 43.5875H29.1667V30.375L56.25 11.0625L83.3333 30.3708V61.5375H70.0583Z" fill="#1D4ED8"/>
</svg>
