<svg width="100" height="100" viewBox="0 0 100 100" fill="none" xmlns="http://www.w3.org/2000/svg">
<path d="M49.9326 4.44336C24.3129 4.44336 3.50293 10.9523 3.50293 18.9637C3.50332 23.3367 9.83301 27.282 19.6287 29.9441C16.2289 28.2039 14.2518 26.191 14.2518 23.993C14.2518 17.718 30.2186 12.5613 49.9326 12.5613C69.6467 12.5613 85.7236 17.7176 85.7236 23.993C85.7236 26.1793 83.7119 28.2098 80.3467 29.9441C90.0816 27.2826 96.3561 23.3211 96.3561 18.9637C96.3561 10.9523 75.5525 4.44336 49.9326 4.44336ZM28.8025 20.1355V26.0133H71.0447V20.1355H28.8025ZM29.6568 29.6629V70.6914H33.3066V29.6631H29.657L29.6568 29.6629ZM37.2984 29.6629C37.4348 41.7355 42.2447 48.4979 47.6129 49.9391C42.174 51.399 37.3051 58.318 37.292 70.691H62.3287C62.3158 58.3174 57.4553 51.4008 52.0201 49.9391C57.385 48.4965 62.1861 41.7363 62.3229 29.6631H37.2982L37.2984 29.6629ZM66.1922 29.6629V70.6914H69.8422V29.6631H66.1922V29.6629ZM19.6287 70.4531C9.8332 73.1145 3.50312 77.06 3.50312 81.433C3.50312 89.4443 24.3129 95.9533 49.9328 95.9533C75.5527 95.9533 96.3561 89.4445 96.3561 81.4334C96.3561 77.076 90.0816 73.1145 80.3463 70.4529C83.7119 72.1873 85.7236 74.2115 85.7236 76.3979C85.7236 82.6732 69.6469 87.8359 49.9326 87.8359C30.2184 87.8359 14.2518 82.6725 14.2518 76.3975C14.2518 74.1994 16.2289 72.1928 19.6287 70.4527V70.4531ZM28.8025 74.3408V80.2125H71.0447V74.3408H28.8025Z" fill="#1D4ED8"/>
</svg>
