<svg width="100" height="100" viewBox="0 0 100 100" fill="none" xmlns="http://www.w3.org/2000/svg">
<path d="M35 65C36.326 65 37.5978 64.4732 38.5355 63.5355C39.4732 62.5979 40 61.3261 40 60C40 58.6739 39.4732 57.4021 38.5355 56.4645C37.5978 55.5268 36.326 55 35 55C33.6739 55 32.4021 55.5268 31.4644 56.4645C30.5267 57.4021 30 58.6739 30 60C30 61.3261 30.5267 62.5979 31.4644 63.5355C32.4021 64.4732 33.6739 65 35 65ZM55 60C55 61.3261 54.4732 62.5979 53.5355 63.5355C52.5978 64.4732 51.326 65 50 65C48.6739 65 47.4021 64.4732 46.4644 63.5355C45.5267 62.5979 45 61.3261 45 60C45 58.6739 45.5267 57.4021 46.4644 56.4645C47.4021 55.5268 48.6739 55 50 55C51.326 55 52.5978 55.5268 53.5355 56.4645C54.4732 57.4021 55 58.6739 55 60ZM65 65C66.326 65 67.5978 64.4732 68.5355 63.5355C69.4732 62.5979 70 61.3261 70 60C70 58.6739 69.4732 57.4021 68.5355 56.4645C67.5978 55.5268 66.326 55 65 55C63.6739 55 62.4021 55.5268 61.4644 56.4645C60.5267 57.4021 60 58.6739 60 60C60 61.3261 60.5267 62.5979 61.4644 63.5355C62.4021 64.4732 63.6739 65 65 65ZM20 16.465C20.9374 15.5273 22.209 15.0003 23.535 15H76.465C77.7909 15.0003 79.0625 15.5273 80 16.465L93.21 29.67C97.02 33.485 94.32 40 88.93 40H85V75C85 77.6522 83.9464 80.1957 82.071 82.0711C80.1957 83.9464 77.6521 85 75 85H25C22.3478 85 19.8043 83.9464 17.9289 82.0711C16.0535 80.1957 15 77.6522 15 75V40H11.07C5.67996 40 2.98496 33.485 6.79996 29.67L20 16.465ZM80 75V40H20V75C20 76.3261 20.5267 77.5979 21.4644 78.5355C22.4021 79.4732 23.6739 80 25 80H75C76.326 80 77.5978 79.4732 78.5355 78.5355C79.4732 77.5979 80 76.3261 80 75ZM88.93 35C89.1373 35 89.3401 34.9386 89.5126 34.8236C89.6851 34.7085 89.8197 34.5449 89.8994 34.3535C89.9791 34.162 90.0003 33.9512 89.9604 33.7477C89.9204 33.5442 89.8211 33.3571 89.675 33.21L76.465 20H23.535L10.33 33.21C10.1841 33.3568 10.0849 33.5435 10.0448 33.7465C10.0047 33.9495 10.0255 34.1599 10.1045 34.3512C10.1836 34.5424 10.3174 34.706 10.4892 34.8215C10.661 34.9369 10.863 34.999 11.07 35H88.93Z" fill="#1B1935"/>
</svg>
