<svg width="100" height="100" viewBox="0 0 100 100" fill="none" xmlns="http://www.w3.org/2000/svg">
<g clip-path="url(#clip0_260_10)">
<path d="M69.4444 11.1111H30.5556C29.0821 11.1111 27.6691 11.6964 26.6272 12.7383C25.5853 13.7801 25 15.1932 25 16.6666V83.3333C25 84.8067 25.5853 86.2198 26.6272 87.2617C27.6691 88.3035 29.0821 88.8889 30.5556 88.8889H69.4444C70.9179 88.8889 72.3309 88.3035 73.3728 87.2617C74.4147 86.2198 75 84.8067 75 83.3333V16.6666C75 15.1932 74.4147 13.7801 73.3728 12.7383C72.3309 11.6964 70.9179 11.1111 69.4444 11.1111ZM52.7778 83.3333H47.2222V77.7777H52.7778V83.3333ZM30.5556 72.2222V16.6666H69.4444V72.2222H30.5556Z" fill="white"/>
</g>
<defs>
<clipPath id="clip0_260_10">
<rect width="100" height="100" fill="white"/>
</clipPath>
</defs>
</svg>
