<svg width="100" height="100" viewBox="0 0 100 100" fill="none" xmlns="http://www.w3.org/2000/svg">
<g clip-path="url(#clip0_261_13)">
<path d="M96.4284 50C96.4284 62.3136 91.5369 74.1229 82.8298 82.83C74.1228 91.537 62.3135 96.4286 49.9999 96.4286C37.6862 96.4286 25.8769 91.537 17.1699 82.83C8.46286 74.1229 3.57129 62.3136 3.57129 50M96.4284 50C96.4284 37.6864 91.5369 25.8771 82.8298 17.1701C74.1228 8.46301 62.3135 3.57144 49.9999 3.57144C37.6862 3.57144 25.8769 8.46301 17.1699 17.1701C8.46286 25.8771 3.57129 37.6864 3.57129 50M96.4284 50H3.57129" stroke="white" stroke-width="7.14286" stroke-linecap="round" stroke-linejoin="round"/>
<path d="M67.8569 50C66.9797 66.9785 60.726 83.2382 49.9997 96.4286C39.2734 83.2382 33.0197 66.9785 32.1426 50C33.0197 33.0215 39.2734 16.7618 49.9997 3.57144C60.726 16.7618 66.9797 33.0215 67.8569 50Z" stroke="white" stroke-width="7.14286" stroke-linecap="round" stroke-linejoin="round"/>
</g>
<defs>
<clipPath id="clip0_261_13">
<rect width="100" height="100" fill="white"/>
</clipPath>
</defs>
</svg>
