<svg viewBox="0 0 318.13 337.39" xmlns="http://www.w3.org/2000/svg"><path d="m295.38 133.12s-14.83-10-39.7-15.78a62.18 62.18 0 1 0 -68.88 0c-12 2.87-21 6.22-27.74 9.57-3.35-31.57-29.66-56.44-62.18-56.44a62.11 62.11 0 0 0 -34.44 113.83c-24.87 5.74-39.7 15.78-39.7 15.78-9.09 5.26-16.74 17.7-16.74 28.22v62.18a19.19 19.19 0 0 0 19.13 19.13h143.5a19.19 19.19 0 0 0 19.13-19.13v-47.83h105.24a19.19 19.19 0 0 0 19.13-19.13v-62.18c0-10.53-7.13-23.44-16.75-28.22z" fill="#e7e7e7"/><path d="m309.62 161.34v62.18a19.19 19.19 0 0 1 -19.13 19.13h-105.23v47.84a19.2 19.2 0 0 1 -19.15 19.13h-143.49a19.18 19.18 0 0 1 -19.13-19.13v-26.15c8 3.11 16.67 4.74 25.19 6.29 32.42 5.83 70.1 9.46 94.27-12.91 11.37-10.51 18.3-25.81 31.62-33.69s29.66-6.59 44.92-8.51c37.25-4.67 69.84-29.66 90.44-61a178.23 178.23 0 0 0 9.59-16.45c6.06 6.13 10.1 15.36 10.1 23.27z" fill="#ced0d0"/><path d="m168.63 318.13h-143.5a25.16 25.16 0 0 1 -25.13-25.13v-62.19c0-12.27 8.58-26.81 19.56-33.31 1.6-1.06 12.31-7.87 29.91-13.38a68.16 68.16 0 0 1 47.41-117.12 68.55 68.55 0 0 1 66.83 53.79q4.73-1.9 10.15-3.59a68.18 68.18 0 1 1 94.79 0c17.11 5.36 27.71 12 29.76 13.28 11.08 5.75 19.72 20.34 19.72 33.41v62.11a25.16 25.16 0 0 1 -25.13 25.16h-99.24v41.84a25.16 25.16 0 0 1 -25.13 25.13zm-71.75-239.13a56.25 56.25 0 0 0 -56.18 56.15 55.6 55.6 0 0 0 25 46.64l11.73 7.71-13.67 3.16c-23.31 5.34-37.52 14.81-37.66 14.9l-.35.22c-7.45 4.32-13.75 14.86-13.75 23.03v62.19a13.15 13.15 0 0 0 13.13 13.13h143.5a13.15 13.15 0 0 0 13.13-13.13v-53.84h111.24a13.15 13.15 0 0 0 13.13-13.16v-62.15c0-8.6-6.27-19.28-13.42-22.85l-.35-.18-.32-.22c-.22-.14-14.41-9.54-37.69-14.91l-13.67-3.16 11.73-7.71a55.59 55.59 0 0 0 25-46.64 56.18 56.18 0 1 0 -112.36 0 55.59 55.59 0 0 0 25 46.64l11.59 7.61-13.48 3.24a125.57 125.57 0 0 0 -26.46 9.1l-7.7 3.87-.91-8.6a56.67 56.67 0 0 0 -56.21-51.04z" fill="#426572"/><path d="m86.85 96.87a42.57 42.57 0 0 1 17-2.25c3.85.28 3.84-5.72 0-6a47 47 0 0 0 -18.59 2.46c-3.64 1.23-2.08 7 1.6 5.79z" fill="#fff"/><path d="m76.75 168.75a42.23 42.23 0 0 1 -17.17-30.13c-1.28-13.05 3.87-25 13.49-33.67 2.87-2.6-1.39-6.83-4.24-4.24-22.26 20.17-19.35 55.92 4.89 73.22 3.15 2.25 6.15-3 3-5.18z" fill="#fff"/><path d="m168.33 336.34s86.83-43.41 86.83-108.54v-86.8l-86.83-21.71-86.82 21.71v86.83c0 65.1 86.82 108.51 86.82 108.51z" fill="#a9ea9c"/><path d="m255.16 186.56v36.29c0 65.13-86.83 108.54-86.83 108.54s-86.82-43.39-86.82-108.53v-36.3c0 65.13 86.82 108.54 86.82 108.54s86.83-43.41 86.83-108.54z" fill="#91cd86"/><path d="m168.33 337.39-2.68-1.39a234.93 234.93 0 0 1 -44.65-30.65c-29.74-26-45.46-54.8-45.46-83.21v-91.51l92.83-23.21 92.83 23.21v91.51c0 28.41-15.72 57.18-45.46 83.21a234.93 234.93 0 0 1 -44.74 30.65zm-80.82-197.39v82.14c0 54.45 66.51 93.89 80.83 101.74 14.3-7.86 80.83-47.37 80.83-101.74v-82.14l-80.83-20.21z" fill="#426572"/><text fill="#fff" font-family="Dosis-ExtraBold, Dosis" font-size="155.97" font-weight="700" transform="translate(150.15 274.66)">!</text></svg>