<svg width="100" height="100" viewBox="0 0 100 100" fill="none" xmlns="http://www.w3.org/2000/svg">
<path d="M16.6668 87.5C14.3752 87.5 12.4141 86.6847 10.7835 85.0542C9.15294 83.4236 8.33627 81.4611 8.3335 79.1667V20.8333C8.3335 18.5417 9.15016 16.5806 10.7835 14.95C12.4168 13.3194 14.3779 12.5028 16.6668 12.5H75.0002C77.2918 12.5 79.2543 13.3167 80.8877 14.95C82.521 16.5833 83.3363 18.5444 83.3335 20.8333V29.1667H91.6668V37.5H83.3335V45.8333H91.6668V54.1667H83.3335V62.5H91.6668V70.8333H83.3335V79.1667C83.3335 81.4583 82.5182 83.4208 80.8877 85.0542C79.2571 86.6875 77.2946 87.5028 75.0002 87.5H16.6668ZM16.6668 79.1667H75.0002V20.8333H16.6668V79.1667ZM25.0002 70.8333H45.8335V54.1667H25.0002V70.8333ZM50.0002 41.6667H66.6668V29.1667H50.0002V41.6667ZM25.0002 50H45.8335V29.1667H25.0002V50ZM50.0002 70.8333H66.6668V45.8333H50.0002V70.8333Z" fill="#60A5FA"/>
</svg>
