<svg width="100" height="100" viewBox="0 0 100 100" fill="none" xmlns="http://www.w3.org/2000/svg">
<path d="M50 4.28711L48.9453 5.07422C36.6211 14.3379 24.4922 20.4102 5.97266 23.4961L4.50781 23.7305V25.2148C4.50781 28.9258 6.14844 34.7266 8.82422 41.8359C11.4805 48.9648 15.2305 57.2266 19.5703 65.1172C23.9258 73.0078 28.8281 80.5273 33.9844 86.1523C39.082 91.7969 44.4336 95.7031 50 95.7031C55.5664 95.7031 60.918 91.7969 66.0547 86.1523C71.1719 80.5273 76.0742 73.0078 80.4492 65.1172C84.7852 57.2266 88.5156 48.9648 91.1914 41.8359C93.8477 34.7266 95.4883 28.9258 95.4883 25.2148V23.7305L94.043 23.4961C75.5664 20.4102 63.3984 14.3379 51.0547 5.07422L50 4.28711ZM50 8.62305C61.9336 17.4199 74.2969 23.4961 91.875 26.6602C91.5039 29.6289 90.1172 34.7461 87.9102 40.625C87.1094 42.7344 86.2305 44.9609 85.2344 47.2656H56.25V37.7148L68.75 40.8398L50 18.9727L31.25 40.8398L43.75 37.7148V47.2656H14.7598C13.7832 44.9609 12.8867 42.7344 12.0859 40.625C9.89844 34.7461 8.49219 29.6289 8.12109 26.6602C25.7031 23.4961 38.0469 17.4199 50 8.62305Z" fill="#60A5FA"/>
</svg>
