<svg width="100" height="100" viewBox="0 0 100 100" fill="none" xmlns="http://www.w3.org/2000/svg">
<path d="M69.1281 30.8719C67.37 29.1143 64.9859 28.127 62.5 28.127C60.0141 28.127 57.6299 29.1143 55.8718 30.8719L54.4187 32.3219L58.8375 36.7406L60.2906 35.2906C60.88 34.7214 61.6694 34.4064 62.4887 34.4135C63.3081 34.4207 64.0919 34.7493 64.6713 35.3287C65.2507 35.9081 65.5793 36.6919 65.5865 37.5113C65.5936 38.3306 65.2786 39.12 64.7093 39.7094L54.4187 50L58.8375 54.4188L69.1281 44.1281C70.8856 42.3701 71.873 39.9859 71.873 37.5C71.873 35.0141 70.8856 32.63 69.1281 30.8719ZM39.7093 64.7094C39.12 65.2786 38.3306 65.5936 37.5112 65.5865C36.6919 65.5794 35.9081 65.2507 35.3287 64.6713C34.7493 64.0919 34.4206 63.3081 34.4135 62.4888C34.4064 61.6694 34.7214 60.88 35.2906 60.2906L45.5812 50L41.1625 45.5813L30.8718 55.8719C29.9764 56.7367 29.2622 57.7712 28.7709 58.915C28.2796 60.0588 28.0209 61.2889 28.0101 62.5337C27.9993 63.7786 28.2365 65.013 28.7079 66.1652C29.1793 67.3174 29.8754 68.3641 30.7556 69.2443C31.6359 70.1246 32.6826 70.8207 33.8348 71.2921C34.9869 71.7635 36.2214 72.0007 37.4662 71.9899C38.711 71.979 39.9412 71.7204 41.085 71.2291C42.2288 70.7378 43.2633 70.0235 44.1281 69.1281L45.5812 67.6781L41.1625 63.2594L39.7093 64.7094ZM44.1281 30.875C42.3528 29.2087 39.9988 28.2984 37.5643 28.3368C35.1297 28.3751 32.8056 29.3592 31.0837 31.0807C29.3618 32.8022 28.3772 35.1261 28.3383 37.5606C28.2993 39.9951 29.209 42.3493 30.875 44.125L32.325 45.5781L36.7437 41.1594L35.2937 39.7063C34.7245 39.1169 34.4095 38.3275 34.4166 37.5081C34.4237 36.6888 34.7524 35.905 35.3318 35.3256C35.9112 34.7462 36.695 34.4175 37.5143 34.4104C38.3337 34.4033 39.1231 34.7183 39.7125 35.2875L50 45.5813L54.4187 41.1625L44.1281 30.875Z" fill="white"/>
<path d="M69.1279 55.8719L67.6779 54.4188L63.2592 58.8375L64.7092 60.2906C65.2784 60.88 65.5934 61.6694 65.5863 62.4888C65.5792 63.3081 65.2505 64.0919 64.6711 64.6713C64.0917 65.2507 63.3079 65.5794 62.4886 65.5865C61.6692 65.5936 60.8798 65.2786 60.2904 64.7094L49.9998 54.4188L45.5811 58.8375L55.8717 69.1281C57.6398 70.8359 60.008 71.7808 62.4661 71.7595C64.9242 71.7381 67.2755 70.7521 69.0137 69.0139C70.7519 67.2757 71.7379 64.9244 71.7592 62.4663C71.7806 60.0082 70.8357 57.64 69.1279 55.8719Z" fill="white"/>
<path d="M50 96.875C49.4466 96.8753 48.9031 96.7286 48.425 96.45L10.925 74.575C10.4532 74.2997 10.0618 73.9055 9.78983 73.4318C9.51787 72.958 9.37484 72.4213 9.375 71.875V28.125C9.37484 27.5788 9.51787 27.042 9.78983 26.5682C10.0618 26.0945 10.4532 25.7003 10.925 25.425L48.425 3.55001C48.903 3.27107 49.4465 3.12408 50 3.12408C50.5535 3.12408 51.097 3.27107 51.575 3.55001L89.075 25.425L85.925 30.825L50 9.86876L15.625 29.9188V70.0813L50 90.1344L84.375 70.0813V46.875H90.625V71.875C90.6252 72.4213 90.4821 72.958 90.2102 73.4318C89.9382 73.9055 89.5468 74.2997 89.075 74.575L51.575 96.45C51.0969 96.7286 50.5534 96.8753 50 96.875Z" fill="white"/>
</svg>
