<svg width="99" height="99" viewBox="0 0 99 99" fill="none" xmlns="http://www.w3.org/2000/svg">
<path d="M13.6797 0C6.16112 0 4.94749e-09 6.16161 0 13.6801C4.94748e-09 21.1987 6.16112 27.3598 13.6797 27.3598C14.9594 27.3598 16.1983 27.1771 17.3757 26.8438L20.7016 32.4279C13.311 37.882 8.50425 46.6489 8.50425 56.5101C8.50425 72.9951 21.9343 86.4252 38.4194 86.4252C46.9711 86.4252 54.6993 82.8099 60.1583 77.0301L65.2197 80.8498C64.741 82.2385 64.4771 83.7245 64.4771 85.2695C64.4771 92.7881 70.6382 98.9497 78.1568 98.9497C85.6753 98.9497 91.8369 92.7881 91.8369 85.2695C91.8369 77.751 85.6753 71.5899 78.1568 71.5899C74.4075 71.5899 70.9961 73.1223 68.5176 75.5908L63.922 72.1223C66.7185 67.5735 68.334 62.2259 68.334 56.5101C68.334 51.7 67.1888 47.151 65.1598 43.1189L76.5319 34.7866C78.8602 36.6193 81.7882 37.7193 84.9603 37.7193C92.4789 37.7193 98.64 31.5582 98.64 24.0396C98.64 16.5211 92.4789 10.3595 84.9603 10.3595C77.4418 10.3595 71.2802 16.5211 71.2802 24.0396C71.2802 26.1604 71.7705 28.1728 72.6431 29.9697L61.8179 37.901C56.3307 31.0174 47.8785 26.595 38.4194 26.595C34.0034 26.595 29.8073 27.5596 26.0292 29.2875L22.7931 23.8541C25.5904 21.344 27.3593 17.7075 27.3593 13.6801C27.3593 6.16161 21.1982 0 13.6797 0ZM13.6797 6.1842C17.856 6.1842 21.1751 9.5038 21.1751 13.6801C21.1751 17.8565 17.856 21.1756 13.6797 21.1756C9.50331 21.1756 6.1842 17.8565 6.1842 13.6801C6.1842 9.5038 9.50331 6.1842 13.6797 6.1842ZM84.9603 16.5437C89.1367 16.5437 92.4558 19.8633 92.4558 24.0396C92.4558 28.216 89.1367 31.5351 84.9603 31.5351C80.784 31.5351 77.4644 28.216 77.4644 24.0396C77.4644 19.8633 80.784 16.5437 84.9603 16.5437ZM38.4194 32.7792C51.5622 32.7792 62.1498 43.3673 62.1498 56.5101C62.1498 69.6529 51.5622 80.241 38.4194 80.241C25.2765 80.241 14.6885 69.6529 14.6885 56.5101C14.6885 43.3673 25.2765 32.7792 38.4194 32.7792ZM38.214 39.0247C31.9201 38.9258 26.9187 46.2487 29.4474 52.0526C30.1635 53.9135 31.4915 55.5206 33.1459 56.6256C27.4499 59.1267 24.0665 65.399 24.1571 71.486C24.1425 72.6748 24.0306 73.8988 25.1712 73.8636C33.662 73.6908 44.0137 73.9008 52.5054 73.8447C53.6162 67.0878 50.2268 59.4884 43.8199 56.6463C48.3107 53.6746 49.5898 46.6593 45.8844 42.5686C44.0317 40.319 41.1371 38.9451 38.214 39.0247ZM38.3759 44.8761C38.5072 44.8743 38.6402 44.8803 38.774 44.8944C41.9964 45.042 43.5178 49.9828 40.6297 51.714C38.3514 53.3331 34.4574 51.655 34.7224 48.6513C34.7518 46.671 36.4055 44.9033 38.3759 44.8761ZM38.6242 61.3976C42.3166 61.4561 45.4253 64.5608 46.3545 67.9605C41.0907 67.955 35.8268 67.9751 30.563 67.9456C31.5333 64.5399 34.5536 61.4345 38.2653 61.4014C38.3855 61.3969 38.5051 61.3957 38.6242 61.3976ZM78.1568 77.7741C82.3331 77.7741 85.6527 81.0932 85.6527 85.2695C85.6527 89.4459 82.3331 92.7655 78.1568 92.7655C73.9804 92.7655 70.6613 89.4459 70.6613 85.2695C70.6613 81.0932 73.9804 77.7741 78.1568 77.7741Z" fill="white"/>
</svg>
