<svg width="8" height="31" viewBox="0 0 8 31" fill="none" xmlns="http://www.w3.org/2000/svg">
<path d="M0.257812 27.2492C0.257812 26.7568 0.354809 26.2691 0.543264 25.8142C0.731719 25.3592 1.00794 24.9458 1.35616 24.5976C1.70438 24.2493 2.11778 23.9731 2.57275 23.7847C3.02772 23.5962 3.51536 23.4992 4.00781 23.4992C4.50027 23.4992 4.98791 23.5962 5.44288 23.7847C5.89785 23.9731 6.31124 24.2493 6.65946 24.5976C7.00768 24.9458 7.28391 25.3592 7.47236 25.8142C7.66082 26.2691 7.75781 26.7568 7.75781 27.2492C7.75781 28.2438 7.36273 29.1976 6.65946 29.9009C5.9562 30.6041 5.00238 30.9992 4.00781 30.9992C3.01325 30.9992 2.05942 30.6041 1.35616 29.9009C0.652901 29.1976 0.257812 28.2438 0.257812 27.2492V27.2492ZM0.625313 4.73047C0.575375 4.25737 0.625459 3.77906 0.772314 3.32657C0.919169 2.87408 1.15952 2.45752 1.47776 2.10392C1.796 1.75032 2.18503 1.46757 2.61961 1.27403C3.05418 1.08048 3.52459 0.980469 4.00031 0.980469C4.47604 0.980469 4.94645 1.08048 5.38102 1.27403C5.8156 1.46757 6.20462 1.75032 6.52287 2.10392C6.84111 2.45752 7.08146 2.87408 7.22831 3.32657C7.37517 3.77906 7.42525 4.25737 7.37531 4.73047L6.06282 17.8817C6.01872 18.3984 5.78232 18.8796 5.4004 19.2304C5.01847 19.5811 4.51884 19.7757 4.00031 19.7757C3.48179 19.7757 2.98215 19.5811 2.60023 19.2304C2.21831 18.8796 1.98191 18.3984 1.93781 17.8817L0.625313 4.73047Z" fill="#3B82F6"/>
</svg>
