<svg width="100" height="100" viewBox="0 0 100 100" fill="none" xmlns="http://www.w3.org/2000/svg">
<g clip-path="url(#clip0_263_60)">
<path d="M20.6542 42.6042C20.6564 38.8465 22.1492 35.2431 24.8052 32.5848C27.4611 29.9266 31.0631 28.4305 34.8208 28.425C38.5796 28.4294 42.1832 29.9248 44.8407 32.5831C47.4982 35.2414 48.9925 38.8454 48.9958 42.6042C49.0154 43.292 48.8968 43.9767 48.6472 44.6179C48.3975 45.2591 48.0217 45.8437 47.5421 46.3371C47.0626 46.8305 46.4889 47.2227 45.8551 47.4906C45.2213 47.7584 44.5402 47.8964 43.8521 47.8964C43.164 47.8964 42.4829 47.7584 41.8491 47.4906C41.2153 47.2227 40.6416 46.8305 40.162 46.3371C39.6824 45.8437 39.3067 45.2591 39.057 44.6179C38.8073 43.9767 38.6888 43.292 38.7083 42.6042C38.7083 41.5737 38.299 40.5854 37.5703 39.8568C36.8417 39.1281 35.8534 38.7188 34.8229 38.7188C33.7924 38.7188 32.8042 39.1281 32.0755 39.8568C31.3469 40.5854 30.9375 41.5737 30.9375 42.6042C30.9375 43.9678 30.3958 45.2756 29.4315 46.2399C28.4673 47.2041 27.1595 47.7458 25.7958 47.7458C24.4322 47.7458 23.1244 47.2041 22.1601 46.2399C21.1959 45.2756 20.6542 43.9678 20.6542 42.6042ZM79.3458 66.425C79.3458 69.275 77.0458 71.575 74.2042 71.575H26.4875C25.8116 71.575 25.1423 71.4417 24.5179 71.1828C23.8936 70.9239 23.3264 70.5444 22.8488 70.0661C22.3713 69.5878 21.9927 69.02 21.7348 68.3952C21.4769 67.7704 21.3447 67.1009 21.3458 66.425C21.3458 63.575 23.65 61.2708 26.4875 61.2708H74.2083C77.05 61.2708 79.35 63.575 79.35 66.425M57.0583 45.4875C56.2957 44.3563 56.0134 42.9686 56.2736 41.6294C56.5338 40.2902 57.3151 39.1091 58.4458 38.3458L70.3708 30.2917C70.9289 29.9097 71.5571 29.6419 72.2192 29.5038C72.8812 29.3657 73.5641 29.36 74.2283 29.4871C74.8926 29.6141 75.5251 29.8714 76.0895 30.244C76.6539 30.6167 77.1389 31.0974 77.5167 31.6583C77.8947 32.2188 78.1587 32.8483 78.2933 33.5109C78.428 34.1734 78.4308 34.856 78.3016 35.5196C78.1723 36.1832 77.9136 36.8149 77.5401 37.3785C77.1666 37.9421 76.6858 38.4265 76.125 38.8042L64.2 46.8583C63.0705 47.6239 61.6833 47.9096 60.3432 47.6525C59.0032 47.3955 57.8201 46.6167 57.0542 45.4875M89.7167 77.1625C89.7169 77.6446 89.6221 78.122 89.4377 78.5675C89.2532 79.0129 88.9827 79.4176 88.6417 79.7583L79.775 88.6208C79.4342 88.9619 79.0296 89.2324 78.5841 89.4168C78.1387 89.6013 77.6613 89.6961 77.1792 89.6958H22.8208C22.3387 89.6961 21.8613 89.6013 21.4159 89.4168C20.9704 89.2324 20.5658 88.9619 20.225 88.6208L11.3583 79.7583C11.0173 79.4176 10.7468 79.0129 10.5623 78.5675C10.3779 78.122 10.2831 77.6446 10.2833 77.1625V22.8417C10.2831 22.3596 10.3779 21.8821 10.5623 21.4367C10.7468 20.9913 11.0173 20.5866 11.3583 20.2458L20.225 11.3792C20.5658 11.0381 20.9704 10.7676 21.4159 10.5832C21.8613 10.3987 22.3387 10.3039 22.8208 10.3042H77.1792C77.6613 10.3039 78.1387 10.3987 78.5841 10.5832C79.0296 10.7676 79.4342 11.0381 79.775 11.3792L88.6417 20.2458C88.9827 20.5866 89.2532 20.9913 89.4377 21.4367C89.6221 21.8821 89.7169 22.3596 89.7167 22.8417V77.1625ZM97.2583 14.3167L85.6875 2.74167C83.9317 0.988106 81.5523 0.00218453 79.0708 0L20.925 0C18.4435 0.00218453 16.0641 0.988106 14.3083 2.74167L2.7375 14.3167C0.986485 16.0721 0.00218064 18.4497 0 20.9292L0 79.075C0 81.5542 0.9875 83.9333 2.74167 85.6875L14.3167 97.2625C16.0667 99.0125 18.4458 100 20.9292 100H79.0708C81.5517 99.9989 83.931 99.0145 85.6875 97.2625L97.2625 85.6875C98.1319 84.8191 98.8213 83.7876 99.291 82.6521C99.7608 81.5167 100.002 80.2996 100 79.0708V20.9292C99.9978 18.4497 99.0135 16.0721 97.2625 14.3167" fill="#1D4ED8"/>
</g>
<defs>
<clipPath id="clip0_263_60">
<rect width="100" height="100" fill="white"/>
</clipPath>
</defs>
</svg>
