<svg width="100" height="100" viewBox="0 0 100 100" fill="none" xmlns="http://www.w3.org/2000/svg">
<path d="M20.8335 66.6667L41.6668 54.1667M58.3335 45.8333L79.1668 33.3333M50.0002 20.8333V41.6667M50.0002 58.3333V79.1667M20.8335 33.3333L41.6668 45.8333M58.3335 54.1667L79.1668 66.6667M85.4168 37.5V60.4167M56.2502 85.4167L79.1668 72.9167M18.7502 72.9167L43.7502 85.4167M14.5835 62.5V37.5M18.7502 27.0833L43.7502 14.5833M81.2502 27.0833L56.2502 14.5833" stroke="#7CD7FB" stroke-width="6.25" stroke-linecap="round" stroke-linejoin="round"/>
<path d="M50 20.8333C53.4518 20.8333 56.25 18.0351 56.25 14.5833C56.25 11.1316 53.4518 8.33334 50 8.33334C46.5482 8.33334 43.75 11.1316 43.75 14.5833C43.75 18.0351 46.5482 20.8333 50 20.8333Z" stroke="#7CD7FB" stroke-width="6.25" stroke-linecap="round" stroke-linejoin="round"/>
<path d="M50 91.6667C53.4518 91.6667 56.25 88.8684 56.25 85.4167C56.25 81.9649 53.4518 79.1667 50 79.1667C46.5482 79.1667 43.75 81.9649 43.75 85.4167C43.75 88.8684 46.5482 91.6667 50 91.6667Z" stroke="#7CD7FB" stroke-width="6.25" stroke-linecap="round" stroke-linejoin="round"/>
<path d="M14.5835 37.5C18.0353 37.5 20.8335 34.7018 20.8335 31.25C20.8335 27.7982 18.0353 25 14.5835 25C11.1317 25 8.3335 27.7982 8.3335 31.25C8.3335 34.7018 11.1317 37.5 14.5835 37.5Z" stroke="#7CD7FB" stroke-width="6.25" stroke-linecap="round" stroke-linejoin="round"/>
<path d="M85.417 37.5C88.8688 37.5 91.667 34.7018 91.667 31.25C91.667 27.7982 88.8688 25 85.417 25C81.9652 25 79.167 27.7982 79.167 31.25C79.167 34.7018 81.9652 37.5 85.417 37.5Z" stroke="#7CD7FB" stroke-width="6.25" stroke-linecap="round" stroke-linejoin="round"/>
<path d="M85.417 75C88.8688 75 91.667 72.2018 91.667 68.75C91.667 65.2982 88.8688 62.5 85.417 62.5C81.9652 62.5 79.167 65.2982 79.167 68.75C79.167 72.2018 81.9652 75 85.417 75Z" stroke="#7CD7FB" stroke-width="6.25" stroke-linecap="round" stroke-linejoin="round"/>
<path d="M14.5835 75C18.0353 75 20.8335 72.2018 20.8335 68.75C20.8335 65.2982 18.0353 62.5 14.5835 62.5C11.1317 62.5 8.3335 65.2982 8.3335 68.75C8.3335 72.2018 11.1317 75 14.5835 75Z" stroke="#7CD7FB" stroke-width="6.25" stroke-linecap="round" stroke-linejoin="round"/>
<path d="M50.0003 40.625L58.3337 45.3125V54.6875L50.0003 59.375L41.667 54.6875V45.3125L50.0003 40.625Z" stroke="#7CD7FB" stroke-width="6.25" stroke-linecap="round" stroke-linejoin="round"/>
</svg>
