<svg width="60" height="60" viewBox="0 0 60 60" fill="none" xmlns="http://www.w3.org/2000/svg">
<g clip-path="url(#clip0_2950_6666)">
<path d="M30.8827 5.84695C30.6114 5.7025 30.3088 5.62695 30.0014 5.62695C29.6941 5.62695 29.3914 5.7025 29.1202 5.84695L0.995157 20.847C0.695636 21.007 0.4452 21.2454 0.270589 21.5366C0.0959789 21.8279 0.00375 22.1611 0.00375 22.5007C0.00375 22.8403 0.0959789 23.1735 0.270589 23.4648C0.4452 23.756 0.695636 23.9944 0.995157 24.1545L11.9564 30.0007L0.991407 35.847C0.691886 36.007 0.44145 36.2454 0.266839 36.5366C0.0922289 36.8279 0 37.1611 0 37.5007C0 37.8403 0.0922289 38.1735 0.266839 38.4648C0.44145 38.756 0.691886 38.9944 0.991407 39.1545L29.1164 54.1544C29.3877 54.2989 29.6903 54.3745 29.9977 54.3745C30.305 54.3745 30.6076 54.2989 30.8789 54.1544L59.0039 39.1545C59.3034 38.9944 59.5539 38.756 59.7285 38.4648C59.9031 38.1735 59.9953 37.8403 59.9953 37.5007C59.9953 37.1611 59.9031 36.8279 59.7285 36.5366C59.5539 36.2454 59.3034 36.007 59.0039 35.847L48.0502 30.0007L59.0077 24.1545C59.3072 23.9944 59.5576 23.756 59.7322 23.4648C59.9068 23.1735 59.9991 22.8403 59.9991 22.5007C59.9991 22.1611 59.9068 21.8279 59.7322 21.5366C59.5576 21.2454 59.3072 21.007 59.0077 20.847L30.8827 5.84695V5.84695ZM44.0639 32.127L54.1439 37.5007L30.0014 50.3744L5.85891 37.5007L15.9389 32.127L29.1202 39.1545C29.3914 39.2989 29.6941 39.3745 30.0014 39.3745C30.3088 39.3745 30.6114 39.2989 30.8827 39.1545L44.0639 32.127V32.127ZM30.0014 35.3744L5.85891 22.5007L30.0014 9.62695L54.1439 22.5007L30.0014 35.3744Z" fill="#3B82F6"/>
</g>
<defs>
<clipPath id="clip0_2950_6666">
<rect width="60" height="60" fill="white"/>
</clipPath>
</defs>
</svg>
