<svg width="100" height="100" viewBox="0 0 100 100" fill="none" xmlns="http://www.w3.org/2000/svg">
<path d="M50.0002 91.6667C44.2363 91.6667 38.8196 90.5722 33.7502 88.3833C28.6807 86.1945 24.271 83.2264 20.521 79.4792C16.771 75.732 13.8029 71.3222 11.6168 66.25C9.43072 61.1778 8.33628 55.7611 8.3335 50C8.33072 44.2389 9.42517 38.8222 11.6168 33.75C13.8085 28.6778 16.7766 24.2681 20.521 20.5208C24.2654 16.7736 28.6752 13.8056 33.7502 11.6167C38.8252 9.42779 44.2418 8.33334 50.0002 8.33334C60.1391 8.33334 69.0113 11.5111 76.6168 17.8667C84.2224 24.2222 88.9613 32.1903 90.8335 41.7708H82.2918C80.9724 36.7014 78.5932 32.1708 75.1543 28.1792C71.7154 24.1875 67.4974 21.1833 62.5002 19.1667V20.8333C62.5002 23.125 61.6849 25.0875 60.0543 26.7208C58.4238 28.3542 56.4613 29.1695 54.1668 29.1667H45.8335V37.5C45.8335 38.6806 45.4335 39.6708 44.6335 40.4708C43.8335 41.2708 42.8446 41.6695 41.6668 41.6667H33.3335V50H41.6668V62.5H37.5002L17.5002 42.5C17.2918 43.75 17.1016 45 16.9293 46.25C16.7571 47.5 16.6696 48.75 16.6668 50C16.6668 59.0972 19.8613 66.9097 26.2502 73.4375C32.6391 79.9653 40.5557 83.2639 50.0002 83.3333V91.6667ZM87.9168 89.5833L74.5835 76.25C73.1252 77.0833 71.5627 77.7778 69.896 78.3333C68.2293 78.8889 66.4585 79.1667 64.5835 79.1667C59.3752 79.1667 54.9488 77.3445 51.3043 73.7C47.6599 70.0556 45.8363 65.6278 45.8335 60.4167C45.8307 55.2056 47.6543 50.7792 51.3043 47.1375C54.9543 43.4958 59.3807 41.6722 64.5835 41.6667C69.7863 41.6611 74.2141 43.4847 77.8668 47.1375C81.5196 50.7903 83.3418 55.2167 83.3335 60.4167C83.3335 62.2917 83.0557 64.0625 82.5002 65.7292C81.9446 67.3958 81.2502 68.9583 80.4168 70.4167L93.7502 83.75L87.9168 89.5833ZM64.5835 70.8333C67.5002 70.8333 69.9654 69.8264 71.9793 67.8125C73.9932 65.7986 75.0002 63.3333 75.0002 60.4167C75.0002 57.5 73.9932 55.0347 71.9793 53.0208C69.9654 51.007 67.5002 50 64.5835 50C61.6668 50 59.2016 51.007 57.1877 53.0208C55.1738 55.0347 54.1668 57.5 54.1668 60.4167C54.1668 63.3333 55.1738 65.7986 57.1877 67.8125C59.2016 69.8264 61.6668 70.8333 64.5835 70.8333Z" fill="#1D4ED8"/>
</svg>
