<svg xmlns="http://www.w3.org/2000/svg" width="441" height="441" viewBox="0 0 441 441" fill="none"><g clip-path="url(#clip0_7367_1569)"><path d="M203.785 341.884L222.495 203.807M203.785 341.884L323.527 189.587M203.785 341.884L113.23 119.613M222.495 203.807L323.527 189.587M222.495 203.807L113.23 119.613M222.495 203.807L285.734 149.923M323.527 189.587L285.734 149.923M113.23 119.613L285.734 149.923" stroke="#FF2828" stroke-width="8"></path></g><g filter="url(#filter0_dd_7367_1569)"><path fill-rule="evenodd" clip-rule="evenodd" d="M220.5 409C324.606 409 409 324.606 409 220.5C409 116.394 324.606 32 220.5 32C116.394 32 32 116.394 32 220.5C32 324.606 116.394 409 220.5 409ZM220.5 411C325.71 411 411 325.71 411 220.5C411 115.29 325.71 30 220.5 30C115.29 30 30 115.29 30 220.5C30 325.71 115.29 411 220.5 411Z" fill="url(#paint0_linear_7367_1569)"></path><path fill-rule="evenodd" clip-rule="evenodd" d="M220.5 409C324.606 409 409 324.606 409 220.5C409 116.394 324.606 32 220.5 32C116.394 32 32 116.394 32 220.5C32 324.606 116.394 409 220.5 409ZM220.5 411C325.71 411 411 325.71 411 220.5C411 115.29 325.71 30 220.5 30C115.29 30 30 115.29 30 220.5C30 325.71 115.29 411 220.5 411Z" fill="url(#paint1_linear_7367_1569)"></path></g><defs><filter id="filter0_dd_7367_1569" x="0" y="0" width="441" height="441" filterUnits="userSpaceOnUse" color-interpolation-filters="sRGB"><feGaussianBlur stdDeviation="15"></feGaussianBlur><feGaussianBlur stdDeviation="5"></feGaussianBlur></filter><linearGradient id="paint0_linear_7367_1569" x1="90" y1="79" x2="476" y2="423.5" gradientUnits="userSpaceOnUse"><stop stop-color="white"></stop><stop offset="1" stop-color="#E40000" stop-opacity="0"></stop></linearGradient><linearGradient id="paint1_linear_7367_1569" x1="90" y1="79" x2="476" y2="423.5" gradientUnits="userSpaceOnUse"><stop stop-color="white"></stop><stop offset="1" stop-color="#E40000" stop-opacity="0"></stop></linearGradient><clipPath id="clip0_7367_1569"><rect width="232" height="232" fill="white" transform="translate(105 114)"></rect></clipPath></defs></svg>