<svg width="117" height="117" viewBox="0 0 117 117" fill="none" xmlns="http://www.w3.org/2000/svg">
<rect x="2.47173" y="2.47173" width="111.847" height="111.847" rx="55.9233" fill="#3A0606" fill-opacity="0.97" stroke="url(#paint0_linear_1_40)" stroke-width="4.94347"/>
<g filter="url(#filter0_di_1_40)">
<path d="M62.9182 74.6616C62.3019 73.0302 61.7218 71.4352 61.1781 69.8763C60.6343 68.2812 60.0724 66.668 59.4923 65.0367H42.4176L38.9918 74.6616H33.4996C34.9497 70.6739 36.3091 66.9943 37.5779 63.6228C38.8468 60.2151 40.0793 56.9887 41.2757 53.9435C42.5082 50.8983 43.7227 47.9982 44.919 45.243C46.1153 42.4516 47.366 39.6964 48.6711 36.9775H53.5107C54.8158 39.6964 56.0665 42.4516 57.2628 45.243C58.4592 47.9982 59.6555 50.8983 60.8518 53.9435C62.0844 56.9887 63.3351 60.2151 64.6039 63.6228C65.8727 66.9943 67.2322 70.6739 68.6822 74.6616H62.9182ZM57.9697 60.6864C56.8097 57.5325 55.6496 54.4873 54.4895 51.5509C53.3657 48.5782 52.1875 45.7324 50.955 43.0135C49.6861 45.7324 48.4717 48.5782 47.3116 51.5509C46.1878 54.4873 45.064 57.5325 43.9402 60.6864H57.9697ZM73.7985 36.9775H79.0731V74.6616H73.7985V36.9775Z" fill="url(#paint1_linear_1_40)"/>
</g>
<defs>
<filter id="filter0_di_1_40" x="29.2976" y="33.2699" width="53.9774" height="46.0879" filterUnits="userSpaceOnUse" color-interpolation-filters="sRGB">
<feFlood flood-opacity="0" result="BackgroundImageFix"/>
<feColorMatrix in="SourceAlpha" type="matrix" values="0 0 0 0 0 0 0 0 0 0 0 0 0 0 0 0 0 0 127 0" result="hardAlpha"/>
<feOffset dy="0.494347"/>
<feGaussianBlur stdDeviation="2.10097"/>
<feColorMatrix type="matrix" values="0 0 0 0 0 0 0 0 0 0 0 0 0 0 0 0 0 0 0.3 0"/>
<feBlend mode="normal" in2="BackgroundImageFix" result="effect1_dropShadow_1_40"/>
<feBlend mode="normal" in="SourceGraphic" in2="effect1_dropShadow_1_40" result="shape"/>
<feColorMatrix in="SourceAlpha" type="matrix" values="0 0 0 0 0 0 0 0 0 0 0 0 0 0 0 0 0 0 127 0" result="hardAlpha"/>
<feOffset dx="0.865107" dy="0.494347"/>
<feGaussianBlur stdDeviation="0.55614"/>
<feComposite in2="hardAlpha" operator="arithmetic" k2="-1" k3="1"/>
<feColorMatrix type="matrix" values="0 0 0 0 1 0 0 0 0 1 0 0 0 0 1 0 0 0 0.15 0"/>
<feBlend mode="normal" in2="shape" result="effect2_innerShadow_1_40"/>
</filter>
<linearGradient id="paint0_linear_1_40" x1="0" y1="0" x2="116.79" y2="116.79" gradientUnits="userSpaceOnUse">
<stop stop-color="#FFB670"/>
<stop offset="1" stop-color="#EB7206"/>
</linearGradient>
<linearGradient id="paint1_linear_1_40" x1="0" y1="21.6616" x2="55.8433" y2="121.288" gradientUnits="userSpaceOnUse">
<stop stop-color="#FFB670"/>
<stop offset="1" stop-color="#EB7206"/>
</linearGradient>
</defs>
</svg>
