<svg width="117" height="117" viewBox="0 0 117 117" fill="none" xmlns="http://www.w3.org/2000/svg">
<path d="M116.79 58.395C116.79 90.6457 90.6457 116.79 58.395 116.79C26.1443 116.79 0 90.6457 0 58.395C0 26.1443 26.1443 0 58.395 0C90.6457 0 116.79 26.1443 116.79 58.395Z" fill="#FD5BF0"/>
<path d="M109.947 58.3949C109.947 86.8662 86.8663 109.947 58.395 109.947C29.9237 109.947 6.8432 86.8662 6.8432 58.3949C6.8432 29.9236 29.9237 6.84305 58.395 6.84305C86.8663 6.84305 109.947 29.9236 109.947 58.3949Z" fill="#3E032F"/>
<path d="M33.4086 41.4239L43.0986 55.8767L52.7337 41.4239H60.8908L47.0402 61.1322L60.4528 80.2931H52.2958L43.0986 66.3878L33.8468 80.2931H25.635L39.0476 61.1322L25.1968 41.4239H33.4086Z" fill="#FD5BF0"/>
<path d="M74.3033 80.8407C65.8811 80.8407 60.6714 73.8207 60.6714 65.95C60.6714 57.0264 66.6795 51.1139 73.4819 51.1139C79.2443 51.1139 82.2222 55.0009 83.1715 56.6432V40.3291H90.5074V71.8625C90.5074 72.6289 91.5836 74.0162 92.2045 74.0523V80.2933C90.9264 80.5483 89.8863 80.6765 89.0838 80.6765C83.787 80.6765 84.2665 75.3114 84.2665 75.3114C83.2078 77.137 80.0522 80.8407 74.3033 80.8407ZM76.2193 74.5997C80.8223 74.5997 82.9161 70.4758 83.1718 69.7821V62.939C82.8793 62.1365 80.2518 57.3549 75.7814 57.3549C70.7856 57.3549 68.2813 62.311 68.2813 66.1142C68.2813 70.2947 71.3557 74.5997 76.2193 74.5997Z" fill="#FD5BF0"/>
<path d="M58.395 41.4239V44.9753L60.8907 41.4239H58.395Z" fill="#FD5BF0"/>
<path d="M58.395 80.2928H60.4528L58.395 77.3529V80.2928Z" fill="#FD5BF0"/>
</svg>
