<svg width="117" height="117" viewBox="0 0 117 117" fill="none" xmlns="http://www.w3.org/2000/svg">
<rect x="2.47173" y="2.47173" width="111.847" height="111.847" rx="55.9233" fill="#1E003F" fill-opacity="0.97" stroke="url(#paint0_linear_1_43)" stroke-width="4.94347"/>
<g filter="url(#filter0_i_1_43)">
<path d="M55.3774 74.6616C54.7612 73.0302 54.1811 71.4352 53.6373 69.8763C53.0936 68.2812 52.5317 66.668 51.9516 65.0367H34.8769L31.4511 74.6616H25.9589C27.409 70.6739 28.7684 66.9943 30.0372 63.6228C31.3061 60.2151 32.5386 56.9887 33.7349 53.9435C34.9675 50.8983 36.182 47.9982 37.3783 45.243C38.5746 42.4516 39.8253 39.6964 41.1304 36.9775H45.97C47.2751 39.6964 48.5258 42.4516 49.7221 45.243C50.9184 47.9982 52.1148 50.8983 53.3111 53.9435C54.5436 56.9887 55.7943 60.2151 57.0632 63.6228C58.332 66.9943 59.6914 70.6739 61.1415 74.6616H55.3774ZM50.429 60.6864C49.269 57.5325 48.1089 54.4873 46.9488 51.5509C45.825 48.5782 44.6468 45.7324 43.4143 43.0135C42.1454 45.7324 40.931 48.5782 39.7709 51.5509C38.6471 54.4873 37.5233 57.5325 36.3995 60.6864H50.429ZM63.6642 60.5777C63.6642 58.0763 64.0267 55.9011 64.7517 54.0523C65.4768 52.1672 66.4374 50.6083 67.6338 49.3758C68.8301 48.1432 70.2077 47.2188 71.7665 46.6025C73.3253 45.9862 74.9204 45.678 76.5518 45.678C80.3582 45.678 83.2765 46.8744 85.3067 49.267C87.3368 51.6234 88.3518 55.2305 88.3518 60.0882C88.3518 60.3058 88.3518 60.5958 88.3518 60.9583C88.3518 61.2846 88.3337 61.5927 88.2975 61.8827H68.9388C69.1564 64.8191 70.0083 67.0487 71.4946 68.5712C72.9809 70.0938 75.3011 70.8551 78.455 70.8551C80.2314 70.8551 81.7177 70.7101 82.914 70.4201C84.1466 70.0938 85.071 69.7857 85.6873 69.4957L86.3942 73.7372C85.7779 74.0634 84.6904 74.4078 83.1315 74.7703C81.6089 75.1329 79.8688 75.3141 77.9112 75.3141C75.4461 75.3141 73.3072 74.9516 71.4946 74.2266C69.7183 73.4653 68.25 72.4321 67.09 71.127C65.9299 69.8219 65.0599 68.2812 64.4798 66.5049C63.936 64.6923 63.6642 62.7165 63.6642 60.5777ZM83.0772 57.8044C83.1134 55.5205 82.5334 53.6535 81.3371 52.2034C80.177 50.7171 78.5638 49.9739 76.4974 49.9739C75.3373 49.9739 74.3041 50.2096 73.3978 50.6808C72.5278 51.1159 71.7846 51.6959 71.1683 52.4209C70.5521 53.146 70.0627 53.9798 69.7001 54.9223C69.3739 55.8649 69.1564 56.8256 69.0476 57.8044H83.0772Z" fill="url(#paint1_linear_1_43)"/>
</g>
<defs>
<filter id="filter0_i_1_43" x="25.9589" y="36.9775" width="63.2581" height="38.8309" filterUnits="userSpaceOnUse" color-interpolation-filters="sRGB">
<feFlood flood-opacity="0" result="BackgroundImageFix"/>
<feBlend mode="normal" in="SourceGraphic" in2="BackgroundImageFix" result="shape"/>
<feColorMatrix in="SourceAlpha" type="matrix" values="0 0 0 0 0 0 0 0 0 0 0 0 0 0 0 0 0 0 127 0" result="hardAlpha"/>
<feOffset dx="0.865107" dy="0.494347"/>
<feGaussianBlur stdDeviation="0.55614"/>
<feComposite in2="hardAlpha" operator="arithmetic" k2="-1" k3="1"/>
<feColorMatrix type="matrix" values="0 0 0 0 1 0 0 0 0 1 0 0 0 0 1 0 0 0 0.15 0"/>
<feBlend mode="normal" in2="shape" result="effect1_innerShadow_1_43"/>
</filter>
<linearGradient id="paint0_linear_1_43" x1="0" y1="0" x2="116.79" y2="116.79" gradientUnits="userSpaceOnUse">
<stop stop-color="#CF9DFE"/>
<stop offset="0.71875" stop-color="#934AD7"/>
<stop offset="1" stop-color="#7C35BC"/>
</linearGradient>
<linearGradient id="paint1_linear_1_43" x1="0" y1="21.6616" x2="55.8433" y2="121.288" gradientUnits="userSpaceOnUse">
<stop stop-color="#CF9DFE"/>
<stop offset="0.71875" stop-color="#934AD7"/>
<stop offset="1" stop-color="#7C35BC"/>
</linearGradient>
</defs>
</svg>
