<svg width="117" height="117" viewBox="0 0 117 117" fill="none" xmlns="http://www.w3.org/2000/svg">
<rect x="2.63744" y="2.63744" width="111.515" height="111.515" rx="55.7573" fill="#03192C" fill-opacity="0.97" stroke="url(#paint0_linear_1_46)" stroke-width="5.27487"/>
<g filter="url(#filter0_i_1_46)">
<path d="M44.5244 36.417C49.8172 36.417 53.8775 37.432 56.7051 39.4622C59.569 41.456 61.001 44.4468 61.001 48.4346C61.001 50.6097 60.6022 52.4767 59.8047 54.0355C59.0434 55.5581 57.9196 56.8088 56.4332 57.7876C54.9832 58.7302 53.2068 59.4189 51.1042 59.854C49.0016 60.289 46.627 60.5065 43.9806 60.5065H39.7935V74.4817H34.5188V37.3414C36.0052 36.9789 37.6547 36.7433 39.4673 36.6345C41.3161 36.4895 43.0018 36.417 44.5244 36.417ZM44.9595 41.0391C42.7118 41.0391 40.9898 41.0935 39.7935 41.2023V55.9931H43.7631C45.5757 55.9931 47.2071 55.8844 48.6572 55.6669C50.1072 55.4131 51.3217 55.0143 52.3005 54.4705C53.3156 53.8905 54.095 53.1111 54.6388 52.1323C55.1825 51.1535 55.4544 49.9028 55.4544 48.3802C55.4544 46.9301 55.1644 45.7338 54.5844 44.7912C54.0406 43.8487 53.2793 43.1055 52.3005 42.5617C51.3579 41.9817 50.2523 41.5829 48.9834 41.3654C47.7146 41.1479 46.3733 41.0391 44.9595 41.0391ZM73.8559 70.8384C75.9223 70.8384 77.4449 70.5665 78.4237 70.0227C79.4387 69.4789 79.9463 68.6089 79.9463 67.4125C79.9463 66.18 79.4569 65.2012 78.4781 64.4761C77.4992 63.7511 75.886 62.9354 73.6384 62.0291C72.5508 61.5941 71.4995 61.159 70.4845 60.724C69.5057 60.2527 68.6537 59.709 67.9287 59.0927C67.2037 58.4764 66.6236 57.7332 66.1886 56.8632C65.7536 55.9931 65.5361 54.9237 65.5361 53.6549C65.5361 51.1535 66.4605 49.1777 68.3093 47.7276C70.1582 46.2413 72.6777 45.4981 75.8679 45.4981C76.6654 45.4981 77.463 45.5525 78.2605 45.6613C79.0581 45.7338 79.8013 45.8425 80.49 45.9875C81.1788 46.0963 81.777 46.2232 82.2845 46.3682C82.8283 46.5132 83.2452 46.6401 83.5352 46.7488L82.6108 51.0991C82.067 50.8091 81.2151 50.5191 80.055 50.229C78.895 49.9028 77.4992 49.7396 75.8679 49.7396C74.4541 49.7396 73.2215 50.0297 72.1702 50.6097C71.1189 51.1535 70.5932 52.0235 70.5932 53.2198C70.5932 53.8361 70.702 54.3799 70.9195 54.8512C71.1733 55.3225 71.5358 55.7575 72.0071 56.1563C72.5146 56.5188 73.1309 56.8632 73.8559 57.1894C74.581 57.5157 75.451 57.8601 76.4661 58.2226C77.8074 58.7302 79.0037 59.2377 80.055 59.7452C81.1063 60.2165 81.9945 60.7784 82.7195 61.4309C83.4808 62.0835 84.0609 62.881 84.4596 63.8236C84.8584 64.7299 85.0578 65.8537 85.0578 67.195C85.0578 69.8052 84.079 71.7809 82.1214 73.1222C80.2 74.4636 77.4449 75.1342 73.8559 75.1342C71.3545 75.1342 69.3969 74.9167 67.9831 74.4817C66.5692 74.0829 65.6086 73.7748 65.101 73.5573L66.0255 69.207C66.6055 69.4245 67.5299 69.7508 68.7987 70.1858C70.0676 70.6208 71.7533 70.8384 73.8559 70.8384Z" fill="url(#paint1_linear_1_46)"/>
</g>
<defs>
<filter id="filter0_i_1_46" x="34.5189" y="36.417" width="51.404" height="39.2116" filterUnits="userSpaceOnUse" color-interpolation-filters="sRGB">
<feFlood flood-opacity="0" result="BackgroundImageFix"/>
<feBlend mode="normal" in="SourceGraphic" in2="BackgroundImageFix" result="shape"/>
<feColorMatrix in="SourceAlpha" type="matrix" values="0 0 0 0 0 0 0 0 0 0 0 0 0 0 0 0 0 0 127 0" result="hardAlpha"/>
<feOffset dx="0.865107" dy="0.494347"/>
<feGaussianBlur stdDeviation="0.55614"/>
<feComposite in2="hardAlpha" operator="arithmetic" k2="-1" k3="1"/>
<feColorMatrix type="matrix" values="0 0 0 0 1 0 0 0 0 1 0 0 0 0 1 0 0 0 0.15 0"/>
<feBlend mode="normal" in2="shape" result="effect1_innerShadow_1_46"/>
</filter>
<linearGradient id="paint0_linear_1_46" x1="0" y1="0" x2="116.789" y2="116.789" gradientUnits="userSpaceOnUse">
<stop stop-color="#00C2FF"/>
<stop offset="1" stop-color="#2F80ED"/>
</linearGradient>
<linearGradient id="paint1_linear_1_46" x1="3.21326" y1="23.4817" x2="56.1016" y2="117.836" gradientUnits="userSpaceOnUse">
<stop stop-color="#00C2FF"/>
<stop offset="1" stop-color="#2F80ED"/>
</linearGradient>
</defs>
</svg>
