<svg width="20" height="15" viewBox="0 0 20 15" fill="none" xmlns="http://www.w3.org/2000/svg">
<path d="M0.886316 6.39675H16.4731L11.7818 1.70547C11.6972 1.62371 11.6296 1.52591 11.5832 1.41778C11.5367 1.30965 11.5123 1.19334 11.5113 1.07566C11.5102 0.957974 11.5327 0.841265 11.5772 0.732339C11.6218 0.623414 11.6876 0.524455 11.7708 0.441237C11.854 0.358018 11.953 0.292206 12.0619 0.247641C12.1709 0.203077 12.2876 0.180651 12.4052 0.181674C12.5229 0.182697 12.6392 0.207147 12.7474 0.253598C12.8555 0.300049 12.9533 0.367571 13.0351 0.452223L19.2393 6.65644C19.4054 6.82265 19.4988 7.04805 19.4988 7.28307C19.4988 7.51808 19.4054 7.74348 19.2393 7.90969L13.0351 14.1139C12.8679 14.2754 12.644 14.3647 12.4116 14.3627C12.1792 14.3607 11.9569 14.2674 11.7926 14.1031C11.6283 13.9388 11.5351 13.7165 11.533 13.4841C11.531 13.2517 11.6204 13.0278 11.7818 12.8607L16.4731 8.16938H0.886316C0.65125 8.16938 0.425812 8.076 0.259595 7.90979C0.0933784 7.74357 -4.43499e-07 7.51813 -4.43499e-07 7.28307C-4.43499e-07 7.048 0.0933784 6.82256 0.259595 6.65635C0.425812 6.49013 0.65125 6.39675 0.886316 6.39675Z" fill="black"/>
</svg>
