<svg width="200" height="200" viewBox="0 0 200 200" fill="none" xmlns="http://www.w3.org/2000/svg">
<g clip-path="url(#clip0_356_460)">
<path fill-rule="evenodd" clip-rule="evenodd" d="M200 100C200 73.4784 189.464 48.043 170.711 29.2893C151.957 10.5357 126.522 0 100 0C73.4784 0 48.043 10.5357 29.2893 29.2893C10.5357 48.043 0 73.4784 0 100C0 126.522 10.5357 151.957 29.2893 170.711C48.043 189.464 73.4784 200 100 200C126.522 200 151.957 189.464 170.711 170.711C189.464 151.957 200 126.522 200 100ZM149.143 70.7429C149.143 78.8143 142.614 85.3571 134.543 85.3714H134.514C130.712 85.2583 127.102 83.6696 124.45 80.9417C121.798 78.2138 120.312 74.5609 120.307 70.7565C120.301 66.9521 121.777 63.2948 124.42 60.5592C127.064 57.8235 130.669 56.2243 134.471 56.1H134.514C142.586 56.1 149.143 62.6571 149.143 70.7429ZM80.1286 70.7429C80.1286 78.8143 73.6 85.3571 65.5286 85.3714H65.4857C61.6831 85.2564 58.0745 83.6659 55.424 80.9367C52.7736 78.2075 51.2894 74.5539 51.2857 70.7496C51.282 66.9452 52.759 63.2887 55.4041 60.5544C58.0493 57.82 61.6547 56.2225 65.4571 56.1H65.4857C73.5714 56.1 80.1286 62.6571 80.1286 70.7429ZM59.8429 110.857C59.5761 109.685 59.0754 108.579 58.3708 107.605C57.6661 106.63 56.772 105.809 55.742 105.189C54.7121 104.569 53.5675 104.163 52.3769 103.996C51.1864 103.829 49.9743 103.904 48.8135 104.217C47.6527 104.53 46.5671 105.074 45.6216 105.816C44.6762 106.559 43.8905 107.485 43.3115 108.539C42.7326 109.592 42.3725 110.752 42.2527 111.948C42.1328 113.144 42.2558 114.352 42.6143 115.5C46.0225 128.119 53.4934 139.264 63.8716 147.211C74.2498 155.158 86.9571 159.465 100.029 159.465C113.1 159.465 125.807 155.158 136.186 147.211C146.564 139.264 154.035 128.119 157.443 115.5C157.753 114.366 157.836 113.182 157.688 112.016C157.54 110.85 157.162 109.724 156.578 108.704C155.993 107.684 155.213 106.79 154.282 106.072C153.351 105.354 152.288 104.828 151.152 104.522C150.017 104.216 148.833 104.138 147.667 104.291C146.502 104.444 145.378 104.826 144.36 105.415C143.343 106.003 142.451 106.787 141.737 107.721C141.023 108.655 140.501 109.721 140.2 110.857C137.813 119.684 132.585 127.48 125.324 133.038C118.063 138.596 109.173 141.608 100.029 141.608C90.8842 141.608 81.9945 138.596 74.7334 133.038C67.4723 127.48 62.2299 119.684 59.8429 110.857Z" fill="#8C8265"/>
</g>
<defs>
<clipPath id="clip0_356_460">
<rect width="200" height="200" fill="white"/>
</clipPath>
</defs>
</svg>
