<svg width="100" height="100" viewBox="0 0 100 100" fill="none" xmlns="http://www.w3.org/2000/svg">
<path d="M75 83.3333L90.9333 67.4C91.4023 66.9316 91.6661 66.2961 91.6667 65.6333V43.75C91.6667 42.0924 91.0082 40.5027 89.8361 39.3306C88.664 38.1585 87.0743 37.5 85.4167 37.5C83.7591 37.5 82.1694 38.1585 80.9973 39.3306C79.8251 40.5027 79.1667 42.0924 79.1667 43.75V62.5" stroke="#3092FE" stroke-width="6.25" stroke-linecap="round" stroke-linejoin="round"/>
<path d="M75 66.6667L78.575 63.0917C78.7636 62.9047 78.913 62.682 79.0146 62.4366C79.1162 62.1912 79.1679 61.9281 79.1667 61.6625C79.1638 61.2883 79.0581 60.9221 78.8611 60.604C78.6642 60.2858 78.3836 60.0279 78.05 59.8583L76.2042 58.9375C74.6404 58.1556 72.8703 57.8854 71.1444 58.165C69.4186 58.4447 67.8244 59.2601 66.5875 60.4958L62.8584 64.225C61.2955 65.7874 60.4172 67.9067 60.4167 70.1167V83.3333M25 83.3333L9.06671 67.4C8.59773 66.9316 8.33396 66.2961 8.33337 65.6333V43.75C8.33337 42.0924 8.99185 40.5027 10.164 39.3306C11.3361 38.1585 12.9258 37.5 14.5834 37.5C16.241 37.5 17.8307 38.1585 19.0028 39.3306C20.1749 40.5027 20.8334 42.0924 20.8334 43.75V62.5" stroke="#3092FE" stroke-width="6.25" stroke-linecap="round" stroke-linejoin="round"/>
<path d="M25 66.6665L21.425 63.0915C21.0517 62.7087 20.8399 62.197 20.8334 61.6623C20.8334 60.8998 21.2667 60.204 21.95 59.8582L23.7959 58.9373C25.3597 58.1554 27.1298 57.8852 28.8556 58.1649C30.5815 58.4445 32.1757 59.2599 33.4125 60.4957L37.1417 64.2248C38.7046 65.7873 39.5829 67.9065 39.5834 70.1165V83.3332M56.9459 49.9998H43.0542V40.279H33.3334V26.3873H43.0542V16.6665H56.9459V26.3873H66.6667V40.279H56.9459V49.9998Z" stroke="#3092FE" stroke-width="6.25" stroke-linecap="round" stroke-linejoin="round"/>
</svg>
