<svg width="200" height="200" viewBox="0 0 200 200" fill="none" xmlns="http://www.w3.org/2000/svg">
<g clip-path="url(#clip0_354_450)">
<path d="M84.7656 142.676C88.9974 144.824 92.806 147.461 96.1914 150.586C99.5768 153.711 102.507 157.227 104.98 161.133C107.454 165.039 109.31 169.206 110.547 173.633C111.784 178.06 112.435 182.682 112.5 187.5H100C100 182.357 99.0234 177.507 97.0703 172.949C95.1172 168.392 92.4479 164.421 89.0625 161.035C85.6771 157.65 81.6732 154.948 77.0508 152.93C72.4284 150.912 67.5781 149.935 62.5 150C57.2917 150 52.4414 150.977 47.9492 152.93C43.457 154.883 39.4857 157.552 36.0352 160.938C32.5846 164.323 29.8828 168.327 27.9297 172.949C25.9766 177.572 25 182.422 25 187.5H12.5C12.5 182.748 13.151 178.158 14.4531 173.731C15.7552 169.304 17.6107 165.137 20.0195 161.231C22.4284 157.324 25.3255 153.809 28.7109 150.684C32.0964 147.559 35.9375 144.889 40.2344 142.676C35.4167 139.095 31.6732 134.668 29.0039 129.395C26.3346 124.121 25 118.49 25 112.5C25 107.357 25.9766 102.507 27.9297 97.9493C29.8828 93.392 32.5521 89.4207 35.9375 86.0353C39.3229 82.6499 43.2943 79.948 47.8516 77.9298C52.4089 75.9116 57.2917 74.935 62.5 75.0001C68.4896 75.0001 74.1211 76.3348 79.3945 79.004C84.668 81.6733 89.0951 85.4168 92.6758 90.2345C95.1497 85.3517 98.3073 80.9897 102.148 77.1486C105.99 73.3074 110.352 70.1499 115.234 67.6759C110.417 64.0952 106.673 59.6681 104.004 54.3947C101.335 49.1212 100 43.4897 100 37.5001C100 32.3569 100.977 27.5066 102.93 22.9493C104.883 18.392 107.552 14.4207 110.938 11.0353C114.323 7.64986 118.294 4.94804 122.852 2.92981C127.409 0.91158 132.292 -0.0649821 137.5 0.00012207C142.643 0.00012207 147.493 0.976685 152.051 2.92981C156.608 4.88293 160.579 7.55221 163.965 10.9376C167.35 14.323 170.052 18.3269 172.07 22.9493C174.089 27.5717 175.065 32.422 175 37.5001C175 43.4897 173.665 49.1212 170.996 54.3947C168.327 59.6681 164.583 64.0952 159.766 67.6759C163.997 69.8243 167.806 72.4611 171.191 75.5861C174.577 78.7111 177.507 82.2267 179.98 86.1329C182.454 90.0392 184.31 94.2059 185.547 98.6329C186.784 103.06 187.435 107.682 187.5 112.5H175C175 107.357 174.023 102.507 172.07 97.9493C170.117 93.392 167.448 89.4207 164.062 86.0353C160.677 82.6499 156.673 79.948 152.051 77.9298C147.428 75.9116 142.578 74.935 137.5 75.0001C132.292 75.0001 127.441 75.9767 122.949 77.9298C118.457 79.8829 114.486 82.5522 111.035 85.9376C107.585 89.323 104.883 93.3269 102.93 97.9493C100.977 102.572 100 107.422 100 112.5C100 118.49 98.6654 124.121 95.9961 129.395C93.3268 134.668 89.5833 139.095 84.7656 142.676ZM112.5 37.5001C112.5 40.9506 113.151 44.1733 114.453 47.1681C115.755 50.1629 117.546 52.8322 119.824 55.1759C122.103 57.5197 124.74 59.31 127.734 60.547C130.729 61.784 133.984 62.435 137.5 62.5001C140.951 62.5001 144.173 61.8491 147.168 60.547C150.163 59.2449 152.832 57.4545 155.176 55.1759C157.52 52.8973 159.31 50.2605 160.547 47.2657C161.784 44.271 162.435 41.0157 162.5 37.5001C162.5 34.0496 161.849 30.8269 160.547 27.8322C159.245 24.8374 157.454 22.1681 155.176 19.8243C152.897 17.4806 150.26 15.6902 147.266 14.4532C144.271 13.2163 141.016 12.5652 137.5 12.5001C134.049 12.5001 130.827 13.1512 127.832 14.4532C124.837 15.7553 122.168 17.5457 119.824 19.8243C117.48 22.103 115.69 24.7397 114.453 27.7345C113.216 30.7293 112.565 33.9845 112.5 37.5001ZM37.5 112.5C37.5 115.951 38.151 119.173 39.4531 122.168C40.7552 125.163 42.5456 127.832 44.8242 130.176C47.1029 132.52 49.7396 134.31 52.7344 135.547C55.7292 136.784 58.9844 137.435 62.5 137.5C65.9505 137.5 69.1732 136.849 72.168 135.547C75.1628 134.245 77.832 132.455 80.1758 130.176C82.5195 127.897 84.3099 125.261 85.5469 122.266C86.7839 119.271 87.4349 116.016 87.5 112.5C87.5 109.05 86.849 105.827 85.5469 102.832C84.2448 99.8374 82.4544 97.1681 80.1758 94.8243C77.8971 92.4806 75.2604 90.6902 72.2656 89.4532C69.2708 88.2163 66.0156 87.5652 62.5 87.5001C59.0495 87.5001 55.8268 88.1512 52.832 89.4532C49.8372 90.7553 47.168 92.5457 44.8242 94.8243C42.4805 97.103 40.6901 99.7397 39.4531 102.734C38.2161 105.729 37.5651 108.984 37.5 112.5ZM184.375 200L156.25 178.027L128.125 200L139.453 164.844L112.5 143.75H146.191L156.25 112.5L166.309 143.75H200L173.047 164.844L184.375 200Z" fill="#838AE0"/>
</g>
<defs>
<clipPath id="clip0_354_450">
<rect width="200" height="200" fill="white"/>
</clipPath>
</defs>
</svg>
