<svg width="200" height="200" viewBox="0 0 200 200" fill="none" xmlns="http://www.w3.org/2000/svg">
<path d="M100 158.416L100.083 158.325" stroke="#3192FF" stroke-width="12.5" stroke-linecap="round" stroke-linejoin="round"/>
<path d="M150 150V178.333C150 178.99 149.871 179.64 149.619 180.247C149.368 180.853 149 181.404 148.536 181.869C148.071 182.333 147.52 182.701 146.913 182.953C146.307 183.204 145.657 183.333 145 183.333H55C54.3434 183.333 53.6932 183.204 53.0866 182.953C52.48 182.701 51.9288 182.333 51.4645 181.869C51.0002 181.404 50.6319 180.853 50.3806 180.247C50.1293 179.64 50 178.99 50 178.333V150M150 49.9998V21.6665C150 20.3404 149.473 19.0687 148.536 18.131C147.598 17.1933 146.326 16.6665 145 16.6665H55C53.6739 16.6665 52.4021 17.1933 51.4645 18.131C50.5268 19.0687 50 20.3404 50 21.6665V49.9998" stroke="#3192FF" stroke-width="12.5" stroke-linecap="round"/>
<path d="M129.167 70.833L158.333 99.9997L129.167 129.166M70.8333 70.833L41.6666 99.9997L70.8333 129.166" stroke="#3192FF" stroke-width="12.5" stroke-linecap="round" stroke-linejoin="round"/>
</svg>
