<svg width="200" height="200" viewBox="0 0 200 200" fill="none" xmlns="http://www.w3.org/2000/svg">
<path d="M63.8458 94.9585C46.4292 92.1294 32.2917 102.334 31.2167 122.279C44.5917 112.004 57.6208 118.088 57.6208 118.088" stroke="#EC7C47" stroke-width="4.16667" stroke-linecap="round" stroke-linejoin="round"/>
<path d="M34.3208 166.708C58.0916 165.875 71.2291 155.125 73.7375 143.3C73.7375 143.3 104.075 148.796 139.312 113.558C170.604 82.2667 168.692 32.3375 168.692 32.3375C168.692 32.3375 118.767 30.4292 87.4708 61.7208C52.2375 96.9583 57.7333 127.296 57.7333 127.296C45.9083 129.804 35.1583 142.942 34.3208 166.712" stroke="#EC7C47" stroke-width="4.16667" stroke-linecap="round" stroke-linejoin="round"/>
<path d="M82.9416 143.408C82.9416 143.408 89.0249 156.437 78.7541 169.812C98.6999 168.741 108.904 154.604 106.071 137.187L63.8416 94.9623M57.7333 127.296L73.7374 143.3M70.0791 83.2915L117.746 130.962M131.546 37.2998L163.775 69.529" stroke="#EC7C47" stroke-width="4.16667" stroke-linecap="round" stroke-linejoin="round"/>
<path d="M120.7 96.5915C129.656 96.5915 136.917 89.3311 136.917 80.3749C136.917 71.4187 129.656 64.1582 120.7 64.1582C111.744 64.1582 104.483 71.4187 104.483 80.3749C104.483 89.3311 111.744 96.5915 120.7 96.5915Z" stroke="#EC7C47" stroke-width="4.16667" stroke-linecap="round" stroke-linejoin="round"/>
</svg>
